<svg width="35" height="36" viewBox="0 0 35 36" fill="none" xmlns="http://www.w3.org/2000/svg">
<path d="M15.6438 0.0895271C13.63 0.313168 11.5552 0.963753 9.37864 2.08195C7.87336 2.87485 7.18175 3.40345 5.41203 5.17223C2.99138 7.59159 1.93362 9.25872 0.957221 12.1864C-1.28035 18.9158 0.469023 26.1536 5.53408 31.094C14.1589 39.5109 28.2556 36.7256 33.4021 25.5843C35.6396 20.7659 35.5176 14.6667 33.0969 9.82798C32.0595 7.77457 31.4086 6.85968 29.6592 5.11123C25.9977 1.3907 20.8716 -0.439072 15.6438 0.0895271ZM17.678 5.96513C18.4306 6.83935 19.0409 7.71358 19.0409 7.89655C19.0409 8.14052 19.6511 7.91689 21.6853 6.90034C23.1702 6.16844 24.4518 5.63984 24.6348 5.70083C24.7976 5.76182 25.3264 6.61571 25.8146 7.59159C26.5469 9.09607 26.7707 9.40103 27.442 9.68566C28.5404 10.1736 28.8049 10.9462 28.8049 13.7112V15.9475H24.8789C22.0921 15.9475 20.892 16.0085 20.7089 16.1915C20.5462 16.3542 20.4648 17.2081 20.4648 18.7329C20.4648 20.7863 20.5055 21.0302 20.8513 21.2336C21.0954 21.3555 22.8244 21.4369 25.0417 21.4369H28.8455L28.7642 23.6733C28.7031 25.8893 28.6828 25.9096 28.0319 26.5602L27.3809 27.2311L17.8204 27.2921C7.12072 27.3531 7.08004 27.3531 6.53082 26.0316C6.0833 24.9948 6.0833 11.8001 6.51048 10.7632C6.85628 9.92963 7.73097 9.44169 8.91078 9.44169C9.72445 9.42136 9.96854 9.27905 12.735 6.90034C14.3623 5.49752 15.8269 4.359 16.01 4.359C16.1931 4.359 16.9457 5.07057 17.678 5.96513ZM29.7813 18.4686C29.8219 19.7697 29.7609 20.5626 29.5982 20.7456C29.2931 21.1319 21.5022 21.1726 21.1157 20.7863C20.8513 20.522 20.7699 16.7404 21.014 16.4761C21.0954 16.4152 23.0889 16.3745 25.4282 16.3948L29.7202 16.4558L29.7813 18.4686Z" fill="#007279"/>
<path d="M14.9871 7.70654C14.4559 8.11028 13.3935 8.90094 12.6172 9.4729L11.228 10.5327H9.61398C8.67419 10.5327 8 10.6 8 10.7009C8 10.8019 9.61398 10.8692 12.4538 10.8692C14.8849 10.8692 19.1548 10.9028 21.9538 10.9533C25.4677 11.0374 27 11.0037 27 10.886C27 10.7682 26.5097 10.7009 25.7742 10.7009C24.814 10.7009 24.5484 10.6505 24.5484 10.4486C24.5484 10.314 24.6914 10.1963 24.8548 10.1963C25.0591 10.1963 25.1 10.1122 24.9978 9.89346C24.671 9.27103 24.0376 8.51402 23.8333 8.51402C23.7108 8.51402 22.1581 8.96823 20.4011 9.52337C17.071 10.5495 16.3968 10.6505 13.3527 10.5664L12.0452 10.5327L13.9043 9.27103C14.9258 8.58131 15.8043 8.00935 15.886 8.00935C15.9473 8.00935 16.1925 8.19439 16.3968 8.42991C16.8054 8.85047 17.3978 8.83365 17.3978 8.39626C17.3978 8.1271 16.3559 7 16.1108 7C16.029 7 15.5183 7.31963 14.9871 7.70654ZM23.8129 9.45608C23.8946 9.64113 23.7925 9.82617 23.5269 9.97757C23.3021 10.1122 23.1183 10.3308 23.1183 10.4654C23.1183 10.6505 22.6892 10.7009 20.8301 10.7009C19.5839 10.7009 18.6237 10.6505 18.7054 10.5664C18.9097 10.3981 22.9344 9.20374 23.343 9.20374C23.5269 9.18692 23.7516 9.30468 23.8129 9.45608Z" fill="#007279"/>
</svg>
