<svg width="57" height="57" viewBox="0 0 57 57" fill="none" xmlns="http://www.w3.org/2000/svg">
<path d="M20.7774 40.7902C20.4414 40.7902 20.1054 40.6616 19.8481 40.407L2.21598 22.7722C0.168484 20.7247 0.168484 17.3936 2.21598 15.3461C4.26873 13.2986 7.59723 13.3039 9.63949 15.3461L25.4184 31.125C25.9302 31.6369 25.9302 32.469 25.4184 32.9809C24.9065 33.4927 24.0744 33.4927 23.5625 32.9809L7.78361 17.202C6.76511 16.1835 5.10086 16.1809 4.07186 17.202C3.57836 17.6981 3.30273 18.357 3.30273 19.0579C3.30273 19.7614 3.57573 20.4202 4.07186 20.9164L21.7066 38.5485C22.2185 39.0604 22.2185 39.8925 21.7066 40.4044C21.4494 40.6616 21.1134 40.7902 20.7774 40.7902Z" fill="black"/>
<path d="M30.0594 27.7965C29.7234 27.7965 29.3874 27.6679 29.1301 27.4132L11.498 9.77849C10.4716 8.75211 8.80999 8.75211 7.78362 9.77849C7.29012 10.2746 7.01449 10.9335 7.01449 11.6344C7.01449 12.3352 7.28749 12.9941 7.78362 13.4902L9.63949 15.3461C10.1514 15.858 10.1514 16.6901 9.63949 17.202C9.12762 17.7139 8.29549 17.7139 7.78362 17.202L5.92775 15.3461C4.9355 14.3539 4.3895 13.0361 4.3895 11.6344C4.3895 10.2326 4.9355 8.91486 5.92775 7.92261C7.90962 5.94074 11.3667 5.93549 13.3539 7.92261L30.986 25.5574C31.4979 26.0692 31.4979 26.9014 30.986 27.4132C30.7287 27.6705 30.3954 27.7965 30.0594 27.7965Z" fill="black"/>
<path d="M35.6297 22.2289C35.2937 22.2289 34.9577 22.1003 34.7004 21.8456L20.7774 7.92264C19.751 6.89627 18.092 6.89627 17.0656 7.92264C16.0419 8.94639 16.0419 10.6106 17.0656 11.6344C17.5775 12.1463 17.5775 12.9784 17.0656 13.4903C16.5538 14.0021 15.7216 14.0021 15.2098 13.4903C13.1649 11.4454 13.1649 8.11164 15.2098 6.06677C17.2546 4.02189 20.5884 4.02189 22.6333 6.06677L36.5563 19.9898C37.0682 20.5016 37.0682 21.3338 36.5563 21.8456C36.3017 22.1003 35.9657 22.2289 35.6297 22.2289Z" fill="black"/>
<path d="M34.1964 56.4667C33.3117 56.4667 32.4166 56.367 31.5294 56.1648L9.42685 51.0986C8.47135 50.8991 7.58148 50.4108 6.85698 49.6863C5.86473 48.6941 5.3161 47.3737 5.3161 45.9746C5.3161 44.5728 5.86473 43.2551 6.85698 42.2628C7.53948 41.5803 8.36898 41.1105 9.2641 40.8926C9.29035 40.8821 9.3166 40.8768 9.34285 40.869L20.4729 38.1993C21.179 38.0235 21.8877 38.4671 22.0557 39.1706C22.2237 39.8767 21.788 40.5828 21.0845 40.7535L10.0306 43.4047C9.99648 43.4152 9.96235 43.4257 9.9256 43.4336C9.4846 43.5307 9.0646 43.7696 8.71285 44.1213C8.21673 44.6175 7.9411 45.2763 7.9411 45.9772C7.9411 46.6781 8.2141 47.337 8.71285 47.8331C9.06198 48.1822 9.4951 48.429 9.93085 48.5261C9.94923 48.5287 9.96498 48.5313 9.98073 48.5366L32.1174 53.6107C35.2227 54.3221 38.4174 53.4033 40.667 51.1511L51.4085 40.407C53.1436 38.6718 54.0991 36.3645 54.0991 33.9101C54.0991 31.4557 53.1436 29.151 51.4085 27.4132L28.2061 4.21084C27.1797 3.18446 25.5207 3.18446 24.4944 4.21084C23.4706 5.23459 23.4706 6.89884 24.4944 7.92259C25.0062 8.43446 25.0062 9.26659 24.4944 9.77846C23.9825 10.2903 23.1504 10.2903 22.6385 9.77846C20.5936 7.73359 20.5936 4.39984 22.6385 2.35496C24.6834 0.310085 28.0171 0.310085 30.062 2.35496L53.2644 25.5573C55.4982 27.7886 56.7241 30.7522 56.7241 33.9101C56.7241 37.068 55.4956 40.0316 53.2644 42.2628L42.5229 53.007C40.2706 55.2513 37.2886 56.4667 34.1964 56.4667Z" fill="black"/>
</svg>
