<svg width="35" height="36" viewBox="0 0 35 36" fill="none" xmlns="http://www.w3.org/2000/svg">
<path d="M17.5 19.7349C15.9529 19.7349 14.4692 20.3494 13.3752 21.4434C12.2812 22.5374 11.6667 24.0211 11.6667 25.5682C11.6667 27.1153 12.2812 28.599 13.3752 29.693C14.4692 30.787 15.9529 31.4015 17.5 31.4015C19.0471 31.4015 20.5308 30.787 21.6248 29.693C22.7187 28.599 23.3333 27.1153 23.3333 25.5682C23.3333 24.0211 22.7187 22.5374 21.6248 21.4434C20.5308 20.3494 19.0471 19.7349 17.5 19.7349ZM15 25.5682C15 24.9052 15.2634 24.2693 15.7322 23.8004C16.2011 23.3316 16.8369 23.0682 17.5 23.0682C18.163 23.0682 18.7989 23.3316 19.2678 23.8004C19.7366 24.2693 20 24.9052 20 25.5682C20 26.2312 19.7366 26.8671 19.2678 27.336C18.7989 27.8048 18.163 28.0682 17.5 28.0682C16.8369 28.0682 16.2011 27.8048 15.7322 27.336C15.2634 26.8671 15 26.2312 15 25.5682Z" fill="#007279"/>
<path d="M26.71 7.42833L21.4117 0L1.93 15.5633L0.85 15.5517V15.5683H0V35.5683H35V15.5683H33.3967L30.2067 6.23667L26.71 7.42833ZM29.875 15.5683H13.1617L25.61 11.325L28.1467 10.5133L29.875 15.5683ZM23.4167 8.55167L10.5667 12.9317L20.7433 4.80167L23.4167 8.55167ZM3.33333 29.1833V21.95C4.03649 21.7008 4.67518 21.2979 5.20283 20.7705C5.73047 20.2432 6.13378 19.6047 6.38333 18.9017H28.6167C28.8661 19.6049 29.2694 20.2437 29.797 20.7713C30.3247 21.299 30.9634 21.7022 31.6667 21.9517V29.185C30.9634 29.4344 30.3247 29.8377 29.797 30.3653C29.2694 30.893 28.8661 31.5317 28.6167 32.235H6.38667C6.13697 31.5311 5.73327 30.8919 5.20503 30.3639C4.67679 29.836 4.03734 29.4326 3.33333 29.1833Z" fill="#007279"/>
</svg>
