<svg width="35" height="35" viewBox="0 0 35 35" fill="none" xmlns="http://www.w3.org/2000/svg">
<path d="M24.9812 26.4688L24.2375 25.725C23.975 25.4625 23.6617 25.3313 23.2977 25.3313C22.9338 25.3313 22.6199 25.4625 22.3562 25.725C22.0938 25.9875 21.9625 26.2938 21.9625 26.6438C21.9625 26.9938 22.0938 27.3 22.3562 27.5625L24.0625 29.2688C24.325 29.5313 24.6312 29.6625 24.9812 29.6625C25.3312 29.6625 25.6375 29.5313 25.9 29.2688L30.1438 25.1125C30.4062 24.85 30.5375 24.5362 30.5375 24.171C30.5375 23.8058 30.4062 23.4926 30.1438 23.2313C29.8813 22.9688 29.5674 22.8375 29.2023 22.8375C28.8371 22.8375 28.5238 22.9688 28.2625 23.2313L24.9812 26.4688ZM24.5 10.5C24.9958 10.5 25.4117 10.332 25.7477 9.996C26.0837 9.66 26.2512 9.24467 26.25 8.75C26.25 8.25417 26.082 7.83825 25.746 7.50225C25.41 7.16625 24.9947 6.99884 24.5 7H7C6.50417 7 6.08825 7.168 5.75225 7.504C5.41625 7.84 5.24883 8.25534 5.25 8.75C5.25 9.24584 5.418 9.66175 5.754 9.99775C6.09 10.3338 6.50533 10.5012 7 10.5H24.5ZM26.25 35C23.8292 35 21.7659 34.1466 20.0603 32.4398C18.3546 30.7329 17.5012 28.6697 17.5 26.25C17.5 23.8292 18.3534 21.7653 20.0603 20.0585C21.7671 18.3517 23.8303 17.4988 26.25 17.5C28.6708 17.5 30.7347 18.3534 32.4415 20.0603C34.1483 21.7671 35.0012 23.8303 35 26.25C35 28.6708 34.1466 30.7347 32.4398 32.4415C30.7329 34.1483 28.6697 35.0012 26.25 35ZM3.5 2.97114e-06H28C28.9625 2.97114e-06 29.7868 0.343003 30.4727 1.029C31.1588 1.715 31.5012 2.53867 31.5 3.5V15.1813C30.6833 14.7729 29.8299 14.4737 28.9398 14.2835C28.0496 14.0933 27.153 13.9988 26.25 14H7C6.50417 14 6.08825 14.168 5.75225 14.504C5.41625 14.84 5.24883 15.2553 5.25 15.75C5.25 16.2458 5.418 16.6618 5.754 16.9978C6.09 17.3338 6.50533 17.5012 7 17.5H17.675C17.1792 17.9958 16.7201 18.5354 16.2977 19.1188C15.8754 19.7021 15.5033 20.3292 15.1813 21H7C6.50417 21 6.08825 21.168 5.75225 21.504C5.41625 21.84 5.24883 22.2553 5.25 22.75C5.25 23.2458 5.418 23.6618 5.754 23.9978C6.09 24.3337 6.50533 24.5012 7 24.5H14.1312C14.0729 24.7917 14.0362 25.0763 14.021 25.354C14.0058 25.6317 13.9988 25.9303 14 26.25C14 27.475 14.168 28.6493 14.504 29.7728C14.84 30.8963 15.3428 31.9678 16.0125 32.9875C15.8667 33.0167 15.7133 32.9945 15.5522 32.921C15.3913 32.8475 15.253 32.753 15.1375 32.6375L13.7375 31.2375C13.5625 31.0625 13.3583 30.975 13.125 30.975C12.8917 30.975 12.6875 31.0625 12.5125 31.2375L11.1125 32.6375C10.9375 32.8125 10.7333 32.9 10.5 32.9C10.2667 32.9 10.0625 32.8125 9.8875 32.6375L8.4875 31.2375C8.3125 31.0625 8.10833 30.975 7.875 30.975C7.64167 30.975 7.4375 31.0625 7.2625 31.2375L5.8625 32.6375C5.6875 32.8125 5.48333 32.9 5.25 32.9C5.01667 32.9 4.8125 32.8125 4.6375 32.6375L3.2375 31.2375C3.0625 31.0625 2.85833 30.975 2.625 30.975C2.39167 30.975 2.1875 31.0625 2.0125 31.2375L0.6125 32.6375L0 33.0312V3.5C0 2.5375 0.343 1.71325 1.029 1.02725C1.715 0.341253 2.53867 -0.0011637 3.5 2.97114e-06Z" fill="#007279"/>
</svg>
