<svg width="35" height="30" viewBox="0 0 35 30" fill="none" xmlns="http://www.w3.org/2000/svg">
<path d="M19.5349 24.4186C19.5349 23.8651 19.6 23.3279 19.6814 22.7907H3.25581V13.0233H29.3023V14.6512C30.4419 14.6512 31.5326 14.8628 32.5581 15.2209V3.25581C32.5581 1.44884 31.1093 0 29.3023 0H3.25581C1.44884 0 0 1.44884 0 3.25581V22.7907C0 24.5814 1.44884 26.0465 3.25581 26.0465H19.6814C19.6 25.5093 19.5349 24.9721 19.5349 24.4186ZM3.25581 3.25581H29.3023V6.51163H3.25581V3.25581ZM27.2674 29.3023L22.7907 24.4186L24.6791 22.5302L27.2674 25.1186L33.1116 19.2744L35 21.5698L27.2674 29.3023Z" fill="#007279"/>
</svg>
