<svg width="322" height="182" viewBox="0 0 322 182" fill="none" xmlns="http://www.w3.org/2000/svg">
<path d="M74.2617 5.91C76.2167 4.60667 81.2606 2 85.7962 2C90.3318 2 192.213 2.26067 242.587 2.391C245.129 2.5865 251.033 3.5249 254.317 5.7145" stroke="black"/>
<path d="M97.3301 80.7865L109.647 91.93C113.361 95.84 123.058 104.247 132.129 106.593C143.468 109.525 151.484 112.458 193.125 107.57C198.013 106.136 209.704 101.392 217.367 93.885C225.031 86.3778 230.466 81.6337 232.225 80.2M97.3301 80.7865C83.4106 68.7437 71.4589 65.6027 67.223 65.5375C58.1517 63.8171 48.846 57.3917 45.3271 54.394M97.3301 80.7865C101.245 71.9791 102.498 63.4143 101.964 55.3715M232.225 80.2C243.486 69.8633 254.512 65.9877 258.618 65.342C274.101 62.214 281.231 56.4794 282.86 54.003M232.225 80.2C229.313 74.3752 226.695 64.9336 227.207 54.003M282.86 54.003C266.907 17.249 257.184 6.75717 254.317 6.1055C234.506 21.212 227.911 39.0086 227.207 54.003M282.86 54.003C287.552 60.3894 294.355 78.8706 284.033 101.705C282.273 112.197 274.336 133.689 256.663 135.722C238.99 137.755 128.349 137.482 75.2386 137.091C68.2006 136.439 52.9125 130.952 48.0641 114.217C42.0036 93.2985 33.5971 73.7485 45.3271 54.394M45.3271 54.394C57.0571 35.0395 64.0953 12.166 74.2611 5.91C84.571 13.9556 100.451 32.565 101.964 55.3715M101.964 55.3715C124.77 50.5492 181.747 43.5242 227.207 54.003" stroke="black"/>
<path d="M45.3275 54.7848L50.8015 58.6948L57.8395 62.4093L62.9225 64.5598L68.201 65.7328C68.201 65.7328 69.9516 65.8581 74.2615 67.2968C76.7254 68.1193 80.322 69.4473 84.0365 71.4023C87.751 73.3573 88.5825 74.5895 90.488 75.8988C96.2823 79.8799 98.5035 82.3503 98.5035 82.3503L109.256 91.7343L114.73 96.8173L120.791 101.509L127.047 105.028L133.498 106.983C146.278 110.958 158.035 111.081 184.328 108.938C186.479 108.547 193.969 109.091 203.683 103.66C213.396 98.2284 227.444 85.5138 226.752 85.4783L238.482 75.1168C243.462 71.9803 248.452 68.8608 252.362 67.2968C256.272 65.7328 263.701 64.3643 265.265 63.9733C266.122 63.7591 270.607 62.3977 274.845 60.2588C278.343 58.4927 281.418 56.3297 282.86 54.1983C287.748 63.1913 290.289 70.2293 288.725 85.4783C288.013 88.2646 287.552 90.9523 286.77 93.4938C286.184 96.4263 284.663 99.0743 283.838 101.705C282.86 106.397 281.703 110.099 280.319 113.435C274.843 126.635 268.245 132.124 258.227 134.94L249.43 135.526L240.632 135.917L226.752 136.308L213.067 136.504L166.733 136.699L74.6525 136.398L70.156 135.421L65.073 133.466L61.3585 131.315L57.8395 128.774L54.3205 125.059L51.5835 121.149L49.2375 116.262L47.6735 111.179L45.132 102.772L43.177 96.1254L41.0265 87.3279L40.049 80.2899L39.8535 74.2294L40.44 68.1689L41.4175 64.0634L42.395 60.9354L43.7635 57.6119L45.3275 54.7848Z" fill="#F1EADC"/>
<path d="M74 5.99957C86.121 15.5791 99.0908 33.0786 101.241 53.6061C101.528 58.7866 101.447 61.726 100.85 66.9001L100.264 70.0281L99.2863 73.5471L97.5 79.9996L84.8193 71.2011L84.2328 71.0056L82.4733 70.0281L80.5183 69.0506L78.3678 68.0731L73.8713 66.3136L68.9838 65.1406L68.3973 64.9451H67.4198H66.8333L66.0513 64.7496L61.1094 63.1031L53 58.9996L49 56.4996L46 53.9996C49.7145 47.7436 52.5618 40.6346 55.1033 35.4246C66.8333 11.3781 69.4045 9.24388 74 5.99957Z" fill="#F1EADC"/>
<path d="M74.6523 5.88893C77.9001 4.05526 80.9083 2.78177 84.2318 2.39213C85.6003 2.19527 94.68 2.2061 107.692 2.19679C145.417 2.62845 215.608 2.5649 242.782 2.564C249.011 3.08685 252.815 4.87682 254.179 5.8706C236.331 20.9633 227.924 34.6483 226.947 53.8073C198.795 45.9873 143.859 46.1828 102.218 55.1758C99.8719 34.8438 89.3149 17.4443 74.6523 5.88893Z" fill="#F1EADC"/>
<path d="M230.467 38.3628C235.94 23.5048 241.745 16.8265 254.318 6.30077C262.19 12.0588 268.454 22.757 282.665 54.0028C277.972 59.8678 267.22 63.1913 254.122 66.3193C245.324 69.4473 239.46 73.7483 232.422 79.8088C226.947 69.6428 225.578 50.8748 230.467 38.3628Z" fill="#F1EADC"/>
<path d="M102.217 55.3742C141.158 48.8006 168.557 47.0487 199.185 49.8975C203.502 50.299 207.93 50.8604 211.893 51.4615C216.5 52.1602 221.076 53.1237 226.946 54.0024C226.946 67.1322 228.706 72.8152 232.029 80.2619C225.187 85.6734 219.713 90.9519 214.239 96.2304C210.915 98.9674 204.789 102.529 200.749 104.246C197.426 106.005 196.644 106.592 192.343 107.374C181.004 108.938 167.541 110.207 156.371 109.853C148.764 109.759 141.029 108.793 132.911 106.521C129.067 105.446 127.241 104.759 123.527 102.683C119.615 100.496 116.151 97.5999 113.165 94.8629C111.033 92.9079 109.087 91.099 107.105 89.1934C105.786 87.9248 104.395 86.7199 102.999 85.4789C101.222 83.898 99.5505 82.1016 97.5254 80.6539C101.637 70.4626 102.608 64.9765 102.217 55.3742Z" fill="#6E9C9F"/>
<path d="M100.654 71.598L105.654 74.4848V68.7113L100.654 71.598ZM227.338 71.598L222.338 68.7113V74.4848L227.338 71.598ZM105.154 72.098L222.838 72.098V71.098L105.154 71.098V72.098Z" fill="black"/>
<path d="M155.393 48.529L152.474 53.5105L158.247 53.5473L155.393 48.529ZM155.002 109.916L157.92 104.935L152.147 104.898L155.002 109.916ZM154.864 53.0257L154.53 105.413L155.53 105.419L155.864 53.0321L154.864 53.0257Z" fill="black"/>
<path d="M175.48 65.16C174.493 65.16 173.533 65.0067 172.6 64.7C171.68 64.3933 170.927 63.98 170.34 63.46L171.26 61.88C171.727 62.32 172.333 62.68 173.08 62.96C173.827 63.24 174.62 63.38 175.46 63.38C176.527 63.38 177.347 63.1533 177.92 62.7C178.493 62.2467 178.78 61.64 178.78 60.88C178.78 60.36 178.653 59.9067 178.4 59.52C178.147 59.1333 177.707 58.84 177.08 58.64C176.467 58.4267 175.62 58.32 174.54 58.32H171.36L172.1 51H180V52.74H172.84L173.88 51.76L173.3 57.54L172.26 56.58H174.96C176.36 56.58 177.487 56.76 178.34 57.12C179.193 57.48 179.813 57.98 180.2 58.62C180.587 59.2467 180.78 59.9733 180.78 60.8C180.78 61.6 180.587 62.3333 180.2 63C179.813 63.6533 179.227 64.18 178.44 64.58C177.667 64.9667 176.68 65.16 175.48 65.16ZM188.724 65.16C187.484 65.16 186.424 64.8867 185.544 64.34C184.664 63.7933 183.991 63.0067 183.524 61.98C183.071 60.94 182.844 59.6733 182.844 58.18C182.844 56.5933 183.124 55.2533 183.684 54.16C184.244 53.0667 185.024 52.24 186.024 51.68C187.024 51.12 188.171 50.84 189.464 50.84C190.131 50.84 190.764 50.9067 191.364 51.04C191.978 51.1733 192.504 51.38 192.944 51.66L192.184 53.22C191.824 52.9667 191.411 52.7933 190.944 52.7C190.491 52.6067 190.011 52.56 189.504 52.56C188.078 52.56 186.944 53.0067 186.104 53.9C185.264 54.78 184.844 56.0933 184.844 57.84C184.844 58.12 184.858 58.4533 184.884 58.84C184.911 59.2267 184.978 59.6067 185.084 59.98L184.404 59.3C184.604 58.6867 184.918 58.1733 185.344 57.76C185.784 57.3333 186.304 57.02 186.904 56.82C187.518 56.6067 188.178 56.5 188.884 56.5C189.818 56.5 190.644 56.6733 191.364 57.02C192.084 57.3667 192.651 57.86 193.064 58.5C193.478 59.1267 193.684 59.8733 193.684 60.74C193.684 61.6333 193.464 62.4133 193.024 63.08C192.584 63.7467 191.991 64.26 191.244 64.62C190.498 64.98 189.658 65.16 188.724 65.16ZM188.644 63.54C189.258 63.54 189.791 63.4267 190.244 63.2C190.711 62.9733 191.078 62.66 191.344 62.26C191.611 61.8467 191.744 61.3667 191.744 60.82C191.744 59.9933 191.458 59.34 190.884 58.86C190.311 58.3667 189.531 58.12 188.544 58.12C187.904 58.12 187.344 58.24 186.864 58.48C186.384 58.72 186.004 59.0467 185.724 59.46C185.458 59.86 185.324 60.32 185.324 60.84C185.324 61.32 185.451 61.7667 185.704 62.18C185.958 62.58 186.331 62.9067 186.824 63.16C187.318 63.4133 187.924 63.54 188.644 63.54ZM206.879 65.12C205.799 65.12 204.833 64.8867 203.979 64.42C203.139 63.9533 202.479 63.3133 201.999 62.5C201.519 61.6867 201.279 60.7533 201.279 59.7C201.279 58.6467 201.519 57.7133 201.999 56.9C202.479 56.0867 203.139 55.4533 203.979 55C204.833 54.5333 205.799 54.3 206.879 54.3C207.839 54.3 208.693 54.4933 209.439 54.88C210.199 55.2533 210.786 55.8133 211.199 56.56L209.739 57.5C209.393 56.98 208.966 56.6 208.459 56.36C207.966 56.1067 207.433 55.98 206.859 55.98C206.166 55.98 205.546 56.1333 204.999 56.44C204.453 56.7467 204.019 57.18 203.699 57.74C203.379 58.2867 203.219 58.94 203.219 59.7C203.219 60.46 203.379 61.12 203.699 61.68C204.019 62.24 204.453 62.6733 204.999 62.98C205.546 63.2867 206.166 63.44 206.859 63.44C207.433 63.44 207.966 63.32 208.459 63.08C208.966 62.8267 209.393 62.44 209.739 61.92L211.199 62.84C210.786 63.5733 210.199 64.14 209.439 64.54C208.693 64.9267 207.839 65.12 206.879 65.12ZM214.085 65V54.4H216.065L220.625 62.24H219.825L224.505 54.4H226.305V65H224.565V56.56L224.885 56.74L220.605 63.8H219.765L215.465 56.6L215.845 56.52V65H214.085Z" fill="black"/>
<path d="M148.42 175.16C147.287 175.16 146.307 174.993 145.48 174.66C144.653 174.327 144.013 173.853 143.56 173.24C143.107 172.613 142.88 171.88 142.88 171.04C142.88 170.213 143.093 169.513 143.52 168.94C143.96 168.353 144.593 167.913 145.42 167.62C146.247 167.313 147.247 167.16 148.42 167.16C149.593 167.16 150.593 167.313 151.42 167.62C152.26 167.913 152.9 168.353 153.34 168.94C153.78 169.527 154 170.227 154 171.04C154 171.88 153.773 172.613 153.32 173.24C152.867 173.853 152.22 174.327 151.38 174.66C150.54 174.993 149.553 175.16 148.42 175.16ZM148.42 173.54C149.54 173.54 150.413 173.313 151.04 172.86C151.68 172.393 152 171.767 152 170.98C152 170.207 151.68 169.6 151.04 169.16C150.413 168.707 149.54 168.48 148.42 168.48C147.313 168.48 146.447 168.707 145.82 169.16C145.193 169.6 144.88 170.207 144.88 170.98C144.88 171.767 145.193 172.393 145.82 172.86C146.447 173.313 147.313 173.54 148.42 173.54ZM148.42 168.24C147.353 168.24 146.447 168.1 145.7 167.82C144.953 167.527 144.38 167.113 143.98 166.58C143.58 166.033 143.38 165.387 143.38 164.64C143.38 163.853 143.587 163.18 144 162.62C144.427 162.047 145.02 161.607 145.78 161.3C146.54 160.993 147.42 160.84 148.42 160.84C149.433 160.84 150.32 160.993 151.08 161.3C151.84 161.607 152.433 162.047 152.86 162.62C153.287 163.18 153.5 163.853 153.5 164.64C153.5 165.387 153.3 166.033 152.9 166.58C152.5 167.113 151.92 167.527 151.16 167.82C150.4 168.1 149.487 168.24 148.42 168.24ZM148.42 166.96C149.393 166.96 150.153 166.76 150.7 166.36C151.26 165.96 151.54 165.413 151.54 164.72C151.54 164.013 151.253 163.46 150.68 163.06C150.107 162.66 149.353 162.46 148.42 162.46C147.487 162.46 146.74 162.66 146.18 163.06C145.633 163.46 145.36 164.013 145.36 164.72C145.36 165.413 145.627 165.96 146.16 166.36C146.707 166.76 147.46 166.96 148.42 166.96ZM160.751 175.16C159.764 175.16 158.804 175.007 157.871 174.7C156.951 174.393 156.198 173.98 155.611 173.46L156.531 171.88C156.998 172.32 157.604 172.68 158.351 172.96C159.098 173.24 159.891 173.38 160.731 173.38C161.798 173.38 162.618 173.153 163.191 172.7C163.764 172.247 164.051 171.64 164.051 170.88C164.051 170.36 163.924 169.907 163.671 169.52C163.418 169.133 162.978 168.84 162.351 168.64C161.738 168.427 160.891 168.32 159.811 168.32H156.631L157.371 161H165.271V162.74H158.111L159.151 161.76L158.571 167.54L157.531 166.58H160.231C161.631 166.58 162.758 166.76 163.611 167.12C164.464 167.48 165.084 167.98 165.471 168.62C165.858 169.247 166.051 169.973 166.051 170.8C166.051 171.6 165.858 172.333 165.471 173C165.084 173.653 164.498 174.18 163.711 174.58C162.938 174.967 161.951 175.16 160.751 175.16ZM179.407 175.12C178.327 175.12 177.36 174.887 176.507 174.42C175.667 173.953 175.007 173.313 174.527 172.5C174.047 171.687 173.807 170.753 173.807 169.7C173.807 168.647 174.047 167.713 174.527 166.9C175.007 166.087 175.667 165.453 176.507 165C177.36 164.533 178.327 164.3 179.407 164.3C180.367 164.3 181.22 164.493 181.967 164.88C182.727 165.253 183.313 165.813 183.727 166.56L182.267 167.5C181.92 166.98 181.493 166.6 180.987 166.36C180.493 166.107 179.96 165.98 179.387 165.98C178.693 165.98 178.073 166.133 177.527 166.44C176.98 166.747 176.547 167.18 176.227 167.74C175.907 168.287 175.747 168.94 175.747 169.7C175.747 170.46 175.907 171.12 176.227 171.68C176.547 172.24 176.98 172.673 177.527 172.98C178.073 173.287 178.693 173.44 179.387 173.44C179.96 173.44 180.493 173.32 180.987 173.08C181.493 172.827 181.92 172.44 182.267 171.92L183.727 172.84C183.313 173.573 182.727 174.14 181.967 174.54C181.22 174.927 180.367 175.12 179.407 175.12ZM186.612 175V164.4H188.592L193.152 172.24H192.352L197.032 164.4H198.832V175H197.092V166.56L197.412 166.74L193.132 173.8H192.292L187.992 166.6L188.372 166.52V175H186.612Z" fill="black"/>
<path d="M300.84 48.84C300.84 47.6 301.113 46.54 301.66 45.66C302.207 44.78 302.993 44.1067 304.02 43.64C305.06 43.1867 306.327 42.96 307.82 42.96C309.407 42.96 310.747 43.24 311.84 43.8C312.933 44.36 313.76 45.14 314.32 46.14C314.88 47.14 315.16 48.2867 315.16 49.58C315.16 50.2467 315.093 50.88 314.96 51.48C314.827 52.0933 314.62 52.62 314.34 53.06L312.78 52.3C313.033 51.94 313.207 51.5267 313.3 51.06C313.393 50.6067 313.44 50.1267 313.44 49.62C313.44 48.1933 312.993 47.06 312.1 46.22C311.22 45.38 309.907 44.96 308.16 44.96C307.88 44.96 307.547 44.9733 307.16 45C306.773 45.0267 306.393 45.0933 306.02 45.2L306.7 44.52C307.313 44.72 307.827 45.0333 308.24 45.46C308.667 45.9 308.98 46.42 309.18 47.02C309.393 47.6333 309.5 48.2933 309.5 49C309.5 49.9333 309.327 50.76 308.98 51.48C308.633 52.2 308.14 52.7667 307.5 53.18C306.873 53.5933 306.127 53.8 305.26 53.8C304.367 53.8 303.587 53.58 302.92 53.14C302.253 52.7 301.74 52.1067 301.38 51.36C301.02 50.6133 300.84 49.7733 300.84 48.84ZM302.46 48.76C302.46 49.3733 302.573 49.9067 302.8 50.36C303.027 50.8267 303.34 51.1933 303.74 51.46C304.153 51.7267 304.633 51.86 305.18 51.86C306.007 51.86 306.66 51.5733 307.14 51C307.633 50.4267 307.88 49.6467 307.88 48.66C307.88 48.02 307.76 47.46 307.52 46.98C307.28 46.5 306.953 46.12 306.54 45.84C306.14 45.5733 305.68 45.44 305.16 45.44C304.68 45.44 304.233 45.5667 303.82 45.82C303.42 46.0733 303.093 46.4467 302.84 46.94C302.587 47.4333 302.46 48.04 302.46 48.76ZM300.84 60.2237C300.84 59.2371 300.993 58.2771 301.3 57.3437C301.607 56.4237 302.02 55.6704 302.54 55.0837L304.12 56.0037C303.68 56.4704 303.32 57.0771 303.04 57.8237C302.76 58.5704 302.62 59.3637 302.62 60.2037C302.62 61.2704 302.847 62.0904 303.3 62.6638C303.753 63.2371 304.36 63.5237 305.12 63.5237C305.64 63.5237 306.093 63.3971 306.48 63.1437C306.867 62.8904 307.16 62.4504 307.36 61.8237C307.573 61.2104 307.68 60.3638 307.68 59.2837V56.1037L315 56.8437V64.7437H313.26V57.5837L314.24 58.6237L308.46 58.0437L309.42 57.0037V59.7037C309.42 61.1037 309.24 62.2304 308.88 63.0838C308.52 63.9371 308.02 64.5571 307.38 64.9438C306.753 65.3304 306.027 65.5238 305.2 65.5238C304.4 65.5238 303.667 65.3304 303 64.9438C302.347 64.5571 301.82 63.9704 301.42 63.1838C301.033 62.4104 300.84 61.4238 300.84 60.2237ZM300.88 78.8792C300.88 77.7992 301.113 76.8326 301.58 75.9792C302.047 75.1392 302.687 74.4792 303.5 73.9992C304.313 73.5192 305.247 73.2792 306.3 73.2792C307.353 73.2792 308.287 73.5192 309.1 73.9992C309.913 74.4792 310.547 75.1392 311 75.9792C311.467 76.8326 311.7 77.7992 311.7 78.8792C311.7 79.8392 311.507 80.6926 311.12 81.4392C310.747 82.1992 310.187 82.7859 309.44 83.1992L308.5 81.7392C309.02 81.3926 309.4 80.9659 309.64 80.4592C309.893 79.9659 310.02 79.4326 310.02 78.8592C310.02 78.1659 309.867 77.5459 309.56 76.9992C309.253 76.4526 308.82 76.0192 308.26 75.6992C307.713 75.3792 307.06 75.2192 306.3 75.2192C305.54 75.2192 304.88 75.3792 304.32 75.6992C303.76 76.0192 303.327 76.4526 303.02 76.9992C302.713 77.5459 302.56 78.1659 302.56 78.8592C302.56 79.4326 302.68 79.9659 302.92 80.4592C303.173 80.9659 303.56 81.3926 304.08 81.7392L303.16 83.1992C302.427 82.7859 301.86 82.1992 301.46 81.4392C301.073 80.6926 300.88 79.8392 300.88 78.8792ZM301 86.085H311.6V88.065L303.76 92.625V91.825L311.6 96.505V98.305H301V96.565H309.44L309.26 96.885L302.2 92.605V91.765L309.4 87.465L309.48 87.845H301V86.085Z" fill="black"/>
<path d="M165.44 74.76H166.84L176 81.92V84.08L166.84 76.98L167.16 75.96V87.14H165.44V74.76ZM162 82.54H165.44L167.16 82.6H170.2V84.48H162V82.54ZM162 88.4994H163.36L168.86 94.1994C169.34 94.706 169.76 95.0794 170.12 95.3194C170.493 95.5727 170.833 95.7394 171.14 95.8194C171.46 95.9127 171.767 95.9594 172.06 95.9594C172.78 95.9594 173.347 95.706 173.76 95.1994C174.173 94.6927 174.38 93.9527 174.38 92.9794C174.38 92.2327 174.253 91.5594 174 90.9594C173.76 90.3594 173.38 89.8394 172.86 89.3994L174.04 88.0394C174.72 88.5727 175.24 89.286 175.6 90.1794C175.973 91.086 176.16 92.0794 176.16 93.1594C176.16 94.1327 176 94.9794 175.68 95.6994C175.373 96.4194 174.927 96.9727 174.34 97.3594C173.753 97.7594 173.06 97.9594 172.26 97.9594C171.807 97.9594 171.36 97.8994 170.92 97.7794C170.48 97.6594 170.013 97.4327 169.52 97.0994C169.027 96.766 168.473 96.286 167.86 95.6594L162.96 90.5794L163.74 90.0994V98.5594H162V88.4994ZM161.88 111.895C161.88 110.815 162.113 109.848 162.58 108.995C163.047 108.155 163.687 107.495 164.5 107.015C165.313 106.535 166.247 106.295 167.3 106.295C168.353 106.295 169.287 106.535 170.1 107.015C170.913 107.495 171.547 108.155 172 108.995C172.467 109.848 172.7 110.815 172.7 111.895C172.7 112.855 172.507 113.708 172.12 114.455C171.747 115.215 171.187 115.802 170.44 116.215L169.5 114.755C170.02 114.408 170.4 113.982 170.64 113.475C170.893 112.982 171.02 112.448 171.02 111.875C171.02 111.182 170.867 110.562 170.56 110.015C170.253 109.468 169.82 109.035 169.26 108.715C168.713 108.395 168.06 108.235 167.3 108.235C166.54 108.235 165.88 108.395 165.32 108.715C164.76 109.035 164.327 109.468 164.02 110.015C163.713 110.562 163.56 111.182 163.56 111.875C163.56 112.448 163.68 112.982 163.92 113.475C164.173 113.982 164.56 114.408 165.08 114.755L164.16 116.215C163.427 115.802 162.86 115.215 162.46 114.455C162.073 113.708 161.88 112.855 161.88 111.895ZM162 119.101H172.6V121.081L164.76 125.641V124.841L172.6 129.521V131.321H162V129.581H170.44L170.26 129.901L163.2 125.621V124.781L170.4 120.481L170.48 120.861H162V119.101Z" fill="black"/>
<path d="M39 153.5L44 156.387L44 150.613L39 153.5ZM289 153.5L284 150.613L284 156.387L289 153.5ZM43.5 154L284.5 154L284.5 153L43.5 153L43.5 154Z" fill="black"/>
<path d="M294 0L291.113 5L296.887 5L294 0ZM294 135L296.887 130L291.113 130L294 135ZM293.5 4.5L293.5 130.5L294.5 130.5L294.5 4.5L293.5 4.5Z" fill="black"/>
<path d="M3 110L0.227601 115.064L5.99961 114.933L3 110ZM4 154L6.7724 148.936L1.00039 149.067L4 154ZM2.60238 114.51L3.39788 149.513L4.39762 149.49L3.60212 114.487L2.60238 114.51Z" fill="black"/>
<path d="M16.14 125H18.14V139H16.14V125ZM8.1 139H6.1L6.1 125H8.1L8.1 139ZM16.32 132.76H7.9V131.02H16.32V132.76ZM21.7705 134.34V132.68H27.1505V134.34H21.7705ZM31.6552 139L31.6552 125.8L32.5152 126.74H28.4952V125H33.6352V139H31.6552ZM41.6375 124.84C42.9042 124.84 43.9708 125.113 44.8375 125.66C45.7175 126.207 46.3842 127 46.8375 128.04C47.2908 129.067 47.5175 130.327 47.5175 131.82C47.5175 133.407 47.2375 134.747 46.6775 135.84C46.1175 136.933 45.3442 137.76 44.3575 138.32C43.3708 138.88 42.2175 139.16 40.8975 139.16C40.2442 139.16 39.6108 139.093 38.9975 138.96C38.3975 138.827 37.8708 138.62 37.4175 138.34L38.1775 136.78C38.5508 137.02 38.9642 137.193 39.4175 137.3C39.8842 137.393 40.3708 137.44 40.8775 137.44C42.2908 137.44 43.4175 137 44.2575 136.12C45.0975 135.227 45.5175 133.907 45.5175 132.16C45.5175 131.88 45.5042 131.547 45.4775 131.16C45.4508 130.773 45.3908 130.393 45.2975 130.02L45.9575 130.7C45.7708 131.313 45.4575 131.833 45.0175 132.26C44.5908 132.673 44.0708 132.987 43.4575 133.2C42.8575 133.4 42.1975 133.5 41.4775 133.5C40.5575 133.5 39.7375 133.327 39.0175 132.98C38.2975 132.633 37.7308 132.147 37.3175 131.52C36.9042 130.88 36.6975 130.127 36.6975 129.26C36.6975 128.353 36.9108 127.573 37.3375 126.92C37.7775 126.253 38.3708 125.74 39.1175 125.38C39.8775 125.02 40.7175 124.84 41.6375 124.84ZM41.7175 126.46C41.1175 126.46 40.5842 126.573 40.1175 126.8C39.6508 127.027 39.2842 127.34 39.0175 127.74C38.7642 128.14 38.6375 128.62 38.6375 129.18C38.6375 130.007 38.9242 130.667 39.4975 131.16C40.0708 131.64 40.8442 131.88 41.8175 131.88C42.4575 131.88 43.0175 131.76 43.4975 131.52C43.9908 131.28 44.3708 130.953 44.6375 130.54C44.9175 130.127 45.0575 129.667 45.0575 129.16C45.0575 128.667 44.9308 128.22 44.6775 127.82C44.4242 127.42 44.0508 127.093 43.5575 126.84C43.0642 126.587 42.4508 126.46 41.7175 126.46Z" fill="black"/>
<path d="M72.675 128V88.95H77.625V123.6H99.405V128H72.675Z" fill="#6E9C9F"/>
</svg>
