<svg width="322" height="182" viewBox="0 0 322 182" fill="none" xmlns="http://www.w3.org/2000/svg">
<path d="M74.2617 5.91C76.2167 4.60667 81.2606 2 85.7962 2C90.3318 2 192.213 2.26067 242.587 2.391C245.129 2.5865 251.033 3.5249 254.317 5.7145" stroke="black"/>
<path d="M97.3301 80.7865L109.647 91.93C113.361 95.84 123.058 104.247 132.129 106.593C143.468 109.525 151.484 112.458 193.125 107.57C198.013 106.136 209.704 101.392 217.367 93.885C225.031 86.3778 230.466 81.6337 232.225 80.2M97.3301 80.7865C83.4106 68.7437 71.4589 65.6027 67.223 65.5375C58.1517 63.8171 48.846 57.3917 45.3271 54.394M97.3301 80.7865C101.245 71.9791 102.498 63.4143 101.964 55.3715M232.225 80.2C243.486 69.8633 254.512 65.9877 258.618 65.342C274.101 62.214 281.231 56.4794 282.86 54.003M232.225 80.2C229.313 74.3752 226.695 64.9336 227.207 54.003M282.86 54.003C266.907 17.249 257.184 6.75717 254.317 6.1055C234.506 21.212 227.911 39.0086 227.207 54.003M282.86 54.003C287.552 60.3894 294.355 78.8706 284.033 101.705C282.273 112.197 274.336 133.689 256.663 135.722C238.99 137.755 128.349 137.482 75.2386 137.091C68.2006 136.439 52.9125 130.952 48.0641 114.217C42.0036 93.2985 33.5971 73.7485 45.3271 54.394M45.3271 54.394C57.0571 35.0395 64.0953 12.166 74.2611 5.91C84.571 13.9556 100.451 32.565 101.964 55.3715M101.964 55.3715C124.77 50.5492 181.747 43.5242 227.207 54.003" stroke="black"/>
<path d="M45.3275 54.7848L50.8015 58.6948L57.8395 62.4093L62.9225 64.5598L68.201 65.7328C68.201 65.7328 69.9516 65.8581 74.2615 67.2968C76.7254 68.1193 80.322 69.4473 84.0365 71.4023C87.751 73.3573 88.5825 74.5895 90.488 75.8988C96.2823 79.8799 98.5035 82.3503 98.5035 82.3503L109.256 91.7343L114.73 96.8173L120.791 101.509L127.047 105.028L133.498 106.983C146.278 110.958 158.035 111.081 184.328 108.938C186.479 108.547 193.969 109.091 203.683 103.66C213.396 98.2284 227.444 85.5138 226.752 85.4783L238.482 75.1168C243.462 71.9803 248.452 68.8608 252.362 67.2968C256.272 65.7328 263.701 64.3643 265.265 63.9733C266.122 63.7591 270.607 62.3977 274.845 60.2588C278.343 58.4927 281.418 56.3297 282.86 54.1983C287.748 63.1913 290.289 70.2293 288.725 85.4783C288.013 88.2646 287.552 90.9523 286.77 93.4938C286.184 96.4263 284.663 99.0743 283.838 101.705C282.86 106.397 281.703 110.099 280.319 113.435C274.843 126.635 268.245 132.124 258.227 134.94L249.43 135.526L240.632 135.917L226.752 136.308L213.067 136.504L166.733 136.699L74.6525 136.398L70.156 135.421L65.073 133.466L61.3585 131.315L57.8395 128.774L54.3205 125.059L51.5835 121.149L49.2375 116.262L47.6735 111.179L45.132 102.772L43.177 96.1254L41.0265 87.3279L40.049 80.2899L39.8535 74.2294L40.44 68.1689L41.4175 64.0634L42.395 60.9354L43.7635 57.6119L45.3275 54.7848Z" fill="#F1EADC"/>
<path d="M74 5.99957C86.121 15.5791 99.0908 33.0786 101.241 53.6061C101.528 58.7866 101.447 61.726 100.85 66.9001L100.264 70.0281L99.2863 73.5471L97.5 79.9996L84.8193 71.2011L84.2328 71.0056L82.4733 70.0281L80.5183 69.0506L78.3678 68.0731L73.8713 66.3136L68.9838 65.1406L68.3973 64.9451H67.4198H66.8333L66.0513 64.7496L61.1094 63.1031L53 58.9996L49 56.4996L46 53.9996C49.7145 47.7436 52.5618 40.6346 55.1033 35.4246C66.8333 11.3781 69.4045 9.24388 74 5.99957Z" fill="#F1EADC"/>
<path d="M74.6523 5.88893C77.9001 4.05526 80.9083 2.78177 84.2318 2.39213C85.6003 2.19527 94.68 2.2061 107.692 2.19679C145.417 2.62845 215.608 2.5649 242.782 2.564C249.011 3.08685 252.815 4.87682 254.179 5.8706C236.331 20.9633 227.924 34.6483 226.947 53.8073C198.795 45.9873 143.859 46.1828 102.218 55.1758C99.8719 34.8438 89.3149 17.4443 74.6523 5.88893Z" fill="#F1EADC"/>
<path d="M230.467 38.3628C235.94 23.5048 241.745 16.8265 254.318 6.30077C262.19 12.0588 268.454 22.757 282.665 54.0028C277.972 59.8678 267.22 63.1913 254.122 66.3193C245.324 69.4473 239.46 73.7483 232.422 79.8088C226.947 69.6428 225.578 50.8748 230.467 38.3628Z" fill="#F1EADC"/>
<path d="M102.217 55.3742C141.158 48.8006 168.557 47.0487 199.185 49.8975C203.502 50.299 207.93 50.8604 211.893 51.4615C216.5 52.1602 221.076 53.1237 226.946 54.0024C226.946 67.1322 228.706 72.8152 232.029 80.2619C225.187 85.6734 219.713 90.9519 214.239 96.2304C210.915 98.9674 204.789 102.529 200.749 104.246C197.426 106.005 196.644 106.592 192.343 107.374C181.004 108.938 167.541 110.207 156.371 109.853C148.764 109.759 141.029 108.793 132.911 106.521C129.067 105.446 127.241 104.759 123.527 102.683C119.615 100.496 116.151 97.5999 113.165 94.8629C111.033 92.9079 109.087 91.099 107.105 89.1934C105.786 87.9248 104.395 86.7199 102.999 85.4789C101.222 83.898 99.5505 82.1016 97.5254 80.6539C101.637 70.4626 102.608 64.9765 102.217 55.3742Z" fill="#6E9C9F"/>
<path d="M100.654 71.598L105.654 74.4848V68.7113L100.654 71.598ZM227.338 71.598L222.338 68.7113V74.4848L227.338 71.598ZM105.154 72.098L222.838 72.098V71.098L105.154 71.098V72.098Z" fill="black"/>
<path d="M155.393 48.529L152.474 53.5105L158.247 53.5473L155.393 48.529ZM155.002 109.916L157.92 104.935L152.147 104.898L155.002 109.916ZM154.864 53.0257L154.53 105.413L155.53 105.419L155.864 53.0321L154.864 53.0257Z" fill="black"/>
<path d="M171.84 65.16C170.6 65.16 169.54 64.8867 168.66 64.34C167.78 63.7933 167.107 63.0067 166.64 61.98C166.187 60.94 165.96 59.6733 165.96 58.18C165.96 56.5933 166.24 55.2533 166.8 54.16C167.36 53.0667 168.14 52.24 169.14 51.68C170.14 51.12 171.287 50.84 172.58 50.84C173.247 50.84 173.88 50.9067 174.48 51.04C175.093 51.1733 175.62 51.38 176.06 51.66L175.3 53.22C174.94 52.9667 174.527 52.7933 174.06 52.7C173.607 52.6067 173.127 52.56 172.62 52.56C171.193 52.56 170.06 53.0067 169.22 53.9C168.38 54.78 167.96 56.0933 167.96 57.84C167.96 58.12 167.973 58.4533 168 58.84C168.027 59.2267 168.093 59.6067 168.2 59.98L167.52 59.3C167.72 58.6867 168.033 58.1733 168.46 57.76C168.9 57.3333 169.42 57.02 170.02 56.82C170.633 56.6067 171.293 56.5 172 56.5C172.933 56.5 173.76 56.6733 174.48 57.02C175.2 57.3667 175.767 57.86 176.18 58.5C176.593 59.1267 176.8 59.8733 176.8 60.74C176.8 61.6333 176.58 62.4133 176.14 63.08C175.7 63.7467 175.107 64.26 174.36 64.62C173.613 64.98 172.773 65.16 171.84 65.16ZM171.76 63.54C172.373 63.54 172.907 63.4267 173.36 63.2C173.827 62.9733 174.193 62.66 174.46 62.26C174.727 61.8467 174.86 61.3667 174.86 60.82C174.86 59.9933 174.573 59.34 174 58.86C173.427 58.3667 172.647 58.12 171.66 58.12C171.02 58.12 170.46 58.24 169.98 58.48C169.5 58.72 169.12 59.0467 168.84 59.46C168.573 59.86 168.44 60.32 168.44 60.84C168.44 61.32 168.567 61.7667 168.82 62.18C169.073 62.58 169.447 62.9067 169.94 63.16C170.433 63.4133 171.04 63.54 171.76 63.54ZM184.424 65.16C183.33 65.16 182.35 64.88 181.484 64.32C180.63 63.76 179.95 62.9467 179.444 61.88C178.95 60.8133 178.704 59.52 178.704 58C178.704 56.48 178.95 55.1867 179.444 54.12C179.95 53.0533 180.63 52.24 181.484 51.68C182.35 51.12 183.33 50.84 184.424 50.84C185.504 50.84 186.477 51.12 187.344 51.68C188.21 52.24 188.89 53.0533 189.384 54.12C189.877 55.1867 190.124 56.48 190.124 58C190.124 59.52 189.877 60.8133 189.384 61.88C188.89 62.9467 188.21 63.76 187.344 64.32C186.477 64.88 185.504 65.16 184.424 65.16ZM184.424 63.38C185.157 63.38 185.797 63.18 186.344 62.78C186.904 62.38 187.337 61.78 187.644 60.98C187.964 60.18 188.124 59.1867 188.124 58C188.124 56.8133 187.964 55.82 187.644 55.02C187.337 54.22 186.904 53.62 186.344 53.22C185.797 52.82 185.157 52.62 184.424 52.62C183.69 52.62 183.044 52.82 182.484 53.22C181.924 53.62 181.484 54.22 181.164 55.02C180.857 55.82 180.704 56.8133 180.704 58C180.704 59.1867 180.857 60.18 181.164 60.98C181.484 61.78 181.924 62.38 182.484 62.78C183.044 63.18 183.69 63.38 184.424 63.38ZM203.735 65.12C202.655 65.12 201.688 64.8867 200.835 64.42C199.995 63.9533 199.335 63.3133 198.855 62.5C198.375 61.6867 198.135 60.7533 198.135 59.7C198.135 58.6467 198.375 57.7133 198.855 56.9C199.335 56.0867 199.995 55.4533 200.835 55C201.688 54.5333 202.655 54.3 203.735 54.3C204.695 54.3 205.548 54.4933 206.295 54.88C207.055 55.2533 207.641 55.8133 208.055 56.56L206.595 57.5C206.248 56.98 205.821 56.6 205.315 56.36C204.821 56.1067 204.288 55.98 203.715 55.98C203.021 55.98 202.401 56.1333 201.855 56.44C201.308 56.7467 200.875 57.18 200.555 57.74C200.235 58.2867 200.075 58.94 200.075 59.7C200.075 60.46 200.235 61.12 200.555 61.68C200.875 62.24 201.308 62.6733 201.855 62.98C202.401 63.2867 203.021 63.44 203.715 63.44C204.288 63.44 204.821 63.32 205.315 63.08C205.821 62.8267 206.248 62.44 206.595 61.92L208.055 62.84C207.641 63.5733 207.055 64.14 206.295 64.54C205.548 64.9267 204.695 65.12 203.735 65.12ZM210.94 65V54.4H212.92L217.48 62.24H216.68L221.36 54.4H223.16V65H221.42V56.56L221.74 56.74L217.46 63.8H216.62L212.32 56.6L212.7 56.52V65H210.94Z" fill="black"/>
<path d="M148.42 175.16C147.287 175.16 146.307 174.993 145.48 174.66C144.653 174.327 144.013 173.853 143.56 173.24C143.107 172.613 142.88 171.88 142.88 171.04C142.88 170.213 143.093 169.513 143.52 168.94C143.96 168.353 144.593 167.913 145.42 167.62C146.247 167.313 147.247 167.16 148.42 167.16C149.593 167.16 150.593 167.313 151.42 167.62C152.26 167.913 152.9 168.353 153.34 168.94C153.78 169.527 154 170.227 154 171.04C154 171.88 153.773 172.613 153.32 173.24C152.867 173.853 152.22 174.327 151.38 174.66C150.54 174.993 149.553 175.16 148.42 175.16ZM148.42 173.54C149.54 173.54 150.413 173.313 151.04 172.86C151.68 172.393 152 171.767 152 170.98C152 170.207 151.68 169.6 151.04 169.16C150.413 168.707 149.54 168.48 148.42 168.48C147.313 168.48 146.447 168.707 145.82 169.16C145.193 169.6 144.88 170.207 144.88 170.98C144.88 171.767 145.193 172.393 145.82 172.86C146.447 173.313 147.313 173.54 148.42 173.54ZM148.42 168.24C147.353 168.24 146.447 168.1 145.7 167.82C144.953 167.527 144.38 167.113 143.98 166.58C143.58 166.033 143.38 165.387 143.38 164.64C143.38 163.853 143.587 163.18 144 162.62C144.427 162.047 145.02 161.607 145.78 161.3C146.54 160.993 147.42 160.84 148.42 160.84C149.433 160.84 150.32 160.993 151.08 161.3C151.84 161.607 152.433 162.047 152.86 162.62C153.287 163.18 153.5 163.853 153.5 164.64C153.5 165.387 153.3 166.033 152.9 166.58C152.5 167.113 151.92 167.527 151.16 167.82C150.4 168.1 149.487 168.24 148.42 168.24ZM148.42 166.96C149.393 166.96 150.153 166.76 150.7 166.36C151.26 165.96 151.54 165.413 151.54 164.72C151.54 164.013 151.253 163.46 150.68 163.06C150.107 162.66 149.353 162.46 148.42 162.46C147.487 162.46 146.74 162.66 146.18 163.06C145.633 163.46 145.36 164.013 145.36 164.72C145.36 165.413 145.627 165.96 146.16 166.36C146.707 166.76 147.46 166.96 148.42 166.96ZM161.951 175.16C160.858 175.16 159.878 174.88 159.011 174.32C158.158 173.76 157.478 172.947 156.971 171.88C156.478 170.813 156.231 169.52 156.231 168C156.231 166.48 156.478 165.187 156.971 164.12C157.478 163.053 158.158 162.24 159.011 161.68C159.878 161.12 160.858 160.84 161.951 160.84C163.031 160.84 164.004 161.12 164.871 161.68C165.738 162.24 166.418 163.053 166.911 164.12C167.404 165.187 167.651 166.48 167.651 168C167.651 169.52 167.404 170.813 166.911 171.88C166.418 172.947 165.738 173.76 164.871 174.32C164.004 174.88 163.031 175.16 161.951 175.16ZM161.951 173.38C162.684 173.38 163.324 173.18 163.871 172.78C164.431 172.38 164.864 171.78 165.171 170.98C165.491 170.18 165.651 169.187 165.651 168C165.651 166.813 165.491 165.82 165.171 165.02C164.864 164.22 164.431 163.62 163.871 163.22C163.324 162.82 162.684 162.62 161.951 162.62C161.218 162.62 160.571 162.82 160.011 163.22C159.451 163.62 159.011 164.22 158.691 165.02C158.384 165.82 158.231 166.813 158.231 168C158.231 169.187 158.384 170.18 158.691 170.98C159.011 171.78 159.451 172.38 160.011 172.78C160.571 173.18 161.218 173.38 161.951 173.38ZM181.262 175.12C180.182 175.12 179.215 174.887 178.362 174.42C177.522 173.953 176.862 173.313 176.382 172.5C175.902 171.687 175.662 170.753 175.662 169.7C175.662 168.647 175.902 167.713 176.382 166.9C176.862 166.087 177.522 165.453 178.362 165C179.215 164.533 180.182 164.3 181.262 164.3C182.222 164.3 183.075 164.493 183.822 164.88C184.582 165.253 185.169 165.813 185.582 166.56L184.122 167.5C183.775 166.98 183.349 166.6 182.842 166.36C182.349 166.107 181.815 165.98 181.242 165.98C180.549 165.98 179.929 166.133 179.382 166.44C178.835 166.747 178.402 167.18 178.082 167.74C177.762 168.287 177.602 168.94 177.602 169.7C177.602 170.46 177.762 171.12 178.082 171.68C178.402 172.24 178.835 172.673 179.382 172.98C179.929 173.287 180.549 173.44 181.242 173.44C181.815 173.44 182.349 173.32 182.842 173.08C183.349 172.827 183.775 172.44 184.122 171.92L185.582 172.84C185.169 173.573 184.582 174.14 183.822 174.54C183.075 174.927 182.222 175.12 181.262 175.12ZM188.468 175V164.4H190.448L195.008 172.24H194.208L198.888 164.4H200.688V175H198.948V166.56L199.268 166.74L194.988 173.8H194.148L189.848 166.6L190.228 166.52V175H188.468Z" fill="black"/>
<path d="M300.84 48.84C300.84 47.6 301.113 46.54 301.66 45.66C302.207 44.78 302.993 44.1067 304.02 43.64C305.06 43.1867 306.327 42.96 307.82 42.96C309.407 42.96 310.747 43.24 311.84 43.8C312.933 44.36 313.76 45.14 314.32 46.14C314.88 47.14 315.16 48.2867 315.16 49.58C315.16 50.2467 315.093 50.88 314.96 51.48C314.827 52.0933 314.62 52.62 314.34 53.06L312.78 52.3C313.033 51.94 313.207 51.5267 313.3 51.06C313.393 50.6067 313.44 50.1267 313.44 49.62C313.44 48.1933 312.993 47.06 312.1 46.22C311.22 45.38 309.907 44.96 308.16 44.96C307.88 44.96 307.547 44.9733 307.16 45C306.773 45.0267 306.393 45.0933 306.02 45.2L306.7 44.52C307.313 44.72 307.827 45.0333 308.24 45.46C308.667 45.9 308.98 46.42 309.18 47.02C309.393 47.6333 309.5 48.2933 309.5 49C309.5 49.9333 309.327 50.76 308.98 51.48C308.633 52.2 308.14 52.7667 307.5 53.18C306.873 53.5933 306.127 53.8 305.26 53.8C304.367 53.8 303.587 53.58 302.92 53.14C302.253 52.7 301.74 52.1067 301.38 51.36C301.02 50.6133 300.84 49.7733 300.84 48.84ZM302.46 48.76C302.46 49.3733 302.573 49.9067 302.8 50.36C303.027 50.8267 303.34 51.1933 303.74 51.46C304.153 51.7267 304.633 51.86 305.18 51.86C306.007 51.86 306.66 51.5733 307.14 51C307.633 50.4267 307.88 49.6467 307.88 48.66C307.88 48.02 307.76 47.46 307.52 46.98C307.28 46.5 306.953 46.12 306.54 45.84C306.14 45.5733 305.68 45.44 305.16 45.44C304.68 45.44 304.233 45.5667 303.82 45.82C303.42 46.0733 303.093 46.4467 302.84 46.94C302.587 47.4333 302.46 48.04 302.46 48.76ZM300.84 60.2237C300.84 59.2371 300.993 58.2771 301.3 57.3437C301.607 56.4237 302.02 55.6704 302.54 55.0837L304.12 56.0037C303.68 56.4704 303.32 57.0771 303.04 57.8237C302.76 58.5704 302.62 59.3637 302.62 60.2037C302.62 61.2704 302.847 62.0904 303.3 62.6638C303.753 63.2371 304.36 63.5237 305.12 63.5237C305.64 63.5237 306.093 63.3971 306.48 63.1437C306.867 62.8904 307.16 62.4504 307.36 61.8237C307.573 61.2104 307.68 60.3638 307.68 59.2837V56.1037L315 56.8437V64.7437H313.26V57.5837L314.24 58.6237L308.46 58.0437L309.42 57.0037V59.7037C309.42 61.1037 309.24 62.2304 308.88 63.0838C308.52 63.9371 308.02 64.5571 307.38 64.9438C306.753 65.3304 306.027 65.5238 305.2 65.5238C304.4 65.5238 303.667 65.3304 303 64.9438C302.347 64.5571 301.82 63.9704 301.42 63.1838C301.033 62.4104 300.84 61.4238 300.84 60.2237ZM300.88 78.8792C300.88 77.7992 301.113 76.8326 301.58 75.9792C302.047 75.1392 302.687 74.4792 303.5 73.9992C304.313 73.5192 305.247 73.2792 306.3 73.2792C307.353 73.2792 308.287 73.5192 309.1 73.9992C309.913 74.4792 310.547 75.1392 311 75.9792C311.467 76.8326 311.7 77.7992 311.7 78.8792C311.7 79.8392 311.507 80.6926 311.12 81.4392C310.747 82.1992 310.187 82.7859 309.44 83.1992L308.5 81.7392C309.02 81.3926 309.4 80.9659 309.64 80.4592C309.893 79.9659 310.02 79.4326 310.02 78.8592C310.02 78.1659 309.867 77.5459 309.56 76.9992C309.253 76.4526 308.82 76.0192 308.26 75.6992C307.713 75.3792 307.06 75.2192 306.3 75.2192C305.54 75.2192 304.88 75.3792 304.32 75.6992C303.76 76.0192 303.327 76.4526 303.02 76.9992C302.713 77.5459 302.56 78.1659 302.56 78.8592C302.56 79.4326 302.68 79.9659 302.92 80.4592C303.173 80.9659 303.56 81.3926 304.08 81.7392L303.16 83.1992C302.427 82.7859 301.86 82.1992 301.46 81.4392C301.073 80.6926 300.88 79.8392 300.88 78.8792ZM301 86.085H311.6V88.065L303.76 92.625V91.825L311.6 96.505V98.305H301V96.565H309.44L309.26 96.885L302.2 92.605V91.765L309.4 87.465L309.48 87.845H301V86.085Z" fill="black"/>
<path d="M165.44 77.76H166.84L176 84.92V87.08L166.84 79.98L167.16 78.96V90.14H165.44V77.76ZM162 85.54H165.44L167.16 85.6H170.2V87.48H162V85.54ZM161.84 96.2394C161.84 95.2527 161.993 94.2927 162.3 93.3594C162.607 92.4394 163.02 91.686 163.54 91.0994L165.12 92.0194C164.68 92.486 164.32 93.0927 164.04 93.8394C163.76 94.586 163.62 95.3794 163.62 96.2194C163.62 97.286 163.847 98.106 164.3 98.6794C164.753 99.2527 165.36 99.5394 166.12 99.5394C166.64 99.5394 167.093 99.4127 167.48 99.1594C167.867 98.906 168.16 98.466 168.36 97.8394C168.573 97.226 168.68 96.3794 168.68 95.2994V92.1194L176 92.8594V100.759H174.26V93.5994L175.24 94.6394L169.46 94.0594L170.42 93.0194V95.7194C170.42 97.1194 170.24 98.246 169.88 99.0994C169.52 99.9527 169.02 100.573 168.38 100.959C167.753 101.346 167.027 101.539 166.2 101.539C165.4 101.539 164.667 101.346 164 100.959C163.347 100.573 162.82 99.986 162.42 99.1994C162.033 98.426 161.84 97.4394 161.84 96.2394ZM161.88 114.895C161.88 113.815 162.113 112.848 162.58 111.995C163.047 111.155 163.687 110.495 164.5 110.015C165.313 109.535 166.247 109.295 167.3 109.295C168.353 109.295 169.287 109.535 170.1 110.015C170.913 110.495 171.547 111.155 172 111.995C172.467 112.848 172.7 113.815 172.7 114.895C172.7 115.855 172.507 116.708 172.12 117.455C171.747 118.215 171.187 118.802 170.44 119.215L169.5 117.755C170.02 117.408 170.4 116.982 170.64 116.475C170.893 115.982 171.02 115.448 171.02 114.875C171.02 114.182 170.867 113.562 170.56 113.015C170.253 112.468 169.82 112.035 169.26 111.715C168.713 111.395 168.06 111.235 167.3 111.235C166.54 111.235 165.88 111.395 165.32 111.715C164.76 112.035 164.327 112.468 164.02 113.015C163.713 113.562 163.56 114.182 163.56 114.875C163.56 115.448 163.68 115.982 163.92 116.475C164.173 116.982 164.56 117.408 165.08 117.755L164.16 119.215C163.427 118.802 162.86 118.215 162.46 117.455C162.073 116.708 161.88 115.855 161.88 114.895ZM162 122.101H172.6V124.081L164.76 128.641V127.841L172.6 132.521V134.321H162V132.581H170.44L170.26 132.901L163.2 128.621V127.781L170.4 123.481L170.48 123.861H162V122.101Z" fill="black"/>
<path d="M39 153.5L44 156.387L44 150.613L39 153.5ZM289 153.5L284 150.613L284 156.387L289 153.5ZM43.5 154L284.5 154L284.5 153L43.5 153L43.5 154Z" fill="black"/>
<path d="M294 0L291.113 5L296.887 5L294 0ZM294 135L296.887 130L291.113 130L294 135ZM293.5 4.5L293.5 130.5L294.5 130.5L294.5 4.5L293.5 4.5Z" fill="black"/>
<path d="M3 110L0.227601 115.064L5.99961 114.933L3 110ZM4 154L6.7724 148.936L1.00039 149.067L4 154ZM2.60238 114.51L3.39788 149.513L4.39762 149.49L3.60212 114.487L2.60238 114.51Z" fill="black"/>
<path d="M16.14 125H18.14V139H16.14V125ZM8.1 139H6.1L6.1 125H8.1L8.1 139ZM16.32 132.76H7.9V131.02H16.32V132.76ZM21.7705 134.34V132.68H27.1505V134.34H21.7705ZM31.6552 139L31.6552 125.8L32.5152 126.74H28.4952V125H33.6352V139H31.6552ZM36.8975 135.56V134.16L44.0575 125H46.2175L39.1175 134.16L38.0975 133.84H49.2775V135.56H36.8975ZM44.6775 139V135.56L44.7375 133.84V130.8H46.6175V139H44.6775Z" fill="black"/>
<path d="M72.675 128V88.95H77.625V123.6H99.405V128H72.675Z" fill="#6E9C9F"/>
</svg>
