<svg width="324" height="182" viewBox="0 0 324 182" fill="none" xmlns="http://www.w3.org/2000/svg">
<path d="M76.2617 5.91C78.2167 4.60667 83.2606 2 87.7962 2C92.3318 2 194.213 2.26067 244.587 2.391C247.129 2.5865 253.033 3.5249 256.317 5.7145" stroke="black"/>
<path d="M99.3301 80.7865L111.647 91.93C115.361 95.84 125.058 104.247 134.129 106.593C145.468 109.525 153.484 112.458 195.125 107.57C200.013 106.136 211.704 101.392 219.367 93.885C227.031 86.3778 232.466 81.6337 234.225 80.2M99.3301 80.7865C85.4106 68.7437 73.4589 65.6027 69.223 65.5375C60.1517 63.8171 50.846 57.3917 47.3271 54.394M99.3301 80.7865C103.245 71.9791 104.498 63.4143 103.964 55.3715M234.225 80.2C245.486 69.8633 256.512 65.9877 260.618 65.342C276.101 62.214 283.231 56.4794 284.86 54.003M234.225 80.2C231.313 74.3752 228.695 64.9336 229.207 54.003M284.86 54.003C268.907 17.249 259.184 6.75717 256.317 6.1055C236.506 21.212 229.911 39.0086 229.207 54.003M284.86 54.003C289.552 60.3894 296.355 78.8706 286.033 101.705C284.273 112.197 276.336 133.689 258.663 135.722C240.99 137.755 130.349 137.482 77.2386 137.091C70.2006 136.439 54.9125 130.952 50.0641 114.217C44.0036 93.2985 35.5971 73.7485 47.3271 54.394M47.3271 54.394C59.0571 35.0395 66.0953 12.166 76.2611 5.91C86.571 13.9556 102.451 32.565 103.964 55.3715M103.964 55.3715C126.77 50.5492 183.747 43.5242 229.207 54.003" stroke="black"/>
<path d="M47.3275 54.7848L52.8015 58.6948L59.8395 62.4093L64.9225 64.5598L70.201 65.7328C70.201 65.7328 71.9516 65.8581 76.2615 67.2968C78.7254 68.1193 82.322 69.4473 86.0365 71.4023C89.751 73.3573 90.5825 74.5895 92.488 75.8988C98.2823 79.8799 100.504 82.3503 100.504 82.3503L111.256 91.7343L116.73 96.8173L122.791 101.509L129.047 105.028L135.498 106.983C148.278 110.958 160.035 111.081 186.328 108.938C188.479 108.547 195.969 109.091 205.683 103.66C215.396 98.2284 229.444 85.5138 228.752 85.4783L240.482 75.1168C245.462 71.9803 250.452 68.8608 254.362 67.2968C258.272 65.7328 265.701 64.3643 267.265 63.9733C268.122 63.7591 272.607 62.3977 276.845 60.2588C280.343 58.4927 283.418 56.3297 284.86 54.1983C289.748 63.1913 292.289 70.2293 290.725 85.4783C290.013 88.2646 289.552 90.9523 288.77 93.4938C288.184 96.4263 286.663 99.0743 285.838 101.705C284.86 106.397 283.703 110.099 282.319 113.435C276.843 126.635 270.245 132.124 260.227 134.94L251.43 135.526L242.632 135.917L228.752 136.308L215.067 136.504L168.733 136.699L76.6525 136.398L72.156 135.421L67.073 133.466L63.3585 131.315L59.8395 128.774L56.3205 125.059L53.5835 121.149L51.2375 116.262L49.6735 111.179L47.132 102.772L45.177 96.1254L43.0265 87.3279L42.049 80.2899L41.8535 74.2294L42.44 68.1689L43.4175 64.0634L44.395 60.9354L45.7635 57.6119L47.3275 54.7848Z" fill="#F1EADC"/>
<path d="M76 5.99957C88.121 15.5791 101.091 33.0786 103.241 53.6061C103.528 58.7866 103.447 61.726 102.85 66.9001L102.264 70.0281L101.286 73.5471L99.5 79.9996L86.8193 71.2011L86.2328 71.0056L84.4733 70.0281L82.5183 69.0506L80.3678 68.0731L75.8713 66.3136L70.9838 65.1406L70.3973 64.9451H69.4198H68.8333L68.0513 64.7496L63.1094 63.1031L55 58.9996L51 56.4996L48 53.9996C51.7145 47.7436 54.5618 40.6346 57.1033 35.4246C68.8333 11.3781 71.4045 9.24388 76 5.99957Z" fill="#F1EADC"/>
<path d="M76.6523 5.88893C79.9001 4.05526 82.9083 2.78177 86.2318 2.39213C87.6003 2.19527 96.68 2.2061 109.692 2.19679C147.417 2.62845 217.608 2.5649 244.782 2.564C251.011 3.08685 254.815 4.87682 256.179 5.8706C238.331 20.9633 229.924 34.6483 228.947 53.8073C200.795 45.9873 145.859 46.1828 104.218 55.1758C101.872 34.8438 91.3149 17.4443 76.6523 5.88893Z" fill="#F1EADC"/>
<path d="M232.467 38.3628C237.94 23.5048 243.745 16.8265 256.318 6.30077C264.19 12.0588 270.454 22.757 284.665 54.0028C279.972 59.8678 269.22 63.1913 256.122 66.3193C247.324 69.4473 241.46 73.7483 234.422 79.8088C228.947 69.6428 227.578 50.8748 232.467 38.3628Z" fill="#F1EADC"/>
<path d="M104.217 55.3742C143.158 48.8006 170.557 47.0487 201.185 49.8975C205.502 50.299 209.93 50.8604 213.893 51.4615C218.5 52.1602 223.076 53.1237 228.946 54.0024C228.946 67.1322 230.706 72.8152 234.029 80.2619C227.187 85.6734 221.713 90.9519 216.239 96.2304C212.915 98.9674 206.789 102.529 202.749 104.246C199.426 106.005 198.644 106.592 194.343 107.374C183.004 108.938 169.541 110.207 158.371 109.853C150.764 109.759 143.029 108.793 134.911 106.521C131.067 105.446 129.241 104.759 125.527 102.683C121.615 100.496 118.151 97.5999 115.165 94.8629C113.033 92.9079 111.087 91.099 109.105 89.1934C107.786 87.9248 106.395 86.7199 104.999 85.4789C103.222 83.898 101.551 82.1016 99.5254 80.6539C103.637 70.4626 104.608 64.9765 104.217 55.3742Z" fill="#6E9C9F"/>
<path d="M102.654 71.598L107.654 74.4848V68.7113L102.654 71.598ZM229.338 71.598L224.338 68.7113V74.4848L229.338 71.598ZM107.154 72.098L224.838 72.098V71.098L107.154 71.098V72.098Z" fill="black"/>
<path d="M157.393 48.529L154.474 53.5105L160.247 53.5473L157.393 48.529ZM157.002 109.916L159.92 104.935L154.147 104.898L157.002 109.916ZM156.864 53.0257L156.53 105.413L157.53 105.419L157.864 53.0321L156.864 53.0257Z" fill="black"/>
<path d="M164.76 63.56V62.16L171.92 53H174.08L166.98 62.16L165.96 61.84H177.14V63.56H164.76ZM172.54 67V63.56L172.6 61.84V58.8H174.48V67H172.54ZM184.459 67.16C183.366 67.16 182.386 66.88 181.519 66.32C180.666 65.76 179.986 64.9467 179.479 63.88C178.986 62.8133 178.739 61.52 178.739 60C178.739 58.48 178.986 57.1867 179.479 56.12C179.986 55.0533 180.666 54.24 181.519 53.68C182.386 53.12 183.366 52.84 184.459 52.84C185.539 52.84 186.512 53.12 187.379 53.68C188.246 54.24 188.926 55.0533 189.419 56.12C189.912 57.1867 190.159 58.48 190.159 60C190.159 61.52 189.912 62.8133 189.419 63.88C188.926 64.9467 188.246 65.76 187.379 66.32C186.512 66.88 185.539 67.16 184.459 67.16ZM184.459 65.38C185.192 65.38 185.832 65.18 186.379 64.78C186.939 64.38 187.372 63.78 187.679 62.98C187.999 62.18 188.159 61.1867 188.159 60C188.159 58.8133 187.999 57.82 187.679 57.02C187.372 56.22 186.939 55.62 186.379 55.22C185.832 54.82 185.192 54.62 184.459 54.62C183.726 54.62 183.079 54.82 182.519 55.22C181.959 55.62 181.519 56.22 181.199 57.02C180.892 57.82 180.739 58.8133 180.739 60C180.739 61.1867 180.892 62.18 181.199 62.98C181.519 63.78 181.959 64.38 182.519 64.78C183.079 65.18 183.726 65.38 184.459 65.38ZM203.77 67.12C202.69 67.12 201.723 66.8867 200.87 66.42C200.03 65.9533 199.37 65.3133 198.89 64.5C198.41 63.6867 198.17 62.7533 198.17 61.7C198.17 60.6467 198.41 59.7133 198.89 58.9C199.37 58.0867 200.03 57.4533 200.87 57C201.723 56.5333 202.69 56.3 203.77 56.3C204.73 56.3 205.583 56.4933 206.33 56.88C207.09 57.2533 207.677 57.8133 208.09 58.56L206.63 59.5C206.283 58.98 205.857 58.6 205.35 58.36C204.857 58.1067 204.323 57.98 203.75 57.98C203.057 57.98 202.437 58.1333 201.89 58.44C201.343 58.7467 200.91 59.18 200.59 59.74C200.27 60.2867 200.11 60.94 200.11 61.7C200.11 62.46 200.27 63.12 200.59 63.68C200.91 64.24 201.343 64.6733 201.89 64.98C202.437 65.2867 203.057 65.44 203.75 65.44C204.323 65.44 204.857 65.32 205.35 65.08C205.857 64.8267 206.283 64.44 206.63 63.92L208.09 64.84C207.677 65.5733 207.09 66.14 206.33 66.54C205.583 66.9267 204.73 67.12 203.77 67.12ZM210.976 67V56.4H212.956L217.516 64.24H216.716L221.396 56.4H223.196V67H221.456V58.56L221.776 58.74L217.496 65.8H216.656L212.356 58.6L212.736 58.52V67H210.976Z" fill="black"/>
<path d="M150.84 175.16C149.6 175.16 148.54 174.887 147.66 174.34C146.78 173.793 146.107 173.007 145.64 171.98C145.187 170.94 144.96 169.673 144.96 168.18C144.96 166.593 145.24 165.253 145.8 164.16C146.36 163.067 147.14 162.24 148.14 161.68C149.14 161.12 150.287 160.84 151.58 160.84C152.247 160.84 152.88 160.907 153.48 161.04C154.093 161.173 154.62 161.38 155.06 161.66L154.3 163.22C153.94 162.967 153.527 162.793 153.06 162.7C152.607 162.607 152.127 162.56 151.62 162.56C150.193 162.56 149.06 163.007 148.22 163.9C147.38 164.78 146.96 166.093 146.96 167.84C146.96 168.12 146.973 168.453 147 168.84C147.027 169.227 147.093 169.607 147.2 169.98L146.52 169.3C146.72 168.687 147.033 168.173 147.46 167.76C147.9 167.333 148.42 167.02 149.02 166.82C149.633 166.607 150.293 166.5 151 166.5C151.933 166.5 152.76 166.673 153.48 167.02C154.2 167.367 154.767 167.86 155.18 168.5C155.593 169.127 155.8 169.873 155.8 170.74C155.8 171.633 155.58 172.413 155.14 173.08C154.7 173.747 154.107 174.26 153.36 174.62C152.613 174.98 151.773 175.16 150.84 175.16ZM150.76 173.54C151.373 173.54 151.907 173.427 152.36 173.2C152.827 172.973 153.193 172.66 153.46 172.26C153.727 171.847 153.86 171.367 153.86 170.82C153.86 169.993 153.573 169.34 153 168.86C152.427 168.367 151.647 168.12 150.66 168.12C150.02 168.12 149.46 168.24 148.98 168.48C148.5 168.72 148.12 169.047 147.84 169.46C147.573 169.86 147.44 170.32 147.44 170.84C147.44 171.32 147.567 171.767 147.82 172.18C148.073 172.58 148.447 172.907 148.94 173.16C149.433 173.413 150.04 173.54 150.76 173.54ZM162.224 175.16C161.237 175.16 160.277 175.007 159.344 174.7C158.424 174.393 157.67 173.98 157.084 173.46L158.004 171.88C158.47 172.32 159.077 172.68 159.824 172.96C160.57 173.24 161.364 173.38 162.204 173.38C163.27 173.38 164.09 173.153 164.664 172.7C165.237 172.247 165.524 171.64 165.524 170.88C165.524 170.36 165.397 169.907 165.144 169.52C164.89 169.133 164.45 168.84 163.824 168.64C163.21 168.427 162.364 168.32 161.284 168.32H158.104L158.844 161H166.744V162.74H159.584L160.624 161.76L160.044 167.54L159.004 166.58H161.704C163.104 166.58 164.23 166.76 165.084 167.12C165.937 167.48 166.557 167.98 166.944 168.62C167.33 169.247 167.524 169.973 167.524 170.8C167.524 171.6 167.33 172.333 166.944 173C166.557 173.653 165.97 174.18 165.184 174.58C164.41 174.967 163.424 175.16 162.224 175.16ZM180.879 175.12C179.799 175.12 178.833 174.887 177.979 174.42C177.139 173.953 176.479 173.313 175.999 172.5C175.519 171.687 175.279 170.753 175.279 169.7C175.279 168.647 175.519 167.713 175.999 166.9C176.479 166.087 177.139 165.453 177.979 165C178.833 164.533 179.799 164.3 180.879 164.3C181.839 164.3 182.693 164.493 183.439 164.88C184.199 165.253 184.786 165.813 185.199 166.56L183.739 167.5C183.393 166.98 182.966 166.6 182.459 166.36C181.966 166.107 181.433 165.98 180.859 165.98C180.166 165.98 179.546 166.133 178.999 166.44C178.453 166.747 178.019 167.18 177.699 167.74C177.379 168.287 177.219 168.94 177.219 169.7C177.219 170.46 177.379 171.12 177.699 171.68C178.019 172.24 178.453 172.673 178.999 172.98C179.546 173.287 180.166 173.44 180.859 173.44C181.433 173.44 181.966 173.32 182.459 173.08C182.966 172.827 183.393 172.44 183.739 171.92L185.199 172.84C184.786 173.573 184.199 174.14 183.439 174.54C182.693 174.927 181.839 175.12 180.879 175.12ZM188.085 175V164.4H190.065L194.625 172.24H193.825L198.505 164.4H200.305V175H198.565V166.56L198.885 166.74L194.605 173.8H193.765L189.465 166.6L189.845 166.52V175H188.085Z" fill="black"/>
<path d="M306.44 42.76H307.84L317 49.92V52.08L307.84 44.98L308.16 43.96V55.14H306.44V42.76ZM303 50.54H306.44L308.16 50.6H311.2V52.48H303V50.54ZM302.84 61.2394C302.84 60.2527 302.993 59.2927 303.3 58.3594C303.607 57.4394 304.02 56.686 304.54 56.0994L306.12 57.0194C305.68 57.486 305.32 58.0927 305.04 58.8394C304.76 59.586 304.62 60.3794 304.62 61.2194C304.62 62.286 304.847 63.106 305.3 63.6794C305.753 64.2527 306.36 64.5394 307.12 64.5394C307.64 64.5394 308.093 64.4127 308.48 64.1594C308.867 63.906 309.16 63.466 309.36 62.8394C309.573 62.226 309.68 61.3794 309.68 60.2994V57.1194L317 57.8594V65.7594H315.26V58.5994L316.24 59.6394L310.46 59.0594L311.42 58.0194V60.7194C311.42 62.1194 311.24 63.246 310.88 64.0994C310.52 64.9527 310.02 65.5727 309.38 65.9594C308.753 66.346 308.027 66.5394 307.2 66.5394C306.4 66.5394 305.667 66.346 305 65.9594C304.347 65.5727 303.82 64.986 303.42 64.1994C303.033 63.426 302.84 62.4394 302.84 61.2394ZM302.88 79.8948C302.88 78.8148 303.113 77.8482 303.58 76.9948C304.047 76.1548 304.687 75.4948 305.5 75.0148C306.313 74.5348 307.247 74.2948 308.3 74.2948C309.353 74.2948 310.287 74.5348 311.1 75.0148C311.913 75.4948 312.547 76.1548 313 76.9948C313.467 77.8482 313.7 78.8148 313.7 79.8948C313.7 80.8548 313.507 81.7082 313.12 82.4548C312.747 83.2148 312.187 83.8015 311.44 84.2148L310.5 82.7548C311.02 82.4082 311.4 81.9815 311.64 81.4748C311.893 80.9815 312.02 80.4482 312.02 79.8748C312.02 79.1815 311.867 78.5615 311.56 78.0148C311.253 77.4682 310.82 77.0348 310.26 76.7148C309.713 76.3948 309.06 76.2348 308.3 76.2348C307.54 76.2348 306.88 76.3948 306.32 76.7148C305.76 77.0348 305.327 77.4682 305.02 78.0148C304.713 78.5615 304.56 79.1815 304.56 79.8748C304.56 80.4482 304.68 80.9815 304.92 81.4748C305.173 81.9815 305.56 82.4082 306.08 82.7548L305.16 84.2148C304.427 83.8015 303.86 83.2148 303.46 82.4548C303.073 81.7082 302.88 80.8548 302.88 79.8948ZM303 87.1006H313.6V89.0806L305.76 93.6406V92.8406L313.6 97.5206V99.3206H303V97.5806H311.44L311.26 97.9006L304.2 93.6206V92.7806L311.4 88.4806L311.48 88.8606H303V87.1006Z" fill="black"/>
<path d="M164 78.74H165.36L170.86 84.44C171.34 84.9467 171.76 85.32 172.12 85.56C172.493 85.8133 172.833 85.98 173.14 86.06C173.46 86.1533 173.767 86.2 174.06 86.2C174.78 86.2 175.347 85.9467 175.76 85.44C176.173 84.9333 176.38 84.1933 176.38 83.22C176.38 82.4733 176.253 81.8 176 81.2C175.76 80.6 175.38 80.08 174.86 79.64L176.04 78.28C176.72 78.8133 177.24 79.5267 177.6 80.42C177.973 81.3267 178.16 82.32 178.16 83.4C178.16 84.3733 178 85.22 177.68 85.94C177.373 86.66 176.927 87.2133 176.34 87.6C175.753 88 175.06 88.2 174.26 88.2C173.807 88.2 173.36 88.14 172.92 88.02C172.48 87.9 172.013 87.6733 171.52 87.34C171.027 87.0067 170.473 86.5267 169.86 85.9L164.96 80.82L165.74 80.34V88.8H164V78.74ZM163.84 95.1244C163.84 94.1377 163.993 93.1777 164.3 92.2444C164.607 91.3244 165.02 90.571 165.54 89.9844L167.12 90.9044C166.68 91.371 166.32 91.9777 166.04 92.7244C165.76 93.471 165.62 94.271 165.62 95.1244C165.62 96.1644 165.84 96.971 166.28 97.5444C166.733 98.131 167.34 98.4244 168.1 98.4244C168.833 98.4244 169.42 98.1444 169.86 97.5844C170.313 97.0377 170.54 96.1644 170.54 94.9644V93.8444H171.94L177.06 98.0044L176.26 98.2844V90.6244H178V99.8644H176.64L171.54 95.7244L172.16 94.6844V95.3444C172.16 97.0377 171.78 98.3044 171.02 99.1444C170.26 99.9977 169.293 100.424 168.12 100.424C167.333 100.424 166.613 100.231 165.96 99.8444C165.307 99.4577 164.787 98.871 164.4 98.0844C164.027 97.311 163.84 96.3244 163.84 95.1244ZM163.88 113.981C163.88 112.901 164.113 111.934 164.58 111.081C165.047 110.241 165.687 109.581 166.5 109.101C167.313 108.621 168.247 108.381 169.3 108.381C170.353 108.381 171.287 108.621 172.1 109.101C172.913 109.581 173.547 110.241 174 111.081C174.467 111.934 174.7 112.901 174.7 113.981C174.7 114.941 174.507 115.794 174.12 116.541C173.747 117.301 173.187 117.887 172.44 118.301L171.5 116.841C172.02 116.494 172.4 116.067 172.64 115.561C172.893 115.067 173.02 114.534 173.02 113.961C173.02 113.267 172.867 112.647 172.56 112.101C172.253 111.554 171.82 111.121 171.26 110.801C170.713 110.481 170.06 110.321 169.3 110.321C168.54 110.321 167.88 110.481 167.32 110.801C166.76 111.121 166.327 111.554 166.02 112.101C165.713 112.647 165.56 113.267 165.56 113.961C165.56 114.534 165.68 115.067 165.92 115.561C166.173 116.067 166.56 116.494 167.08 116.841L166.16 118.301C165.427 117.887 164.86 117.301 164.46 116.541C164.073 115.794 163.88 114.941 163.88 113.981ZM164 121.187H174.6V123.167L166.76 127.727V126.927L174.6 131.607V133.407H164V131.667H172.44L172.26 131.987L165.2 127.707V126.867L172.4 122.567L172.48 122.947H164V121.187Z" fill="black"/>
<path d="M41 153.5L46 156.387L46 150.613L41 153.5ZM291 153.5L286 150.613L286 156.387L291 153.5ZM45.5 154L286.5 154L286.5 153L45.5 153L45.5 154Z" fill="black"/>
<path d="M296 0L293.113 5L298.887 5L296 0ZM296 135L298.887 130L293.113 130L296 135ZM295.5 4.5L295.5 130.5L296.5 130.5L296.5 4.5L295.5 4.5Z" fill="black"/>
<path d="M3 110L0.227601 115.064L5.99961 114.933L3 110ZM4 154L6.7724 148.936L1.00039 149.067L4 154ZM2.60238 114.51L3.39788 149.513L4.39762 149.49L3.60212 114.487L2.60238 114.51Z" fill="black"/>
<path d="M16.14 125H18.14V139H16.14V125ZM8.1 139H6.1L6.1 125H8.1L8.1 139ZM16.32 132.76H7.9V131.02H16.32V132.76ZM21.7705 134.34V132.68H27.1505V134.34H21.7705ZM31.6552 139L31.6552 125.8L32.5152 126.74H28.4952V125H33.6352V139H31.6552ZM41.3775 139.16C40.3908 139.16 39.4308 139.007 38.4975 138.7C37.5775 138.393 36.8242 137.98 36.2375 137.46L37.1575 135.88C37.6242 136.32 38.2308 136.68 38.9775 136.96C39.7242 137.24 40.5242 137.38 41.3775 137.38C42.4175 137.38 43.2242 137.16 43.7975 136.72C44.3842 136.267 44.6775 135.66 44.6775 134.9C44.6775 134.167 44.3975 133.58 43.8375 133.14C43.2908 132.687 42.4175 132.46 41.2175 132.46H40.0975V131.06L44.2575 125.94L44.5375 126.74H36.8775V125H46.1175V126.36L41.9775 131.46L40.9375 130.84H41.5975C43.2908 130.84 44.5575 131.22 45.3975 131.98C46.2508 132.74 46.6775 133.707 46.6775 134.88C46.6775 135.667 46.4842 136.387 46.0975 137.04C45.7108 137.693 45.1242 138.213 44.3375 138.6C43.5642 138.973 42.5775 139.16 41.3775 139.16Z" fill="black"/>
<path d="M84.25 125.65C81.4333 125.65 78.79 125.195 76.32 124.285C73.85 123.332 71.7267 121.923 69.95 120.06L72.16 116.03C74.11 117.85 76.06 119.15 78.01 119.93C79.96 120.71 81.9533 121.1 83.99 121.1C86.33 121.1 88.2367 120.667 89.71 119.8C91.1833 118.89 91.92 117.568 91.92 115.835C91.92 114.578 91.53 113.647 90.75 113.04C90.0133 112.433 88.9517 111.935 87.565 111.545C86.1783 111.112 84.5317 110.635 82.625 110.115C80.285 109.422 78.3133 108.685 76.71 107.905C75.1067 107.125 73.8933 106.15 73.07 104.98C72.2467 103.81 71.835 102.337 71.835 100.56C71.835 98.3933 72.3983 96.5733 73.525 95.1C74.6517 93.5833 76.19 92.435 78.14 91.655C80.1333 90.875 82.3867 90.485 84.9 90.485C87.4133 90.485 89.6883 90.875 91.725 91.655C93.7617 92.435 95.5167 93.5833 96.99 95.1L94.39 99.065C93.0467 97.6783 91.5733 96.66 89.97 96.01C88.3667 95.3167 86.5683 94.97 84.575 94.97C83.405 94.97 82.2567 95.1217 81.13 95.425C80.0033 95.685 79.0717 96.1833 78.335 96.92C77.5983 97.6133 77.23 98.61 77.23 99.91C77.23 100.993 77.5117 101.86 78.075 102.51C78.6817 103.117 79.5483 103.637 80.675 104.07C81.845 104.503 83.2533 104.98 84.9 105.5C87.4567 106.237 89.6667 106.973 91.53 107.71C93.4367 108.447 94.91 109.4 95.95 110.57C96.99 111.74 97.51 113.365 97.51 115.445C97.51 118.652 96.2967 121.165 93.87 122.985C91.4433 124.762 88.2367 125.65 84.25 125.65Z" fill="#6E9C9F"/>
</svg>
