<svg width="480" height="365" viewBox="0 0 480 365" fill="none" xmlns="http://www.w3.org/2000/svg">
<path d="M276.621 79.741L279.965 121.487C279.965 121.487 332.759 140.567 349.758 146.829C366.756 153.092 398.547 157.896 429.382 164.254L420.71 267.994L231.274 363L86.165 284.67L82.1972 173.953C78.0698 164.329 70.1942 143.12 71.7108 135.27C74.3182 114.113 94.2355 64.9557 108.668 19.9017L115.187 14.6267L220.108 1.01401C223.31 0.846727 222.924 1.70164 242.044 30.9051C248.628 40.9609 268.402 66.0791 276.621 79.741Z" fill="#F1EADC"/>
<path d="M279.965 121.487C278.659 105.184 276.621 79.741 276.621 79.741C268.402 66.0791 248.628 40.9609 242.044 30.9051C222.924 1.70164 223.31 0.846727 220.108 1.01401L115.187 14.6267L108.668 19.9017C94.2355 64.9557 74.3182 114.113 71.7108 135.27C70.1942 143.12 78.0698 164.329 82.1972 173.953M279.965 121.487C281.271 137.789 273.085 203.83 273.085 203.83M279.965 121.487C279.965 121.487 332.759 140.567 349.758 146.829C366.756 153.092 398.547 157.896 429.382 164.254M273.085 203.83L194.088 229.517M273.085 203.83L296.973 217.526M429.382 164.254L226.796 245.76M429.382 164.254L420.71 267.994L231.274 363M226.796 245.76L231.274 363M226.796 245.76L82.1972 173.953M231.274 363L86.165 284.67L82.1972 173.953" stroke="black" stroke-width="2"/>
<path d="M195.877 230.032L271.923 204.087L295.184 217.507L227.19 245.241L195.877 230.032Z" fill="#003349"/>
<path d="M423.119 220.191L408.722 219.164L415.031 232.146L423.119 220.191ZM231.663 313.235L246.06 314.263L239.751 301.281L231.663 313.235ZM412.454 223.984L241.235 307.194L242.328 309.442L413.547 226.233L412.454 223.984Z" fill="#6E9C9F"/>
<path d="M66.1574 1.00006L58.9178 13.4869L73.3515 13.5132L66.1574 1.00006ZM66.8906 285.296L67.3869 12.2523L64.8869 12.2478L64.3906 285.292L66.8906 285.296Z" fill="#6E9C9F"/>
<path d="M438.328 162.038L431.324 174.659L445.756 174.414L438.328 162.038ZM441.367 267.587L439.768 173.266L437.269 173.308L438.867 267.629L441.367 267.587Z" fill="#6E9C9F"/>
<path d="M228.979 315.919L221.085 303.835L214.567 316.713L228.979 315.919ZM84.0441 242.558L91.9375 254.642L98.456 241.764L84.0441 242.558ZM219.506 309.724L94.646 246.523L93.5169 248.753L218.377 311.954L219.506 309.724Z" fill="#6E9C9F"/>
<path d="M294.289 201.403L287.854 188.483L279.883 200.516L294.289 201.403ZM222.716 153.986L229.151 166.907L237.123 154.874L222.716 153.986ZM285.601 194.148L232.785 159.158L231.405 161.242L284.22 196.232L285.601 194.148Z" fill="#6E9C9F"/>
<path d="M330.968 152.197L317.012 148.516L320.803 162.443L330.968 152.197ZM179.772 193.351L193.728 197.031L189.938 183.104L179.772 193.351ZM319.785 153.945L190.298 189.19L190.955 191.602L320.442 156.358L319.785 153.945Z" fill="#6E9C9F"/>
<path d="M311.487 263.746C311.682 264.631 311.639 265.487 311.357 266.314C311.085 267.125 310.619 267.829 309.959 268.425C309.311 269.018 308.519 269.418 307.581 269.625C306.592 269.843 305.668 269.801 304.809 269.499C303.948 269.184 303.203 268.624 302.575 267.821C301.961 267.014 301.517 265.993 301.244 264.756C300.842 262.933 300.722 261.369 300.885 260.063C301.047 258.757 301.453 257.719 302.102 256.948C302.749 256.163 303.593 255.656 304.634 255.427C305.533 255.228 306.395 255.27 307.222 255.552C308.059 255.818 308.77 256.289 309.357 256.966L308.53 258.233C308.109 257.684 307.579 257.296 306.942 257.068C306.302 256.827 305.636 256.782 304.946 256.935C304.243 257.09 303.672 257.441 303.233 257.988C302.794 258.536 302.514 259.246 302.392 260.119C302.284 260.99 302.35 261.999 302.589 263.148C302.684 262.649 302.871 262.198 303.151 261.795C303.428 261.379 303.781 261.028 304.209 260.743C304.651 260.454 305.139 260.251 305.672 260.133C306.571 259.935 307.424 259.966 308.232 260.224C309.053 260.48 309.749 260.914 310.321 261.525C310.906 262.133 311.294 262.873 311.487 263.746ZM307.274 268.136C307.873 268.004 308.386 267.734 308.815 267.325C309.257 266.914 309.573 266.428 309.763 265.867C309.951 265.293 309.978 264.707 309.846 264.108C309.714 263.509 309.444 262.995 309.035 262.566C308.627 262.137 308.135 261.829 307.562 261.642C307.001 261.452 306.421 261.422 305.822 261.555C305.223 261.687 304.703 261.958 304.261 262.37C303.832 262.778 303.523 263.263 303.332 263.824C303.142 264.385 303.113 264.965 303.245 265.564C303.377 266.163 303.649 266.683 304.06 267.125C304.469 267.553 304.954 267.863 305.514 268.053C306.088 268.241 306.675 268.268 307.274 268.136ZM314.598 267.873C314.483 267.352 314.414 266.855 314.392 266.382C314.382 265.906 314.442 265.436 314.572 264.97C314.714 264.502 314.952 264.033 315.286 263.563C315.616 263.081 316.073 262.584 316.657 262.073C316.999 261.766 317.343 261.471 317.691 261.19C318.051 260.905 318.377 260.615 318.666 260.319C318.969 260.02 319.196 259.718 319.347 259.411C319.495 259.092 319.53 258.756 319.452 258.405C319.386 258.105 319.232 257.839 318.989 257.606C318.757 257.357 318.446 257.186 318.057 257.095C317.679 256.987 317.235 256.989 316.728 257.101C316.337 257.187 315.99 257.318 315.688 257.494C315.398 257.667 315.142 257.867 314.919 258.094C314.706 258.305 314.522 258.523 314.367 258.748C314.222 258.958 314.1 259.148 314.002 259.32L312.66 258.346C312.739 258.206 312.88 258.011 313.084 257.761C313.286 257.498 313.552 257.221 313.884 256.93C314.216 256.638 314.613 256.366 315.076 256.114C315.55 255.845 316.086 255.645 316.685 255.513C317.492 255.335 318.214 255.326 318.85 255.486C319.496 255.63 320.028 255.909 320.447 256.322C320.863 256.722 321.136 257.214 321.265 257.8C321.377 258.308 321.364 258.775 321.226 259.202C321.101 259.625 320.9 260.018 320.625 260.379C320.363 260.737 320.072 261.06 319.754 261.349C319.445 261.622 319.163 261.862 318.909 262.068C318.386 262.484 317.942 262.855 317.577 263.181C317.212 263.507 316.919 263.818 316.697 264.112C316.485 264.391 316.322 264.673 316.208 264.958C316.106 265.239 316.053 265.558 316.05 265.914L322.944 264.393L323.289 265.956L314.598 267.873Z" fill="black"/>
<path d="M211.874 198.127C212.364 198.062 212.817 198.114 213.236 198.284C213.651 198.442 214.013 198.7 214.322 199.056C214.628 199.402 214.858 199.83 215.012 200.34C215.212 201.001 215.225 201.631 215.05 202.228C214.89 202.833 214.558 203.36 214.054 203.808C213.553 204.268 212.912 204.615 212.131 204.851C211.307 205.101 210.533 205.163 209.808 205.039C209.098 204.922 208.484 204.634 207.966 204.175L208.636 202.925C209.017 203.283 209.458 203.529 209.96 203.661C210.473 203.79 211.065 203.753 211.738 203.55C212.486 203.323 213.02 202.973 213.338 202.497C213.67 202.03 213.734 201.46 213.531 200.787C213.324 200.104 212.927 199.632 212.339 199.372C211.759 199.097 211.03 199.093 210.151 199.359L209.728 199.486L209.364 198.282L209.819 198.145C210.6 197.908 211.14 197.538 211.437 197.034C211.745 196.526 211.814 195.99 211.644 195.426C211.525 195.036 211.336 194.744 211.077 194.55C210.817 194.356 210.511 194.247 210.161 194.223C209.807 194.188 209.424 194.233 209.011 194.357C208.415 194.538 207.928 194.827 207.551 195.225C207.182 195.609 206.941 196.067 206.83 196.598L205.675 195.952C205.759 195.524 205.939 195.121 206.215 194.741C206.502 194.358 206.861 194.019 207.292 193.723C207.734 193.423 208.227 193.191 208.769 193.027C209.453 192.821 210.091 192.758 210.684 192.839C211.287 192.917 211.801 193.129 212.225 193.474C212.65 193.82 212.95 194.285 213.127 194.871C213.255 195.294 213.295 195.72 213.247 196.149C213.196 196.567 213.053 196.954 212.817 197.309C212.588 197.651 212.274 197.923 211.874 198.127ZM220.232 190.876L214.292 192.672L213.894 191.354L222.095 188.874L219.779 202.184L218.152 202.676L220.232 190.876ZM234.761 195.575C234.121 195.769 233.501 195.832 232.901 195.765C232.308 195.684 231.754 195.496 231.239 195.202C230.734 194.905 230.293 194.523 229.915 194.057C229.549 193.588 229.275 193.055 229.095 192.458C228.852 191.655 228.809 190.869 228.967 190.099C229.125 189.329 229.471 188.65 230.003 188.063C230.533 187.465 231.226 187.036 232.083 186.777C232.918 186.524 233.703 186.495 234.436 186.687C235.177 186.866 235.794 187.224 236.288 187.761L235.021 188.624C234.683 188.288 234.286 188.071 233.83 187.972C233.37 187.862 232.902 187.879 232.425 188.024C231.904 188.181 231.468 188.461 231.116 188.863C230.775 189.263 230.551 189.738 230.446 190.291C230.338 190.833 230.375 191.408 230.559 192.015C230.739 192.612 231.028 193.117 231.425 193.529C231.83 193.928 232.287 194.204 232.795 194.359C233.314 194.509 233.834 194.506 234.355 194.349C234.691 194.247 234.993 194.09 235.261 193.879C235.539 193.665 235.763 193.426 235.932 193.161C236.108 192.883 236.204 192.612 236.218 192.347L237.746 192.347C237.697 192.811 237.542 193.26 237.283 193.694C237.031 194.114 236.689 194.49 236.256 194.822C235.835 195.15 235.336 195.402 234.761 195.575ZM240.273 193.731L237.704 185.237L239.185 184.789L244.025 189.4L245.515 182.875L246.963 182.438L249.532 190.932L248.165 191.345L246.221 184.917L244.908 190.678L243.997 190.954L239.696 186.89L241.639 193.318L240.273 193.731Z" fill="black"/>
<path d="M10.319 166.1H12.019V178H10.319V166.1ZM3.485 178H1.785V166.1H3.485V178ZM10.472 172.696H3.315V171.217H10.472V172.696ZM15.1049 174.039V172.628H19.6779V174.039H15.1049ZM25.6417 178.136C24.803 178.136 23.987 178.006 23.1937 177.745C22.4117 177.484 21.7714 177.133 21.2727 176.691L22.0547 175.348C22.4514 175.722 22.967 176.028 23.6017 176.266C24.2364 176.504 24.9107 176.623 25.6247 176.623C26.5314 176.623 27.2284 176.43 27.7157 176.045C28.203 175.66 28.4467 175.144 28.4467 174.498C28.4467 174.056 28.339 173.671 28.1237 173.342C27.9084 173.013 27.5344 172.764 27.0017 172.594C26.4804 172.413 25.7607 172.322 24.8427 172.322H22.1397L22.7687 166.1H29.4837V167.579H23.3977L24.2817 166.746L23.7887 171.659L22.9047 170.843H25.1997C26.3897 170.843 27.3474 170.996 28.0727 171.302C28.798 171.608 29.325 172.033 29.6537 172.577C29.9824 173.11 30.1467 173.727 30.1467 174.43C30.1467 175.11 29.9824 175.733 29.6537 176.3C29.325 176.855 28.8264 177.303 28.1577 177.643C27.5004 177.972 26.6617 178.136 25.6417 178.136ZM33.9074 178V166.78L34.6384 167.579H31.2214V166.1H35.5904V178H33.9074ZM43.2254 178.102C42.3074 178.102 41.4858 177.904 40.7604 177.507C40.0464 177.11 39.4854 176.566 39.0774 175.875C38.6694 175.184 38.4654 174.39 38.4654 173.495C38.4654 172.6 38.6694 171.806 39.0774 171.115C39.4854 170.424 40.0464 169.885 40.7604 169.5C41.4858 169.103 42.3074 168.905 43.2254 168.905C44.0414 168.905 44.7668 169.069 45.4014 169.398C46.0474 169.715 46.5461 170.191 46.8974 170.826L45.6564 171.625C45.3618 171.183 44.9991 170.86 44.5684 170.656C44.1491 170.441 43.6958 170.333 43.2084 170.333C42.6191 170.333 42.0921 170.463 41.6274 170.724C41.1628 170.985 40.7944 171.353 40.5224 171.829C40.2504 172.294 40.1144 172.849 40.1144 173.495C40.1144 174.141 40.2504 174.702 40.5224 175.178C40.7944 175.654 41.1628 176.022 41.6274 176.283C42.0921 176.544 42.6191 176.674 43.2084 176.674C43.6958 176.674 44.1491 176.572 44.5684 176.368C44.9991 176.153 45.3618 175.824 45.6564 175.382L46.8974 176.164C46.5461 176.787 46.0474 177.269 45.4014 177.609C44.7668 177.938 44.0414 178.102 43.2254 178.102ZM49.3503 178V168.99H51.0333L54.9093 175.654H54.2293L58.2073 168.99H59.7373V178H58.2583V170.826L58.5303 170.979L54.8923 176.98H54.1783L50.5233 170.86L50.8463 170.792V178H49.3503Z" fill="black"/>
<path d="M452.319 207.1H454.019V219H452.319V207.1ZM445.485 219H443.785V207.1H445.485V219ZM452.472 213.696H445.315V212.217H452.472V213.696ZM457.105 215.039V213.628H461.678V215.039H457.105ZM463.397 219V217.844L468.242 213.169C468.673 212.761 468.99 212.404 469.194 212.098C469.409 211.781 469.551 211.492 469.619 211.231C469.698 210.959 469.738 210.698 469.738 210.449C469.738 209.837 469.523 209.355 469.092 209.004C468.661 208.653 468.032 208.477 467.205 208.477C466.57 208.477 465.998 208.585 465.488 208.8C464.978 209.004 464.536 209.327 464.162 209.769L463.006 208.766C463.459 208.188 464.066 207.746 464.825 207.44C465.596 207.123 466.44 206.964 467.358 206.964C468.185 206.964 468.905 207.1 469.517 207.372C470.129 207.633 470.599 208.012 470.928 208.511C471.268 209.01 471.438 209.599 471.438 210.279C471.438 210.664 471.387 211.044 471.285 211.418C471.183 211.792 470.99 212.189 470.707 212.608C470.424 213.027 470.016 213.498 469.483 214.019L465.165 218.184L464.757 217.521H471.948V219H463.397ZM475.692 219V207.78L476.423 208.579H473.006V207.1H477.375V219H475.692Z" fill="black"/>
<path d="M146.624 268.391C145.616 268.287 144.733 267.955 143.973 267.394C143.213 266.833 142.668 266.133 142.339 265.295L143.532 264.453C143.84 265.101 144.28 265.643 144.852 266.077C145.437 266.513 146.088 266.767 146.804 266.841C147.414 266.904 147.972 266.827 148.477 266.611C148.981 266.395 149.397 266.069 149.723 265.634C150.051 265.185 150.246 264.655 150.309 264.045C150.371 263.449 150.285 262.91 150.053 262.431C149.834 261.952 149.506 261.563 149.068 261.264C148.643 260.965 148.145 260.786 147.575 260.728C147.004 260.669 146.454 260.74 145.924 260.94C145.408 261.141 144.966 261.458 144.6 261.889L143.028 261.727L145.454 253.794L152.318 254.501L152.152 256.112L146.581 255.539L145.262 259.947C145.586 259.672 145.975 259.471 146.43 259.343C146.901 259.204 147.407 259.162 147.951 259.218C148.827 259.309 149.589 259.581 150.239 260.037C150.903 260.494 151.399 261.081 151.727 261.799C152.068 262.518 152.193 263.321 152.102 264.21C152.006 265.138 151.697 265.931 151.173 266.587C150.662 267.258 150.008 267.747 149.213 268.054C148.416 268.374 147.553 268.486 146.624 268.391ZM153.87 266.141C153.925 265.611 154.016 265.117 154.143 264.661C154.284 264.207 154.489 263.779 154.758 263.378C155.04 262.978 155.414 262.608 155.878 262.267C156.343 261.912 156.933 261.584 157.648 261.283C158.069 261.098 158.489 260.927 158.907 260.769C159.339 260.613 159.739 260.439 160.107 260.249C160.488 260.061 160.798 259.845 161.038 259.601C161.279 259.345 161.418 259.037 161.455 258.679C161.486 258.374 161.423 258.073 161.266 257.775C161.124 257.466 160.883 257.206 160.542 256.997C160.216 256.776 159.795 256.638 159.278 256.585C158.88 256.544 158.51 256.56 158.167 256.632C157.838 256.705 157.532 256.814 157.249 256.959C156.98 257.092 156.737 257.242 156.519 257.407C156.316 257.56 156.14 257.703 155.992 257.835L155.025 256.489C155.144 256.38 155.339 256.24 155.612 256.067C155.885 255.88 156.226 255.701 156.632 255.528C157.039 255.356 157.501 255.223 158.02 255.129C158.554 255.023 159.126 255.001 159.736 255.064C160.558 255.149 161.246 255.367 161.8 255.719C162.368 256.059 162.786 256.491 163.054 257.014C163.323 257.525 163.427 258.078 163.365 258.675C163.312 259.192 163.153 259.632 162.888 259.993C162.636 260.356 162.322 260.665 161.947 260.921C161.586 261.179 161.208 261.395 160.815 261.569C160.437 261.731 160.094 261.87 159.787 261.986C159.16 262.216 158.622 262.429 158.173 262.624C157.724 262.819 157.348 263.021 157.045 263.231C156.756 263.429 156.513 263.646 156.315 263.88C156.13 264.115 155.979 264.402 155.864 264.738L162.887 265.462L162.723 267.053L153.87 266.141Z" fill="black"/>
<line x1="82.1122" y1="172.295" x2="117.898" y2="161.559" stroke="black"/>
<path d="M117.147 161.144L237.03 225.559" stroke="black"/>
<line x1="236.576" y1="224.904" x2="225.84" y2="244.586" stroke="black"/>
<line x1="427.592" y1="164.328" x2="384.648" y2="164.328" stroke="black"/>
<path d="M235.801 225.625L386.103 164.788" stroke="black"/>
<line x1="279.203" y1="138.293" x2="384.773" y2="165.132" stroke="black"/>
<path d="M117.147 162.038L235.242 225.559L225.401 244.347L82.2559 172.774L117.147 162.038Z" fill="#F1EADC"/>
<path d="M280.869 122.673L360.494 151.302L422.225 163.828H384.649L280.869 137.883V130.725V122.673Z" fill="#F1EADC"/>
<path d="M385.544 165.617H423.119L227.189 245.241L237.925 225.559L385.544 165.617Z" fill="#F1EADC"/>
<path d="M288.482 172.969C288.755 173.381 288.907 173.811 288.938 174.262C288.977 174.704 288.904 175.143 288.718 175.577C288.542 176.003 288.258 176.397 287.867 176.759C287.36 177.229 286.799 177.516 286.186 177.62C285.572 177.741 284.953 177.673 284.329 177.417C283.697 177.168 283.104 176.744 282.549 176.145C281.964 175.513 281.569 174.844 281.364 174.139C281.157 173.449 281.148 172.771 281.334 172.105L282.751 172.159C282.595 172.658 282.568 173.163 282.669 173.672C282.777 174.189 283.07 174.706 283.547 175.221C284.079 175.795 284.627 176.121 285.194 176.199C285.76 176.293 286.3 176.101 286.816 175.624C287.34 175.139 287.59 174.575 287.567 173.932C287.559 173.29 287.244 172.633 286.62 171.959L286.32 171.635L287.243 170.78L287.566 171.129C288.121 171.728 288.69 172.051 289.273 172.097C289.865 172.152 290.377 171.979 290.809 171.579C291.109 171.302 291.288 171.004 291.349 170.685C291.409 170.367 291.373 170.045 291.242 169.719C291.118 169.385 290.91 169.061 290.617 168.745C290.194 168.287 289.721 167.976 289.198 167.812C288.691 167.648 288.174 167.632 287.648 167.764L287.723 166.444C288.144 166.332 288.586 166.317 289.048 166.399C289.517 166.489 289.98 166.663 290.435 166.921C290.898 167.188 291.322 167.529 291.707 167.944C292.192 168.468 292.528 169.015 292.714 169.583C292.909 170.16 292.944 170.715 292.819 171.247C292.694 171.78 292.407 172.254 291.958 172.67C291.634 172.97 291.268 173.193 290.862 173.337C290.464 173.474 290.053 173.515 289.63 173.458C289.223 173.403 288.841 173.24 288.482 172.969ZM288.368 178.751C288.701 178.443 289.036 178.18 289.373 177.96C289.718 177.749 290.089 177.591 290.486 177.486C290.891 177.389 291.337 177.362 291.824 177.405C292.32 177.44 292.881 177.562 293.507 177.77C293.879 177.889 294.243 178.015 294.599 178.149C294.962 178.291 295.315 178.405 295.656 178.491C296.006 178.584 296.325 178.621 296.614 178.6C296.912 178.571 297.173 178.453 297.398 178.245C297.589 178.068 297.718 177.84 297.785 177.562C297.868 177.285 297.86 176.983 297.76 176.659C297.676 176.335 297.484 176.011 297.184 175.686C296.953 175.437 296.708 175.239 296.449 175.093C296.197 174.955 295.941 174.853 295.678 174.786C295.432 174.721 295.193 174.679 294.961 174.662C294.746 174.646 294.553 174.639 294.385 174.64L294.523 173.238C294.66 173.235 294.863 173.255 295.134 173.298C295.414 173.333 295.732 173.409 296.088 173.527C296.444 173.645 296.814 173.82 297.198 174.051C297.599 174.283 297.976 174.59 298.33 174.973C298.807 175.488 299.124 176.014 299.28 176.549C299.452 177.085 299.476 177.595 299.353 178.08C299.239 178.556 298.994 178.968 298.62 179.314C298.296 179.615 297.947 179.806 297.575 179.888C297.211 179.978 296.837 180 296.454 179.953C296.079 179.914 295.717 179.84 295.368 179.731C295.035 179.622 294.739 179.518 294.478 179.42C293.948 179.215 293.485 179.049 293.089 178.921C292.693 178.794 292.34 178.712 292.028 178.676C291.733 178.64 291.456 178.642 291.198 178.68C290.948 178.726 290.691 178.825 290.429 178.975L294.506 183.379L293.508 184.302L288.368 178.751ZM300.799 192.428C300.345 191.937 300.016 191.407 299.814 190.838C299.627 190.269 299.553 189.689 299.592 189.097C299.638 188.513 299.788 187.95 300.042 187.406C300.303 186.871 300.662 186.391 301.12 185.968C301.735 185.398 302.423 185.016 303.185 184.82C303.946 184.625 304.708 184.638 305.469 184.86C306.239 185.074 306.928 185.51 307.536 186.167C308.129 186.807 308.499 187.499 308.647 188.242C308.811 188.987 308.759 189.698 308.493 190.378L307.163 189.617C307.316 189.166 307.338 188.713 307.227 188.26C307.124 187.799 306.904 187.385 306.565 187.019C306.195 186.62 305.752 186.351 305.237 186.211C304.728 186.079 304.203 186.087 303.66 186.234C303.125 186.374 302.625 186.659 302.159 187.091C301.702 187.514 301.375 187.995 301.177 188.532C300.996 189.071 300.948 189.602 301.032 190.127C301.124 190.66 301.354 191.126 301.724 191.525C301.963 191.783 302.235 191.986 302.543 192.134C302.857 192.29 303.17 192.386 303.482 192.422C303.809 192.459 304.095 192.426 304.34 192.323L305.009 193.696C304.569 193.856 304.098 193.914 303.594 193.87C303.107 193.828 302.619 193.684 302.131 193.441C301.651 193.206 301.207 192.868 300.799 192.428ZM304.87 196.575L311.382 190.546L312.433 191.681L310.407 198.051L316.926 196.533L317.954 197.644L311.442 203.672L310.472 202.625L315.399 198.062L309.645 199.405L308.999 198.706L310.768 193.06L305.84 197.622L304.87 196.575Z" fill="black"/>
</svg>
