<svg width="533" height="365" viewBox="0 0 533 365" fill="none" xmlns="http://www.w3.org/2000/svg">
<path d="M288.621 79.741L291.965 121.487C291.965 121.487 344.759 140.567 361.758 146.829C378.756 153.092 410.547 157.896 441.382 164.254L432.71 267.994L243.274 363L98.165 284.67L94.1972 173.953C90.0698 164.329 82.1942 143.12 83.7108 135.27C86.3182 114.113 106.235 64.9557 120.668 19.9017L127.187 14.6267L232.108 1.01401C235.31 0.846727 234.924 1.70164 254.044 30.9051C260.628 40.9609 280.402 66.0791 288.621 79.741Z" fill="#F1EADC"/>
<path d="M291.965 121.487C290.659 105.184 288.621 79.741 288.621 79.741C280.402 66.0791 260.628 40.9609 254.044 30.9051C234.924 1.70164 235.31 0.846727 232.108 1.01401L127.187 14.6267L120.668 19.9017C106.235 64.9557 86.3182 114.113 83.7108 135.27C82.1942 143.12 90.0698 164.329 94.1972 173.953M291.965 121.487C293.271 137.789 285.085 203.83 285.085 203.83M291.965 121.487C291.965 121.487 344.759 140.567 361.758 146.829C378.756 153.092 410.547 157.896 441.382 164.254M285.085 203.83L206.088 229.517M285.085 203.83L308.973 217.526M441.382 164.254L238.796 245.76M441.382 164.254L432.71 267.994L243.274 363M238.796 245.76L243.274 363M238.796 245.76L94.1972 173.953M243.274 363L98.165 284.67L94.1972 173.953" stroke="black" stroke-width="2"/>
<path d="M207.877 230.032L283.923 204.087L307.184 217.507L239.19 245.241L207.877 230.032Z" fill="#003349"/>
<path d="M435.119 220.191L420.722 219.164L427.031 232.146L435.119 220.191ZM243.663 313.235L258.06 314.263L251.751 301.281L243.663 313.235ZM424.454 223.984L253.235 307.194L254.328 309.442L425.547 226.233L424.454 223.984Z" fill="#6E9C9F"/>
<path d="M78.1574 1.00005L70.9178 13.4869L85.3515 13.5131L78.1574 1.00005ZM78.8906 285.296L79.3869 12.2523L76.8869 12.2478L76.3906 285.292L78.8906 285.296Z" fill="#6E9C9F"/>
<path d="M450.328 162.038L443.324 174.659L457.756 174.414L450.328 162.038ZM453.367 267.587L451.768 173.266L449.269 173.308L450.867 267.629L453.367 267.587Z" fill="#6E9C9F"/>
<path d="M240.979 315.919L233.085 303.835L226.567 316.713L240.979 315.919ZM96.0441 242.558L103.937 254.642L110.456 241.764L96.0441 242.558ZM231.506 309.724L106.646 246.523L105.517 248.753L230.377 311.954L231.506 309.724Z" fill="#6E9C9F"/>
<path d="M306.289 201.403L299.854 188.483L291.883 200.516L306.289 201.403ZM234.716 153.986L241.151 166.907L249.123 154.874L234.716 153.986ZM297.601 194.148L244.785 159.158L243.405 161.242L296.22 196.232L297.601 194.148Z" fill="#6E9C9F"/>
<path d="M342.968 152.197L329.012 148.516L332.803 162.443L342.968 152.197ZM191.772 193.351L205.728 197.031L201.938 183.104L191.772 193.351ZM331.785 153.945L202.298 189.19L202.955 191.602L332.442 156.358L331.785 153.945Z" fill="#6E9C9F"/>
<path d="M323.987 261.367C324.36 262.193 324.492 263.04 324.385 263.907C324.285 264.757 323.973 265.541 323.448 266.259C322.936 266.972 322.242 267.526 321.367 267.92C320.443 268.336 319.53 268.484 318.627 268.364C317.72 268.231 316.876 267.836 316.098 267.178C315.331 266.514 314.687 265.605 314.168 264.45C313.401 262.748 312.964 261.241 312.856 259.93C312.749 258.618 312.933 257.519 313.411 256.631C313.883 255.731 314.606 255.062 315.578 254.624C316.417 254.247 317.27 254.111 318.137 254.218C319.011 254.307 319.804 254.623 320.516 255.165L319.966 256.575C319.441 256.124 318.844 255.852 318.173 255.759C317.497 255.654 316.837 255.747 316.192 256.037C315.536 256.332 315.049 256.793 314.731 257.419C314.413 258.044 314.284 258.797 314.344 259.677C314.416 260.551 314.686 261.526 315.156 262.601C315.147 262.093 315.238 261.614 315.429 261.162C315.615 260.698 315.889 260.283 316.25 259.915C316.623 259.543 317.059 259.244 317.557 259.02C318.396 258.642 319.237 258.497 320.081 258.585C320.937 258.668 321.708 258.95 322.392 259.431C323.089 259.907 323.621 260.552 323.987 261.367ZM320.761 266.526C321.32 266.274 321.768 265.905 322.104 265.417C322.452 264.924 322.662 264.383 322.734 263.795C322.8 263.195 322.707 262.616 322.456 262.056C322.204 261.497 321.834 261.049 321.346 260.713C320.859 260.377 320.315 260.176 319.715 260.11C319.127 260.038 318.553 260.128 317.994 260.38C317.435 260.632 316.981 261.004 316.633 261.497C316.297 261.985 316.093 262.523 316.021 263.111C315.95 263.699 316.04 264.272 316.291 264.831C316.543 265.391 316.916 265.845 317.409 266.193C317.896 266.529 318.434 266.733 319.022 266.804C319.622 266.871 320.202 266.778 320.761 266.526ZM327.876 264.77C327.657 264.284 327.489 263.812 327.37 263.353C327.264 262.889 327.226 262.416 327.258 261.934C327.301 261.447 327.438 260.939 327.669 260.411C327.894 259.871 328.239 259.292 328.706 258.672C328.978 258.301 329.255 257.943 329.538 257.596C329.832 257.244 330.091 256.893 330.314 256.544C330.55 256.19 330.71 255.847 330.795 255.517C330.874 255.174 330.84 254.838 330.693 254.51C330.567 254.23 330.361 254.001 330.076 253.822C329.798 253.626 329.459 253.523 329.059 253.512C328.666 253.485 328.233 253.577 327.759 253.791C327.394 253.955 327.082 254.154 326.821 254.388C326.573 254.617 326.363 254.865 326.191 255.132C326.026 255.382 325.891 255.633 325.785 255.886C325.686 256.12 325.606 256.332 325.544 256.521L324.032 255.841C324.08 255.688 324.179 255.468 324.327 255.182C324.471 254.883 324.675 254.558 324.94 254.204C325.205 253.851 325.539 253.504 325.94 253.162C326.349 252.802 326.833 252.497 327.392 252.245C328.146 251.906 328.85 251.749 329.506 251.776C330.168 251.785 330.746 251.949 331.24 252.267C331.729 252.574 332.097 253 332.343 253.547C332.556 254.022 332.639 254.482 332.591 254.927C332.555 255.367 332.44 255.792 332.244 256.202C332.06 256.606 331.842 256.982 331.589 257.33C331.343 257.66 331.117 257.953 330.909 258.207C330.483 258.72 330.124 259.174 329.833 259.568C329.543 259.962 329.319 260.326 329.162 260.66C329.012 260.976 328.91 261.285 328.856 261.588C328.814 261.884 328.828 262.207 328.897 262.556L335.335 259.658L335.992 261.117L327.876 264.77ZM347.784 256.027C347.066 256.35 346.352 256.518 345.642 256.531C344.938 256.526 344.263 256.392 343.617 256.127C342.984 255.856 342.411 255.478 341.9 254.992C341.401 254.5 341.001 253.92 340.7 253.251C340.294 252.351 340.126 251.44 340.193 250.518C340.26 249.596 340.56 248.751 341.093 247.985C341.62 247.207 342.363 246.602 343.324 246.169C344.26 245.748 345.17 245.594 346.055 245.707C346.946 245.803 347.721 246.127 348.379 246.679L347.032 247.878C346.586 247.537 346.09 247.344 345.543 247.298C344.99 247.24 344.446 247.331 343.911 247.572C343.328 247.835 342.861 248.227 342.512 248.75C342.174 249.268 341.986 249.857 341.947 250.518C341.903 251.166 342.034 251.831 342.341 252.512C342.642 253.181 343.055 253.726 343.581 254.147C344.114 254.55 344.689 254.804 345.305 254.906C345.934 255.003 346.54 254.921 347.123 254.658C347.5 254.488 347.829 254.26 348.109 253.973C348.401 253.68 348.626 253.367 348.783 253.033C348.946 252.682 349.016 252.351 348.993 252.039L350.775 251.807C350.789 252.357 350.677 252.905 350.44 253.45C350.209 253.978 349.867 254.468 349.413 254.921C348.971 255.369 348.428 255.737 347.784 256.027ZM353.933 253.04L349.648 243.52L351.307 242.773L357.653 247.417L358.402 239.579L360.025 238.848L364.31 248.368L362.778 249.058L359.535 241.854L358.878 248.774L357.857 249.233L352.222 245.146L355.465 252.35L353.933 253.04Z" fill="black"/>
<path d="M229.566 199.825C230.141 199.748 230.675 199.81 231.167 200.009C231.656 200.196 232.082 200.499 232.445 200.918C232.805 201.325 233.076 201.828 233.257 202.428C233.492 203.206 233.507 203.947 233.302 204.65C233.113 205.362 232.723 205.981 232.13 206.509C231.541 207.049 230.787 207.458 229.868 207.736C228.898 208.029 227.987 208.103 227.135 207.956C226.3 207.819 225.577 207.48 224.968 206.94L225.756 205.469C226.204 205.891 226.723 206.179 227.314 206.335C227.917 206.487 228.614 206.444 229.405 206.204C230.286 205.938 230.913 205.525 231.287 204.966C231.678 204.416 231.754 203.746 231.515 202.955C231.272 202.151 230.804 201.595 230.113 201.289C229.43 200.966 228.572 200.961 227.538 201.274L227.04 201.424L226.612 200.007L227.148 199.845C228.067 199.568 228.701 199.132 229.051 198.539C229.414 197.941 229.495 197.311 229.294 196.647C229.155 196.188 228.933 195.844 228.627 195.616C228.322 195.388 227.962 195.26 227.55 195.232C227.133 195.19 226.683 195.243 226.198 195.39C225.496 195.602 224.923 195.942 224.48 196.411C224.045 196.862 223.762 197.401 223.631 198.026L222.273 197.266C222.371 196.763 222.583 196.288 222.908 195.841C223.245 195.391 223.668 194.992 224.175 194.643C224.695 194.291 225.275 194.018 225.913 193.825C226.717 193.582 227.468 193.508 228.165 193.604C228.875 193.696 229.48 193.945 229.979 194.351C230.478 194.757 230.832 195.305 231.04 195.994C231.19 196.492 231.237 196.993 231.181 197.498C231.121 197.989 230.952 198.444 230.675 198.863C230.406 199.264 230.036 199.585 229.566 199.825ZM239.398 191.294L232.41 193.407L231.942 191.856L241.59 188.938L238.866 204.597L236.951 205.176L239.398 191.294ZM256.492 196.823C255.739 197.051 255.009 197.125 254.303 197.046C253.605 196.951 252.953 196.73 252.347 196.384C251.754 196.034 251.235 195.585 250.791 195.037C250.359 194.485 250.037 193.858 249.825 193.156C249.539 192.211 249.489 191.286 249.675 190.38C249.861 189.474 250.267 188.676 250.894 187.985C251.517 187.281 252.333 186.777 253.341 186.472C254.324 186.175 255.246 186.139 256.109 186.366C256.98 186.576 257.707 186.997 258.288 187.63L256.798 188.644C256.4 188.249 255.932 187.994 255.396 187.877C254.855 187.748 254.304 187.769 253.743 187.938C253.13 188.124 252.617 188.453 252.203 188.926C251.801 189.396 251.539 189.956 251.415 190.606C251.287 191.244 251.332 191.92 251.548 192.635C251.76 193.337 252.1 193.93 252.567 194.416C253.043 194.885 253.58 195.21 254.178 195.391C254.789 195.569 255.401 195.565 256.013 195.38C256.409 195.26 256.764 195.076 257.079 194.827C257.407 194.575 257.67 194.294 257.869 193.983C258.076 193.655 258.188 193.336 258.206 193.024L260.002 193.024C259.945 193.571 259.763 194.099 259.458 194.61C259.162 195.103 258.759 195.545 258.25 195.936C257.754 196.323 257.168 196.618 256.492 196.823ZM262.976 194.653L259.954 184.66L261.696 184.134L267.39 189.558L269.143 181.882L270.847 181.367L273.868 191.36L272.26 191.846L269.974 184.284L268.429 191.061L267.357 191.385L262.297 186.605L264.584 194.167L262.976 194.653Z" fill="black"/>
<path d="M12.14 169H14.14V183H12.14V169ZM4.1 183H2.1V169H4.1V183ZM12.32 176.76H3.9V175.02H12.32V176.76ZM17.7705 178.34V176.68H23.1505V178.34H17.7705ZM30.1667 183.16C29.1801 183.16 28.2201 183.007 27.2867 182.7C26.3667 182.393 25.6134 181.98 25.0267 181.46L25.9467 179.88C26.4134 180.32 27.0201 180.68 27.7667 180.96C28.5134 181.24 29.3067 181.38 30.1467 181.38C31.2134 181.38 32.0334 181.153 32.6067 180.7C33.1801 180.247 33.4667 179.64 33.4667 178.88C33.4667 178.36 33.3401 177.907 33.0867 177.52C32.8334 177.133 32.3934 176.84 31.7667 176.64C31.1534 176.427 30.3067 176.32 29.2267 176.32H26.0467L26.7867 169H34.6867V170.74H27.5267L28.5667 169.76L27.9867 175.54L26.9467 174.58H29.6467C31.0467 174.58 32.1734 174.76 33.0267 175.12C33.8801 175.48 34.5001 175.98 34.8867 176.62C35.2734 177.247 35.4667 177.973 35.4667 178.8C35.4667 179.6 35.2734 180.333 34.8867 181C34.5001 181.653 33.9134 182.18 33.1267 182.58C32.3534 182.967 31.3667 183.16 30.1667 183.16ZM39.8911 183V169.8L40.7511 170.74H36.7311V169H41.8711V183H39.8911ZM50.8534 183.12C49.7734 183.12 48.8068 182.887 47.9534 182.42C47.1134 181.953 46.4534 181.313 45.9734 180.5C45.4934 179.687 45.2534 178.753 45.2534 177.7C45.2534 176.647 45.4934 175.713 45.9734 174.9C46.4534 174.087 47.1134 173.453 47.9534 173C48.8068 172.533 49.7734 172.3 50.8534 172.3C51.8134 172.3 52.6668 172.493 53.4134 172.88C54.1734 173.253 54.7601 173.813 55.1734 174.56L53.7134 175.5C53.3668 174.98 52.9401 174.6 52.4334 174.36C51.9401 174.107 51.4068 173.98 50.8334 173.98C50.1401 173.98 49.5201 174.133 48.9734 174.44C48.4268 174.747 47.9934 175.18 47.6734 175.74C47.3534 176.287 47.1934 176.94 47.1934 177.7C47.1934 178.46 47.3534 179.12 47.6734 179.68C47.9934 180.24 48.4268 180.673 48.9734 180.98C49.5201 181.287 50.1401 181.44 50.8334 181.44C51.4068 181.44 51.9401 181.32 52.4334 181.08C52.9401 180.827 53.3668 180.44 53.7134 179.92L55.1734 180.84C54.7601 181.573 54.1734 182.14 53.4134 182.54C52.6668 182.927 51.8134 183.12 50.8534 183.12ZM58.0592 183V172.4H60.0392L64.5992 180.24H63.7992L68.4792 172.4H70.2792V183H68.5392V174.56L68.8592 174.74L64.5792 181.8H63.7392L59.4392 174.6L59.8192 174.52V183H58.0592Z" fill="black"/>
<path d="M466.14 208H468.14V222H466.14V208ZM458.1 222H456.1V208H458.1V222ZM466.32 215.76H457.9V214.02H466.32V215.76ZM471.77 217.34V215.68H477.15V217.34H471.77ZM479.173 222V220.64L484.873 215.14C485.379 214.66 485.753 214.24 485.993 213.88C486.246 213.507 486.413 213.167 486.493 212.86C486.586 212.54 486.633 212.233 486.633 211.94C486.633 211.22 486.379 210.653 485.873 210.24C485.366 209.827 484.626 209.62 483.653 209.62C482.906 209.62 482.233 209.747 481.633 210C481.033 210.24 480.513 210.62 480.073 211.14L478.713 209.96C479.246 209.28 479.959 208.76 480.853 208.4C481.759 208.027 482.753 207.84 483.833 207.84C484.806 207.84 485.653 208 486.373 208.32C487.093 208.627 487.646 209.073 488.033 209.66C488.433 210.247 488.633 210.94 488.633 211.74C488.633 212.193 488.573 212.64 488.453 213.08C488.333 213.52 488.106 213.987 487.773 214.48C487.439 214.973 486.959 215.527 486.333 216.14L481.253 221.04L480.773 220.26H489.233V222H479.173ZM493.637 222V208.8L494.497 209.74H490.477V208H495.617V222H493.637ZM510.371 222.12C509.291 222.12 508.324 221.887 507.471 221.42C506.631 220.953 505.971 220.313 505.491 219.5C505.011 218.687 504.771 217.753 504.771 216.7C504.771 215.647 505.011 214.713 505.491 213.9C505.971 213.087 506.631 212.453 507.471 212C508.324 211.533 509.291 211.3 510.371 211.3C511.331 211.3 512.184 211.493 512.931 211.88C513.691 212.253 514.277 212.813 514.691 213.56L513.231 214.5C512.884 213.98 512.457 213.6 511.951 213.36C511.457 213.107 510.924 212.98 510.351 212.98C509.657 212.98 509.037 213.133 508.491 213.44C507.944 213.747 507.511 214.18 507.191 214.74C506.871 215.287 506.711 215.94 506.711 216.7C506.711 217.46 506.871 218.12 507.191 218.68C507.511 219.24 507.944 219.673 508.491 219.98C509.037 220.287 509.657 220.44 510.351 220.44C510.924 220.44 511.457 220.32 511.951 220.08C512.457 219.827 512.884 219.44 513.231 218.92L514.691 219.84C514.277 220.573 513.691 221.14 512.931 221.54C512.184 221.927 511.331 222.12 510.371 222.12ZM517.576 222V211.4H519.556L524.116 219.24H523.316L527.996 211.4H529.796V222H528.056V213.56L528.376 213.74L524.096 220.8H523.256L518.956 213.6L519.336 213.52V222H517.576Z" fill="black"/>
<path d="M153.424 265.029C152.499 264.615 151.763 264.023 151.217 263.253C150.67 262.483 150.372 261.648 150.321 260.749L151.717 260.322C151.808 261.034 152.057 261.686 152.464 262.277C152.884 262.874 153.422 263.319 154.079 263.613C154.639 263.864 155.193 263.965 155.74 263.918C156.287 263.871 156.783 263.691 157.229 263.379C157.681 263.056 158.032 262.614 158.283 262.054C158.528 261.506 158.615 260.968 158.544 260.44C158.486 259.917 158.296 259.445 157.973 259.023C157.663 258.607 157.246 258.282 156.723 258.048C156.199 257.813 155.655 257.709 155.089 257.733C154.535 257.763 154.017 257.925 153.534 258.221L152.092 257.575L156.876 250.798L163.175 253.616L162.513 255.095L157.402 252.808L154.771 256.583C155.164 256.423 155.596 256.353 156.069 256.375C156.559 256.389 157.053 256.508 157.552 256.732C158.356 257.091 158.995 257.589 159.47 258.225C159.957 258.866 160.244 259.579 160.332 260.363C160.431 261.153 160.299 261.955 159.934 262.771C159.553 263.623 159.011 264.279 158.308 264.739C157.613 265.216 156.839 265.476 155.987 265.519C155.13 265.574 154.276 265.41 153.424 265.029ZM161.01 265.158C161.227 264.671 161.468 264.231 161.732 263.838C162.007 263.45 162.336 263.108 162.717 262.811C163.11 262.519 163.581 262.284 164.128 262.106C164.681 261.915 165.344 261.788 166.117 261.725C166.575 261.681 167.027 261.65 167.474 261.63C167.933 261.617 168.367 261.577 168.776 261.512C169.197 261.452 169.559 261.344 169.863 261.188C170.172 261.019 170.4 260.771 170.547 260.442C170.672 260.162 170.707 259.856 170.651 259.524C170.612 259.186 170.464 258.864 170.207 258.559C169.966 258.247 169.609 257.985 169.134 257.772C168.769 257.609 168.413 257.508 168.065 257.469C167.729 257.436 167.404 257.444 167.09 257.493C166.793 257.536 166.516 257.601 166.257 257.69C166.016 257.772 165.804 257.853 165.623 257.932L165.125 256.351C165.271 256.285 165.501 256.213 165.814 256.133C166.132 256.042 166.512 255.978 166.952 255.941C167.392 255.904 167.873 255.923 168.395 255.996C168.935 256.062 169.485 256.22 170.045 256.471C170.8 256.808 171.385 257.231 171.801 257.738C172.234 258.239 172.496 258.78 172.587 259.361C172.683 259.929 172.608 260.488 172.363 261.035C172.151 261.51 171.862 261.877 171.497 262.138C171.145 262.404 170.75 262.6 170.314 262.726C169.89 262.858 169.464 262.944 169.036 262.987C168.626 263.022 168.257 263.047 167.929 263.061C167.262 263.084 166.684 263.118 166.197 263.163C165.709 263.207 165.289 263.282 164.935 263.387C164.599 263.485 164.3 263.614 164.039 263.775C163.789 263.941 163.557 264.165 163.343 264.449L169.787 267.332L169.134 268.793L161.01 265.158ZM180.774 274.22C180.056 273.898 179.456 273.477 178.974 272.954C178.509 272.425 178.162 271.831 177.93 271.173C177.711 270.52 177.613 269.84 177.637 269.135C177.672 268.435 177.84 267.751 178.139 267.081C178.542 266.181 179.111 265.449 179.845 264.886C180.578 264.324 181.408 263.986 182.335 263.875C183.266 263.751 184.213 263.905 185.174 264.335C186.112 264.754 186.832 265.332 187.335 266.068C187.856 266.798 188.129 267.592 188.154 268.45L186.363 268.241C186.321 267.681 186.135 267.182 185.806 266.743C185.482 266.291 185.053 265.945 184.517 265.706C183.933 265.445 183.329 265.357 182.706 265.444C182.096 265.535 181.53 265.787 181.011 266.197C180.497 266.595 180.087 267.135 179.783 267.816C179.483 268.486 179.351 269.157 179.386 269.83C179.438 270.496 179.631 271.094 179.964 271.622C180.309 272.157 180.774 272.554 181.358 272.816C181.736 272.985 182.125 273.078 182.525 273.097C182.938 273.121 183.321 273.081 183.675 272.976C184.046 272.864 184.34 272.697 184.557 272.472L185.915 273.649C185.513 274.025 185.03 274.305 184.465 274.491C183.918 274.669 183.324 274.74 182.684 274.701C182.056 274.669 181.419 274.508 180.774 274.22ZM187.094 276.828L191.358 267.298L193.019 268.041L193.767 275.87L200.121 271.219L201.745 271.945L197.482 281.475L195.948 280.789L199.175 273.578L193.568 277.687L192.546 277.229L191.854 270.303L188.628 277.514L187.094 276.828Z" fill="black"/>
<line x1="94.1122" y1="172.295" x2="129.898" y2="161.559" stroke="black"/>
<path d="M129.147 161.144L249.03 225.559" stroke="black"/>
<line x1="248.576" y1="224.904" x2="237.84" y2="244.586" stroke="black"/>
<line x1="439.592" y1="164.328" x2="396.648" y2="164.328" stroke="black"/>
<path d="M247.801 225.625L398.103 164.788" stroke="black"/>
<line x1="291.203" y1="138.293" x2="396.773" y2="165.132" stroke="black"/>
<path d="M129.147 162.038L247.242 225.559L237.401 244.347L94.2559 172.774L129.147 162.038Z" fill="#F1EADC"/>
<path d="M292.869 122.673L372.494 151.302L434.225 163.828H396.649L292.869 137.883V130.725V122.673Z" fill="#F1EADC"/>
<path d="M397.544 165.617H435.119L239.189 245.241L249.925 225.559L397.544 165.617Z" fill="#F1EADC"/>
<path d="M298.199 177.931C298.601 178.35 298.867 178.817 298.997 179.332C299.135 179.836 299.142 180.359 299.019 180.9C298.904 181.431 298.658 181.946 298.281 182.447C297.792 183.097 297.204 183.547 296.516 183.797C295.83 184.066 295.099 184.117 294.323 183.95C293.54 183.795 292.764 183.428 291.997 182.852C291.187 182.243 290.589 181.551 290.203 180.777C289.82 180.022 289.666 179.239 289.742 178.429L291.394 178.195C291.319 178.805 291.393 179.395 291.616 179.963C291.85 180.539 292.298 181.076 292.958 181.573C293.694 182.126 294.397 182.388 295.069 182.359C295.744 182.349 296.33 182.014 296.827 181.353C297.331 180.682 297.503 179.977 297.341 179.238C297.198 178.497 296.695 177.801 295.832 177.152L295.416 176.84L296.305 175.657L296.753 175.993C297.52 176.57 298.247 176.824 298.932 176.756C299.628 176.695 300.185 176.388 300.601 175.834C300.89 175.45 301.036 175.068 301.039 174.686C301.042 174.305 300.933 173.94 300.712 173.59C300.499 173.23 300.19 172.897 299.785 172.593C299.199 172.152 298.586 171.892 297.946 171.811C297.325 171.727 296.723 171.817 296.142 172.081L295.952 170.536C296.416 170.318 296.924 170.208 297.476 170.206C298.039 170.212 298.611 170.317 299.192 170.52C299.783 170.732 300.346 171.038 300.879 171.438C301.55 171.943 302.053 172.505 302.389 173.124C302.734 173.751 302.891 174.386 302.858 175.029C302.825 175.671 302.593 176.28 302.16 176.856C301.848 177.271 301.471 177.606 301.031 177.858C300.599 178.101 300.132 178.233 299.63 178.257C299.148 178.278 298.67 178.169 298.199 177.931ZM299.279 184.649C299.6 184.223 299.932 183.847 300.277 183.522C300.632 183.205 301.028 182.944 301.466 182.739C301.914 182.543 302.425 182.418 302.998 182.365C303.579 182.302 304.254 182.326 305.022 182.436C305.478 182.495 305.926 182.565 306.366 182.645C306.816 182.734 307.248 182.792 307.661 182.819C308.085 182.854 308.463 182.829 308.794 182.744C309.132 182.649 309.41 182.457 309.626 182.169C309.811 181.924 309.912 181.634 309.931 181.298C309.969 180.959 309.896 180.612 309.713 180.258C309.548 179.9 309.257 179.565 308.842 179.252C308.522 179.012 308.197 178.834 307.866 178.719C307.547 178.612 307.228 178.548 306.911 178.526C306.612 178.502 306.327 178.504 306.055 178.533C305.801 178.559 305.577 178.591 305.383 178.628L305.249 176.976C305.406 176.944 305.646 176.925 305.969 176.917C306.299 176.899 306.683 176.92 307.121 176.982C307.558 177.044 308.023 177.169 308.516 177.356C309.028 177.541 309.529 177.817 310.019 178.186C310.68 178.683 311.156 179.225 311.449 179.812C311.76 180.396 311.896 180.981 311.855 181.568C311.822 182.144 311.626 182.672 311.265 183.151C310.953 183.567 310.59 183.861 310.176 184.034C309.773 184.215 309.345 184.318 308.892 184.345C308.449 184.379 308.014 184.369 307.588 184.315C307.18 184.258 306.814 184.201 306.492 184.142C305.836 184.015 305.265 183.92 304.78 183.856C304.295 183.791 303.868 183.77 303.5 183.794C303.151 183.815 302.831 183.874 302.54 183.973C302.26 184.079 301.984 184.247 301.711 184.476L307.354 188.719L306.393 189.997L299.279 184.649ZM316.537 197.875C315.908 197.402 315.416 196.857 315.063 196.241C314.727 195.622 314.52 194.966 314.441 194.272C314.372 193.587 314.428 192.903 314.607 192.22C314.798 191.546 315.113 190.916 315.554 190.33C316.147 189.541 316.863 188.954 317.704 188.568C318.544 188.183 319.428 188.038 320.356 188.135C321.292 188.222 322.181 188.582 323.023 189.215C323.844 189.832 324.417 190.555 324.744 191.385C325.09 192.212 325.18 193.047 325.013 193.889L323.314 193.287C323.397 192.732 323.327 192.204 323.104 191.703C322.889 191.191 322.547 190.758 322.078 190.406C321.566 190.021 320.997 189.802 320.37 189.747C319.754 189.701 319.148 189.821 318.55 190.105C317.96 190.379 317.441 190.815 316.992 191.411C316.552 191.998 316.274 192.623 316.158 193.286C316.061 193.948 316.117 194.573 316.324 195.163C316.542 195.76 316.907 196.251 317.418 196.636C317.748 196.884 318.107 197.062 318.493 197.169C318.891 197.284 319.273 197.33 319.641 197.307C320.028 197.28 320.352 197.182 320.614 197.012L321.676 198.461C321.201 198.738 320.667 198.904 320.075 198.959C319.502 199.012 318.907 198.948 318.291 198.769C317.686 198.598 317.101 198.3 316.537 197.875ZM322.119 201.822L328.393 193.478L329.848 194.572L328.838 202.37L336.066 199.247L337.489 200.317L331.215 208.661L329.872 207.652L334.62 201.337L328.24 204.098L327.345 203.424L328.21 196.518L323.462 202.832L322.119 201.822Z" fill="black"/>
</svg>
