<svg width="292" height="204" viewBox="0 0 292 204" fill="none" xmlns="http://www.w3.org/2000/svg">
<path d="M159.626 45.0062L161.495 68.3368C161.495 68.3368 191 79 200.5 82.5C210 86 227.767 88.6852 245 92.238L240.153 150.216L134.283 203.312L53.185 159.536L50.9675 97.6586C48.6608 92.2803 44.2593 80.4269 45.1069 76.0397C46.5641 64.2159 57.6953 36.7431 65.7614 11.5637L69.4045 8.61563L128.042 1.00783C129.832 0.91434 129.616 1.39213 140.302 17.7132C143.981 23.3331 155.032 37.3709 159.626 45.0062Z" fill="#F1EADC"/>
<path d="M161.495 68.3368C160.765 59.2257 159.626 45.0062 159.626 45.0062C155.032 37.3709 143.981 23.3331 140.302 17.7132C129.616 1.39213 129.832 0.91434 128.042 1.00783L69.4045 8.61563L65.7614 11.5637C57.6953 36.7431 46.5641 64.2159 45.1069 76.0397C44.2593 80.4269 48.6608 92.2803 50.9675 97.6586M161.495 68.3368C162.225 77.448 157.65 114.356 157.65 114.356M161.495 68.3368C161.495 68.3368 191 79 200.5 82.5C210 86 227.767 88.6852 245 92.238M157.65 114.356L113.5 128.712M157.65 114.356L171 122.01M245 92.238L131.78 137.79M245 92.238L240.153 150.216L134.283 203.312M131.78 137.79L134.283 203.312M131.78 137.79L50.9675 97.6586M134.283 203.312L53.185 159.536L50.9675 97.6586" stroke="black"/>
<path d="M114.5 129L157 114.5L170 122L132 137.5L114.5 129Z" fill="#003349"/>
<path d="M241.5 123.5L235.741 123.089L238.265 128.282L241.5 123.5ZM134.5 175.5L140.259 175.911L137.736 170.718L134.5 175.5ZM237.234 125.017L138.329 173.083L138.766 173.983L237.671 125.917L237.234 125.017Z" fill="#6E9C9F"/>
<path d="M42.0036 1.00001L39.1078 5.99475L44.8813 6.00524L42.0036 1.00001ZM42.2148 159.885L42.4955 5.50091L41.4955 5.49909L41.2148 159.883L42.2148 159.885Z" fill="#6E9C9F"/>
<path d="M250 91L247.198 96.0482L252.971 95.9504L250 91ZM251.5 149.992L250.576 95.4909L249.576 95.5078L250.5 150.008L251.5 149.992Z" fill="#6E9C9F"/>
<path d="M133 177L129.843 172.166L127.235 177.318L133 177ZM52 136L55.1574 140.834L57.7648 135.682L52 136ZM129.211 174.522L56.2408 137.586L55.7892 138.478L128.759 175.414L129.211 174.522Z" fill="#6E9C9F"/>
<path d="M169.5 113L166.926 107.832L163.737 112.645L169.5 113ZM129.5 86.5L132.074 91.668L135.263 86.8549L129.5 86.5ZM166.025 110.098L133.528 88.5685L132.975 89.4021L165.472 110.932L166.025 110.098Z" fill="#6E9C9F"/>
<path d="M189.999 85.5L184.416 84.0278L185.933 89.5986L189.999 85.5ZM105.499 108.5L111.082 109.972L109.565 104.401L105.499 108.5ZM185.526 86.1994L109.71 106.835L109.972 107.8L185.788 87.1643L185.526 86.1994Z" fill="#6E9C9F"/>
<path d="M181.753 142.41C181.948 143.295 181.905 144.151 181.623 144.978C181.351 145.789 180.885 146.492 180.224 147.089C179.577 147.682 178.785 148.082 177.847 148.289C176.858 148.507 175.934 148.465 175.075 148.163C174.214 147.848 173.469 147.288 172.841 146.485C172.226 145.678 171.782 144.656 171.51 143.419C171.108 141.597 170.988 140.032 171.15 138.727C171.313 137.421 171.719 136.383 172.368 135.611C173.014 134.827 173.858 134.32 174.9 134.09C175.798 133.892 176.661 133.934 177.488 134.216C178.325 134.482 179.036 134.953 179.622 135.629L178.796 136.897C178.374 136.348 177.845 135.96 177.208 135.732C176.567 135.491 175.902 135.446 175.212 135.598C174.509 135.754 173.938 136.105 173.499 136.652C173.06 137.2 172.779 137.91 172.658 138.783C172.55 139.654 172.615 140.663 172.855 141.812C172.95 141.313 173.137 140.862 173.417 140.459C173.694 140.043 174.046 139.692 174.475 139.407C174.916 139.118 175.404 138.915 175.938 138.797C176.836 138.599 177.69 138.629 178.498 138.888C179.319 139.144 180.015 139.577 180.587 140.189C181.172 140.797 181.56 141.537 181.753 142.41ZM177.539 146.8C178.138 146.668 178.652 146.398 179.081 145.989C179.523 145.578 179.839 145.091 180.029 144.531C180.216 143.957 180.244 143.37 180.112 142.771C179.98 142.173 179.71 141.659 179.301 141.23C178.892 140.801 178.401 140.493 177.827 140.306C177.266 140.115 176.687 140.086 176.088 140.218C175.489 140.35 174.968 140.622 174.527 141.034C174.098 141.442 173.788 141.927 173.598 142.488C173.408 143.049 173.379 143.629 173.511 144.227C173.643 144.826 173.914 145.347 174.326 145.788C174.735 146.217 175.219 146.527 175.78 146.717C176.354 146.905 176.94 146.932 177.539 146.8ZM184.863 146.537C184.748 146.016 184.68 145.519 184.657 145.046C184.648 144.57 184.708 144.099 184.838 143.634C184.98 143.166 185.218 142.697 185.551 142.227C185.882 141.745 186.339 141.248 186.922 140.737C187.264 140.429 187.609 140.135 187.956 139.853C188.317 139.569 188.642 139.279 188.932 138.983C189.235 138.684 189.461 138.381 189.612 138.075C189.76 137.756 189.796 137.42 189.718 137.069C189.652 136.769 189.498 136.503 189.255 136.27C189.023 136.021 188.712 135.85 188.323 135.758C187.944 135.651 187.501 135.653 186.993 135.765C186.603 135.851 186.256 135.982 185.954 136.158C185.664 136.331 185.408 136.531 185.185 136.758C184.972 136.969 184.788 137.187 184.633 137.412C184.488 137.622 184.366 137.812 184.267 137.984L182.926 137.01C183.004 136.87 183.146 136.675 183.35 136.425C183.551 136.162 183.818 135.885 184.15 135.593C184.481 135.302 184.879 135.03 185.342 134.777C185.815 134.509 186.351 134.309 186.95 134.177C187.758 133.999 188.479 133.99 189.115 134.15C189.761 134.294 190.294 134.573 190.713 134.986C191.129 135.385 191.401 135.878 191.53 136.464C191.642 136.972 191.629 137.439 191.491 137.865C191.366 138.289 191.166 138.681 190.891 139.042C190.628 139.401 190.338 139.724 190.019 140.013C189.711 140.286 189.429 140.525 189.174 140.732C188.651 141.147 188.208 141.518 187.843 141.845C187.478 142.171 187.184 142.481 186.963 142.776C186.751 143.055 186.588 143.337 186.473 143.621C186.372 143.903 186.319 144.222 186.315 144.578L193.21 143.057L193.554 144.62L184.863 146.537Z" fill="#6E9C9F"/>
<path d="M128.189 111.16C128.678 111.095 129.132 111.147 129.55 111.317C129.965 111.476 130.327 111.733 130.636 112.09C130.942 112.435 131.172 112.863 131.326 113.373C131.526 114.035 131.539 114.664 131.365 115.262C131.204 115.867 130.872 116.393 130.368 116.842C129.868 117.301 129.227 117.648 128.446 117.885C127.621 118.134 126.847 118.196 126.123 118.072C125.412 117.955 124.799 117.667 124.281 117.208L124.951 115.958C125.331 116.316 125.773 116.562 126.274 116.694C126.787 116.823 127.38 116.786 128.052 116.583C128.801 116.356 129.334 116.006 129.652 115.531C129.984 115.063 130.049 114.493 129.845 113.821C129.639 113.137 129.242 112.665 128.654 112.405C128.073 112.13 127.344 112.126 126.465 112.392L126.042 112.52L125.678 111.316L126.134 111.178C126.915 110.942 127.454 110.571 127.751 110.067C128.06 109.559 128.129 109.023 127.958 108.459C127.84 108.069 127.651 107.777 127.391 107.583C127.131 107.389 126.826 107.28 126.475 107.256C126.121 107.221 125.738 107.266 125.326 107.39C124.729 107.571 124.243 107.86 123.866 108.258C123.496 108.642 123.256 109.1 123.144 109.631L121.99 108.985C122.073 108.557 122.253 108.154 122.529 107.774C122.816 107.392 123.175 107.052 123.607 106.756C124.049 106.456 124.541 106.225 125.084 106.061C125.767 105.854 126.405 105.791 126.998 105.872C127.602 105.95 128.116 106.162 128.54 106.507C128.964 106.853 129.265 107.318 129.442 107.904C129.57 108.327 129.61 108.753 129.562 109.182C129.511 109.6 129.367 109.987 129.131 110.342C128.903 110.684 128.589 110.956 128.189 111.16ZM136.546 103.909L130.607 105.705L130.208 104.387L138.409 101.907L136.094 115.217L134.466 115.709L136.546 103.909Z" fill="#6E9C9F"/>
<path d="M165.167 100.543C165.483 100.923 165.68 101.336 165.758 101.78C165.844 102.216 165.818 102.659 165.681 103.111C165.55 103.553 165.31 103.975 164.96 104.377C164.506 104.898 163.979 105.243 163.381 105.413C162.783 105.599 162.16 105.597 161.513 105.408C160.858 105.228 160.223 104.87 159.608 104.334C158.958 103.768 158.494 103.145 158.214 102.466C157.936 101.802 157.854 101.129 157.968 100.446L159.383 100.349C159.281 100.862 159.308 101.367 159.462 101.862C159.625 102.365 159.972 102.847 160.501 103.309C161.091 103.823 161.671 104.088 162.243 104.105C162.815 104.138 163.332 103.89 163.794 103.36C164.263 102.822 164.452 102.235 164.36 101.599C164.284 100.961 163.9 100.341 163.208 99.7377L162.875 99.4472L163.702 98.499L164.061 98.8117C164.676 99.3479 165.276 99.608 165.861 99.592C166.455 99.5835 166.946 99.3571 167.333 98.9128C167.601 98.6053 167.748 98.29 167.774 97.9669C167.8 97.6438 167.73 97.3273 167.565 97.0173C167.406 96.6988 167.165 96.3981 166.84 96.1151C166.37 95.7055 165.866 95.4468 165.329 95.3391C164.807 95.2302 164.292 95.2696 163.783 95.4571L163.716 94.1362C164.123 93.9798 164.561 93.9177 165.029 93.9499C165.506 93.9895 165.984 94.1134 166.464 94.3215C166.953 94.537 167.411 94.8309 167.838 95.2033C168.376 95.6725 168.768 96.1798 169.014 96.7252C169.269 97.278 169.363 97.8259 169.296 98.3687C169.229 98.9114 168.994 99.4135 168.592 99.8748C168.301 100.208 167.962 100.468 167.573 100.656C167.192 100.834 166.788 100.918 166.361 100.907C165.951 100.895 165.553 100.774 165.167 100.543ZM165.671 106.305C165.969 105.963 166.274 105.665 166.586 105.411C166.906 105.164 167.258 104.967 167.642 104.82C168.034 104.681 168.475 104.607 168.964 104.597C169.461 104.579 170.031 104.64 170.676 104.781C171.058 104.859 171.434 104.946 171.802 105.041C172.178 105.144 172.541 105.22 172.89 105.268C173.247 105.324 173.568 105.326 173.854 105.274C174.147 105.214 174.394 105.068 174.595 104.838C174.767 104.641 174.871 104.401 174.907 104.118C174.96 103.833 174.92 103.534 174.786 103.222C174.668 102.909 174.442 102.607 174.109 102.317C173.853 102.093 173.588 101.923 173.315 101.805C173.051 101.694 172.784 101.62 172.517 101.582C172.265 101.543 172.023 101.528 171.791 101.536C171.574 101.543 171.382 101.556 171.215 101.575L171.203 100.166C171.338 100.149 171.543 100.147 171.817 100.16C172.098 100.165 172.422 100.207 172.789 100.286C173.156 100.366 173.543 100.5 173.95 100.689C174.372 100.877 174.78 101.142 175.173 101.485C175.703 101.946 176.073 102.435 176.285 102.951C176.513 103.465 176.592 103.97 176.522 104.465C176.459 104.951 176.26 105.386 175.924 105.771C175.634 106.104 175.308 106.331 174.947 106.452C174.594 106.581 174.225 106.642 173.839 106.637C173.462 106.638 173.094 106.603 172.735 106.532C172.393 106.459 172.087 106.387 171.817 106.317C171.269 106.17 170.791 106.054 170.383 105.97C169.976 105.885 169.616 105.842 169.302 105.839C169.005 105.835 168.73 105.866 168.477 105.932C168.233 106.005 167.989 106.13 167.744 106.307L172.267 110.251L171.374 111.276L165.671 106.305Z" fill="#6E9C9F"/>
<path d="M10.319 85.1H12.019V97H10.319V85.1ZM3.485 97H1.785V85.1H3.485V97ZM10.472 91.696H3.315V90.217H10.472V91.696ZM15.1049 93.039V91.628H19.6779V93.039H15.1049ZM25.6417 97.136C24.803 97.136 23.987 97.0057 23.1937 96.745C22.4117 96.4843 21.7714 96.133 21.2727 95.691L22.0547 94.348C22.4514 94.722 22.967 95.028 23.6017 95.266C24.2364 95.504 24.9107 95.623 25.6247 95.623C26.5314 95.623 27.2284 95.4303 27.7157 95.045C28.203 94.6597 28.4467 94.144 28.4467 93.498C28.4467 93.056 28.339 92.6707 28.1237 92.342C27.9084 92.0133 27.5344 91.764 27.0017 91.594C26.4804 91.4127 25.7607 91.322 24.8427 91.322H22.1397L22.7687 85.1H29.4837V86.579H23.3977L24.2817 85.746L23.7887 90.659L22.9047 89.843H25.1997C26.3897 89.843 27.3474 89.996 28.0727 90.302C28.798 90.608 29.325 91.033 29.6537 91.577C29.9824 92.1097 30.1467 92.7273 30.1467 93.43C30.1467 94.11 29.9824 94.7333 29.6537 95.3C29.325 95.8553 28.8264 96.303 28.1577 96.643C27.5004 96.9717 26.6617 97.136 25.6417 97.136ZM33.9074 97V85.78L34.6384 86.579H31.2214V85.1H35.5904V97H33.9074Z" fill="#6E9C9F"/>
<path d="M264.319 116.1H266.019V128H264.319V116.1ZM257.485 128H255.785V116.1H257.485V128ZM264.472 122.696H257.315V121.217H264.472V122.696ZM269.105 124.039V122.628H273.678V124.039H269.105ZM275.397 128V126.844L280.242 122.169C280.673 121.761 280.99 121.404 281.194 121.098C281.409 120.781 281.551 120.492 281.619 120.231C281.698 119.959 281.738 119.698 281.738 119.449C281.738 118.837 281.523 118.355 281.092 118.004C280.661 117.653 280.032 117.477 279.205 117.477C278.57 117.477 277.998 117.585 277.488 117.8C276.978 118.004 276.536 118.327 276.162 118.769L275.006 117.766C275.459 117.188 276.066 116.746 276.825 116.44C277.596 116.123 278.44 115.964 279.358 115.964C280.185 115.964 280.905 116.1 281.517 116.372C282.129 116.633 282.599 117.012 282.928 117.511C283.268 118.01 283.438 118.599 283.438 119.279C283.438 119.664 283.387 120.044 283.285 120.418C283.183 120.792 282.99 121.189 282.707 121.608C282.424 122.027 282.016 122.498 281.483 123.019L277.165 127.184L276.757 126.521H283.948V128H275.397ZM287.692 128V116.78L288.423 117.579H285.006V116.1H289.375V128H287.692Z" fill="#6E9C9F"/>
<path d="M86.24 149.98C85.2267 149.98 84.3133 149.74 83.5 149.26C82.6867 148.78 82.0733 148.14 81.66 147.34L82.76 146.38C83.1333 146.993 83.6267 147.487 84.24 147.86C84.8667 148.233 85.54 148.42 86.26 148.42C86.8733 148.42 87.42 148.287 87.9 148.02C88.38 147.753 88.76 147.387 89.04 146.92C89.32 146.44 89.46 145.893 89.46 145.28C89.46 144.68 89.32 144.153 89.04 143.7C88.7733 143.247 88.4067 142.893 87.94 142.64C87.4867 142.387 86.9733 142.26 86.4 142.26C85.8267 142.26 85.2867 142.387 84.78 142.64C84.2867 142.893 83.88 143.253 83.56 143.72H81.98L83.58 135.58H90.48V137.2H84.88L84.02 141.72C84.3133 141.413 84.68 141.173 85.12 141C85.5733 140.813 86.0733 140.72 86.62 140.72C87.5 140.72 88.2867 140.913 88.98 141.3C89.6867 141.687 90.24 142.22 90.64 142.9C91.0533 143.58 91.26 144.367 91.26 145.26C91.26 146.193 91.0333 147.013 90.58 147.72C90.14 148.44 89.54 148.993 88.78 149.38C88.02 149.78 87.1733 149.98 86.24 149.98ZM93.217 147C93.217 146.467 93.257 145.967 93.337 145.5C93.4304 145.033 93.5904 144.587 93.817 144.16C94.057 143.733 94.3904 143.327 94.817 142.94C95.2437 142.54 95.797 142.153 96.477 141.78C96.877 141.553 97.277 141.34 97.677 141.14C98.0904 140.94 98.4704 140.727 98.817 140.5C99.177 140.273 99.4637 140.027 99.677 139.76C99.8904 139.48 99.997 139.16 99.997 138.8C99.997 138.493 99.9037 138.2 99.717 137.92C99.5437 137.627 99.277 137.393 98.917 137.22C98.5704 137.033 98.137 136.94 97.617 136.94C97.217 136.94 96.8504 136.993 96.517 137.1C96.197 137.207 95.9037 137.347 95.637 137.52C95.3837 137.68 95.157 137.853 94.957 138.04C94.7704 138.213 94.6104 138.373 94.477 138.52L93.377 137.28C93.4837 137.16 93.6637 137 93.917 136.8C94.1704 136.587 94.4904 136.373 94.877 136.16C95.2637 135.947 95.7104 135.767 96.217 135.62C96.737 135.46 97.3037 135.38 97.917 135.38C98.7437 135.38 99.4504 135.527 100.037 135.82C100.637 136.1 101.097 136.487 101.417 136.98C101.737 137.46 101.897 138 101.897 138.6C101.897 139.12 101.784 139.573 101.557 139.96C101.344 140.347 101.064 140.687 100.717 140.98C100.384 141.273 100.03 141.527 99.657 141.74C99.297 141.94 98.9704 142.113 98.677 142.26C98.077 142.553 97.5637 142.82 97.137 143.06C96.7104 143.3 96.357 143.54 96.077 143.78C95.8104 144.007 95.5904 144.247 95.417 144.5C95.257 144.753 95.137 145.053 95.057 145.4H102.117V147H93.217Z" fill="#6E9C9F"/>
<line x1="50.8563" y1="96.5211" x2="70.8563" y2="90.5211" stroke="black"/>
<path d="M70.5 90.5L137.5 126.5" stroke="black"/>
<line x1="137.439" y1="126.239" x2="131.439" y2="137.239" stroke="black"/>
<line x1="244" y1="92.5" x2="220" y2="92.5" stroke="black"/>
<path d="M136.812 126.537L220.813 92.5366" stroke="black"/>
<line x1="161.123" y1="77.5154" x2="220.123" y2="92.5154" stroke="black"/>
<path d="M70.5 91L136.5 126.5L131 137L51 97L70.5 91Z" fill="#F1EADC"/>
<path d="M162 69L206.5 85L241 92H220L162 77.5V73.5V69Z" fill="#F1EADC"/>
<path d="M220.5 93H241.5L132 137.5L138 126.5L220.5 93Z" fill="#F1EADC"/>
</svg>
