<svg width="456" height="364" viewBox="0 0 456 364" fill="none" xmlns="http://www.w3.org/2000/svg">
<path d="M252.621 79.741L255.965 121.487C255.965 121.487 308.759 140.567 325.758 146.829C342.756 153.092 374.547 157.896 405.382 164.254L396.71 267.994L207.274 363L62.165 284.67L58.1972 173.953C54.0698 164.329 46.1942 143.12 47.7108 135.27C50.3182 114.113 70.2355 64.9557 84.6683 19.9017L91.1869 14.6267L196.108 1.01401C199.31 0.846727 198.924 1.70164 218.044 30.9051C224.628 40.9609 244.402 66.0791 252.621 79.741Z" fill="#F1EADC"/>
<path d="M255.965 121.487C254.659 105.184 252.621 79.741 252.621 79.741C244.402 66.0791 224.628 40.9609 218.044 30.9051C198.924 1.70164 199.31 0.846727 196.108 1.01401L91.1869 14.6267L84.6683 19.9017C70.2355 64.9557 50.3182 114.113 47.7108 135.27C46.1942 143.12 54.0698 164.329 58.1972 173.953M255.965 121.487C257.271 137.789 249.085 203.83 249.085 203.83M255.965 121.487C255.965 121.487 308.759 140.567 325.758 146.829C342.756 153.092 374.547 157.896 405.382 164.254M249.085 203.83L170.088 229.517M249.085 203.83L272.973 217.526M405.382 164.254L202.796 245.76M405.382 164.254L396.71 267.994L207.274 363M202.796 245.76L207.274 363M202.796 245.76L58.1972 173.953M207.274 363L62.165 284.67L58.1972 173.953" stroke="black"/>
<path d="M171.877 230.032L247.923 204.087L271.184 217.507L203.19 245.241L171.877 230.032Z" fill="#003349"/>
<path d="M399.119 220.191L393.36 219.78L395.884 224.973L399.119 220.191ZM207.663 313.235L213.422 313.646L210.898 308.453L207.663 313.235ZM394.853 221.709L211.492 310.819L211.929 311.718L395.29 222.608L394.853 221.709Z" fill="#6E9C9F"/>
<path d="M42.1574 1.00006L39.2615 5.9948L45.035 6.0053L42.1574 1.00006ZM42.1406 285.295L42.6492 5.50096L41.6492 5.49914L41.1406 285.293L42.1406 285.295Z" fill="#6E9C9F"/>
<path d="M414.328 162.038L411.526 167.087L417.299 166.989L414.328 162.038ZM416.617 267.599L414.904 166.529L413.904 166.546L415.617 267.616L416.617 267.599Z" fill="#6E9C9F"/>
<path d="M204.979 315.919L201.821 311.086L199.214 316.237L204.979 315.919ZM60.0441 242.558L63.2014 247.391L65.8088 242.24L60.0441 242.558ZM201.189 313.441L64.2848 244.144L63.8332 245.036L200.738 314.333L201.189 313.441Z" fill="#6E9C9F"/>
<path d="M270.289 201.403L267.715 196.235L264.526 201.048L270.289 201.403ZM198.716 153.986L201.29 159.154L204.479 154.341L198.716 153.986ZM266.814 198.501L202.744 156.055L202.192 156.889L266.261 199.335L266.814 198.501Z" fill="#6E9C9F"/>
<path d="M306.968 152.197L301.386 150.725L302.902 156.296L306.968 152.197ZM155.772 193.351L161.354 194.823L159.838 189.252L155.772 193.351ZM302.495 152.896L159.982 191.686L160.245 192.651L302.758 153.861L302.495 152.896Z" fill="#6E9C9F"/>
<path d="M287.487 263.746C287.682 264.631 287.639 265.487 287.357 266.314C287.085 267.125 286.619 267.829 285.959 268.425C285.311 269.018 284.519 269.418 283.581 269.625C282.592 269.843 281.668 269.801 280.809 269.499C279.948 269.184 279.203 268.624 278.575 267.821C277.961 267.014 277.517 265.993 277.244 264.756C276.842 262.933 276.722 261.369 276.885 260.063C277.047 258.757 277.453 257.719 278.102 256.948C278.749 256.163 279.593 255.656 280.634 255.427C281.533 255.228 282.395 255.27 283.222 255.552C284.059 255.818 284.77 256.289 285.357 256.966L284.53 258.233C284.109 257.684 283.579 257.296 282.942 257.068C282.302 256.827 281.636 256.782 280.946 256.935C280.243 257.09 279.672 257.441 279.233 257.988C278.794 258.536 278.514 259.246 278.392 260.119C278.284 260.99 278.35 261.999 278.589 263.148C278.684 262.649 278.871 262.198 279.151 261.795C279.428 261.379 279.781 261.028 280.209 260.743C280.651 260.454 281.139 260.251 281.672 260.133C282.571 259.935 283.424 259.966 284.232 260.224C285.053 260.48 285.749 260.914 286.321 261.525C286.906 262.133 287.294 262.873 287.487 263.746ZM283.274 268.136C283.873 268.004 284.386 267.734 284.815 267.325C285.257 266.914 285.573 266.428 285.763 265.867C285.951 265.293 285.978 264.707 285.846 264.108C285.714 263.509 285.444 262.995 285.035 262.566C284.627 262.137 284.135 261.829 283.562 261.642C283.001 261.452 282.421 261.422 281.822 261.555C281.223 261.687 280.703 261.958 280.261 262.37C279.832 262.778 279.523 263.263 279.332 263.824C279.142 264.385 279.113 264.965 279.245 265.564C279.377 266.163 279.649 266.683 280.06 267.125C280.469 267.553 280.954 267.863 281.514 268.053C282.088 268.241 282.675 268.268 283.274 268.136ZM290.598 267.873C290.483 267.352 290.414 266.855 290.392 266.382C290.382 265.906 290.442 265.436 290.572 264.97C290.714 264.502 290.952 264.033 291.286 263.563C291.616 263.081 292.073 262.584 292.657 262.073C292.999 261.766 293.343 261.471 293.691 261.19C294.051 260.905 294.377 260.615 294.666 260.319C294.969 260.02 295.196 259.718 295.347 259.411C295.495 259.092 295.53 258.756 295.452 258.405C295.386 258.105 295.232 257.839 294.989 257.606C294.757 257.357 294.446 257.186 294.057 257.095C293.679 256.987 293.235 256.989 292.728 257.101C292.337 257.187 291.99 257.318 291.688 257.494C291.398 257.667 291.142 257.867 290.919 258.094C290.706 258.305 290.522 258.523 290.367 258.748C290.222 258.958 290.1 259.148 290.002 259.32L288.66 258.346C288.739 258.206 288.88 258.011 289.084 257.761C289.286 257.498 289.552 257.221 289.884 256.93C290.216 256.638 290.613 256.366 291.076 256.114C291.55 255.845 292.086 255.645 292.685 255.513C293.492 255.335 294.214 255.326 294.85 255.486C295.496 255.63 296.028 255.909 296.447 256.322C296.863 256.722 297.136 257.214 297.265 257.8C297.377 258.308 297.364 258.775 297.226 259.202C297.101 259.625 296.9 260.018 296.625 260.379C296.363 260.737 296.072 261.06 295.754 261.349C295.445 261.622 295.163 261.862 294.909 262.068C294.386 262.484 293.942 262.855 293.577 263.181C293.212 263.507 292.919 263.818 292.697 264.112C292.485 264.391 292.322 264.673 292.208 264.958C292.106 265.239 292.053 265.558 292.05 265.914L298.944 264.393L299.289 265.956L290.598 267.873Z" fill="black"/>
<path d="M181.874 194.468C182.364 194.403 182.817 194.455 183.236 194.624C183.651 194.783 184.013 195.04 184.322 195.397C184.628 195.743 184.858 196.17 185.012 196.68C185.212 197.342 185.225 197.971 185.05 198.569C184.89 199.174 184.558 199.701 184.054 200.149C183.553 200.608 182.912 200.956 182.131 201.192C181.307 201.441 180.533 201.504 179.808 201.379C179.098 201.263 178.484 200.975 177.966 200.516L178.636 199.265C179.017 199.624 179.458 199.869 179.96 200.002C180.473 200.131 181.065 200.094 181.738 199.89C182.486 199.664 183.02 199.313 183.338 198.838C183.67 198.371 183.734 197.801 183.531 197.128C183.324 196.444 182.927 195.973 182.339 195.712C181.759 195.438 181.03 195.433 180.151 195.699L179.728 195.827L179.364 194.623L179.819 194.485C180.6 194.249 181.14 193.879 181.437 193.374C181.745 192.867 181.814 192.331 181.644 191.767C181.525 191.376 181.336 191.084 181.077 190.89C180.817 190.697 180.511 190.588 180.161 190.563C179.807 190.528 179.424 190.573 179.011 190.698C178.415 190.878 177.928 191.168 177.551 191.566C177.182 191.95 176.941 192.407 176.83 192.938L175.675 192.293C175.759 191.865 175.939 191.461 176.215 191.082C176.502 190.699 176.861 190.359 177.292 190.063C177.734 189.764 178.227 189.532 178.769 189.368C179.453 189.161 180.091 189.099 180.684 189.18C181.287 189.258 181.801 189.469 182.225 189.815C182.65 190.16 182.95 190.626 183.127 191.212C183.255 191.635 183.295 192.061 183.247 192.489C183.196 192.908 183.053 193.294 182.817 193.65C182.588 193.991 182.274 194.264 181.874 194.468ZM190.232 187.216L184.292 189.012L183.894 187.694L192.095 185.214L189.779 198.524L188.152 199.016L190.232 187.216Z" fill="black"/>
<path d="M259.382 181.969C259.655 182.381 259.807 182.811 259.838 183.262C259.877 183.704 259.804 184.143 259.619 184.577C259.442 185.003 259.158 185.397 258.767 185.759C258.26 186.229 257.7 186.516 257.086 186.62C256.472 186.741 255.853 186.673 255.229 186.417C254.597 186.168 254.004 185.744 253.45 185.145C252.865 184.513 252.469 183.844 252.264 183.139C252.058 182.449 252.048 181.771 252.234 181.105L253.651 181.159C253.496 181.658 253.468 182.163 253.569 182.672C253.677 183.189 253.97 183.706 254.448 184.221C254.979 184.795 255.528 185.121 256.094 185.199C256.66 185.293 257.201 185.101 257.716 184.624C258.24 184.139 258.491 183.575 258.467 182.932C258.46 182.29 258.144 181.633 257.521 180.959L257.22 180.635L258.143 179.78L258.467 180.129C259.021 180.728 259.59 181.051 260.174 181.097C260.765 181.152 261.277 180.979 261.71 180.579C262.009 180.302 262.189 180.004 262.249 179.685C262.31 179.367 262.274 179.045 262.142 178.719C262.019 178.385 261.81 178.061 261.518 177.745C261.094 177.287 260.621 176.976 260.098 176.812C259.591 176.648 259.075 176.632 258.548 176.764L258.623 175.444C259.044 175.332 259.486 175.317 259.948 175.399C260.418 175.489 260.88 175.663 261.335 175.921C261.798 176.188 262.222 176.529 262.607 176.944C263.092 177.468 263.428 178.015 263.615 178.583C263.809 179.16 263.844 179.715 263.719 180.247C263.594 180.78 263.308 181.254 262.858 181.67C262.534 181.97 262.169 182.193 261.762 182.337C261.364 182.474 260.953 182.515 260.53 182.458C260.124 182.403 259.741 182.24 259.382 181.969ZM259.269 187.751C259.601 187.443 259.936 187.18 260.273 186.96C260.618 186.749 260.989 186.591 261.386 186.486C261.791 186.389 262.237 186.362 262.725 186.405C263.221 186.44 263.781 186.562 264.407 186.77C264.779 186.889 265.143 187.015 265.499 187.149C265.863 187.291 266.215 187.405 266.557 187.491C266.906 187.584 267.225 187.621 267.515 187.6C267.813 187.571 268.074 187.453 268.298 187.245C268.49 187.068 268.619 186.84 268.686 186.562C268.768 186.285 268.76 185.983 268.66 185.659C268.576 185.335 268.384 185.011 268.084 184.686C267.853 184.437 267.608 184.239 267.349 184.093C267.098 183.955 266.841 183.853 266.579 183.786C266.333 183.721 266.094 183.679 265.862 183.662C265.646 183.646 265.454 183.639 265.285 183.64L265.423 182.238C265.56 182.235 265.764 182.255 266.035 182.298C266.314 182.333 266.632 182.409 266.988 182.527C267.345 182.645 267.715 182.82 268.099 183.051C268.499 183.283 268.876 183.59 269.23 183.973C269.708 184.488 270.024 185.014 270.18 185.549C270.352 186.085 270.376 186.595 270.254 187.08C270.139 187.556 269.895 187.968 269.52 188.314C269.196 188.615 268.848 188.806 268.476 188.888C268.111 188.978 267.738 189 267.354 188.953C266.979 188.914 266.617 188.84 266.268 188.731C265.936 188.622 265.639 188.518 265.378 188.42C264.849 188.215 264.386 188.049 263.99 187.921C263.594 187.794 263.24 187.712 262.929 187.676C262.633 187.64 262.356 187.642 262.098 187.68C261.848 187.726 261.592 187.825 261.329 187.975L265.406 192.379L264.408 193.302L259.269 187.751Z" fill="black"/>
<path d="M10.319 161.1H12.019V173H10.319V161.1ZM3.485 173H1.785V161.1H3.485V173ZM10.472 167.696H3.315V166.217H10.472V167.696ZM15.1049 169.039V167.628H19.6779V169.039H15.1049ZM25.6417 173.136C24.803 173.136 23.987 173.006 23.1937 172.745C22.4117 172.484 21.7714 172.133 21.2727 171.691L22.0547 170.348C22.4514 170.722 22.967 171.028 23.6017 171.266C24.2364 171.504 24.9107 171.623 25.6247 171.623C26.5314 171.623 27.2284 171.43 27.7157 171.045C28.203 170.66 28.4467 170.144 28.4467 169.498C28.4467 169.056 28.339 168.671 28.1237 168.342C27.9084 168.013 27.5344 167.764 27.0017 167.594C26.4804 167.413 25.7607 167.322 24.8427 167.322H22.1397L22.7687 161.1H29.4837V162.579H23.3977L24.2817 161.746L23.7887 166.659L22.9047 165.843H25.1997C26.3897 165.843 27.3474 165.996 28.0727 166.302C28.798 166.608 29.325 167.033 29.6537 167.577C29.9824 168.11 30.1467 168.727 30.1467 169.43C30.1467 170.11 29.9824 170.733 29.6537 171.3C29.325 171.855 28.8264 172.303 28.1577 172.643C27.5004 172.972 26.6617 173.136 25.6417 173.136ZM33.9074 173V161.78L34.6384 162.579H31.2214V161.1H35.5904V173H33.9074Z" fill="black"/>
<path d="M428.319 207.1H430.019V219H428.319V207.1ZM421.485 219H419.785V207.1H421.485V219ZM428.472 213.696H421.315V212.217H428.472V213.696ZM433.105 215.039V213.628H437.678V215.039H433.105ZM439.397 219V217.844L444.242 213.169C444.673 212.761 444.99 212.404 445.194 212.098C445.409 211.781 445.551 211.492 445.619 211.231C445.698 210.959 445.738 210.698 445.738 210.449C445.738 209.837 445.523 209.355 445.092 209.004C444.661 208.653 444.032 208.477 443.205 208.477C442.57 208.477 441.998 208.585 441.488 208.8C440.978 209.004 440.536 209.327 440.162 209.769L439.006 208.766C439.459 208.188 440.066 207.746 440.825 207.44C441.596 207.123 442.44 206.964 443.358 206.964C444.185 206.964 444.905 207.1 445.517 207.372C446.129 207.633 446.599 208.012 446.928 208.511C447.268 209.01 447.438 209.599 447.438 210.279C447.438 210.664 447.387 211.044 447.285 211.418C447.183 211.792 446.99 212.189 446.707 212.608C446.424 213.027 446.016 213.498 445.483 214.019L441.165 218.184L440.757 217.521H447.948V219H439.397ZM451.692 219V207.78L452.423 208.579H449.006V207.1H453.375V219H451.692Z" fill="black"/>
<path d="M122.624 268.391C121.616 268.287 120.733 267.955 119.973 267.394C119.213 266.833 118.668 266.133 118.339 265.295L119.532 264.453C119.84 265.101 120.28 265.643 120.852 266.077C121.437 266.513 122.088 266.767 122.804 266.841C123.414 266.904 123.972 266.827 124.477 266.611C124.981 266.395 125.397 266.069 125.723 265.634C126.051 265.185 126.246 264.655 126.309 264.045C126.371 263.449 126.285 262.91 126.053 262.431C125.834 261.952 125.506 261.563 125.068 261.264C124.643 260.965 124.145 260.786 123.575 260.728C123.004 260.669 122.454 260.74 121.924 260.94C121.408 261.141 120.966 261.458 120.6 261.889L119.028 261.727L121.454 253.794L128.318 254.501L128.152 256.112L122.581 255.539L121.262 259.947C121.586 259.672 121.975 259.471 122.43 259.343C122.901 259.204 123.407 259.162 123.951 259.218C124.827 259.309 125.589 259.581 126.239 260.037C126.903 260.494 127.399 261.081 127.727 261.799C128.068 262.518 128.193 263.321 128.102 264.21C128.006 265.138 127.697 265.931 127.173 266.587C126.662 267.258 126.008 267.747 125.213 268.054C124.416 268.374 123.553 268.486 122.624 268.391ZM129.87 266.141C129.925 265.611 130.016 265.117 130.143 264.661C130.284 264.207 130.489 263.779 130.758 263.378C131.04 262.978 131.414 262.608 131.878 262.267C132.343 261.912 132.933 261.584 133.648 261.283C134.069 261.098 134.489 260.927 134.907 260.769C135.339 260.613 135.739 260.439 136.107 260.249C136.488 260.061 136.798 259.845 137.038 259.601C137.279 259.345 137.418 259.037 137.455 258.679C137.486 258.374 137.423 258.073 137.266 257.775C137.124 257.466 136.883 257.206 136.542 256.997C136.216 256.776 135.795 256.638 135.278 256.585C134.88 256.544 134.51 256.56 134.167 256.632C133.838 256.705 133.532 256.814 133.249 256.959C132.98 257.092 132.737 257.242 132.519 257.407C132.316 257.56 132.14 257.703 131.992 257.835L131.025 256.489C131.144 256.38 131.339 256.24 131.612 256.067C131.885 255.88 132.226 255.701 132.632 255.528C133.039 255.356 133.501 255.223 134.02 255.129C134.554 255.023 135.126 255.001 135.736 255.064C136.558 255.149 137.246 255.367 137.8 255.719C138.368 256.059 138.786 256.491 139.054 257.014C139.323 257.525 139.427 258.078 139.365 258.675C139.312 259.192 139.153 259.632 138.888 259.993C138.636 260.356 138.322 260.665 137.947 260.921C137.586 261.179 137.208 261.395 136.815 261.569C136.437 261.731 136.094 261.87 135.787 261.986C135.16 262.216 134.622 262.429 134.173 262.624C133.724 262.819 133.348 263.021 133.045 263.231C132.756 263.429 132.513 263.646 132.315 263.88C132.13 264.115 131.979 264.402 131.864 264.738L138.887 265.462L138.723 267.053L129.87 266.141Z" fill="black"/>
<line x1="58.1122" y1="172.295" x2="93.8985" y2="161.559" stroke="black"/>
<path d="M93.1468 161.144L213.03 225.559" stroke="black"/>
<line x1="212.576" y1="224.904" x2="201.84" y2="244.586" stroke="black"/>
<line x1="403.592" y1="164.328" x2="360.648" y2="164.328" stroke="black"/>
<path d="M211.801 225.625L362.103 164.788" stroke="black"/>
<line x1="255.203" y1="138.293" x2="360.773" y2="165.132" stroke="black"/>
<path d="M93.1475 162.038L211.242 225.559L201.401 244.347L58.2559 172.774L93.1475 162.038Z" fill="#F1EADC"/>
<path d="M256.869 122.673L336.494 151.302L398.225 163.828H360.649L256.869 137.883V130.725V122.673Z" fill="#F1EADC"/>
<path d="M361.544 165.617H399.119L203.189 245.241L213.925 225.559L361.544 165.617Z" fill="#F1EADC"/>
</svg>
