<svg width="322" height="182" viewBox="0 0 322 182" fill="none" xmlns="http://www.w3.org/2000/svg">
<path d="M74.2617 5.91C76.2167 4.60667 81.2606 2 85.7962 2C90.3318 2 192.213 2.26067 242.587 2.391C245.129 2.5865 251.033 3.5249 254.317 5.7145" stroke="black"/>
<path d="M97.3301 80.7865L109.647 91.93C113.361 95.84 123.058 104.247 132.129 106.593C143.468 109.525 151.484 112.458 193.125 107.57C198.013 106.136 209.704 101.392 217.367 93.885C225.031 86.3778 230.466 81.6337 232.225 80.2M97.3301 80.7865C83.4106 68.7437 71.4589 65.6027 67.223 65.5375C58.1517 63.8171 48.846 57.3917 45.3271 54.394M97.3301 80.7865C101.245 71.9791 102.498 63.4143 101.964 55.3715M232.225 80.2C243.486 69.8633 254.512 65.9877 258.618 65.342C274.101 62.214 281.231 56.4794 282.86 54.003M232.225 80.2C229.313 74.3752 226.695 64.9336 227.207 54.003M282.86 54.003C266.907 17.249 257.184 6.75717 254.317 6.1055C234.506 21.212 227.911 39.0086 227.207 54.003M282.86 54.003C287.552 60.3894 294.355 78.8706 284.033 101.705C282.273 112.197 274.336 133.689 256.663 135.722C238.99 137.755 128.349 137.482 75.2386 137.091C68.2006 136.439 52.9125 130.952 48.0641 114.217C42.0036 93.2985 33.5971 73.7485 45.3271 54.394M45.3271 54.394C57.0571 35.0395 64.0953 12.166 74.2611 5.91C84.571 13.9556 100.451 32.565 101.964 55.3715M101.964 55.3715C124.77 50.5492 181.747 43.5242 227.207 54.003" stroke="black"/>
<path d="M45.3275 54.7848L50.8015 58.6948L57.8395 62.4093L62.9225 64.5598L68.201 65.7328C68.201 65.7328 69.9516 65.8581 74.2615 67.2968C76.7254 68.1193 80.322 69.4473 84.0365 71.4023C87.751 73.3573 88.5825 74.5895 90.488 75.8988C96.2823 79.8799 98.5035 82.3503 98.5035 82.3503L109.256 91.7343L114.73 96.8173L120.791 101.509L127.047 105.028L133.498 106.983C146.278 110.958 158.035 111.081 184.328 108.938C186.479 108.547 193.969 109.091 203.683 103.66C213.396 98.2284 227.444 85.5138 226.752 85.4783L238.482 75.1168C243.462 71.9803 248.452 68.8608 252.362 67.2968C256.272 65.7328 263.701 64.3643 265.265 63.9733C266.122 63.7591 270.607 62.3977 274.845 60.2588C278.343 58.4927 281.418 56.3297 282.86 54.1983C287.748 63.1913 290.289 70.2293 288.725 85.4783C288.013 88.2646 287.552 90.9523 286.77 93.4938C286.184 96.4263 284.663 99.0743 283.838 101.705C282.86 106.397 281.703 110.099 280.319 113.435C274.843 126.635 268.245 132.124 258.227 134.94L249.43 135.526L240.632 135.917L226.752 136.308L213.067 136.504L166.733 136.699L74.6525 136.398L70.156 135.421L65.073 133.466L61.3585 131.315L57.8395 128.774L54.3205 125.059L51.5835 121.149L49.2375 116.262L47.6735 111.179L45.132 102.772L43.177 96.1254L41.0265 87.3279L40.049 80.2899L39.8535 74.2294L40.44 68.1689L41.4175 64.0634L42.395 60.9354L43.7635 57.6119L45.3275 54.7848Z" fill="#F1EADC"/>
<path d="M74 5.99957C86.121 15.5791 99.0908 33.0786 101.241 53.6061C101.528 58.7866 101.447 61.726 100.85 66.9001L100.264 70.0281L99.2863 73.5471L97.5 79.9996L84.8193 71.2011L84.2328 71.0056L82.4733 70.0281L80.5183 69.0506L78.3678 68.0731L73.8713 66.3136L68.9838 65.1406L68.3973 64.9451H67.4198H66.8333L66.0513 64.7496L61.1094 63.1031L53 58.9996L49 56.4996L46 53.9996C49.7145 47.7436 52.5618 40.6346 55.1033 35.4246C66.8333 11.3781 69.4045 9.24388 74 5.99957Z" fill="#F1EADC"/>
<path d="M74.6523 5.88893C77.9001 4.05526 80.9083 2.78177 84.2318 2.39213C85.6003 2.19527 94.68 2.2061 107.692 2.19679C145.417 2.62845 215.608 2.5649 242.782 2.564C249.011 3.08685 252.815 4.87682 254.179 5.8706C236.331 20.9633 227.924 34.6483 226.947 53.8073C198.795 45.9873 143.859 46.1828 102.218 55.1758C99.8719 34.8438 89.3149 17.4443 74.6523 5.88893Z" fill="#F1EADC"/>
<path d="M230.467 38.3628C235.94 23.5048 241.745 16.8265 254.318 6.30077C262.19 12.0588 268.454 22.757 282.665 54.0028C277.972 59.8678 267.22 63.1913 254.122 66.3193C245.324 69.4473 239.46 73.7483 232.422 79.8088C226.947 69.6428 225.578 50.8748 230.467 38.3628Z" fill="#F1EADC"/>
<path d="M102.217 55.3742C141.158 48.8006 168.557 47.0487 199.185 49.8975C203.502 50.299 207.93 50.8604 211.893 51.4615C216.5 52.1602 221.076 53.1237 226.946 54.0024C226.946 67.1322 228.706 72.8152 232.029 80.2619C225.187 85.6734 219.713 90.9519 214.239 96.2304C210.915 98.9674 204.789 102.529 200.749 104.246C197.426 106.005 196.644 106.592 192.343 107.374C181.004 108.938 167.541 110.207 156.371 109.853C148.764 109.759 141.029 108.793 132.911 106.521C129.067 105.446 127.241 104.759 123.527 102.683C119.615 100.496 116.151 97.5999 113.165 94.8629C111.033 92.9079 109.087 91.099 107.105 89.1934C105.786 87.9248 104.395 86.7199 102.999 85.4789C101.222 83.898 99.5505 82.1016 97.5254 80.6539C101.637 70.4626 102.608 64.9765 102.217 55.3742Z" fill="#6E9C9F"/>
<path d="M100.654 71.598L105.654 74.4848V68.7113L100.654 71.598ZM227.338 71.598L222.338 68.7113V74.4848L227.338 71.598ZM105.154 72.098L222.838 72.098V71.098L105.154 71.098V72.098Z" fill="black"/>
<path d="M155.393 48.529L152.474 53.5105L158.247 53.5473L155.393 48.529ZM155.002 109.916L157.92 104.935L152.147 104.898L155.002 109.916ZM154.864 53.0257L154.53 105.413L155.53 105.419L155.864 53.0321L154.864 53.0257Z" fill="black"/>
<path d="M170.76 61.56V60.16L177.92 51H180.08L172.98 60.16L171.96 59.84H183.14V61.56H170.76ZM178.54 65V61.56L178.6 59.84V56.8H180.48V65H178.54ZM190.619 65.16C189.379 65.16 188.319 64.8867 187.439 64.34C186.559 63.7933 185.886 63.0067 185.419 61.98C184.966 60.94 184.739 59.6733 184.739 58.18C184.739 56.5933 185.019 55.2533 185.579 54.16C186.139 53.0667 186.919 52.24 187.919 51.68C188.919 51.12 190.066 50.84 191.359 50.84C192.026 50.84 192.659 50.9067 193.259 51.04C193.872 51.1733 194.399 51.38 194.839 51.66L194.079 53.22C193.719 52.9667 193.306 52.7933 192.839 52.7C192.386 52.6067 191.906 52.56 191.399 52.56C189.972 52.56 188.839 53.0067 187.999 53.9C187.159 54.78 186.739 56.0933 186.739 57.84C186.739 58.12 186.752 58.4533 186.779 58.84C186.806 59.2267 186.872 59.6067 186.979 59.98L186.299 59.3C186.499 58.6867 186.812 58.1733 187.239 57.76C187.679 57.3333 188.199 57.02 188.799 56.82C189.412 56.6067 190.072 56.5 190.779 56.5C191.712 56.5 192.539 56.6733 193.259 57.02C193.979 57.3667 194.546 57.86 194.959 58.5C195.372 59.1267 195.579 59.8733 195.579 60.74C195.579 61.6333 195.359 62.4133 194.919 63.08C194.479 63.7467 193.886 64.26 193.139 64.62C192.392 64.98 191.552 65.16 190.619 65.16ZM190.539 63.54C191.152 63.54 191.686 63.4267 192.139 63.2C192.606 62.9733 192.972 62.66 193.239 62.26C193.506 61.8467 193.639 61.3667 193.639 60.82C193.639 59.9933 193.352 59.34 192.779 58.86C192.206 58.3667 191.426 58.12 190.439 58.12C189.799 58.12 189.239 58.24 188.759 58.48C188.279 58.72 187.899 59.0467 187.619 59.46C187.352 59.86 187.219 60.32 187.219 60.84C187.219 61.32 187.346 61.7667 187.599 62.18C187.852 62.58 188.226 62.9067 188.719 63.16C189.212 63.4133 189.819 63.54 190.539 63.54ZM208.774 65.12C207.694 65.12 206.727 64.8867 205.874 64.42C205.034 63.9533 204.374 63.3133 203.894 62.5C203.414 61.6867 203.174 60.7533 203.174 59.7C203.174 58.6467 203.414 57.7133 203.894 56.9C204.374 56.0867 205.034 55.4533 205.874 55C206.727 54.5333 207.694 54.3 208.774 54.3C209.734 54.3 210.587 54.4933 211.334 54.88C212.094 55.2533 212.68 55.8133 213.094 56.56L211.634 57.5C211.287 56.98 210.86 56.6 210.354 56.36C209.86 56.1067 209.327 55.98 208.754 55.98C208.06 55.98 207.44 56.1333 206.894 56.44C206.347 56.7467 205.914 57.18 205.594 57.74C205.274 58.2867 205.114 58.94 205.114 59.7C205.114 60.46 205.274 61.12 205.594 61.68C205.914 62.24 206.347 62.6733 206.894 62.98C207.44 63.2867 208.06 63.44 208.754 63.44C209.327 63.44 209.86 63.32 210.354 63.08C210.86 62.8267 211.287 62.44 211.634 61.92L213.094 62.84C212.68 63.5733 212.094 64.14 211.334 64.54C210.587 64.9267 209.734 65.12 208.774 65.12ZM215.98 65V54.4H217.96L222.52 62.24H221.72L226.4 54.4H228.2V65H226.46V56.56L226.78 56.74L222.5 63.8H221.66L217.36 56.6L217.74 56.52V65H215.98Z" fill="black"/>
<path d="M145.38 175L151.32 161.84L151.84 162.74H143.52L144.52 161.76V165.24H142.6V161H153.16V162.36L147.5 175H145.38ZM159.482 175.16C158.495 175.16 157.535 175.007 156.602 174.7C155.682 174.393 154.928 173.98 154.342 173.46L155.262 171.88C155.728 172.32 156.335 172.68 157.082 172.96C157.828 173.24 158.622 173.38 159.462 173.38C160.528 173.38 161.348 173.153 161.922 172.7C162.495 172.247 162.782 171.64 162.782 170.88C162.782 170.36 162.655 169.907 162.402 169.52C162.148 169.133 161.708 168.84 161.082 168.64C160.468 168.427 159.622 168.32 158.542 168.32H155.362L156.102 161H164.002V162.74H156.842L157.882 161.76L157.302 167.54L156.262 166.58H158.962C160.362 166.58 161.488 166.76 162.342 167.12C163.195 167.48 163.815 167.98 164.202 168.62C164.588 169.247 164.782 169.973 164.782 170.8C164.782 171.6 164.588 172.333 164.202 173C163.815 173.653 163.228 174.18 162.442 174.58C161.668 174.967 160.682 175.16 159.482 175.16ZM178.137 175.12C177.057 175.12 176.09 174.887 175.237 174.42C174.397 173.953 173.737 173.313 173.257 172.5C172.777 171.687 172.537 170.753 172.537 169.7C172.537 168.647 172.777 167.713 173.257 166.9C173.737 166.087 174.397 165.453 175.237 165C176.09 164.533 177.057 164.3 178.137 164.3C179.097 164.3 179.95 164.493 180.697 164.88C181.457 165.253 182.044 165.813 182.457 166.56L180.997 167.5C180.65 166.98 180.224 166.6 179.717 166.36C179.224 166.107 178.69 165.98 178.117 165.98C177.424 165.98 176.804 166.133 176.257 166.44C175.71 166.747 175.277 167.18 174.957 167.74C174.637 168.287 174.477 168.94 174.477 169.7C174.477 170.46 174.637 171.12 174.957 171.68C175.277 172.24 175.71 172.673 176.257 172.98C176.804 173.287 177.424 173.44 178.117 173.44C178.69 173.44 179.224 173.32 179.717 173.08C180.224 172.827 180.65 172.44 180.997 171.92L182.457 172.84C182.044 173.573 181.457 174.14 180.697 174.54C179.95 174.927 179.097 175.12 178.137 175.12ZM185.343 175V164.4H187.323L191.883 172.24H191.083L195.763 164.4H197.563V175H195.823V166.56L196.143 166.74L191.863 173.8H191.023L186.723 166.6L187.103 166.52V175H185.343Z" fill="black"/>
<path d="M300.84 47.48C300.84 46.4933 300.993 45.5333 301.3 44.6C301.607 43.68 302.02 42.9267 302.54 42.34L304.12 43.26C303.68 43.7267 303.32 44.3333 303.04 45.08C302.76 45.8267 302.62 46.62 302.62 47.46C302.62 48.5267 302.847 49.3467 303.3 49.92C303.753 50.4933 304.36 50.78 305.12 50.78C305.64 50.78 306.093 50.6533 306.48 50.4C306.867 50.1467 307.16 49.7067 307.36 49.08C307.573 48.4667 307.68 47.62 307.68 46.54V43.36L315 44.1V52H313.26V44.84L314.24 45.88L308.46 45.3L309.42 44.26V46.96C309.42 48.36 309.24 49.4867 308.88 50.34C308.52 51.1933 308.02 51.8133 307.38 52.2C306.753 52.5867 306.027 52.78 305.2 52.78C304.4 52.78 303.667 52.5867 303 52.2C302.347 51.8133 301.82 51.2267 301.42 50.44C301.033 49.6667 300.84 48.68 300.84 47.48ZM300.84 59.2667C300.84 58.2801 300.993 57.3201 301.3 56.3867C301.607 55.4667 302.02 54.7134 302.54 54.1267L304.12 55.0467C303.68 55.5134 303.32 56.1201 303.04 56.8667C302.76 57.6134 302.62 58.4067 302.62 59.2467C302.62 60.3134 302.847 61.1334 303.3 61.7067C303.753 62.2801 304.36 62.5667 305.12 62.5667C305.64 62.5667 306.093 62.4401 306.48 62.1867C306.867 61.9334 307.16 61.4934 307.36 60.8667C307.573 60.2534 307.68 59.4067 307.68 58.3267V55.1467L315 55.8867V63.7867H313.26V56.6267L314.24 57.6667L308.46 57.0867L309.42 56.0467V58.7467C309.42 60.1467 309.24 61.2734 308.88 62.1267C308.52 62.9801 308.02 63.6001 307.38 63.9867C306.753 64.3734 306.027 64.5667 305.2 64.5667C304.4 64.5667 303.667 64.3734 303 63.9867C302.347 63.6001 301.82 63.0134 301.42 62.2267C301.033 61.4534 300.84 60.4667 300.84 59.2667ZM300.88 77.9222C300.88 76.8422 301.113 75.8755 301.58 75.0222C302.047 74.1822 302.687 73.5222 303.5 73.0422C304.313 72.5622 305.247 72.3222 306.3 72.3222C307.353 72.3222 308.287 72.5622 309.1 73.0422C309.913 73.5222 310.547 74.1822 311 75.0222C311.467 75.8755 311.7 76.8422 311.7 77.9222C311.7 78.8822 311.507 79.7355 311.12 80.4822C310.747 81.2422 310.187 81.8289 309.44 82.2422L308.5 80.7822C309.02 80.4355 309.4 80.0089 309.64 79.5022C309.893 79.0089 310.02 78.4755 310.02 77.9022C310.02 77.2089 309.867 76.5889 309.56 76.0422C309.253 75.4955 308.82 75.0622 308.26 74.7422C307.713 74.4222 307.06 74.2622 306.3 74.2622C305.54 74.2622 304.88 74.4222 304.32 74.7422C303.76 75.0622 303.327 75.4955 303.02 76.0422C302.713 76.5889 302.56 77.2089 302.56 77.9022C302.56 78.4755 302.68 79.0089 302.92 79.5022C303.173 80.0089 303.56 80.4355 304.08 80.7822L303.16 82.2422C302.427 81.8289 301.86 81.2422 301.46 80.4822C301.073 79.7355 300.88 78.8822 300.88 77.9222ZM301 85.128H311.6V87.108L303.76 91.668V90.868L311.6 95.548V97.348H301V95.608H309.44L309.26 95.928L302.2 91.648V90.808L309.4 86.508L309.48 86.888H301V85.128Z" fill="black"/>
<path d="M161.84 79.24C161.84 78.2533 161.993 77.2933 162.3 76.36C162.607 75.44 163.02 74.6867 163.54 74.1L165.12 75.02C164.68 75.4867 164.32 76.0933 164.04 76.84C163.76 77.5867 163.62 78.3867 163.62 79.24C163.62 80.28 163.84 81.0867 164.28 81.66C164.733 82.2467 165.34 82.54 166.1 82.54C166.833 82.54 167.42 82.26 167.86 81.7C168.313 81.1533 168.54 80.28 168.54 79.08V77.96H169.94L175.06 82.12L174.26 82.4V74.74H176V83.98H174.64L169.54 79.84L170.16 78.8V79.46C170.16 81.1533 169.78 82.42 169.02 83.26C168.26 84.1133 167.293 84.54 166.12 84.54C165.333 84.54 164.613 84.3467 163.96 83.96C163.307 83.5733 162.787 82.9867 162.4 82.2C162.027 81.4267 161.84 80.44 161.84 79.24ZM162 86.4877H163.36L168.86 92.1877C169.34 92.6943 169.76 93.0677 170.12 93.3077C170.493 93.561 170.833 93.7277 171.14 93.8077C171.46 93.901 171.767 93.9477 172.06 93.9477C172.78 93.9477 173.347 93.6943 173.76 93.1877C174.173 92.681 174.38 91.941 174.38 90.9677C174.38 90.221 174.253 89.5477 174 88.9477C173.76 88.3477 173.38 87.8277 172.86 87.3877L174.04 86.0277C174.72 86.561 175.24 87.2743 175.6 88.1677C175.973 89.0743 176.16 90.0677 176.16 91.1477C176.16 92.121 176 92.9677 175.68 93.6877C175.373 94.4077 174.927 94.961 174.34 95.3477C173.753 95.7477 173.06 95.9477 172.26 95.9477C171.807 95.9477 171.36 95.8877 170.92 95.7677C170.48 95.6477 170.013 95.421 169.52 95.0877C169.027 94.7543 168.473 94.2743 167.86 93.6477L162.96 88.5677L163.74 88.0877V96.5477H162V86.4877ZM161.88 109.883C161.88 108.803 162.113 107.836 162.58 106.983C163.047 106.143 163.687 105.483 164.5 105.003C165.313 104.523 166.247 104.283 167.3 104.283C168.353 104.283 169.287 104.523 170.1 105.003C170.913 105.483 171.547 106.143 172 106.983C172.467 107.836 172.7 108.803 172.7 109.883C172.7 110.843 172.507 111.696 172.12 112.443C171.747 113.203 171.187 113.79 170.44 114.203L169.5 112.743C170.02 112.396 170.4 111.97 170.64 111.463C170.893 110.97 171.02 110.436 171.02 109.863C171.02 109.17 170.867 108.55 170.56 108.003C170.253 107.456 169.82 107.023 169.26 106.703C168.713 106.383 168.06 106.223 167.3 106.223C166.54 106.223 165.88 106.383 165.32 106.703C164.76 107.023 164.327 107.456 164.02 108.003C163.713 108.55 163.56 109.17 163.56 109.863C163.56 110.436 163.68 110.97 163.92 111.463C164.173 111.97 164.56 112.396 165.08 112.743L164.16 114.203C163.427 113.79 162.86 113.203 162.46 112.443C162.073 111.696 161.88 110.843 161.88 109.883ZM162 117.089H172.6V119.069L164.76 123.629V122.829L172.6 127.509V129.309H162V127.569H170.44L170.26 127.889L163.2 123.609V122.769L170.4 118.469L170.48 118.849H162V117.089Z" fill="black"/>
<path d="M39 153.5L44 156.387L44 150.613L39 153.5ZM289 153.5L284 150.613L284 156.387L289 153.5ZM43.5 154L284.5 154L284.5 153L43.5 153L43.5 154Z" fill="black"/>
<path d="M294 0L291.113 5L296.887 5L294 0ZM294 135L296.887 130L291.113 130L294 135ZM293.5 4.5L293.5 130.5L294.5 130.5L294.5 4.5L293.5 4.5Z" fill="black"/>
<path d="M3 110L0.227601 115.064L5.99961 114.933L3 110ZM4 154L6.7724 148.936L1.00039 149.067L4 154ZM2.60238 114.51L3.39788 149.513L4.39762 149.49L3.60212 114.487L2.60238 114.51Z" fill="black"/>
<path d="M16.14 125H18.14V139H16.14V125ZM8.1 139H6.1L6.1 125H8.1L8.1 139ZM16.32 132.76H7.9V131.02H16.32V132.76ZM21.7705 134.34V132.68H27.1505V134.34H21.7705ZM31.6552 139L31.6552 125.8L32.5152 126.74H28.4952V125H33.6352V139H31.6552ZM42.5575 139.16C41.4242 139.16 40.4442 138.993 39.6175 138.66C38.7908 138.327 38.1508 137.853 37.6975 137.24C37.2442 136.613 37.0175 135.88 37.0175 135.04C37.0175 134.213 37.2308 133.513 37.6575 132.94C38.0975 132.353 38.7308 131.913 39.5575 131.62C40.3842 131.313 41.3842 131.16 42.5575 131.16C43.7308 131.16 44.7308 131.313 45.5575 131.62C46.3975 131.913 47.0375 132.353 47.4775 132.94C47.9175 133.527 48.1375 134.227 48.1375 135.04C48.1375 135.88 47.9108 136.613 47.4575 137.24C47.0042 137.853 46.3575 138.327 45.5175 138.66C44.6775 138.993 43.6908 139.16 42.5575 139.16ZM42.5575 137.54C43.6775 137.54 44.5508 137.313 45.1775 136.86C45.8175 136.393 46.1375 135.767 46.1375 134.98C46.1375 134.207 45.8175 133.6 45.1775 133.16C44.5508 132.707 43.6775 132.48 42.5575 132.48C41.4508 132.48 40.5842 132.707 39.9575 133.16C39.3308 133.6 39.0175 134.207 39.0175 134.98C39.0175 135.767 39.3308 136.393 39.9575 136.86C40.5842 137.313 41.4508 137.54 42.5575 137.54ZM42.5575 132.24C41.4908 132.24 40.5842 132.1 39.8375 131.82C39.0908 131.527 38.5175 131.113 38.1175 130.58C37.7175 130.033 37.5175 129.387 37.5175 128.64C37.5175 127.853 37.7242 127.18 38.1375 126.62C38.5642 126.047 39.1575 125.607 39.9175 125.3C40.6775 124.993 41.5575 124.84 42.5575 124.84C43.5708 124.84 44.4575 124.993 45.2175 125.3C45.9775 125.607 46.5708 126.047 46.9975 126.62C47.4242 127.18 47.6375 127.853 47.6375 128.64C47.6375 129.387 47.4375 130.033 47.0375 130.58C46.6375 131.113 46.0575 131.527 45.2975 131.82C44.5375 132.1 43.6242 132.24 42.5575 132.24ZM42.5575 130.96C43.5308 130.96 44.2908 130.76 44.8375 130.36C45.3975 129.96 45.6775 129.413 45.6775 128.72C45.6775 128.013 45.3908 127.46 44.8175 127.06C44.2442 126.66 43.4908 126.46 42.5575 126.46C41.6242 126.46 40.8775 126.66 40.3175 127.06C39.7708 127.46 39.4975 128.013 39.4975 128.72C39.4975 129.413 39.7642 129.96 40.2975 130.36C40.8442 130.76 41.5975 130.96 42.5575 130.96Z" fill="black"/>
<path d="M98.445 130V100.19L85.575 123.125H82.55L69.625 100.19V130H64.675V90.95H69.9L84.035 116.305L98.225 90.95H103.395V130H98.445Z" fill="#6E9C9F"/>
</svg>
