<svg width="324" height="182" viewBox="0 0 324 182" fill="none" xmlns="http://www.w3.org/2000/svg">
<path d="M76.2617 5.91C78.2167 4.60667 83.2606 2 87.7962 2C92.3318 2 194.213 2.26067 244.587 2.391C247.129 2.5865 253.033 3.5249 256.317 5.7145" stroke="black"/>
<path d="M99.3301 80.7865L111.647 91.93C115.361 95.84 125.058 104.247 134.129 106.593C145.468 109.525 153.484 112.458 195.125 107.57C200.013 106.136 211.704 101.392 219.367 93.885C227.031 86.3778 232.466 81.6337 234.225 80.2M99.3301 80.7865C85.4106 68.7437 73.4589 65.6027 69.223 65.5375C60.1517 63.8171 50.846 57.3917 47.3271 54.394M99.3301 80.7865C103.245 71.9791 104.498 63.4143 103.964 55.3715M234.225 80.2C245.486 69.8633 256.512 65.9877 260.618 65.342C276.101 62.214 283.231 56.4794 284.86 54.003M234.225 80.2C231.313 74.3752 228.695 64.9336 229.207 54.003M284.86 54.003C268.907 17.249 259.184 6.75717 256.317 6.1055C236.506 21.212 229.911 39.0086 229.207 54.003M284.86 54.003C289.552 60.3894 296.355 78.8706 286.033 101.705C284.273 112.197 276.336 133.689 258.663 135.722C240.99 137.755 130.349 137.482 77.2386 137.091C70.2006 136.439 54.9125 130.952 50.0641 114.217C44.0036 93.2985 35.5971 73.7485 47.3271 54.394M47.3271 54.394C59.0571 35.0395 66.0953 12.166 76.2611 5.91C86.571 13.9556 102.451 32.565 103.964 55.3715M103.964 55.3715C126.77 50.5492 183.747 43.5242 229.207 54.003" stroke="black"/>
<path d="M47.3275 54.7848L52.8015 58.6948L59.8395 62.4093L64.9225 64.5598L70.201 65.7328C70.201 65.7328 71.9516 65.8581 76.2615 67.2968C78.7254 68.1193 82.322 69.4473 86.0365 71.4023C89.751 73.3573 90.5825 74.5895 92.488 75.8988C98.2823 79.8799 100.504 82.3503 100.504 82.3503L111.256 91.7343L116.73 96.8173L122.791 101.509L129.047 105.028L135.498 106.983C148.278 110.958 160.035 111.081 186.328 108.938C188.479 108.547 195.969 109.091 205.683 103.66C215.396 98.2284 229.444 85.5138 228.752 85.4783L240.482 75.1168C245.462 71.9803 250.452 68.8608 254.362 67.2968C258.272 65.7328 265.701 64.3643 267.265 63.9733C268.122 63.7591 272.607 62.3977 276.845 60.2588C280.343 58.4927 283.418 56.3297 284.86 54.1983C289.748 63.1913 292.289 70.2293 290.725 85.4783C290.013 88.2646 289.552 90.9523 288.77 93.4938C288.184 96.4263 286.663 99.0743 285.838 101.705C284.86 106.397 283.703 110.099 282.319 113.435C276.843 126.635 270.245 132.124 260.227 134.94L251.43 135.526L242.632 135.917L228.752 136.308L215.067 136.504L168.733 136.699L76.6525 136.398L72.156 135.421L67.073 133.466L63.3585 131.315L59.8395 128.774L56.3205 125.059L53.5835 121.149L51.2375 116.262L49.6735 111.179L47.132 102.772L45.177 96.1254L43.0265 87.3279L42.049 80.2899L41.8535 74.2294L42.44 68.1689L43.4175 64.0634L44.395 60.9354L45.7635 57.6119L47.3275 54.7848Z" fill="#F1EADC"/>
<path d="M76 5.99957C88.121 15.5791 101.091 33.0786 103.241 53.6061C103.528 58.7866 103.447 61.726 102.85 66.9001L102.264 70.0281L101.286 73.5471L99.5 79.9996L86.8193 71.2011L86.2328 71.0056L84.4733 70.0281L82.5183 69.0506L80.3678 68.0731L75.8713 66.3136L70.9838 65.1406L70.3973 64.9451H69.4198H68.8333L68.0513 64.7496L63.1094 63.1031L55 58.9996L51 56.4996L48 53.9996C51.7145 47.7436 54.5618 40.6346 57.1033 35.4246C68.8333 11.3781 71.4045 9.24388 76 5.99957Z" fill="#F1EADC"/>
<path d="M76.6523 5.88893C79.9001 4.05526 82.9083 2.78177 86.2318 2.39213C87.6003 2.19527 96.68 2.2061 109.692 2.19679C147.417 2.62845 217.608 2.5649 244.782 2.564C251.011 3.08685 254.815 4.87682 256.179 5.8706C238.331 20.9633 229.924 34.6483 228.947 53.8073C200.795 45.9873 145.859 46.1828 104.218 55.1758C101.872 34.8438 91.3149 17.4443 76.6523 5.88893Z" fill="#F1EADC"/>
<path d="M232.467 38.3628C237.94 23.5048 243.745 16.8265 256.318 6.30077C264.19 12.0588 270.454 22.757 284.665 54.0028C279.972 59.8678 269.22 63.1913 256.122 66.3193C247.324 69.4473 241.46 73.7483 234.422 79.8088C228.947 69.6428 227.578 50.8748 232.467 38.3628Z" fill="#F1EADC"/>
<path d="M104.217 55.3742C143.158 48.8006 170.557 47.0487 201.185 49.8975C205.502 50.299 209.93 50.8604 213.893 51.4615C218.5 52.1602 223.076 53.1237 228.946 54.0024C228.946 67.1322 230.706 72.8152 234.029 80.2619C227.187 85.6734 221.713 90.9519 216.239 96.2304C212.915 98.9674 206.789 102.529 202.749 104.246C199.426 106.005 198.644 106.592 194.343 107.374C183.004 108.938 169.541 110.207 158.371 109.853C150.764 109.759 143.029 108.793 134.911 106.521C131.067 105.446 129.241 104.759 125.527 102.683C121.615 100.496 118.151 97.5999 115.165 94.8629C113.033 92.9079 111.087 91.099 109.105 89.1934C107.786 87.9248 106.395 86.7199 104.999 85.4789C103.222 83.898 101.551 82.1016 99.5254 80.6539C103.637 70.4626 104.608 64.9765 104.217 55.3742Z" fill="#6E9C9F"/>
<path d="M102.654 71.598L107.654 74.4848V68.7113L102.654 71.598ZM229.338 71.598L224.338 68.7113V74.4848L229.338 71.598ZM107.154 72.098L224.838 72.098V71.098L107.154 71.098V72.098Z" fill="black"/>
<path d="M157.393 48.529L154.474 53.5105L160.247 53.5473L157.393 48.529ZM157.002 109.916L159.92 104.935L154.147 104.898L157.002 109.916ZM156.864 53.0257L156.53 105.413L157.53 105.419L157.864 53.0321L156.864 53.0257Z" fill="black"/>
<path d="M177.24 65.16C176.253 65.16 175.293 65.0067 174.36 64.7C173.44 64.3933 172.687 63.98 172.1 63.46L173.02 61.88C173.487 62.32 174.093 62.68 174.84 62.96C175.587 63.24 176.387 63.38 177.24 63.38C178.28 63.38 179.087 63.16 179.66 62.72C180.247 62.2667 180.54 61.66 180.54 60.9C180.54 60.1667 180.26 59.58 179.7 59.14C179.153 58.6867 178.28 58.46 177.08 58.46H175.96V57.06L180.12 51.94L180.4 52.74H172.74V51H181.98V52.36L177.84 57.46L176.8 56.84H177.46C179.153 56.84 180.42 57.22 181.26 57.98C182.113 58.74 182.54 59.7067 182.54 60.88C182.54 61.6667 182.347 62.3867 181.96 63.04C181.573 63.6933 180.987 64.2133 180.2 64.6C179.427 64.9733 178.44 65.16 177.24 65.16ZM190.685 65.16C189.445 65.16 188.385 64.8867 187.505 64.34C186.625 63.7933 185.952 63.0067 185.485 61.98C185.032 60.94 184.805 59.6733 184.805 58.18C184.805 56.5933 185.085 55.2533 185.645 54.16C186.205 53.0667 186.985 52.24 187.985 51.68C188.985 51.12 190.132 50.84 191.425 50.84C192.092 50.84 192.725 50.9067 193.325 51.04C193.939 51.1733 194.465 51.38 194.905 51.66L194.145 53.22C193.785 52.9667 193.372 52.7933 192.905 52.7C192.452 52.6067 191.972 52.56 191.465 52.56C190.039 52.56 188.905 53.0067 188.065 53.9C187.225 54.78 186.805 56.0933 186.805 57.84C186.805 58.12 186.819 58.4533 186.845 58.84C186.872 59.2267 186.939 59.6067 187.045 59.98L186.365 59.3C186.565 58.6867 186.879 58.1733 187.305 57.76C187.745 57.3333 188.265 57.02 188.865 56.82C189.479 56.6067 190.139 56.5 190.845 56.5C191.779 56.5 192.605 56.6733 193.325 57.02C194.045 57.3667 194.612 57.86 195.025 58.5C195.439 59.1267 195.645 59.8733 195.645 60.74C195.645 61.6333 195.425 62.4133 194.985 63.08C194.545 63.7467 193.952 64.26 193.205 64.62C192.459 64.98 191.619 65.16 190.685 65.16ZM190.605 63.54C191.219 63.54 191.752 63.4267 192.205 63.2C192.672 62.9733 193.039 62.66 193.305 62.26C193.572 61.8467 193.705 61.3667 193.705 60.82C193.705 59.9933 193.419 59.34 192.845 58.86C192.272 58.3667 191.492 58.12 190.505 58.12C189.865 58.12 189.305 58.24 188.825 58.48C188.345 58.72 187.965 59.0467 187.685 59.46C187.419 59.86 187.285 60.32 187.285 60.84C187.285 61.32 187.412 61.7667 187.665 62.18C187.919 62.58 188.292 62.9067 188.785 63.16C189.279 63.4133 189.885 63.54 190.605 63.54ZM208.84 65.12C207.76 65.12 206.793 64.8867 205.94 64.42C205.1 63.9533 204.44 63.3133 203.96 62.5C203.48 61.6867 203.24 60.7533 203.24 59.7C203.24 58.6467 203.48 57.7133 203.96 56.9C204.44 56.0867 205.1 55.4533 205.94 55C206.793 54.5333 207.76 54.3 208.84 54.3C209.8 54.3 210.653 54.4933 211.4 54.88C212.16 55.2533 212.747 55.8133 213.16 56.56L211.7 57.5C211.353 56.98 210.927 56.6 210.42 56.36C209.927 56.1067 209.393 55.98 208.82 55.98C208.127 55.98 207.507 56.1333 206.96 56.44C206.413 56.7467 205.98 57.18 205.66 57.74C205.34 58.2867 205.18 58.94 205.18 59.7C205.18 60.46 205.34 61.12 205.66 61.68C205.98 62.24 206.413 62.6733 206.96 62.98C207.507 63.2867 208.127 63.44 208.82 63.44C209.393 63.44 209.927 63.32 210.42 63.08C210.927 62.8267 211.353 62.44 211.7 61.92L213.16 62.84C212.747 63.5733 212.16 64.14 211.4 64.54C210.653 64.9267 209.8 65.12 208.84 65.12ZM216.046 65V54.4H218.026L222.586 62.24H221.786L226.466 54.4H228.266V65H226.526V56.56L226.846 56.74L222.566 63.8H221.726L217.426 56.6L217.806 56.52V65H216.046Z" fill="black"/>
<path d="M150.84 175.16C149.6 175.16 148.54 174.887 147.66 174.34C146.78 173.793 146.107 173.007 145.64 171.98C145.187 170.94 144.96 169.673 144.96 168.18C144.96 166.593 145.24 165.253 145.8 164.16C146.36 163.067 147.14 162.24 148.14 161.68C149.14 161.12 150.287 160.84 151.58 160.84C152.247 160.84 152.88 160.907 153.48 161.04C154.093 161.173 154.62 161.38 155.06 161.66L154.3 163.22C153.94 162.967 153.527 162.793 153.06 162.7C152.607 162.607 152.127 162.56 151.62 162.56C150.193 162.56 149.06 163.007 148.22 163.9C147.38 164.78 146.96 166.093 146.96 167.84C146.96 168.12 146.973 168.453 147 168.84C147.027 169.227 147.093 169.607 147.2 169.98L146.52 169.3C146.72 168.687 147.033 168.173 147.46 167.76C147.9 167.333 148.42 167.02 149.02 166.82C149.633 166.607 150.293 166.5 151 166.5C151.933 166.5 152.76 166.673 153.48 167.02C154.2 167.367 154.767 167.86 155.18 168.5C155.593 169.127 155.8 169.873 155.8 170.74C155.8 171.633 155.58 172.413 155.14 173.08C154.7 173.747 154.107 174.26 153.36 174.62C152.613 174.98 151.773 175.16 150.84 175.16ZM150.76 173.54C151.373 173.54 151.907 173.427 152.36 173.2C152.827 172.973 153.193 172.66 153.46 172.26C153.727 171.847 153.86 171.367 153.86 170.82C153.86 169.993 153.573 169.34 153 168.86C152.427 168.367 151.647 168.12 150.66 168.12C150.02 168.12 149.46 168.24 148.98 168.48C148.5 168.72 148.12 169.047 147.84 169.46C147.573 169.86 147.44 170.32 147.44 170.84C147.44 171.32 147.567 171.767 147.82 172.18C148.073 172.58 148.447 172.907 148.94 173.16C149.433 173.413 150.04 173.54 150.76 173.54ZM162.224 175.16C161.237 175.16 160.277 175.007 159.344 174.7C158.424 174.393 157.67 173.98 157.084 173.46L158.004 171.88C158.47 172.32 159.077 172.68 159.824 172.96C160.57 173.24 161.364 173.38 162.204 173.38C163.27 173.38 164.09 173.153 164.664 172.7C165.237 172.247 165.524 171.64 165.524 170.88C165.524 170.36 165.397 169.907 165.144 169.52C164.89 169.133 164.45 168.84 163.824 168.64C163.21 168.427 162.364 168.32 161.284 168.32H158.104L158.844 161H166.744V162.74H159.584L160.624 161.76L160.044 167.54L159.004 166.58H161.704C163.104 166.58 164.23 166.76 165.084 167.12C165.937 167.48 166.557 167.98 166.944 168.62C167.33 169.247 167.524 169.973 167.524 170.8C167.524 171.6 167.33 172.333 166.944 173C166.557 173.653 165.97 174.18 165.184 174.58C164.41 174.967 163.424 175.16 162.224 175.16ZM180.879 175.12C179.799 175.12 178.833 174.887 177.979 174.42C177.139 173.953 176.479 173.313 175.999 172.5C175.519 171.687 175.279 170.753 175.279 169.7C175.279 168.647 175.519 167.713 175.999 166.9C176.479 166.087 177.139 165.453 177.979 165C178.833 164.533 179.799 164.3 180.879 164.3C181.839 164.3 182.693 164.493 183.439 164.88C184.199 165.253 184.786 165.813 185.199 166.56L183.739 167.5C183.393 166.98 182.966 166.6 182.459 166.36C181.966 166.107 181.433 165.98 180.859 165.98C180.166 165.98 179.546 166.133 178.999 166.44C178.453 166.747 178.019 167.18 177.699 167.74C177.379 168.287 177.219 168.94 177.219 169.7C177.219 170.46 177.379 171.12 177.699 171.68C178.019 172.24 178.453 172.673 178.999 172.98C179.546 173.287 180.166 173.44 180.859 173.44C181.433 173.44 181.966 173.32 182.459 173.08C182.966 172.827 183.393 172.44 183.739 171.92L185.199 172.84C184.786 173.573 184.199 174.14 183.439 174.54C182.693 174.927 181.839 175.12 180.879 175.12ZM188.085 175V164.4H190.065L194.625 172.24H193.825L198.505 164.4H200.305V175H198.565V166.56L198.885 166.74L194.605 173.8H193.765L189.465 166.6L189.845 166.52V175H188.085Z" fill="black"/>
<path d="M306.44 42.76H307.84L317 49.92V52.08L307.84 44.98L308.16 43.96V55.14H306.44V42.76ZM303 50.54H306.44L308.16 50.6H311.2V52.48H303V50.54ZM302.84 61.2394C302.84 60.2527 302.993 59.2927 303.3 58.3594C303.607 57.4394 304.02 56.686 304.54 56.0994L306.12 57.0194C305.68 57.486 305.32 58.0927 305.04 58.8394C304.76 59.586 304.62 60.3794 304.62 61.2194C304.62 62.286 304.847 63.106 305.3 63.6794C305.753 64.2527 306.36 64.5394 307.12 64.5394C307.64 64.5394 308.093 64.4127 308.48 64.1594C308.867 63.906 309.16 63.466 309.36 62.8394C309.573 62.226 309.68 61.3794 309.68 60.2994V57.1194L317 57.8594V65.7594H315.26V58.5994L316.24 59.6394L310.46 59.0594L311.42 58.0194V60.7194C311.42 62.1194 311.24 63.246 310.88 64.0994C310.52 64.9527 310.02 65.5727 309.38 65.9594C308.753 66.346 308.027 66.5394 307.2 66.5394C306.4 66.5394 305.667 66.346 305 65.9594C304.347 65.5727 303.82 64.986 303.42 64.1994C303.033 63.426 302.84 62.4394 302.84 61.2394ZM302.88 79.8948C302.88 78.8148 303.113 77.8482 303.58 76.9948C304.047 76.1548 304.687 75.4948 305.5 75.0148C306.313 74.5348 307.247 74.2948 308.3 74.2948C309.353 74.2948 310.287 74.5348 311.1 75.0148C311.913 75.4948 312.547 76.1548 313 76.9948C313.467 77.8482 313.7 78.8148 313.7 79.8948C313.7 80.8548 313.507 81.7082 313.12 82.4548C312.747 83.2148 312.187 83.8015 311.44 84.2148L310.5 82.7548C311.02 82.4082 311.4 81.9815 311.64 81.4748C311.893 80.9815 312.02 80.4482 312.02 79.8748C312.02 79.1815 311.867 78.5615 311.56 78.0148C311.253 77.4682 310.82 77.0348 310.26 76.7148C309.713 76.3948 309.06 76.2348 308.3 76.2348C307.54 76.2348 306.88 76.3948 306.32 76.7148C305.76 77.0348 305.327 77.4682 305.02 78.0148C304.713 78.5615 304.56 79.1815 304.56 79.8748C304.56 80.4482 304.68 80.9815 304.92 81.4748C305.173 81.9815 305.56 82.4082 306.08 82.7548L305.16 84.2148C304.427 83.8015 303.86 83.2148 303.46 82.4548C303.073 81.7082 302.88 80.8548 302.88 79.8948ZM303 87.1006H313.6V89.0806L305.76 93.6406V92.8406L313.6 97.5206V99.3206H303V97.5806H311.44L311.26 97.9006L304.2 93.6206V92.7806L311.4 88.4806L311.48 88.8606H303V87.1006Z" fill="black"/>
<path d="M164 74.74H165.36L170.86 80.44C171.34 80.9467 171.76 81.32 172.12 81.56C172.493 81.8133 172.833 81.98 173.14 82.06C173.46 82.1533 173.767 82.2 174.06 82.2C174.78 82.2 175.347 81.9467 175.76 81.44C176.173 80.9333 176.38 80.1933 176.38 79.22C176.38 78.4733 176.253 77.8 176 77.2C175.76 76.6 175.38 76.08 174.86 75.64L176.04 74.28C176.72 74.8133 177.24 75.5267 177.6 76.42C177.973 77.3267 178.16 78.32 178.16 79.4C178.16 80.3733 178 81.22 177.68 81.94C177.373 82.66 176.927 83.2133 176.34 83.6C175.753 84 175.06 84.2 174.26 84.2C173.807 84.2 173.36 84.14 172.92 84.02C172.48 83.9 172.013 83.6733 171.52 83.34C171.027 83.0067 170.473 82.5267 169.86 81.9L164.96 76.82L165.74 76.34V84.8H164V74.74ZM163.84 91.3644C163.84 90.3777 163.993 89.4177 164.3 88.4844C164.607 87.5644 165.02 86.811 165.54 86.2244L167.12 87.1444C166.68 87.611 166.32 88.2177 166.04 88.9644C165.76 89.711 165.62 90.5044 165.62 91.3444C165.62 92.411 165.847 93.231 166.3 93.8044C166.753 94.3777 167.36 94.6644 168.12 94.6644C168.64 94.6644 169.093 94.5377 169.48 94.2844C169.867 94.031 170.16 93.591 170.36 92.9644C170.573 92.351 170.68 91.5044 170.68 90.4244V87.2444L178 87.9844V95.8844H176.26V88.7244L177.24 89.7644L171.46 89.1844L172.42 88.1444V90.8444C172.42 92.2444 172.24 93.371 171.88 94.2244C171.52 95.0777 171.02 95.6977 170.38 96.0844C169.753 96.471 169.027 96.6644 168.2 96.6644C167.4 96.6644 166.667 96.471 166 96.0844C165.347 95.6977 164.82 95.111 164.42 94.3244C164.033 93.551 163.84 92.5644 163.84 91.3644ZM163.88 110.02C163.88 108.94 164.113 107.973 164.58 107.12C165.047 106.28 165.687 105.62 166.5 105.14C167.313 104.66 168.247 104.42 169.3 104.42C170.353 104.42 171.287 104.66 172.1 105.14C172.913 105.62 173.547 106.28 174 107.12C174.467 107.973 174.7 108.94 174.7 110.02C174.7 110.98 174.507 111.833 174.12 112.58C173.747 113.34 173.187 113.927 172.44 114.34L171.5 112.88C172.02 112.533 172.4 112.107 172.64 111.6C172.893 111.107 173.02 110.573 173.02 110C173.02 109.307 172.867 108.687 172.56 108.14C172.253 107.593 171.82 107.16 171.26 106.84C170.713 106.52 170.06 106.36 169.3 106.36C168.54 106.36 167.88 106.52 167.32 106.84C166.76 107.16 166.327 107.593 166.02 108.14C165.713 108.687 165.56 109.307 165.56 110C165.56 110.573 165.68 111.107 165.92 111.6C166.173 112.107 166.56 112.533 167.08 112.88L166.16 114.34C165.427 113.927 164.86 113.34 164.46 112.58C164.073 111.833 163.88 110.98 163.88 110.02ZM164 117.226H174.6V119.206L166.76 123.766V122.966L174.6 127.646V129.446H164V127.706H172.44L172.26 128.026L165.2 123.746V122.906L172.4 118.606L172.48 118.986H164V117.226Z" fill="black"/>
<path d="M41 153.5L46 156.387L46 150.613L41 153.5ZM291 153.5L286 150.613L286 156.387L291 153.5ZM45.5 154L286.5 154L286.5 153L45.5 153L45.5 154Z" fill="black"/>
<path d="M296 0L293.113 5L298.887 5L296 0ZM296 135L298.887 130L293.113 130L296 135ZM295.5 4.5L295.5 130.5L296.5 130.5L296.5 4.5L295.5 4.5Z" fill="black"/>
<path d="M3 110L0.227601 115.064L5.99961 114.933L3 110ZM4 154L6.7724 148.936L1.00039 149.067L4 154ZM2.60238 114.51L3.39788 149.513L4.39762 149.49L3.60212 114.487L2.60238 114.51Z" fill="black"/>
<path d="M16.14 125H18.14V139H16.14V125ZM8.1 139H6.1L6.1 125H8.1L8.1 139ZM16.32 132.76H7.9V131.02H16.32V132.76ZM21.7705 134.34V132.68H27.1505V134.34H21.7705ZM31.6552 139L31.6552 125.8L32.5152 126.74H28.4952V125H33.6352V139H31.6552ZM42.5575 139.16C41.4242 139.16 40.4442 138.993 39.6175 138.66C38.7908 138.327 38.1508 137.853 37.6975 137.24C37.2442 136.613 37.0175 135.88 37.0175 135.04C37.0175 134.213 37.2308 133.513 37.6575 132.94C38.0975 132.353 38.7308 131.913 39.5575 131.62C40.3842 131.313 41.3842 131.16 42.5575 131.16C43.7308 131.16 44.7308 131.313 45.5575 131.62C46.3975 131.913 47.0375 132.353 47.4775 132.94C47.9175 133.527 48.1375 134.227 48.1375 135.04C48.1375 135.88 47.9108 136.613 47.4575 137.24C47.0042 137.853 46.3575 138.327 45.5175 138.66C44.6775 138.993 43.6908 139.16 42.5575 139.16ZM42.5575 137.54C43.6775 137.54 44.5508 137.313 45.1775 136.86C45.8175 136.393 46.1375 135.767 46.1375 134.98C46.1375 134.207 45.8175 133.6 45.1775 133.16C44.5508 132.707 43.6775 132.48 42.5575 132.48C41.4508 132.48 40.5842 132.707 39.9575 133.16C39.3308 133.6 39.0175 134.207 39.0175 134.98C39.0175 135.767 39.3308 136.393 39.9575 136.86C40.5842 137.313 41.4508 137.54 42.5575 137.54ZM42.5575 132.24C41.4908 132.24 40.5842 132.1 39.8375 131.82C39.0908 131.527 38.5175 131.113 38.1175 130.58C37.7175 130.033 37.5175 129.387 37.5175 128.64C37.5175 127.853 37.7242 127.18 38.1375 126.62C38.5642 126.047 39.1575 125.607 39.9175 125.3C40.6775 124.993 41.5575 124.84 42.5575 124.84C43.5708 124.84 44.4575 124.993 45.2175 125.3C45.9775 125.607 46.5708 126.047 46.9975 126.62C47.4242 127.18 47.6375 127.853 47.6375 128.64C47.6375 129.387 47.4375 130.033 47.0375 130.58C46.6375 131.113 46.0575 131.527 45.2975 131.82C44.5375 132.1 43.6242 132.24 42.5575 132.24ZM42.5575 130.96C43.5308 130.96 44.2908 130.76 44.8375 130.36C45.3975 129.96 45.6775 129.413 45.6775 128.72C45.6775 128.013 45.3908 127.46 44.8175 127.06C44.2442 126.66 43.4908 126.46 42.5575 126.46C41.6242 126.46 40.8775 126.66 40.3175 127.06C39.7708 127.46 39.4975 128.013 39.4975 128.72C39.4975 129.413 39.7642 129.96 40.2975 130.36C40.8442 130.76 41.5975 130.96 42.5575 130.96Z" fill="black"/>
<path d="M84 126.64C81.2267 126.64 78.624 126.192 76.192 125.296C73.76 124.357 71.6693 122.971 69.92 121.136L72.096 117.168C74.016 118.96 75.936 120.24 77.856 121.008C79.776 121.776 81.7387 122.16 83.744 122.16C86.048 122.16 87.9253 121.733 89.376 120.88C90.8267 119.984 91.552 118.683 91.552 116.976C91.552 115.739 91.168 114.821 90.4 114.224C89.6747 113.627 88.6293 113.136 87.264 112.752C85.8987 112.325 84.2773 111.856 82.4 111.344C80.096 110.661 78.1547 109.936 76.576 109.168C74.9973 108.4 73.8027 107.44 72.992 106.288C72.1813 105.136 71.776 103.685 71.776 101.936C71.776 99.8027 72.3307 98.0107 73.44 96.56C74.5493 95.0667 76.064 93.936 77.984 93.168C79.9467 92.4 82.1653 92.016 84.64 92.016C87.1147 92.016 89.3547 92.4 91.36 93.168C93.3653 93.936 95.0933 95.0667 96.544 96.56L93.984 100.464C92.6613 99.0987 91.2107 98.096 89.632 97.456C88.0533 96.7733 86.2827 96.432 84.32 96.432C83.168 96.432 82.0373 96.5813 80.928 96.88C79.8187 97.136 78.9013 97.6267 78.176 98.352C77.4507 99.0347 77.088 100.016 77.088 101.296C77.088 102.363 77.3653 103.216 77.92 103.856C78.5173 104.453 79.3707 104.965 80.48 105.392C81.632 105.819 83.0187 106.288 84.64 106.8C87.1573 107.525 89.3333 108.251 91.168 108.976C93.0453 109.701 94.496 110.64 95.52 111.792C96.544 112.944 97.056 114.544 97.056 116.592C97.056 119.749 95.8613 122.224 93.472 124.016C91.0827 125.765 87.9253 126.64 84 126.64Z" fill="#6E9C9F"/>
</svg>
