<svg width="322" height="182" viewBox="0 0 322 182" fill="none" xmlns="http://www.w3.org/2000/svg">
<path d="M74.2617 5.91C76.2167 4.60667 81.2606 2 85.7962 2C90.3318 2 192.213 2.26067 242.587 2.391C245.129 2.5865 251.033 3.5249 254.317 5.7145" stroke="black"/>
<path d="M97.3301 80.7865L109.647 91.93C113.361 95.84 123.058 104.247 132.129 106.593C143.468 109.525 151.484 112.458 193.125 107.57C198.013 106.136 209.704 101.392 217.367 93.885C225.031 86.3778 230.466 81.6337 232.225 80.2M97.3301 80.7865C83.4106 68.7437 71.4589 65.6027 67.223 65.5375C58.1517 63.8171 48.846 57.3917 45.3271 54.394M97.3301 80.7865C101.245 71.9791 102.498 63.4143 101.964 55.3715M232.225 80.2C243.486 69.8633 254.512 65.9877 258.618 65.342C274.101 62.214 281.231 56.4794 282.86 54.003M232.225 80.2C229.313 74.3752 226.695 64.9336 227.207 54.003M282.86 54.003C266.907 17.249 257.184 6.75717 254.317 6.1055C234.506 21.212 227.911 39.0086 227.207 54.003M282.86 54.003C287.552 60.3894 294.355 78.8706 284.033 101.705C282.273 112.197 274.336 133.689 256.663 135.722C238.99 137.755 128.349 137.482 75.2386 137.091C68.2006 136.439 52.9125 130.952 48.0641 114.217C42.0036 93.2985 33.5971 73.7485 45.3271 54.394M45.3271 54.394C57.0571 35.0395 64.0953 12.166 74.2611 5.91C84.571 13.9556 100.451 32.565 101.964 55.3715M101.964 55.3715C124.77 50.5492 181.747 43.5242 227.207 54.003" stroke="black"/>
<path d="M45.3275 54.7848L50.8015 58.6948L57.8395 62.4093L62.9225 64.5598L68.201 65.7328C68.201 65.7328 69.9516 65.8581 74.2615 67.2968C76.7254 68.1193 80.322 69.4473 84.0365 71.4023C87.751 73.3573 88.5825 74.5895 90.488 75.8988C96.2823 79.8799 98.5035 82.3503 98.5035 82.3503L109.256 91.7343L114.73 96.8173L120.791 101.509L127.047 105.028L133.498 106.983C146.278 110.958 158.035 111.081 184.328 108.938C186.479 108.547 193.969 109.091 203.683 103.66C213.396 98.2284 227.444 85.5138 226.752 85.4783L238.482 75.1168C243.462 71.9803 248.452 68.8608 252.362 67.2968C256.272 65.7328 263.701 64.3643 265.265 63.9733C266.122 63.7591 270.607 62.3977 274.845 60.2588C278.343 58.4927 281.418 56.3297 282.86 54.1983C287.748 63.1913 290.289 70.2293 288.725 85.4783C288.013 88.2646 287.552 90.9523 286.77 93.4938C286.184 96.4263 284.663 99.0743 283.838 101.705C282.86 106.397 281.703 110.099 280.319 113.435C274.843 126.635 268.245 132.124 258.227 134.94L249.43 135.526L240.632 135.917L226.752 136.308L213.067 136.504L166.733 136.699L74.6525 136.398L70.156 135.421L65.073 133.466L61.3585 131.315L57.8395 128.774L54.3205 125.059L51.5835 121.149L49.2375 116.262L47.6735 111.179L45.132 102.772L43.177 96.1254L41.0265 87.3279L40.049 80.2899L39.8535 74.2294L40.44 68.1689L41.4175 64.0634L42.395 60.9354L43.7635 57.6119L45.3275 54.7848Z" fill="#F1EADC"/>
<path d="M74 5.99957C86.121 15.5791 99.0908 33.0786 101.241 53.6061C101.528 58.7866 101.447 61.726 100.85 66.9001L100.264 70.0281L99.2863 73.5471L97.5 79.9996L84.8193 71.2011L84.2328 71.0056L82.4733 70.0281L80.5183 69.0506L78.3678 68.0731L73.8713 66.3136L68.9838 65.1406L68.3973 64.9451H67.4198H66.8333L66.0513 64.7496L61.1094 63.1031L53 58.9996L49 56.4996L46 53.9996C49.7145 47.7436 52.5618 40.6346 55.1033 35.4246C66.8333 11.3781 69.4045 9.24388 74 5.99957Z" fill="#F1EADC"/>
<path d="M74.6523 5.88893C77.9001 4.05526 80.9083 2.78177 84.2318 2.39213C85.6003 2.19527 94.68 2.2061 107.692 2.19679C145.417 2.62845 215.608 2.5649 242.782 2.564C249.011 3.08685 252.815 4.87682 254.179 5.8706C236.331 20.9633 227.924 34.6483 226.947 53.8073C198.795 45.9873 143.859 46.1828 102.218 55.1758C99.8719 34.8438 89.3149 17.4443 74.6523 5.88893Z" fill="#F1EADC"/>
<path d="M230.467 38.3628C235.94 23.5048 241.745 16.8265 254.318 6.30077C262.19 12.0588 268.454 22.757 282.665 54.0028C277.972 59.8678 267.22 63.1913 254.122 66.3193C245.324 69.4473 239.46 73.7483 232.422 79.8088C226.947 69.6428 225.578 50.8748 230.467 38.3628Z" fill="#F1EADC"/>
<path d="M102.217 55.3742C141.158 48.8006 168.557 47.0487 199.185 49.8975C203.502 50.299 207.93 50.8604 211.893 51.4615C216.5 52.1602 221.076 53.1237 226.946 54.0024C226.946 67.1322 228.706 72.8152 232.029 80.2619C225.187 85.6734 219.713 90.9519 214.239 96.2304C210.915 98.9674 204.789 102.529 200.749 104.246C197.426 106.005 196.644 106.592 192.343 107.374C181.004 108.938 167.541 110.207 156.371 109.853C148.764 109.759 141.029 108.793 132.911 106.521C129.067 105.446 127.241 104.759 123.527 102.683C119.615 100.496 116.151 97.5999 113.165 94.8629C111.033 92.9079 109.087 91.099 107.105 89.1934C105.786 87.9248 104.395 86.7199 102.999 85.4789C101.222 83.898 99.5505 82.1016 97.5254 80.6539C101.637 70.4626 102.608 64.9765 102.217 55.3742Z" fill="#6E9C9F"/>
<path d="M100.654 71.598L105.654 74.4848V68.7113L100.654 71.598ZM227.338 71.598L222.338 68.7113V74.4848L227.338 71.598ZM105.154 72.098L222.838 72.098V71.098L105.154 71.098V72.098Z" fill="black"/>
<path d="M155.393 48.529L152.474 53.5105L158.247 53.5473L155.393 48.529ZM155.002 109.916L157.92 104.935L152.147 104.898L155.002 109.916ZM154.864 53.0257L154.53 105.413L155.53 105.419L155.864 53.0321L154.864 53.0257Z" fill="black"/>
<path d="M176.84 65.16C175.6 65.16 174.54 64.8867 173.66 64.34C172.78 63.7933 172.107 63.0067 171.64 61.98C171.187 60.94 170.96 59.6733 170.96 58.18C170.96 56.5933 171.24 55.2533 171.8 54.16C172.36 53.0667 173.14 52.24 174.14 51.68C175.14 51.12 176.287 50.84 177.58 50.84C178.247 50.84 178.88 50.9067 179.48 51.04C180.093 51.1733 180.62 51.38 181.06 51.66L180.3 53.22C179.94 52.9667 179.527 52.7933 179.06 52.7C178.607 52.6067 178.127 52.56 177.62 52.56C176.193 52.56 175.06 53.0067 174.22 53.9C173.38 54.78 172.96 56.0933 172.96 57.84C172.96 58.12 172.973 58.4533 173 58.84C173.027 59.2267 173.093 59.6067 173.2 59.98L172.52 59.3C172.72 58.6867 173.033 58.1733 173.46 57.76C173.9 57.3333 174.42 57.02 175.02 56.82C175.633 56.6067 176.293 56.5 177 56.5C177.933 56.5 178.76 56.6733 179.48 57.02C180.2 57.3667 180.767 57.86 181.18 58.5C181.593 59.1267 181.8 59.8733 181.8 60.74C181.8 61.6333 181.58 62.4133 181.14 63.08C180.7 63.7467 180.107 64.26 179.36 64.62C178.613 64.98 177.773 65.16 176.84 65.16ZM176.76 63.54C177.373 63.54 177.907 63.4267 178.36 63.2C178.827 62.9733 179.193 62.66 179.46 62.26C179.727 61.8467 179.86 61.3667 179.86 60.82C179.86 59.9933 179.573 59.34 179 58.86C178.427 58.3667 177.647 58.12 176.66 58.12C176.02 58.12 175.46 58.24 174.98 58.48C174.5 58.72 174.12 59.0467 173.84 59.46C173.573 59.86 173.44 60.32 173.44 60.84C173.44 61.32 173.567 61.7667 173.82 62.18C174.073 62.58 174.447 62.9067 174.94 63.16C175.433 63.4133 176.04 63.54 176.76 63.54ZM189.584 65.16C188.344 65.16 187.284 64.8867 186.404 64.34C185.524 63.7933 184.85 63.0067 184.384 61.98C183.93 60.94 183.704 59.6733 183.704 58.18C183.704 56.5933 183.984 55.2533 184.544 54.16C185.104 53.0667 185.884 52.24 186.884 51.68C187.884 51.12 189.03 50.84 190.324 50.84C190.99 50.84 191.624 50.9067 192.224 51.04C192.837 51.1733 193.364 51.38 193.804 51.66L193.044 53.22C192.684 52.9667 192.27 52.7933 191.804 52.7C191.35 52.6067 190.87 52.56 190.364 52.56C188.937 52.56 187.804 53.0067 186.964 53.9C186.124 54.78 185.704 56.0933 185.704 57.84C185.704 58.12 185.717 58.4533 185.744 58.84C185.77 59.2267 185.837 59.6067 185.944 59.98L185.264 59.3C185.464 58.6867 185.777 58.1733 186.204 57.76C186.644 57.3333 187.164 57.02 187.764 56.82C188.377 56.6067 189.037 56.5 189.744 56.5C190.677 56.5 191.504 56.6733 192.224 57.02C192.944 57.3667 193.51 57.86 193.924 58.5C194.337 59.1267 194.544 59.8733 194.544 60.74C194.544 61.6333 194.324 62.4133 193.884 63.08C193.444 63.7467 192.85 64.26 192.104 64.62C191.357 64.98 190.517 65.16 189.584 65.16ZM189.504 63.54C190.117 63.54 190.65 63.4267 191.104 63.2C191.57 62.9733 191.937 62.66 192.204 62.26C192.47 61.8467 192.604 61.3667 192.604 60.82C192.604 59.9933 192.317 59.34 191.744 58.86C191.17 58.3667 190.39 58.12 189.404 58.12C188.764 58.12 188.204 58.24 187.724 58.48C187.244 58.72 186.864 59.0467 186.584 59.46C186.317 59.86 186.184 60.32 186.184 60.84C186.184 61.32 186.31 61.7667 186.564 62.18C186.817 62.58 187.19 62.9067 187.684 63.16C188.177 63.4133 188.784 63.54 189.504 63.54ZM207.739 65.12C206.659 65.12 205.692 64.8867 204.839 64.42C203.999 63.9533 203.339 63.3133 202.859 62.5C202.379 61.6867 202.139 60.7533 202.139 59.7C202.139 58.6467 202.379 57.7133 202.859 56.9C203.339 56.0867 203.999 55.4533 204.839 55C205.692 54.5333 206.659 54.3 207.739 54.3C208.699 54.3 209.552 54.4933 210.299 54.88C211.059 55.2533 211.645 55.8133 212.059 56.56L210.599 57.5C210.252 56.98 209.825 56.6 209.319 56.36C208.825 56.1067 208.292 55.98 207.719 55.98C207.025 55.98 206.405 56.1333 205.859 56.44C205.312 56.7467 204.879 57.18 204.559 57.74C204.239 58.2867 204.079 58.94 204.079 59.7C204.079 60.46 204.239 61.12 204.559 61.68C204.879 62.24 205.312 62.6733 205.859 62.98C206.405 63.2867 207.025 63.44 207.719 63.44C208.292 63.44 208.825 63.32 209.319 63.08C209.825 62.8267 210.252 62.44 210.599 61.92L212.059 62.84C211.645 63.5733 211.059 64.14 210.299 64.54C209.552 64.9267 208.699 65.12 207.739 65.12ZM214.944 65V54.4H216.924L221.484 62.24H220.684L225.364 54.4H227.164V65H225.424V56.56L225.744 56.74L221.464 63.8H220.624L216.324 56.6L216.704 56.52V65H214.944Z" fill="black"/>
<path d="M147.5 160.84C148.767 160.84 149.833 161.113 150.7 161.66C151.58 162.207 152.247 163 152.7 164.04C153.153 165.067 153.38 166.327 153.38 167.82C153.38 169.407 153.1 170.747 152.54 171.84C151.98 172.933 151.207 173.76 150.22 174.32C149.233 174.88 148.08 175.16 146.76 175.16C146.107 175.16 145.473 175.093 144.86 174.96C144.26 174.827 143.733 174.62 143.28 174.34L144.04 172.78C144.413 173.02 144.827 173.193 145.28 173.3C145.747 173.393 146.233 173.44 146.74 173.44C148.153 173.44 149.28 173 150.12 172.12C150.96 171.227 151.38 169.907 151.38 168.16C151.38 167.88 151.367 167.547 151.34 167.16C151.313 166.773 151.253 166.393 151.16 166.02L151.82 166.7C151.633 167.313 151.32 167.833 150.88 168.26C150.453 168.673 149.933 168.987 149.32 169.2C148.72 169.4 148.06 169.5 147.34 169.5C146.42 169.5 145.6 169.327 144.88 168.98C144.16 168.633 143.593 168.147 143.18 167.52C142.767 166.88 142.56 166.127 142.56 165.26C142.56 164.353 142.773 163.573 143.2 162.92C143.64 162.253 144.233 161.74 144.98 161.38C145.74 161.02 146.58 160.84 147.5 160.84ZM147.58 162.46C146.98 162.46 146.447 162.573 145.98 162.8C145.513 163.027 145.147 163.34 144.88 163.74C144.627 164.14 144.5 164.62 144.5 165.18C144.5 166.007 144.787 166.667 145.36 167.16C145.933 167.64 146.707 167.88 147.68 167.88C148.32 167.88 148.88 167.76 149.36 167.52C149.853 167.28 150.233 166.953 150.5 166.54C150.78 166.127 150.92 165.667 150.92 165.16C150.92 164.667 150.793 164.22 150.54 163.82C150.287 163.42 149.913 163.093 149.42 162.84C148.927 162.587 148.313 162.46 147.58 162.46ZM161.424 175.16C160.33 175.16 159.35 174.88 158.484 174.32C157.63 173.76 156.95 172.947 156.444 171.88C155.95 170.813 155.704 169.52 155.704 168C155.704 166.48 155.95 165.187 156.444 164.12C156.95 163.053 157.63 162.24 158.484 161.68C159.35 161.12 160.33 160.84 161.424 160.84C162.504 160.84 163.477 161.12 164.344 161.68C165.21 162.24 165.89 163.053 166.384 164.12C166.877 165.187 167.124 166.48 167.124 168C167.124 169.52 166.877 170.813 166.384 171.88C165.89 172.947 165.21 173.76 164.344 174.32C163.477 174.88 162.504 175.16 161.424 175.16ZM161.424 173.38C162.157 173.38 162.797 173.18 163.344 172.78C163.904 172.38 164.337 171.78 164.644 170.98C164.964 170.18 165.124 169.187 165.124 168C165.124 166.813 164.964 165.82 164.644 165.02C164.337 164.22 163.904 163.62 163.344 163.22C162.797 162.82 162.157 162.62 161.424 162.62C160.69 162.62 160.044 162.82 159.484 163.22C158.924 163.62 158.484 164.22 158.164 165.02C157.857 165.82 157.704 166.813 157.704 168C157.704 169.187 157.857 170.18 158.164 170.98C158.484 171.78 158.924 172.38 159.484 172.78C160.044 173.18 160.69 173.38 161.424 173.38ZM180.735 175.12C179.655 175.12 178.688 174.887 177.835 174.42C176.995 173.953 176.335 173.313 175.855 172.5C175.375 171.687 175.135 170.753 175.135 169.7C175.135 168.647 175.375 167.713 175.855 166.9C176.335 166.087 176.995 165.453 177.835 165C178.688 164.533 179.655 164.3 180.735 164.3C181.695 164.3 182.548 164.493 183.295 164.88C184.055 165.253 184.641 165.813 185.055 166.56L183.595 167.5C183.248 166.98 182.821 166.6 182.315 166.36C181.821 166.107 181.288 165.98 180.715 165.98C180.021 165.98 179.401 166.133 178.855 166.44C178.308 166.747 177.875 167.18 177.555 167.74C177.235 168.287 177.075 168.94 177.075 169.7C177.075 170.46 177.235 171.12 177.555 171.68C177.875 172.24 178.308 172.673 178.855 172.98C179.401 173.287 180.021 173.44 180.715 173.44C181.288 173.44 181.821 173.32 182.315 173.08C182.821 172.827 183.248 172.44 183.595 171.92L185.055 172.84C184.641 173.573 184.055 174.14 183.295 174.54C182.548 174.927 181.695 175.12 180.735 175.12ZM187.94 175V164.4H189.92L194.48 172.24H193.68L198.36 164.4H200.16V175H198.42V166.56L198.74 166.74L194.46 173.8H193.62L189.32 166.6L189.7 166.52V175H187.94Z" fill="black"/>
<path d="M301 45.38L314.16 51.32L313.26 51.84V43.52L314.24 44.52H310.76V42.6H315V53.16H313.64L301 47.5V45.38ZM300.84 60.6425C300.84 59.5492 301.12 58.5692 301.68 57.7025C302.24 56.8492 303.053 56.1692 304.12 55.6625C305.187 55.1692 306.48 54.9225 308 54.9225C309.52 54.9225 310.813 55.1692 311.88 55.6625C312.947 56.1692 313.76 56.8492 314.32 57.7025C314.88 58.5692 315.16 59.5492 315.16 60.6425C315.16 61.7225 314.88 62.6958 314.32 63.5625C313.76 64.4292 312.947 65.1092 311.88 65.6025C310.813 66.0958 309.52 66.3425 308 66.3425C306.48 66.3425 305.187 66.0958 304.12 65.6025C303.053 65.1092 302.24 64.4292 301.68 63.5625C301.12 62.6958 300.84 61.7225 300.84 60.6425ZM302.62 60.6425C302.62 61.3758 302.82 62.0158 303.22 62.5625C303.62 63.1225 304.22 63.5558 305.02 63.8625C305.82 64.1825 306.813 64.3425 308 64.3425C309.187 64.3425 310.18 64.1825 310.98 63.8625C311.78 63.5558 312.38 63.1225 312.78 62.5625C313.18 62.0158 313.38 61.3758 313.38 60.6425C313.38 59.9092 313.18 59.2625 312.78 58.7025C312.38 58.1425 311.78 57.7025 310.98 57.3825C310.18 57.0758 309.187 56.9225 308 56.9225C306.813 56.9225 305.82 57.0758 305.02 57.3825C304.22 57.7025 303.62 58.1425 303.22 58.7025C302.82 59.2625 302.62 59.9092 302.62 60.6425ZM300.88 79.9534C300.88 78.8734 301.113 77.9068 301.58 77.0534C302.047 76.2134 302.687 75.5534 303.5 75.0734C304.313 74.5934 305.247 74.3534 306.3 74.3534C307.353 74.3534 308.287 74.5934 309.1 75.0734C309.913 75.5534 310.547 76.2134 311 77.0534C311.467 77.9068 311.7 78.8734 311.7 79.9534C311.7 80.9134 311.507 81.7668 311.12 82.5134C310.747 83.2734 310.187 83.8601 309.44 84.2734L308.5 82.8134C309.02 82.4668 309.4 82.0401 309.64 81.5334C309.893 81.0401 310.02 80.5068 310.02 79.9334C310.02 79.2401 309.867 78.6201 309.56 78.0734C309.253 77.5268 308.82 77.0934 308.26 76.7734C307.713 76.4534 307.06 76.2934 306.3 76.2934C305.54 76.2934 304.88 76.4534 304.32 76.7734C303.76 77.0934 303.327 77.5268 303.02 78.0734C302.713 78.6201 302.56 79.2401 302.56 79.9334C302.56 80.5068 302.68 81.0401 302.92 81.5334C303.173 82.0401 303.56 82.4668 304.08 82.8134L303.16 84.2734C302.427 83.8601 301.86 83.2734 301.46 82.5134C301.073 81.7668 300.88 80.9134 300.88 79.9534ZM301 87.1592H311.6V89.1392L303.76 93.6992V92.8992L311.6 97.5792V99.3792H301V97.6392H309.44L309.26 97.9592L302.2 93.6792V92.8392L309.4 88.5392L309.48 88.9192H301V87.1592Z" fill="black"/>
<path d="M161.84 79.48C161.84 78.4933 161.993 77.5333 162.3 76.6C162.607 75.68 163.02 74.9267 163.54 74.34L165.12 75.26C164.68 75.7267 164.32 76.3333 164.04 77.08C163.76 77.8267 163.62 78.62 163.62 79.46C163.62 80.5267 163.847 81.3467 164.3 81.92C164.753 82.4933 165.36 82.78 166.12 82.78C166.64 82.78 167.093 82.6533 167.48 82.4C167.867 82.1467 168.16 81.7067 168.36 81.08C168.573 80.4667 168.68 79.62 168.68 78.54V75.36L176 76.1V84H174.26V76.84L175.24 77.88L169.46 77.3L170.42 76.26V78.96C170.42 80.36 170.24 81.4867 169.88 82.34C169.52 83.1933 169.02 83.8133 168.38 84.2C167.753 84.5867 167.027 84.78 166.2 84.78C165.4 84.78 164.667 84.5867 164 84.2C163.347 83.8133 162.82 83.2267 162.42 82.44C162.033 81.6667 161.84 80.68 161.84 79.48ZM162 86.5267H163.36L168.86 92.2267C169.34 92.7334 169.76 93.1067 170.12 93.3467C170.493 93.6001 170.833 93.7667 171.14 93.8467C171.46 93.9401 171.767 93.9867 172.06 93.9867C172.78 93.9867 173.347 93.7334 173.76 93.2267C174.173 92.7201 174.38 91.9801 174.38 91.0067C174.38 90.2601 174.253 89.5867 174 88.9867C173.76 88.3867 173.38 87.8667 172.86 87.4267L174.04 86.0667C174.72 86.6001 175.24 87.3134 175.6 88.2067C175.973 89.1134 176.16 90.1067 176.16 91.1867C176.16 92.1601 176 93.0067 175.68 93.7267C175.373 94.4467 174.927 95.0001 174.34 95.3867C173.753 95.7867 173.06 95.9867 172.26 95.9867C171.807 95.9867 171.36 95.9267 170.92 95.8067C170.48 95.6867 170.013 95.4601 169.52 95.1267C169.027 94.7934 168.473 94.3134 167.86 93.6867L162.96 88.6067L163.74 88.1267V96.5867H162V86.5267ZM161.88 109.922C161.88 108.842 162.113 107.876 162.58 107.022C163.047 106.182 163.687 105.522 164.5 105.042C165.313 104.562 166.247 104.322 167.3 104.322C168.353 104.322 169.287 104.562 170.1 105.042C170.913 105.522 171.547 106.182 172 107.022C172.467 107.876 172.7 108.842 172.7 109.922C172.7 110.882 172.507 111.736 172.12 112.482C171.747 113.242 171.187 113.829 170.44 114.242L169.5 112.782C170.02 112.436 170.4 112.009 170.64 111.502C170.893 111.009 171.02 110.476 171.02 109.902C171.02 109.209 170.867 108.589 170.56 108.042C170.253 107.496 169.82 107.062 169.26 106.742C168.713 106.422 168.06 106.262 167.3 106.262C166.54 106.262 165.88 106.422 165.32 106.742C164.76 107.062 164.327 107.496 164.02 108.042C163.713 108.589 163.56 109.209 163.56 109.902C163.56 110.476 163.68 111.009 163.92 111.502C164.173 112.009 164.56 112.436 165.08 112.782L164.16 114.242C163.427 113.829 162.86 113.242 162.46 112.482C162.073 111.736 161.88 110.882 161.88 109.922ZM162 117.128H172.6V119.108L164.76 123.668V122.868L172.6 127.548V129.348H162V127.608H170.44L170.26 127.928L163.2 123.648V122.808L170.4 118.508L170.48 118.888H162V117.128Z" fill="black"/>
<path d="M39 153.5L44 156.387L44 150.613L39 153.5ZM289 153.5L284 150.613L284 156.387L289 153.5ZM43.5 154L284.5 154L284.5 153L43.5 153L43.5 154Z" fill="black"/>
<path d="M294 0L291.113 5L296.887 5L294 0ZM294 135L296.887 130L291.113 130L294 135ZM293.5 4.5L293.5 130.5L294.5 130.5L294.5 4.5L293.5 4.5Z" fill="black"/>
<path d="M3 110L0.227601 115.064L5.99961 114.933L3 110ZM4 154L6.7724 148.936L1.00039 149.067L4 154ZM2.60238 114.51L3.39788 149.513L4.39762 149.49L3.60212 114.487L2.60238 114.51Z" fill="black"/>
<path d="M16.14 125H18.14V139H16.14V125ZM8.1 139H6.1L6.1 125H8.1L8.1 139ZM16.32 132.76H7.9V131.02H16.32V132.76ZM21.7705 134.34V132.68H27.1505V134.34H21.7705ZM31.6552 139L31.6552 125.8L32.5152 126.74H28.4952V125H33.6352V139H31.6552ZM41.6375 124.84C42.9042 124.84 43.9708 125.113 44.8375 125.66C45.7175 126.207 46.3842 127 46.8375 128.04C47.2908 129.067 47.5175 130.327 47.5175 131.82C47.5175 133.407 47.2375 134.747 46.6775 135.84C46.1175 136.933 45.3442 137.76 44.3575 138.32C43.3708 138.88 42.2175 139.16 40.8975 139.16C40.2442 139.16 39.6108 139.093 38.9975 138.96C38.3975 138.827 37.8708 138.62 37.4175 138.34L38.1775 136.78C38.5508 137.02 38.9642 137.193 39.4175 137.3C39.8842 137.393 40.3708 137.44 40.8775 137.44C42.2908 137.44 43.4175 137 44.2575 136.12C45.0975 135.227 45.5175 133.907 45.5175 132.16C45.5175 131.88 45.5042 131.547 45.4775 131.16C45.4508 130.773 45.3908 130.393 45.2975 130.02L45.9575 130.7C45.7708 131.313 45.4575 131.833 45.0175 132.26C44.5908 132.673 44.0708 132.987 43.4575 133.2C42.8575 133.4 42.1975 133.5 41.4775 133.5C40.5575 133.5 39.7375 133.327 39.0175 132.98C38.2975 132.633 37.7308 132.147 37.3175 131.52C36.9042 130.88 36.6975 130.127 36.6975 129.26C36.6975 128.353 36.9108 127.573 37.3375 126.92C37.7775 126.253 38.3708 125.74 39.1175 125.38C39.8775 125.02 40.7175 124.84 41.6375 124.84ZM41.7175 126.46C41.1175 126.46 40.5842 126.573 40.1175 126.8C39.6508 127.027 39.2842 127.34 39.0175 127.74C38.7642 128.14 38.6375 128.62 38.6375 129.18C38.6375 130.007 38.9242 130.667 39.4975 131.16C40.0708 131.64 40.8442 131.88 41.8175 131.88C42.4575 131.88 43.0175 131.76 43.4975 131.52C43.9908 131.28 44.3708 130.953 44.6375 130.54C44.9175 130.127 45.0575 129.667 45.0575 129.16C45.0575 128.667 44.9308 128.22 44.6775 127.82C44.4242 127.42 44.0508 127.093 43.5575 126.84C43.0642 126.587 42.4508 126.46 41.7175 126.46Z" fill="black"/>
<path d="M64.775 89.95L76.545 106.12L88.315 89.95H93.87L79.295 109.75L93.43 129H87.875L76.545 113.38L65.215 129H59.605L73.74 109.75L59.165 89.95H64.775ZM99.7945 129V89.95H104.745V124.6H126.525V129H99.7945Z" fill="#6E9C9F"/>
</svg>
