<svg width="217" height="334" viewBox="0 0 217 334" fill="none" xmlns="http://www.w3.org/2000/svg">
<path d="M99.16 60.28C99.7333 60.3733 100.227 60.5867 100.64 60.92C101.053 61.24 101.373 61.6533 101.6 62.16C101.827 62.6533 101.94 63.2133 101.94 63.84C101.94 64.6533 101.74 65.3667 101.34 65.98C100.953 66.6067 100.4 67.0867 99.68 67.42C98.96 67.7667 98.12 67.94 97.16 67.94C96.1467 67.94 95.2533 67.7467 94.48 67.36C93.72 66.9867 93.1267 66.4533 92.7 65.76L93.88 64.58C94.1867 65.1133 94.6 65.54 95.12 65.86C95.6533 66.18 96.3333 66.34 97.16 66.34C98.08 66.34 98.8 66.1267 99.32 65.7C99.8533 65.2867 100.12 64.6667 100.12 63.84C100.12 63 99.8333 62.3333 99.26 61.84C98.7 61.3333 97.88 61.08 96.8 61.08H96.28V59.6H96.84C97.8 59.6 98.5333 59.3667 99.04 58.9C99.56 58.4333 99.82 57.8533 99.82 57.16C99.82 56.68 99.7067 56.2867 99.48 55.98C99.2533 55.6733 98.9467 55.4467 98.56 55.3C98.1733 55.14 97.7267 55.06 97.22 55.06C96.4867 55.06 95.84 55.22 95.28 55.54C94.7333 55.8467 94.3067 56.28 94 56.84L92.92 55.72C93.16 55.2667 93.5 54.8733 93.94 54.54C94.3933 54.2067 94.9133 53.9467 95.5 53.76C96.1 53.5733 96.7333 53.48 97.4 53.48C98.24 53.48 98.98 53.6267 99.62 53.92C100.273 54.2133 100.78 54.6267 101.14 55.16C101.5 55.6933 101.68 56.32 101.68 57.04C101.68 57.56 101.58 58.0533 101.38 58.52C101.18 58.9733 100.887 59.36 100.5 59.68C100.127 59.9867 99.68 60.1867 99.16 60.28ZM104.061 65C104.061 64.4667 104.101 63.9667 104.181 63.5C104.274 63.0333 104.434 62.5867 104.661 62.16C104.901 61.7333 105.234 61.3267 105.661 60.94C106.087 60.54 106.641 60.1533 107.321 59.78C107.721 59.5533 108.121 59.34 108.521 59.14C108.934 58.94 109.314 58.7267 109.661 58.5C110.021 58.2733 110.307 58.0267 110.521 57.76C110.734 57.48 110.841 57.16 110.841 56.8C110.841 56.4933 110.747 56.2 110.561 55.92C110.387 55.6267 110.121 55.3933 109.761 55.22C109.414 55.0333 108.981 54.94 108.461 54.94C108.061 54.94 107.694 54.9933 107.361 55.1C107.041 55.2067 106.747 55.3467 106.481 55.52C106.227 55.68 106.001 55.8533 105.801 56.04C105.614 56.2133 105.454 56.3733 105.321 56.52L104.221 55.28C104.327 55.16 104.507 55 104.761 54.8C105.014 54.5867 105.334 54.3733 105.721 54.16C106.107 53.9467 106.554 53.7667 107.061 53.62C107.581 53.46 108.147 53.38 108.761 53.38C109.587 53.38 110.294 53.5267 110.881 53.82C111.481 54.1 111.941 54.4867 112.261 54.98C112.581 55.46 112.741 56 112.741 56.6C112.741 57.12 112.627 57.5733 112.401 57.96C112.187 58.3467 111.907 58.6867 111.561 58.98C111.227 59.2733 110.874 59.5267 110.501 59.74C110.141 59.94 109.814 60.1133 109.521 60.26C108.921 60.5533 108.407 60.82 107.981 61.06C107.554 61.3 107.201 61.54 106.921 61.78C106.654 62.0067 106.434 62.2467 106.261 62.5C106.101 62.7533 105.981 63.0533 105.901 63.4H112.961V65H104.061Z" fill="black"/>
<path d="M92.24 23.98C91.2267 23.98 90.3133 23.74 89.5 23.26C88.6867 22.78 88.0733 22.14 87.66 21.34L88.76 20.38C89.1333 20.9933 89.6267 21.4867 90.24 21.86C90.8667 22.2333 91.54 22.42 92.26 22.42C92.8733 22.42 93.42 22.2867 93.9 22.02C94.38 21.7533 94.76 21.3867 95.04 20.92C95.32 20.44 95.46 19.8933 95.46 19.28C95.46 18.68 95.32 18.1533 95.04 17.7C94.7733 17.2467 94.4067 16.8933 93.94 16.64C93.4867 16.3867 92.9733 16.26 92.4 16.26C91.8267 16.26 91.2867 16.3867 90.78 16.64C90.2867 16.8933 89.88 17.2533 89.56 17.72H87.98L89.58 9.58H96.48V11.2H90.88L90.02 15.72C90.3133 15.4133 90.68 15.1733 91.12 15C91.5733 14.8133 92.0733 14.72 92.62 14.72C93.5 14.72 94.2867 14.9133 94.98 15.3C95.6867 15.6867 96.24 16.22 96.64 16.9C97.0533 17.58 97.26 18.3667 97.26 19.26C97.26 20.1933 97.0333 21.0133 96.58 21.72C96.14 22.44 95.54 22.9933 94.78 23.38C94.02 23.78 93.1733 23.98 92.24 23.98ZM103.597 23.98C102.584 23.98 101.67 23.74 100.857 23.26C100.044 22.78 99.4304 22.14 99.017 21.34L100.117 20.38C100.49 20.9933 100.984 21.4867 101.597 21.86C102.224 22.2333 102.897 22.42 103.617 22.42C104.23 22.42 104.777 22.2867 105.257 22.02C105.737 21.7533 106.117 21.3867 106.397 20.92C106.677 20.44 106.817 19.8933 106.817 19.28C106.817 18.68 106.677 18.1533 106.397 17.7C106.13 17.2467 105.764 16.8933 105.297 16.64C104.844 16.3867 104.33 16.26 103.757 16.26C103.184 16.26 102.644 16.3867 102.137 16.64C101.644 16.8933 101.237 17.2533 100.917 17.72H99.337L100.937 9.58H107.837V11.2H102.237L101.377 15.72C101.67 15.4133 102.037 15.1733 102.477 15C102.93 14.8133 103.43 14.72 103.977 14.72C104.857 14.72 105.644 14.9133 106.337 15.3C107.044 15.6867 107.597 16.22 107.997 16.9C108.41 17.58 108.617 18.3667 108.617 19.26C108.617 20.1933 108.39 21.0133 107.937 21.72C107.497 22.44 106.897 22.9933 106.137 23.38C105.377 23.78 104.53 23.98 103.597 23.98Z" fill="black"/>
<circle cx="100.5" cy="191.5" r="100.5" fill="#F1EADC"/>
<circle cx="101" cy="192" r="66" fill="#6E9C9F"/>
<line x1="0.5" y1="28.5" x2="0.499996" y2="177.5" stroke="black" stroke-linecap="round"/>
<line x1="201.5" y1="28.5" x2="201.5" y2="177.5" stroke="black" stroke-linecap="round"/>
<path d="M167.5 62L167.5 192" stroke="black" stroke-linecap="round"/>
<line x1="35.5" y1="62.5" x2="35.5" y2="191.5" stroke="black" stroke-linecap="round"/>
<path d="M165 78L160 75.1132V80.8868L165 78ZM42 78L47 80.8868V75.1132L42 78ZM160.5 77.5L46.5 77.5V78.5L160.5 78.5V77.5Z" fill="black"/>
<path d="M195.5 33L190.5 30.1132V35.8868L195.5 33ZM7 33L12 35.8868V30.1132L7 33ZM191 32.5L11.5 32.5V33.5L191 33.5V32.5Z" fill="black"/>
<path d="M111.96 206V184.32L102.6 201H100.4L91 184.32V206H87.4V177.6H91.2L101.48 196.04L111.8 177.6H115.56V206H111.96Z" fill="white"/>
<path d="M161 303L158.113 308L163.887 308L161 303ZM161 331.5L163.887 326.5L158.113 326.5L161 331.5ZM160.5 307.5L160.5 327L161.5 327L161.5 307.5L160.5 307.5Z" fill="black"/>
<path d="M176.14 311H178.14V325H176.14V311ZM168.1 325H166.1V311H168.1V325ZM176.32 318.76H167.9V317.02H176.32V318.76ZM181.77 320.34V318.68H187.15V320.34H181.77ZM191.655 325V311.8L192.515 312.74H188.495V311H193.635V325H191.655ZM199.518 325L205.458 311.84L205.978 312.74H197.658L198.658 311.76V315.24H196.738V311H207.298V312.36L201.638 325H199.518Z" fill="black"/>
<rect y="302" width="155" height="31" rx="15.5" fill="#F1EADC"/>
<path d="M123 302H164" stroke="black" stroke-linecap="round"/>
<path d="M123 333H164" stroke="black" stroke-linecap="round"/>
<path d="M88.98 326V315.16L84.3 323.5H83.2L78.5 315.16V326H76.7V311.8H78.6L83.74 321.02L88.9 311.8H90.78V326H88.98Z" fill="black"/>
</svg>
