<svg aria-hidden="true" xmlns="http://www.w3.org/2000/svg" xmlns:xlink="http://www.w3.org/1999/xlink"><symbol viewBox="0 0 21 21" id="facebook" xmlns="http://www.w3.org/2000/svg">
<g clip-path="url(#aclip0_4_303)">
<path d="M18.5391 0H2.46094C1.1039 0 0 1.1039 0 2.46094V18.5391C0 19.8961 1.1039 21 2.46094 21H18.5391C19.8961 21 21 19.8961 21 18.5391V2.46094C21 1.1039 19.8961 0 18.5391 0ZM19.3594 18.5391C19.3594 18.9914 18.9914 19.3594 18.5391 19.3594H13.6992V13.3711H16.3253L16.6314 10.8281H13.6992V8.08008C13.6992 7.37865 14.2283 6.84961 14.9297 6.84961H16.7754V4.4707C16.2896 4.40213 15.3525 4.30664 14.9297 4.30664C13.973 4.30664 13.0141 4.71023 12.2989 5.41374C11.5621 6.13857 11.1562 7.08801 11.1562 8.08729V10.8281H8.49023V13.3711H11.1562V19.3594H2.46094C2.00864 19.3594 1.64062 18.9914 1.64062 18.5391V2.46094C1.64062 2.00864 2.00864 1.64062 2.46094 1.64062H18.5391C18.9914 1.64062 19.3594 2.00864 19.3594 2.46094V18.5391Z"/>
</g>
<defs>
<clipPath id="aclip0_4_303">
<rect width="21" height="21"/>
</clipPath>
</defs>
</symbol><symbol viewBox="0 0 61 63" id="gear" xmlns="http://www.w3.org/2000/svg">
<path d="M56.6611 41.349L50.7656 37.1565C51.7557 33.5158 51.7501 29.676 50.7493 26.0382L56.6643 21.8977L51.9421 13.7272L45.3641 16.7367C42.7053 14.0588 39.3762 12.144 35.7246 11.1922L35.0973 3.99998H25.6528L25.0256 11.1922C21.3747 12.1453 18.0467 14.0612 15.3893 16.74L8.80806 13.7305L4.08906 21.901L10.0041 26.0415C9.00281 29.6779 8.99607 33.5165 9.98456 37.1565L4.08906 41.349L8.80806 49.4805L15.3893 46.4677C18.0471 49.1453 21.375 51.0601 25.0256 52.0122L25.6528 59.2045H35.0973L35.7246 52.0122C39.375 51.06 42.7029 49.1452 45.3608 46.4677L51.9421 49.4805L56.6643 41.3522L56.6611 41.349ZM36.8913 0.701234C37.3096 0.700791 37.712 0.861697 38.0147 1.15046C38.3174 1.43922 38.4971 1.83359 38.5163 2.25148L39.0948 8.86523C41.4973 9.78078 43.7386 11.0731 45.7346 12.6937L51.7471 9.88898C52.1184 9.69791 52.5491 9.65715 52.9497 9.77516C53.3503 9.89316 53.6901 10.1609 53.8986 10.5227L60.4148 21.8002C60.6242 22.1617 60.6863 22.59 60.5883 22.996C60.4902 23.4021 60.2396 23.7548 59.8883 23.981L54.4478 27.79C54.8638 30.3835 54.8508 32.9672 54.4511 35.4567L59.8883 39.2592C60.2404 39.4854 60.4917 39.8387 60.5898 40.2456C60.6878 40.6524 60.6252 41.0814 60.4148 41.4432L53.8986 52.6785C53.6901 53.0403 53.3503 53.3081 52.9497 53.4261C52.5491 53.5441 52.1184 53.5033 51.7471 53.3122L45.7346 50.5075C43.7781 52.1 41.5486 53.4 39.0948 54.3392L38.5163 60.953C38.4963 61.3703 38.3162 61.7639 38.0136 62.0519C37.711 62.34 37.3091 62.5005 36.8913 62.5H23.8588C23.441 62.5005 23.0391 62.34 22.7365 62.0519C22.4339 61.7639 22.2539 61.3703 22.2338 60.953L21.6553 54.3392C19.2527 53.4225 17.0114 52.1291 15.0156 50.5075L9.00306 53.3122C8.63177 53.5046 8.20062 53.5464 7.7993 53.4289C7.39797 53.3115 7.05737 53.0439 6.84831 52.6817L0.335312 41.44C0.12594 41.0785 0.0638272 40.6503 0.161867 40.2442C0.259907 39.8381 0.510568 39.4854 0.861812 39.2592L6.29906 35.4535C5.89189 32.9141 5.89189 30.3261 6.29906 27.7867L0.865062 23.981C0.514679 23.7549 0.264616 23.4028 0.166615 22.9975C0.0686146 22.5921 0.130176 22.1647 0.338562 21.8035L6.84506 10.5227C7.05358 10.16 7.39396 9.89173 7.79533 9.77368C8.1967 9.65563 8.62813 9.69693 8.99981 9.88898L15.0123 12.6937C17.0083 11.0731 19.2496 9.78078 21.6521 8.86523L22.2306 2.25148C22.2498 1.83359 22.4295 1.43922 22.7322 1.15046C23.0348 0.861697 23.4372 0.700791 23.8556 0.701234H36.8881H36.8913ZM30.3751 20.25C33.3919 20.25 36.2852 21.4484 38.4184 23.5816C40.5516 25.7149 41.7501 28.6081 41.7501 31.625C41.7501 34.6418 40.5516 37.5351 38.4184 39.6683C36.2852 41.8015 33.3919 43 30.3751 43C27.3582 43 24.465 41.8015 22.3317 39.6683C20.1985 37.5351 19.0001 34.6418 19.0001 31.625C19.0001 28.6081 20.1985 25.7149 22.3317 23.5816C24.465 21.4484 27.3582 20.25 30.3751 20.25ZM30.3751 23.5C28.2202 23.5 26.1536 24.356 24.6298 25.8797C23.1061 27.4035 22.2501 29.4701 22.2501 31.625C22.2501 33.7799 23.1061 35.8465 24.6298 37.3702C26.1536 38.894 28.2202 39.75 30.3751 39.75C32.5299 39.75 34.5966 38.894 36.1203 37.3702C37.644 35.8465 38.5001 33.7799 38.5001 31.625C38.5001 29.4701 37.644 27.4035 36.1203 25.8797C34.5966 24.356 32.5299 23.5 30.3751 23.5Z"/>
</symbol><symbol viewBox="0 0 57 57" id="hand" xmlns="http://www.w3.org/2000/svg">
<path d="M20.7774 40.7902C20.4414 40.7902 20.1054 40.6616 19.8481 40.407L2.21598 22.7722C0.168484 20.7247 0.168484 17.3936 2.21598 15.3461C4.26873 13.2986 7.59723 13.3039 9.63949 15.3461L25.4184 31.125C25.9302 31.6369 25.9302 32.469 25.4184 32.9809C24.9065 33.4927 24.0744 33.4927 23.5625 32.9809L7.78361 17.202C6.76511 16.1835 5.10086 16.1809 4.07186 17.202C3.57836 17.6981 3.30273 18.357 3.30273 19.0579C3.30273 19.7614 3.57573 20.4202 4.07186 20.9164L21.7066 38.5485C22.2185 39.0604 22.2185 39.8925 21.7066 40.4044C21.4494 40.6616 21.1134 40.7902 20.7774 40.7902Z"/>
<path d="M30.0594 27.7965C29.7234 27.7965 29.3874 27.6679 29.1301 27.4132L11.498 9.77849C10.4716 8.75211 8.80999 8.75211 7.78362 9.77849C7.29012 10.2746 7.01449 10.9335 7.01449 11.6344C7.01449 12.3352 7.28749 12.9941 7.78362 13.4902L9.63949 15.3461C10.1514 15.858 10.1514 16.6901 9.63949 17.202C9.12762 17.7139 8.29549 17.7139 7.78362 17.202L5.92775 15.3461C4.9355 14.3539 4.3895 13.0361 4.3895 11.6344C4.3895 10.2326 4.9355 8.91486 5.92775 7.92261C7.90962 5.94074 11.3667 5.93549 13.3539 7.92261L30.986 25.5574C31.4979 26.0692 31.4979 26.9014 30.986 27.4132C30.7287 27.6705 30.3954 27.7965 30.0594 27.7965Z"/>
<path d="M35.6297 22.2289C35.2937 22.2289 34.9577 22.1003 34.7004 21.8456L20.7774 7.92264C19.751 6.89627 18.092 6.89627 17.0656 7.92264C16.0419 8.94639 16.0419 10.6106 17.0656 11.6344C17.5775 12.1463 17.5775 12.9784 17.0656 13.4903C16.5538 14.0021 15.7216 14.0021 15.2098 13.4903C13.1649 11.4454 13.1649 8.11164 15.2098 6.06677C17.2546 4.02189 20.5884 4.02189 22.6333 6.06677L36.5563 19.9898C37.0682 20.5016 37.0682 21.3338 36.5563 21.8456C36.3017 22.1003 35.9657 22.2289 35.6297 22.2289Z"/>
<path d="M34.1964 56.4667C33.3117 56.4667 32.4166 56.367 31.5294 56.1648L9.42685 51.0986C8.47135 50.8991 7.58148 50.4108 6.85698 49.6863C5.86473 48.6941 5.3161 47.3737 5.3161 45.9746C5.3161 44.5728 5.86473 43.2551 6.85698 42.2628C7.53948 41.5803 8.36898 41.1105 9.2641 40.8926C9.29035 40.8821 9.3166 40.8768 9.34285 40.869L20.4729 38.1993C21.179 38.0235 21.8877 38.4671 22.0557 39.1706C22.2237 39.8767 21.788 40.5828 21.0845 40.7535L10.0306 43.4047C9.99648 43.4152 9.96235 43.4257 9.9256 43.4336C9.4846 43.5307 9.0646 43.7696 8.71285 44.1213C8.21673 44.6175 7.9411 45.2763 7.9411 45.9772C7.9411 46.6781 8.2141 47.337 8.71285 47.8331C9.06198 48.1822 9.4951 48.429 9.93085 48.5261C9.94923 48.5287 9.96498 48.5313 9.98073 48.5366L32.1174 53.6107C35.2227 54.3221 38.4174 53.4033 40.667 51.1511L51.4085 40.407C53.1436 38.6718 54.0991 36.3645 54.0991 33.9101C54.0991 31.4557 53.1436 29.151 51.4085 27.4132L28.2061 4.21084C27.1797 3.18446 25.5207 3.18446 24.4944 4.21084C23.4706 5.23459 23.4706 6.89884 24.4944 7.92259C25.0062 8.43446 25.0062 9.26659 24.4944 9.77846C23.9825 10.2903 23.1504 10.2903 22.6385 9.77846C20.5936 7.73359 20.5936 4.39984 22.6385 2.35496C24.6834 0.310085 28.0171 0.310085 30.062 2.35496L53.2644 25.5573C55.4982 27.7886 56.7241 30.7522 56.7241 33.9101C56.7241 37.068 55.4956 40.0316 53.2644 42.2628L42.5229 53.007C40.2706 55.2513 37.2886 56.4667 34.1964 56.4667Z"/>
</symbol><symbol viewBox="0 0 22 23" id="instagram" xmlns="http://www.w3.org/2000/svg">
<g clip-path="url(#dclip0_4_278)">
<path d="M15.6094 0.5H6.39066C2.86683 0.5 0 3.36683 0 6.89066V16.1093C0 19.6332 2.86683 22.5 6.39066 22.5H15.6093C19.1332 22.5 22 19.6332 22 16.1094V6.89066C22 3.36683 19.1332 0.5 15.6094 0.5ZM20.2812 16.1093C20.2812 18.6854 18.1854 20.7812 15.6094 20.7812H6.39066C3.81455 20.7812 1.71875 18.6854 1.71875 16.1094V6.89066C1.71875 4.31455 3.81455 2.21875 6.39066 2.21875H15.6093C18.1854 2.21875 20.2812 4.31455 20.2812 6.89066V16.1093Z"/>
<path d="M11 5.57031C7.73034 5.57031 5.07031 8.23034 5.07031 11.5C5.07031 14.7697 7.73034 17.4297 11 17.4297C14.2697 17.4297 16.9297 14.7697 16.9297 11.5C16.9297 8.23034 14.2697 5.57031 11 5.57031ZM11 15.7109C8.6781 15.7109 6.78906 13.8219 6.78906 11.5C6.78906 9.1781 8.6781 7.28906 11 7.28906C13.3219 7.28906 15.2109 9.1781 15.2109 11.5C15.2109 13.8219 13.3219 15.7109 11 15.7109Z"/>
<path d="M17.0156 6.34375C17.4902 6.34375 17.875 5.95899 17.875 5.48438C17.875 5.00976 17.4902 4.625 17.0156 4.625C16.541 4.625 16.1562 5.00976 16.1562 5.48438C16.1562 5.95899 16.541 6.34375 17.0156 6.34375Z"/>
</g>
<defs>
<clipPath id="dclip0_4_278">
<rect width="22" height="22" transform="translate(0 0.5)"/>
</clipPath>
</defs>
</symbol><symbol viewBox="0 0 61 61" id="quality" xmlns="http://www.w3.org/2000/svg">
<g clip-path="url(#eclip0_10_189)">
<path d="M37.3994 24.8338L28.2341 33.4905L23.8355 28.9653C23.3479 28.4632 22.5449 28.4518 22.0433 28.9394C21.5413 29.4276 21.5299 30.23 22.0175 30.7321L27.2931 36.1477C27.7833 36.6408 28.5753 36.6577 29.0858 36.1855L39.1667 26.677C39.4115 26.4461 39.5546 26.1273 39.564 25.7912C39.5734 25.455 39.4488 25.1287 39.2174 24.8844C38.7268 24.3744 37.9178 24.3521 37.3994 24.8338Z"/>
<path d="M30.5983 11.5111C20.1236 11.5111 11.6064 20.0284 11.6064 30.5031C11.6064 40.9784 20.1236 49.4956 30.5983 49.4956C41.0736 49.4956 49.5908 40.9784 49.5908 30.5031C49.5908 20.0284 41.0736 11.5111 30.5983 11.5111ZM30.5983 46.9531C21.522 46.9531 14.1488 39.5671 14.1488 30.5031C14.1488 21.4391 21.522 14.0536 30.5983 14.0536C39.6837 14.0536 47.0484 21.4183 47.0484 30.5031C47.0484 39.5879 39.6837 46.9531 30.5983 46.9531Z"/>
<path d="M56.7351 23.5113L57.1547 15.9728C57.184 15.4668 56.9089 14.9916 56.4555 14.7651L49.7433 11.371L46.3492 4.65885C46.1183 4.20945 45.646 3.93584 45.1415 3.95967L37.5901 4.36686L31.2975 0.209541C30.8734 -0.0700302 30.3237 -0.0700302 29.8992 0.209541L23.6066 4.36686L16.0686 3.94726C15.5621 3.91746 15.0873 4.19257 14.8609 4.64643L11.4663 11.3586L4.75461 14.7527C4.30471 14.9831 4.03159 15.4554 4.05543 15.9604L4.47454 23.4989L0.317711 29.7915C0.0381393 30.2156 0.0381393 30.7653 0.317711 31.1898L4.46212 37.4948L4.04252 45.0333C4.01322 45.5393 4.28783 46.0146 4.7417 46.241L11.4539 49.6351L14.848 56.3473C15.0784 56.7972 15.5506 57.0703 16.0557 57.0465L23.5942 56.6269L29.8868 60.7837C30.3083 61.0722 30.8635 61.0722 31.2851 60.7837L37.5777 56.6269L45.1162 57.0465C45.6222 57.0758 46.0969 56.8007 46.3239 56.3473L49.718 49.6351L56.4302 46.241C56.8796 46.0101 57.1532 45.5384 57.1293 45.0333L56.7097 37.4948L60.8666 31.2022C61.1461 30.7782 61.1461 30.228 60.8666 29.8039L56.7351 23.5113ZM54.3704 36.4525C54.2154 36.68 54.1434 36.9536 54.1673 37.2282L54.5611 44.3595L48.2178 47.5629C47.976 47.6841 47.7798 47.8807 47.6587 48.1225L44.4548 54.4658L37.3235 54.072C37.0503 54.0621 36.7807 54.1326 36.5478 54.2751L30.5983 58.2035L24.6494 54.2751C24.4428 54.1355 24.1995 54.0601 23.9502 54.0591H23.8866L16.7548 54.4534L13.5514 48.1096C13.4303 47.8678 13.2341 47.6716 12.9918 47.5505L6.63563 44.3595L7.02991 37.2282C7.03984 36.9551 6.96883 36.6854 6.82632 36.4525L2.89841 30.5031L6.82632 24.5536C6.98174 24.3267 7.05375 24.0526 7.02991 23.7785L6.63563 16.6467L12.9794 13.4433C13.2212 13.3221 13.4174 13.1259 13.5385 12.8841L16.7419 6.54037L23.8737 6.93465C24.1463 6.94408 24.416 6.87357 24.6494 6.73105L30.5983 2.80315L36.5478 6.73105C36.7752 6.88648 37.0493 6.95849 37.3235 6.93465L44.4548 6.54037L47.6587 12.8841C47.7798 13.1259 47.976 13.3221 48.2178 13.4433L54.5611 16.6467L54.1673 23.7785C54.1573 24.0511 54.2284 24.3207 54.3704 24.5536L58.2988 30.5031L54.3704 36.4525Z"/>
</g>
<defs>
<clipPath id="eclip0_10_189">
<rect width="61" height="61"/>
</clipPath>
</defs>
</symbol><symbol viewBox="0 0 23 23" id="twitter" xmlns="http://www.w3.org/2000/svg">
<path d="M20.2712 5.16525L20.2598 5.12109C21.2343 4.53688 22.0211 3.5738 22.3711 2.4707C21.4584 3.01367 20.3904 3.42561 19.3164 3.63867C18.4552 2.7211 17.3061 2.15625 15.9473 2.15625C13.3429 2.15625 11.1855 4.26475 11.1855 6.87305C11.1855 7.24419 11.238 7.60752 11.3203 7.95117V7.99609C7.43875 7.77436 3.92429 5.80031 1.61719 2.96484C1.21231 3.66248 0.988281 4.65939 0.988281 5.52539C0.988281 6.87305 1.78852 8.67805 3.05469 9.52344V9.61328C2.29865 9.58278 1.52429 9.06195 0.898438 8.71484C0.898438 8.73546 0.92584 8.76026 0.92584 8.78088C0.92584 11.0696 2.6034 13.0436 4.76172 13.4766C4.38559 13.5761 3.85582 13.6562 3.45898 13.6562C3.15361 13.6562 2.84877 13.5765 2.56055 13.5215C3.16102 15.3978 4.89648 16.6211 6.96289 16.6211V16.666C5.35446 17.913 3.31577 18.7773 1.12305 18.7773C0.742154 18.7773 0.269531 18.7324 0 18.6875C2.08622 20.0277 4.56631 20.8438 7.23242 20.8438C15.9102 20.8438 20.6641 13.7012 20.6641 7.45703V6.82812C21.5871 6.16144 22.3686 5.26098 23 4.3125C23 4.3125 21.3439 5.09724 20.2712 5.16525ZM18.8672 7.45703C18.8672 8.80523 18.6031 10.221 18.1035 11.5512C17.5785 12.9492 16.8227 14.2107 15.8574 15.3005C14.3434 17.0096 11.6181 19.0469 7.23242 19.0469C7.10354 19.0469 6.97488 19.0446 6.84623 19.0402C7.26966 18.7945 7.67661 18.5211 8.06384 18.2209L8.75977 17.6814V16.8008V16.6211V14.8242L8.0195 14.816C7.21005 14.807 6.55859 14.1483 6.55859 13.3388V11.8696L5.58689 11.6502C5.1569 11.5531 4.85156 11.1711 4.85156 10.7303V9.61328V9.47852L4.8291 8.5626L4.02999 8.02907C3.6849 7.73874 3.37215 7.32406 3.14934 6.87529C5.50724 8.59481 8.30758 9.62379 11.2178 9.79005L13.1172 9.89854V7.99609V7.95117V7.73892L13.0677 7.5325C13.0111 7.29626 12.9824 7.07439 12.9824 6.87305C12.9824 6.09931 13.2911 5.3687 13.8517 4.81576C14.4156 4.25949 15.1598 3.95312 15.9473 3.95312C16.7434 3.95312 17.4362 4.26106 18.0063 4.86841L18.4647 5.35684L18.5202 5.57112L18.5316 5.61528L18.8672 6.91262V7.45703Z"/>
</symbol></svg>