<svg aria-hidden="true" xmlns="http://www.w3.org/2000/svg" xmlns:xlink="http://www.w3.org/1999/xlink"><symbol viewBox="0 0 35 36" id="cod" xmlns="http://www.w3.org/2000/svg">
<path d="M15.6438 0.0895271C13.63 0.313168 11.5552 0.963753 9.37864 2.08195C7.87336 2.87485 7.18175 3.40345 5.41203 5.17223C2.99138 7.59159 1.93362 9.25872 0.957221 12.1864C-1.28035 18.9158 0.469023 26.1536 5.53408 31.094C14.1589 39.5109 28.2556 36.7256 33.4021 25.5843C35.6396 20.7659 35.5176 14.6667 33.0969 9.82798C32.0595 7.77457 31.4086 6.85968 29.6592 5.11123C25.9977 1.3907 20.8716 -0.439072 15.6438 0.0895271ZM17.678 5.96513C18.4306 6.83935 19.0409 7.71358 19.0409 7.89655C19.0409 8.14052 19.6511 7.91689 21.6853 6.90034C23.1702 6.16844 24.4518 5.63984 24.6348 5.70083C24.7976 5.76182 25.3264 6.61571 25.8146 7.59159C26.5469 9.09607 26.7707 9.40103 27.442 9.68566C28.5404 10.1736 28.8049 10.9462 28.8049 13.7112V15.9475H24.8789C22.0921 15.9475 20.892 16.0085 20.7089 16.1915C20.5462 16.3542 20.4648 17.2081 20.4648 18.7329C20.4648 20.7863 20.5055 21.0302 20.8513 21.2336C21.0954 21.3555 22.8244 21.4369 25.0417 21.4369H28.8455L28.7642 23.6733C28.7031 25.8893 28.6828 25.9096 28.0319 26.5602L27.3809 27.2311L17.8204 27.2921C7.12072 27.3531 7.08004 27.3531 6.53082 26.0316C6.0833 24.9948 6.0833 11.8001 6.51048 10.7632C6.85628 9.92963 7.73097 9.44169 8.91078 9.44169C9.72445 9.42136 9.96854 9.27905 12.735 6.90034C14.3623 5.49752 15.8269 4.359 16.01 4.359C16.1931 4.359 16.9457 5.07057 17.678 5.96513ZM29.7813 18.4686C29.8219 19.7697 29.7609 20.5626 29.5982 20.7456C29.2931 21.1319 21.5022 21.1726 21.1157 20.7863C20.8513 20.522 20.7699 16.7404 21.014 16.4761C21.0954 16.4152 23.0889 16.3745 25.4282 16.3948L29.7202 16.4558L29.7813 18.4686Z"/>
<path d="M14.9871 7.70654C14.4559 8.11028 13.3935 8.90094 12.6172 9.4729L11.228 10.5327H9.61398C8.67419 10.5327 8 10.6 8 10.7009C8 10.8019 9.61398 10.8692 12.4538 10.8692C14.8849 10.8692 19.1548 10.9028 21.9538 10.9533C25.4677 11.0374 27 11.0037 27 10.886C27 10.7682 26.5097 10.7009 25.7742 10.7009C24.814 10.7009 24.5484 10.6505 24.5484 10.4486C24.5484 10.314 24.6914 10.1963 24.8548 10.1963C25.0591 10.1963 25.1 10.1122 24.9978 9.89346C24.671 9.27103 24.0376 8.51402 23.8333 8.51402C23.7108 8.51402 22.1581 8.96823 20.4011 9.52337C17.071 10.5495 16.3968 10.6505 13.3527 10.5664L12.0452 10.5327L13.9043 9.27103C14.9258 8.58131 15.8043 8.00935 15.886 8.00935C15.9473 8.00935 16.1925 8.19439 16.3968 8.42991C16.8054 8.85047 17.3978 8.83365 17.3978 8.39626C17.3978 8.1271 16.3559 7 16.1108 7C16.029 7 15.5183 7.31963 14.9871 7.70654ZM23.8129 9.45608C23.8946 9.64113 23.7925 9.82617 23.5269 9.97757C23.3021 10.1122 23.1183 10.3308 23.1183 10.4654C23.1183 10.6505 22.6892 10.7009 20.8301 10.7009C19.5839 10.7009 18.6237 10.6505 18.7054 10.5664C18.9097 10.3981 22.9344 9.20374 23.343 9.20374C23.5269 9.18692 23.7516 9.30468 23.8129 9.45608Z"/>
</symbol><symbol viewBox="0 0 21 21" id="facebook" xmlns="http://www.w3.org/2000/svg">
<g clip-path="url(#bclip0_4_303)">
<path d="M18.5391 0H2.46094C1.1039 0 0 1.1039 0 2.46094V18.5391C0 19.8961 1.1039 21 2.46094 21H18.5391C19.8961 21 21 19.8961 21 18.5391V2.46094C21 1.1039 19.8961 0 18.5391 0ZM19.3594 18.5391C19.3594 18.9914 18.9914 19.3594 18.5391 19.3594H13.6992V13.3711H16.3253L16.6314 10.8281H13.6992V8.08008C13.6992 7.37865 14.2283 6.84961 14.9297 6.84961H16.7754V4.4707C16.2896 4.40213 15.3525 4.30664 14.9297 4.30664C13.973 4.30664 13.0141 4.71023 12.2989 5.41374C11.5621 6.13857 11.1562 7.08801 11.1562 8.08729V10.8281H8.49023V13.3711H11.1562V19.3594H2.46094C2.00864 19.3594 1.64062 18.9914 1.64062 18.5391V2.46094C1.64062 2.00864 2.00864 1.64062 2.46094 1.64062H18.5391C18.9914 1.64062 19.3594 2.00864 19.3594 2.46094V18.5391Z"/>
</g>
<defs>
<clipPath id="bclip0_4_303">
<rect width="21" height="21"/>
</clipPath>
</defs>
</symbol><symbol viewBox="0 0 61 63" id="gear" xmlns="http://www.w3.org/2000/svg">
<path d="M56.6611 41.349L50.7656 37.1565C51.7557 33.5158 51.7501 29.676 50.7493 26.0382L56.6643 21.8977L51.9421 13.7272L45.3641 16.7367C42.7053 14.0588 39.3762 12.144 35.7246 11.1922L35.0973 3.99998H25.6528L25.0256 11.1922C21.3747 12.1453 18.0467 14.0612 15.3893 16.74L8.80806 13.7305L4.08906 21.901L10.0041 26.0415C9.00281 29.6779 8.99607 33.5165 9.98456 37.1565L4.08906 41.349L8.80806 49.4805L15.3893 46.4677C18.0471 49.1453 21.375 51.0601 25.0256 52.0122L25.6528 59.2045H35.0973L35.7246 52.0122C39.375 51.06 42.7029 49.1452 45.3608 46.4677L51.9421 49.4805L56.6643 41.3522L56.6611 41.349ZM36.8913 0.701234C37.3096 0.700791 37.712 0.861697 38.0147 1.15046C38.3174 1.43922 38.4971 1.83359 38.5163 2.25148L39.0948 8.86523C41.4973 9.78078 43.7386 11.0731 45.7346 12.6937L51.7471 9.88898C52.1184 9.69791 52.5491 9.65715 52.9497 9.77516C53.3503 9.89316 53.6901 10.1609 53.8986 10.5227L60.4148 21.8002C60.6242 22.1617 60.6863 22.59 60.5883 22.996C60.4902 23.4021 60.2396 23.7548 59.8883 23.981L54.4478 27.79C54.8638 30.3835 54.8508 32.9672 54.4511 35.4567L59.8883 39.2592C60.2404 39.4854 60.4917 39.8387 60.5898 40.2456C60.6878 40.6524 60.6252 41.0814 60.4148 41.4432L53.8986 52.6785C53.6901 53.0403 53.3503 53.3081 52.9497 53.4261C52.5491 53.5441 52.1184 53.5033 51.7471 53.3122L45.7346 50.5075C43.7781 52.1 41.5486 53.4 39.0948 54.3392L38.5163 60.953C38.4963 61.3703 38.3162 61.7639 38.0136 62.0519C37.711 62.34 37.3091 62.5005 36.8913 62.5H23.8588C23.441 62.5005 23.0391 62.34 22.7365 62.0519C22.4339 61.7639 22.2539 61.3703 22.2338 60.953L21.6553 54.3392C19.2527 53.4225 17.0114 52.1291 15.0156 50.5075L9.00306 53.3122C8.63177 53.5046 8.20062 53.5464 7.7993 53.4289C7.39797 53.3115 7.05737 53.0439 6.84831 52.6817L0.335312 41.44C0.12594 41.0785 0.0638272 40.6503 0.161867 40.2442C0.259907 39.8381 0.510568 39.4854 0.861812 39.2592L6.29906 35.4535C5.89189 32.9141 5.89189 30.3261 6.29906 27.7867L0.865062 23.981C0.514679 23.7549 0.264616 23.4028 0.166615 22.9975C0.0686146 22.5921 0.130176 22.1647 0.338562 21.8035L6.84506 10.5227C7.05358 10.16 7.39396 9.89173 7.79533 9.77368C8.1967 9.65563 8.62813 9.69693 8.99981 9.88898L15.0123 12.6937C17.0083 11.0731 19.2496 9.78078 21.6521 8.86523L22.2306 2.25148C22.2498 1.83359 22.4295 1.43922 22.7322 1.15046C23.0348 0.861697 23.4372 0.700791 23.8556 0.701234H36.8881H36.8913ZM30.3751 20.25C33.3919 20.25 36.2852 21.4484 38.4184 23.5816C40.5516 25.7149 41.7501 28.6081 41.7501 31.625C41.7501 34.6418 40.5516 37.5351 38.4184 39.6683C36.2852 41.8015 33.3919 43 30.3751 43C27.3582 43 24.465 41.8015 22.3317 39.6683C20.1985 37.5351 19.0001 34.6418 19.0001 31.625C19.0001 28.6081 20.1985 25.7149 22.3317 23.5816C24.465 21.4484 27.3582 20.25 30.3751 20.25ZM30.3751 23.5C28.2202 23.5 26.1536 24.356 24.6298 25.8797C23.1061 27.4035 22.2501 29.4701 22.2501 31.625C22.2501 33.7799 23.1061 35.8465 24.6298 37.3702C26.1536 38.894 28.2202 39.75 30.3751 39.75C32.5299 39.75 34.5966 38.894 36.1203 37.3702C37.644 35.8465 38.5001 33.7799 38.5001 31.625C38.5001 29.4701 37.644 27.4035 36.1203 25.8797C34.5966 24.356 32.5299 23.5 30.3751 23.5Z"/>
</symbol><symbol viewBox="0 0 57 57" id="hand" xmlns="http://www.w3.org/2000/svg">
<path d="M20.7774 40.7902C20.4414 40.7902 20.1054 40.6616 19.8481 40.407L2.21598 22.7722C0.168484 20.7247 0.168484 17.3936 2.21598 15.3461C4.26873 13.2986 7.59723 13.3039 9.63949 15.3461L25.4184 31.125C25.9302 31.6369 25.9302 32.469 25.4184 32.9809C24.9065 33.4927 24.0744 33.4927 23.5625 32.9809L7.78361 17.202C6.76511 16.1835 5.10086 16.1809 4.07186 17.202C3.57836 17.6981 3.30273 18.357 3.30273 19.0579C3.30273 19.7614 3.57573 20.4202 4.07186 20.9164L21.7066 38.5485C22.2185 39.0604 22.2185 39.8925 21.7066 40.4044C21.4494 40.6616 21.1134 40.7902 20.7774 40.7902Z"/>
<path d="M30.0594 27.7965C29.7234 27.7965 29.3874 27.6679 29.1301 27.4132L11.498 9.77849C10.4716 8.75211 8.80999 8.75211 7.78362 9.77849C7.29012 10.2746 7.01449 10.9335 7.01449 11.6344C7.01449 12.3352 7.28749 12.9941 7.78362 13.4902L9.63949 15.3461C10.1514 15.858 10.1514 16.6901 9.63949 17.202C9.12762 17.7139 8.29549 17.7139 7.78362 17.202L5.92775 15.3461C4.9355 14.3539 4.3895 13.0361 4.3895 11.6344C4.3895 10.2326 4.9355 8.91486 5.92775 7.92261C7.90962 5.94074 11.3667 5.93549 13.3539 7.92261L30.986 25.5574C31.4979 26.0692 31.4979 26.9014 30.986 27.4132C30.7287 27.6705 30.3954 27.7965 30.0594 27.7965Z"/>
<path d="M35.6297 22.2289C35.2937 22.2289 34.9577 22.1003 34.7004 21.8456L20.7774 7.92264C19.751 6.89627 18.092 6.89627 17.0656 7.92264C16.0419 8.94639 16.0419 10.6106 17.0656 11.6344C17.5775 12.1463 17.5775 12.9784 17.0656 13.4903C16.5538 14.0021 15.7216 14.0021 15.2098 13.4903C13.1649 11.4454 13.1649 8.11164 15.2098 6.06677C17.2546 4.02189 20.5884 4.02189 22.6333 6.06677L36.5563 19.9898C37.0682 20.5016 37.0682 21.3338 36.5563 21.8456C36.3017 22.1003 35.9657 22.2289 35.6297 22.2289Z"/>
<path d="M34.1964 56.4667C33.3117 56.4667 32.4166 56.367 31.5294 56.1648L9.42685 51.0986C8.47135 50.8991 7.58148 50.4108 6.85698 49.6863C5.86473 48.6941 5.3161 47.3737 5.3161 45.9746C5.3161 44.5728 5.86473 43.2551 6.85698 42.2628C7.53948 41.5803 8.36898 41.1105 9.2641 40.8926C9.29035 40.8821 9.3166 40.8768 9.34285 40.869L20.4729 38.1993C21.179 38.0235 21.8877 38.4671 22.0557 39.1706C22.2237 39.8767 21.788 40.5828 21.0845 40.7535L10.0306 43.4047C9.99648 43.4152 9.96235 43.4257 9.9256 43.4336C9.4846 43.5307 9.0646 43.7696 8.71285 44.1213C8.21673 44.6175 7.9411 45.2763 7.9411 45.9772C7.9411 46.6781 8.2141 47.337 8.71285 47.8331C9.06198 48.1822 9.4951 48.429 9.93085 48.5261C9.94923 48.5287 9.96498 48.5313 9.98073 48.5366L32.1174 53.6107C35.2227 54.3221 38.4174 53.4033 40.667 51.1511L51.4085 40.407C53.1436 38.6718 54.0991 36.3645 54.0991 33.9101C54.0991 31.4557 53.1436 29.151 51.4085 27.4132L28.2061 4.21084C27.1797 3.18446 25.5207 3.18446 24.4944 4.21084C23.4706 5.23459 23.4706 6.89884 24.4944 7.92259C25.0062 8.43446 25.0062 9.26659 24.4944 9.77846C23.9825 10.2903 23.1504 10.2903 22.6385 9.77846C20.5936 7.73359 20.5936 4.39984 22.6385 2.35496C24.6834 0.310085 28.0171 0.310085 30.062 2.35496L53.2644 25.5573C55.4982 27.7886 56.7241 30.7522 56.7241 33.9101C56.7241 37.068 55.4956 40.0316 53.2644 42.2628L42.5229 53.007C40.2706 55.2513 37.2886 56.4667 34.1964 56.4667Z"/>
</symbol><symbol viewBox="0 0 22 23" id="instagram" xmlns="http://www.w3.org/2000/svg">
<g clip-path="url(#eclip0_4_278)">
<path d="M15.6094 0.5H6.39066C2.86683 0.5 0 3.36683 0 6.89066V16.1093C0 19.6332 2.86683 22.5 6.39066 22.5H15.6093C19.1332 22.5 22 19.6332 22 16.1094V6.89066C22 3.36683 19.1332 0.5 15.6094 0.5ZM20.2812 16.1093C20.2812 18.6854 18.1854 20.7812 15.6094 20.7812H6.39066C3.81455 20.7812 1.71875 18.6854 1.71875 16.1094V6.89066C1.71875 4.31455 3.81455 2.21875 6.39066 2.21875H15.6093C18.1854 2.21875 20.2812 4.31455 20.2812 6.89066V16.1093Z"/>
<path d="M11 5.57031C7.73034 5.57031 5.07031 8.23034 5.07031 11.5C5.07031 14.7697 7.73034 17.4297 11 17.4297C14.2697 17.4297 16.9297 14.7697 16.9297 11.5C16.9297 8.23034 14.2697 5.57031 11 5.57031ZM11 15.7109C8.6781 15.7109 6.78906 13.8219 6.78906 11.5C6.78906 9.1781 8.6781 7.28906 11 7.28906C13.3219 7.28906 15.2109 9.1781 15.2109 11.5C15.2109 13.8219 13.3219 15.7109 11 15.7109Z"/>
<path d="M17.0156 6.34375C17.4902 6.34375 17.875 5.95899 17.875 5.48438C17.875 5.00976 17.4902 4.625 17.0156 4.625C16.541 4.625 16.1562 5.00976 16.1562 5.48438C16.1562 5.95899 16.541 6.34375 17.0156 6.34375Z"/>
</g>
<defs>
<clipPath id="eclip0_4_278">
<rect width="22" height="22" transform="translate(0 0.5)"/>
</clipPath>
</defs>
</symbol><symbol viewBox="0 0 35 36" id="money" xmlns="http://www.w3.org/2000/svg">
<path d="M17.5 19.7349C15.9529 19.7349 14.4692 20.3494 13.3752 21.4434C12.2812 22.5374 11.6667 24.0211 11.6667 25.5682C11.6667 27.1153 12.2812 28.599 13.3752 29.693C14.4692 30.787 15.9529 31.4015 17.5 31.4015C19.0471 31.4015 20.5308 30.787 21.6248 29.693C22.7187 28.599 23.3333 27.1153 23.3333 25.5682C23.3333 24.0211 22.7187 22.5374 21.6248 21.4434C20.5308 20.3494 19.0471 19.7349 17.5 19.7349ZM15 25.5682C15 24.9052 15.2634 24.2693 15.7322 23.8004C16.2011 23.3316 16.8369 23.0682 17.5 23.0682C18.163 23.0682 18.7989 23.3316 19.2678 23.8004C19.7366 24.2693 20 24.9052 20 25.5682C20 26.2312 19.7366 26.8671 19.2678 27.336C18.7989 27.8048 18.163 28.0682 17.5 28.0682C16.8369 28.0682 16.2011 27.8048 15.7322 27.336C15.2634 26.8671 15 26.2312 15 25.5682Z"/>
<path d="M26.71 7.42833L21.4117 0L1.93 15.5633L0.85 15.5517V15.5683H0V35.5683H35V15.5683H33.3967L30.2067 6.23667L26.71 7.42833ZM29.875 15.5683H13.1617L25.61 11.325L28.1467 10.5133L29.875 15.5683ZM23.4167 8.55167L10.5667 12.9317L20.7433 4.80167L23.4167 8.55167ZM3.33333 29.1833V21.95C4.03649 21.7008 4.67518 21.2979 5.20283 20.7705C5.73047 20.2432 6.13378 19.6047 6.38333 18.9017H28.6167C28.8661 19.6049 29.2694 20.2437 29.797 20.7713C30.3247 21.299 30.9634 21.7022 31.6667 21.9517V29.185C30.9634 29.4344 30.3247 29.8377 29.797 30.3653C29.2694 30.893 28.8661 31.5317 28.6167 32.235H6.38667C6.13697 31.5311 5.73327 30.8919 5.20503 30.3639C4.67679 29.836 4.03734 29.4326 3.33333 29.1833Z"/>
</symbol><symbol viewBox="0 0 35 35" id="order-done" xmlns="http://www.w3.org/2000/svg">
<path d="M24.9812 26.4688L24.2375 25.725C23.975 25.4625 23.6617 25.3313 23.2977 25.3313C22.9338 25.3313 22.6199 25.4625 22.3562 25.725C22.0938 25.9875 21.9625 26.2938 21.9625 26.6438C21.9625 26.9938 22.0938 27.3 22.3562 27.5625L24.0625 29.2688C24.325 29.5313 24.6312 29.6625 24.9812 29.6625C25.3312 29.6625 25.6375 29.5313 25.9 29.2688L30.1438 25.1125C30.4062 24.85 30.5375 24.5362 30.5375 24.171C30.5375 23.8058 30.4062 23.4926 30.1438 23.2313C29.8813 22.9688 29.5674 22.8375 29.2023 22.8375C28.8371 22.8375 28.5238 22.9688 28.2625 23.2313L24.9812 26.4688ZM24.5 10.5C24.9958 10.5 25.4117 10.332 25.7477 9.996C26.0837 9.66 26.2512 9.24467 26.25 8.75C26.25 8.25417 26.082 7.83825 25.746 7.50225C25.41 7.16625 24.9947 6.99884 24.5 7H7C6.50417 7 6.08825 7.168 5.75225 7.504C5.41625 7.84 5.24883 8.25534 5.25 8.75C5.25 9.24584 5.418 9.66175 5.754 9.99775C6.09 10.3338 6.50533 10.5012 7 10.5H24.5ZM26.25 35C23.8292 35 21.7659 34.1466 20.0603 32.4398C18.3546 30.7329 17.5012 28.6697 17.5 26.25C17.5 23.8292 18.3534 21.7653 20.0603 20.0585C21.7671 18.3517 23.8303 17.4988 26.25 17.5C28.6708 17.5 30.7347 18.3534 32.4415 20.0603C34.1483 21.7671 35.0012 23.8303 35 26.25C35 28.6708 34.1466 30.7347 32.4398 32.4415C30.7329 34.1483 28.6697 35.0012 26.25 35ZM3.5 2.97114e-06H28C28.9625 2.97114e-06 29.7868 0.343003 30.4727 1.029C31.1588 1.715 31.5012 2.53867 31.5 3.5V15.1813C30.6833 14.7729 29.8299 14.4737 28.9398 14.2835C28.0496 14.0933 27.153 13.9988 26.25 14H7C6.50417 14 6.08825 14.168 5.75225 14.504C5.41625 14.84 5.24883 15.2553 5.25 15.75C5.25 16.2458 5.418 16.6618 5.754 16.9978C6.09 17.3338 6.50533 17.5012 7 17.5H17.675C17.1792 17.9958 16.7201 18.5354 16.2977 19.1188C15.8754 19.7021 15.5033 20.3292 15.1813 21H7C6.50417 21 6.08825 21.168 5.75225 21.504C5.41625 21.84 5.24883 22.2553 5.25 22.75C5.25 23.2458 5.418 23.6618 5.754 23.9978C6.09 24.3337 6.50533 24.5012 7 24.5H14.1312C14.0729 24.7917 14.0362 25.0763 14.021 25.354C14.0058 25.6317 13.9988 25.9303 14 26.25C14 27.475 14.168 28.6493 14.504 29.7728C14.84 30.8963 15.3428 31.9678 16.0125 32.9875C15.8667 33.0167 15.7133 32.9945 15.5522 32.921C15.3913 32.8475 15.253 32.753 15.1375 32.6375L13.7375 31.2375C13.5625 31.0625 13.3583 30.975 13.125 30.975C12.8917 30.975 12.6875 31.0625 12.5125 31.2375L11.1125 32.6375C10.9375 32.8125 10.7333 32.9 10.5 32.9C10.2667 32.9 10.0625 32.8125 9.8875 32.6375L8.4875 31.2375C8.3125 31.0625 8.10833 30.975 7.875 30.975C7.64167 30.975 7.4375 31.0625 7.2625 31.2375L5.8625 32.6375C5.6875 32.8125 5.48333 32.9 5.25 32.9C5.01667 32.9 4.8125 32.8125 4.6375 32.6375L3.2375 31.2375C3.0625 31.0625 2.85833 30.975 2.625 30.975C2.39167 30.975 2.1875 31.0625 2.0125 31.2375L0.6125 32.6375L0 33.0312V3.5C0 2.5375 0.343 1.71325 1.029 1.02725C1.715 0.341253 2.53867 -0.0011637 3.5 2.97114e-06Z"/>
</symbol><symbol viewBox="0 0 35 30" id="payment" xmlns="http://www.w3.org/2000/svg">
<path d="M19.5349 24.4186C19.5349 23.8651 19.6 23.3279 19.6814 22.7907H3.25581V13.0233H29.3023V14.6512C30.4419 14.6512 31.5326 14.8628 32.5581 15.2209V3.25581C32.5581 1.44884 31.1093 0 29.3023 0H3.25581C1.44884 0 0 1.44884 0 3.25581V22.7907C0 24.5814 1.44884 26.0465 3.25581 26.0465H19.6814C19.6 25.5093 19.5349 24.9721 19.5349 24.4186ZM3.25581 3.25581H29.3023V6.51163H3.25581V3.25581ZM27.2674 29.3023L22.7907 24.4186L24.6791 22.5302L27.2674 25.1186L33.1116 19.2744L35 21.5698L27.2674 29.3023Z"/>
</symbol><symbol viewBox="0 0 35 35" id="person" xmlns="http://www.w3.org/2000/svg">
<path d="M0 29.1667C0 24.3396 11.6589 21.3889 17.5 21.3889C23.3411 21.3889 35 24.3396 35 29.1667V35H0V29.1667Z"/>
<path fill-rule="evenodd" clip-rule="evenodd" d="M17.5 19.4444C22.8696 19.4444 27.2222 15.0918 27.2222 9.72222C27.2222 4.35264 22.8696 0 17.5 0C12.1304 0 7.77778 4.35264 7.77778 9.72222C7.77778 15.0918 12.1304 19.4444 17.5 19.4444Z"/>
</symbol><symbol viewBox="0 0 61 61" id="quality" xmlns="http://www.w3.org/2000/svg">
<g clip-path="url(#jclip0_10_189)">
<path d="M37.3994 24.8338L28.2341 33.4905L23.8355 28.9653C23.3479 28.4632 22.5449 28.4518 22.0433 28.9394C21.5413 29.4276 21.5299 30.23 22.0175 30.7321L27.2931 36.1477C27.7833 36.6408 28.5753 36.6577 29.0858 36.1855L39.1667 26.677C39.4115 26.4461 39.5546 26.1273 39.564 25.7912C39.5734 25.455 39.4488 25.1287 39.2174 24.8844C38.7268 24.3744 37.9178 24.3521 37.3994 24.8338Z"/>
<path d="M30.5983 11.5111C20.1236 11.5111 11.6064 20.0284 11.6064 30.5031C11.6064 40.9784 20.1236 49.4956 30.5983 49.4956C41.0736 49.4956 49.5908 40.9784 49.5908 30.5031C49.5908 20.0284 41.0736 11.5111 30.5983 11.5111ZM30.5983 46.9531C21.522 46.9531 14.1488 39.5671 14.1488 30.5031C14.1488 21.4391 21.522 14.0536 30.5983 14.0536C39.6837 14.0536 47.0484 21.4183 47.0484 30.5031C47.0484 39.5879 39.6837 46.9531 30.5983 46.9531Z"/>
<path d="M56.7351 23.5113L57.1547 15.9728C57.184 15.4668 56.9089 14.9916 56.4555 14.7651L49.7433 11.371L46.3492 4.65885C46.1183 4.20945 45.646 3.93584 45.1415 3.95967L37.5901 4.36686L31.2975 0.209541C30.8734 -0.0700302 30.3237 -0.0700302 29.8992 0.209541L23.6066 4.36686L16.0686 3.94726C15.5621 3.91746 15.0873 4.19257 14.8609 4.64643L11.4663 11.3586L4.75461 14.7527C4.30471 14.9831 4.03159 15.4554 4.05543 15.9604L4.47454 23.4989L0.317711 29.7915C0.0381393 30.2156 0.0381393 30.7653 0.317711 31.1898L4.46212 37.4948L4.04252 45.0333C4.01322 45.5393 4.28783 46.0146 4.7417 46.241L11.4539 49.6351L14.848 56.3473C15.0784 56.7972 15.5506 57.0703 16.0557 57.0465L23.5942 56.6269L29.8868 60.7837C30.3083 61.0722 30.8635 61.0722 31.2851 60.7837L37.5777 56.6269L45.1162 57.0465C45.6222 57.0758 46.0969 56.8007 46.3239 56.3473L49.718 49.6351L56.4302 46.241C56.8796 46.0101 57.1532 45.5384 57.1293 45.0333L56.7097 37.4948L60.8666 31.2022C61.1461 30.7782 61.1461 30.228 60.8666 29.8039L56.7351 23.5113ZM54.3704 36.4525C54.2154 36.68 54.1434 36.9536 54.1673 37.2282L54.5611 44.3595L48.2178 47.5629C47.976 47.6841 47.7798 47.8807 47.6587 48.1225L44.4548 54.4658L37.3235 54.072C37.0503 54.0621 36.7807 54.1326 36.5478 54.2751L30.5983 58.2035L24.6494 54.2751C24.4428 54.1355 24.1995 54.0601 23.9502 54.0591H23.8866L16.7548 54.4534L13.5514 48.1096C13.4303 47.8678 13.2341 47.6716 12.9918 47.5505L6.63563 44.3595L7.02991 37.2282C7.03984 36.9551 6.96883 36.6854 6.82632 36.4525L2.89841 30.5031L6.82632 24.5536C6.98174 24.3267 7.05375 24.0526 7.02991 23.7785L6.63563 16.6467L12.9794 13.4433C13.2212 13.3221 13.4174 13.1259 13.5385 12.8841L16.7419 6.54037L23.8737 6.93465C24.1463 6.94408 24.416 6.87357 24.6494 6.73105L30.5983 2.80315L36.5478 6.73105C36.7752 6.88648 37.0493 6.95849 37.3235 6.93465L44.4548 6.54037L47.6587 12.8841C47.7798 13.1259 47.976 13.3221 48.2178 13.4433L54.5611 16.6467L54.1673 23.7785C54.1573 24.0511 54.2284 24.3207 54.3704 24.5536L58.2988 30.5031L54.3704 36.4525Z"/>
</g>
<defs>
<clipPath id="jclip0_10_189">
<rect width="61" height="61"/>
</clipPath>
</defs>
</symbol><symbol viewBox="0 0 23 23" id="twitter" xmlns="http://www.w3.org/2000/svg">
<path d="M20.2712 5.16525L20.2598 5.12109C21.2343 4.53688 22.0211 3.5738 22.3711 2.4707C21.4584 3.01367 20.3904 3.42561 19.3164 3.63867C18.4552 2.7211 17.3061 2.15625 15.9473 2.15625C13.3429 2.15625 11.1855 4.26475 11.1855 6.87305C11.1855 7.24419 11.238 7.60752 11.3203 7.95117V7.99609C7.43875 7.77436 3.92429 5.80031 1.61719 2.96484C1.21231 3.66248 0.988281 4.65939 0.988281 5.52539C0.988281 6.87305 1.78852 8.67805 3.05469 9.52344V9.61328C2.29865 9.58278 1.52429 9.06195 0.898438 8.71484C0.898438 8.73546 0.92584 8.76026 0.92584 8.78088C0.92584 11.0696 2.6034 13.0436 4.76172 13.4766C4.38559 13.5761 3.85582 13.6562 3.45898 13.6562C3.15361 13.6562 2.84877 13.5765 2.56055 13.5215C3.16102 15.3978 4.89648 16.6211 6.96289 16.6211V16.666C5.35446 17.913 3.31577 18.7773 1.12305 18.7773C0.742154 18.7773 0.269531 18.7324 0 18.6875C2.08622 20.0277 4.56631 20.8438 7.23242 20.8438C15.9102 20.8438 20.6641 13.7012 20.6641 7.45703V6.82812C21.5871 6.16144 22.3686 5.26098 23 4.3125C23 4.3125 21.3439 5.09724 20.2712 5.16525ZM18.8672 7.45703C18.8672 8.80523 18.6031 10.221 18.1035 11.5512C17.5785 12.9492 16.8227 14.2107 15.8574 15.3005C14.3434 17.0096 11.6181 19.0469 7.23242 19.0469C7.10354 19.0469 6.97488 19.0446 6.84623 19.0402C7.26966 18.7945 7.67661 18.5211 8.06384 18.2209L8.75977 17.6814V16.8008V16.6211V14.8242L8.0195 14.816C7.21005 14.807 6.55859 14.1483 6.55859 13.3388V11.8696L5.58689 11.6502C5.1569 11.5531 4.85156 11.1711 4.85156 10.7303V9.61328V9.47852L4.8291 8.5626L4.02999 8.02907C3.6849 7.73874 3.37215 7.32406 3.14934 6.87529C5.50724 8.59481 8.30758 9.62379 11.2178 9.79005L13.1172 9.89854V7.99609V7.95117V7.73892L13.0677 7.5325C13.0111 7.29626 12.9824 7.07439 12.9824 6.87305C12.9824 6.09931 13.2911 5.3687 13.8517 4.81576C14.4156 4.25949 15.1598 3.95312 15.9473 3.95312C16.7434 3.95312 17.4362 4.26106 18.0063 4.86841L18.4647 5.35684L18.5202 5.57112L18.5316 5.61528L18.8672 6.91262V7.45703Z"/>
</symbol></svg>