<svg width="217" height="334" viewBox="0 0 217 334" fill="none" xmlns="http://www.w3.org/2000/svg">
<path d="M98.9 67.54V64.16H92.48V62.6L99.46 53.58H100.66V62.56H102.42V64.16H100.66V67.54H98.9ZM94.3 62.56H99.08V56.3L94.3 62.56ZM104.412 65C104.412 64.4667 104.452 63.9667 104.532 63.5C104.626 63.0333 104.786 62.5867 105.012 62.16C105.252 61.7333 105.586 61.3267 106.012 60.94C106.439 60.54 106.992 60.1533 107.672 59.78C108.072 59.5533 108.472 59.34 108.872 59.14C109.286 58.94 109.666 58.7267 110.012 58.5C110.372 58.2733 110.659 58.0267 110.872 57.76C111.086 57.48 111.192 57.16 111.192 56.8C111.192 56.4933 111.099 56.2 110.912 55.92C110.739 55.6267 110.472 55.3933 110.112 55.22C109.766 55.0333 109.332 54.94 108.812 54.94C108.412 54.94 108.046 54.9933 107.712 55.1C107.392 55.2067 107.099 55.3467 106.832 55.52C106.579 55.68 106.352 55.8533 106.152 56.04C105.966 56.2133 105.806 56.3733 105.672 56.52L104.572 55.28C104.679 55.16 104.859 55 105.112 54.8C105.366 54.5867 105.686 54.3733 106.072 54.16C106.459 53.9467 106.906 53.7667 107.412 53.62C107.932 53.46 108.499 53.38 109.112 53.38C109.939 53.38 110.646 53.5267 111.232 53.82C111.832 54.1 112.292 54.4867 112.612 54.98C112.932 55.46 113.092 56 113.092 56.6C113.092 57.12 112.979 57.5733 112.752 57.96C112.539 58.3467 112.259 58.6867 111.912 58.98C111.579 59.2733 111.226 59.5267 110.852 59.74C110.492 59.94 110.166 60.1133 109.872 60.26C109.272 60.5533 108.759 60.82 108.332 61.06C107.906 61.3 107.552 61.54 107.272 61.78C107.006 62.0067 106.786 62.2467 106.612 62.5C106.452 62.7533 106.332 63.0533 106.252 63.4H113.312V65H104.412Z" fill="black"/>
<path d="M98.24 16.3C98.24 17.2067 98.0133 18.0333 97.56 18.78C97.12 19.5133 96.5133 20.1 95.74 20.54C94.98 20.98 94.12 21.2 93.16 21.2C92.1467 21.2 91.2533 20.96 90.48 20.48C89.7067 19.9867 89.1 19.28 88.66 18.36C88.2333 17.44 88.02 16.3467 88.02 15.08C88.02 13.2133 88.24 11.66 88.68 10.42C89.12 9.18 89.74 8.25333 90.54 7.64C91.34 7.01333 92.2733 6.7 93.34 6.7C94.26 6.7 95.0933 6.92667 95.84 7.38C96.6 7.82 97.1933 8.43333 97.62 9.22L96.54 10.28C96.2467 9.65333 95.8133 9.16 95.24 8.8C94.6667 8.42667 94.0267 8.24 93.32 8.24C92.6 8.24 91.9667 8.46 91.42 8.9C90.8733 9.34 90.4467 9.97333 90.14 10.8C89.8467 11.6267 89.6933 12.6267 89.68 13.8C89.88 13.3333 90.16 12.9333 90.52 12.6C90.88 12.2533 91.3 11.9867 91.78 11.8C92.2733 11.6133 92.7933 11.52 93.34 11.52C94.26 11.52 95.0867 11.7333 95.82 12.16C96.5667 12.5867 97.1533 13.16 97.58 13.88C98.02 14.6 98.24 15.4067 98.24 16.3ZM93.18 19.68C93.7933 19.68 94.3533 19.5267 94.86 19.22C95.38 18.9133 95.7933 18.5067 96.1 18C96.4067 17.48 96.56 16.9133 96.56 16.3C96.56 15.6867 96.4067 15.1267 96.1 14.62C95.7933 14.1133 95.38 13.7067 94.86 13.4C94.3533 13.0933 93.7933 12.94 93.18 12.94C92.5667 12.94 92 13.0933 91.48 13.4C90.9733 13.7067 90.5667 14.1133 90.26 14.62C89.9533 15.1267 89.8 15.6867 89.8 16.3C89.8 16.9133 89.9533 17.48 90.26 18C90.5667 18.5067 90.9733 18.9133 91.48 19.22C92 19.5267 92.5667 19.68 93.18 19.68ZM104.769 23.98C103.756 23.98 102.842 23.74 102.029 23.26C101.216 22.78 100.602 22.14 100.189 21.34L101.289 20.38C101.662 20.9933 102.156 21.4867 102.769 21.86C103.396 22.2333 104.069 22.42 104.789 22.42C105.402 22.42 105.949 22.2867 106.429 22.02C106.909 21.7533 107.289 21.3867 107.569 20.92C107.849 20.44 107.989 19.8933 107.989 19.28C107.989 18.68 107.849 18.1533 107.569 17.7C107.302 17.2467 106.936 16.8933 106.469 16.64C106.016 16.3867 105.502 16.26 104.929 16.26C104.356 16.26 103.816 16.3867 103.309 16.64C102.816 16.8933 102.409 17.2533 102.089 17.72H100.509L102.109 9.58H109.009V11.2H103.409L102.549 15.72C102.842 15.4133 103.209 15.1733 103.649 15C104.102 14.8133 104.602 14.72 105.149 14.72C106.029 14.72 106.816 14.9133 107.509 15.3C108.216 15.6867 108.769 16.22 109.169 16.9C109.582 17.58 109.789 18.3667 109.789 19.26C109.789 20.1933 109.562 21.0133 109.109 21.72C108.669 22.44 108.069 22.9933 107.309 23.38C106.549 23.78 105.702 23.98 104.769 23.98Z" fill="black"/>
<circle cx="100.5" cy="191.5" r="100.5" fill="#F1EADC"/>
<circle cx="101" cy="192" r="66" fill="#6E9C9F"/>
<line x1="0.5" y1="28.5" x2="0.499996" y2="177.5" stroke="black" stroke-linecap="round"/>
<line x1="201.5" y1="28.5" x2="201.5" y2="177.5" stroke="black" stroke-linecap="round"/>
<path d="M167.5 62L167.5 192" stroke="black" stroke-linecap="round"/>
<path d="M35.5 62L35.5 192" stroke="black" stroke-linecap="round"/>
<path d="M165 78L160 75.1132V80.8868L165 78ZM42 78L47 80.8868V75.1132L42 78ZM160.5 77.5L46.5 77.5V78.5L160.5 78.5V77.5Z" fill="black"/>
<path d="M195.5 33L190.5 30.1132V35.8868L195.5 33ZM7 33L12 35.8868V30.1132L7 33ZM191 32.5L11.5 32.5V33.5L191 33.5V32.5Z" fill="black"/>
<path d="M92.4 206V177.6H96V202.8H111.84V206H92.4Z" fill="white"/>
<path d="M162 303L159.113 308L164.887 308L162 303ZM162 331.5L164.887 326.5L159.113 326.5L162 331.5ZM161.5 307.5L161.5 327L162.5 327L162.5 307.5L161.5 307.5Z" fill="black"/>
<path d="M176.14 311H178.14V325H176.14V311ZM168.1 325H166.1V311H168.1V325ZM176.32 318.76H167.9V317.02H176.32V318.76ZM181.77 320.34V318.68H187.15V320.34H181.77ZM191.655 325V311.8L192.515 312.74H188.495V311H193.635V325H191.655ZM202.558 325.16C201.424 325.16 200.444 324.993 199.618 324.66C198.791 324.327 198.151 323.853 197.698 323.24C197.244 322.613 197.018 321.88 197.018 321.04C197.018 320.213 197.231 319.513 197.658 318.94C198.098 318.353 198.731 317.913 199.558 317.62C200.384 317.313 201.384 317.16 202.558 317.16C203.731 317.16 204.731 317.313 205.558 317.62C206.398 317.913 207.038 318.353 207.478 318.94C207.918 319.527 208.138 320.227 208.138 321.04C208.138 321.88 207.911 322.613 207.458 323.24C207.004 323.853 206.358 324.327 205.518 324.66C204.678 324.993 203.691 325.16 202.558 325.16ZM202.558 323.54C203.678 323.54 204.551 323.313 205.178 322.86C205.818 322.393 206.138 321.767 206.138 320.98C206.138 320.207 205.818 319.6 205.178 319.16C204.551 318.707 203.678 318.48 202.558 318.48C201.451 318.48 200.584 318.707 199.958 319.16C199.331 319.6 199.018 320.207 199.018 320.98C199.018 321.767 199.331 322.393 199.958 322.86C200.584 323.313 201.451 323.54 202.558 323.54ZM202.558 318.24C201.491 318.24 200.584 318.1 199.838 317.82C199.091 317.527 198.518 317.113 198.118 316.58C197.718 316.033 197.518 315.387 197.518 314.64C197.518 313.853 197.724 313.18 198.138 312.62C198.564 312.047 199.158 311.607 199.918 311.3C200.678 310.993 201.558 310.84 202.558 310.84C203.571 310.84 204.458 310.993 205.218 311.3C205.978 311.607 206.571 312.047 206.998 312.62C207.424 313.18 207.638 313.853 207.638 314.64C207.638 315.387 207.438 316.033 207.038 316.58C206.638 317.113 206.058 317.527 205.298 317.82C204.538 318.1 203.624 318.24 202.558 318.24ZM202.558 316.96C203.531 316.96 204.291 316.76 204.838 316.36C205.398 315.96 205.678 315.413 205.678 314.72C205.678 314.013 205.391 313.46 204.818 313.06C204.244 312.66 203.491 312.46 202.558 312.46C201.624 312.46 200.878 312.66 200.318 313.06C199.771 313.46 199.498 314.013 199.498 314.72C199.498 315.413 199.764 315.96 200.298 316.36C200.844 316.76 201.598 316.96 202.558 316.96Z" fill="black"/>
<rect y="302" width="155" height="31" rx="15.5" fill="#F1EADC"/>
<path d="M79.7 324V309.8H81.5V322.4H89.42V324H79.7Z" fill="black"/>
<path d="M123 302H167" stroke="black" stroke-linecap="round"/>
<path d="M123 333H167" stroke="black" stroke-linecap="round"/>
</svg>
