<svg width="216" height="335" viewBox="0 0 216 335" fill="none" xmlns="http://www.w3.org/2000/svg">
<path d="M92.86 65C92.86 64.4667 92.9 63.9667 92.98 63.5C93.0733 63.0333 93.2333 62.5867 93.46 62.16C93.7 61.7333 94.0333 61.3267 94.46 60.94C94.8867 60.54 95.44 60.1533 96.12 59.78C96.52 59.5533 96.92 59.34 97.32 59.14C97.7333 58.94 98.1133 58.7267 98.46 58.5C98.82 58.2733 99.1067 58.0267 99.32 57.76C99.5333 57.48 99.64 57.16 99.64 56.8C99.64 56.4933 99.5467 56.2 99.36 55.92C99.1867 55.6267 98.92 55.3933 98.56 55.22C98.2133 55.0333 97.78 54.94 97.26 54.94C96.86 54.94 96.4933 54.9933 96.16 55.1C95.84 55.2067 95.5467 55.3467 95.28 55.52C95.0267 55.68 94.8 55.8533 94.6 56.04C94.4133 56.2133 94.2533 56.3733 94.12 56.52L93.02 55.28C93.1267 55.16 93.3067 55 93.56 54.8C93.8133 54.5867 94.1333 54.3733 94.52 54.16C94.9067 53.9467 95.3533 53.7667 95.86 53.62C96.38 53.46 96.9467 53.38 97.56 53.38C98.3867 53.38 99.0933 53.5267 99.68 53.82C100.28 54.1 100.74 54.4867 101.06 54.98C101.38 55.46 101.54 56 101.54 56.6C101.54 57.12 101.427 57.5733 101.2 57.96C100.987 58.3467 100.707 58.6867 100.36 58.98C100.027 59.2733 99.6733 59.5267 99.3 59.74C98.94 59.94 98.6133 60.1133 98.32 60.26C97.72 60.5533 97.2067 60.82 96.78 61.06C96.3533 61.3 96 61.54 95.72 61.78C95.4533 62.0067 95.2333 62.2467 95.06 62.5C94.9 62.7533 94.78 63.0533 94.7 63.4H101.76V65H92.86ZM103.963 65C103.963 64.4667 104.003 63.9667 104.083 63.5C104.176 63.0333 104.336 62.5867 104.563 62.16C104.803 61.7333 105.136 61.3267 105.563 60.94C105.99 60.54 106.543 60.1533 107.223 59.78C107.623 59.5533 108.023 59.34 108.423 59.14C108.836 58.94 109.216 58.7267 109.563 58.5C109.923 58.2733 110.21 58.0267 110.423 57.76C110.636 57.48 110.743 57.16 110.743 56.8C110.743 56.4933 110.65 56.2 110.463 55.92C110.29 55.6267 110.023 55.3933 109.663 55.22C109.316 55.0333 108.883 54.94 108.363 54.94C107.963 54.94 107.596 54.9933 107.263 55.1C106.943 55.2067 106.65 55.3467 106.383 55.52C106.13 55.68 105.903 55.8533 105.703 56.04C105.516 56.2133 105.356 56.3733 105.223 56.52L104.123 55.28C104.23 55.16 104.41 55 104.663 54.8C104.916 54.5867 105.236 54.3733 105.623 54.16C106.01 53.9467 106.456 53.7667 106.963 53.62C107.483 53.46 108.05 53.38 108.663 53.38C109.49 53.38 110.196 53.5267 110.783 53.82C111.383 54.1 111.843 54.4867 112.163 54.98C112.483 55.46 112.643 56 112.643 56.6C112.643 57.12 112.53 57.5733 112.303 57.96C112.09 58.3467 111.81 58.6867 111.463 58.98C111.13 59.2733 110.776 59.5267 110.403 59.74C110.043 59.94 109.716 60.1133 109.423 60.26C108.823 60.5533 108.31 60.82 107.883 61.06C107.456 61.3 107.103 61.54 106.823 61.78C106.556 62.0067 106.336 62.2467 106.163 62.5C106.003 62.7533 105.883 63.0533 105.803 63.4H112.863V65H103.963Z" fill="black"/>
<path d="M93.9 23.54V20.16H87.48V18.6L94.46 9.58H95.66V18.56H97.42V20.16H95.66V23.54H93.9ZM89.3 18.56H94.08V12.3L89.3 18.56ZM103.792 23.98C102.779 23.98 101.866 23.74 101.052 23.26C100.239 22.78 99.6257 22.14 99.2123 21.34L100.312 20.38C100.686 20.9933 101.179 21.4867 101.792 21.86C102.419 22.2333 103.092 22.42 103.812 22.42C104.426 22.42 104.972 22.2867 105.452 22.02C105.932 21.7533 106.312 21.3867 106.592 20.92C106.872 20.44 107.012 19.8933 107.012 19.28C107.012 18.68 106.872 18.1533 106.592 17.7C106.326 17.2467 105.959 16.8933 105.492 16.64C105.039 16.3867 104.526 16.26 103.952 16.26C103.379 16.26 102.839 16.3867 102.332 16.64C101.839 16.8933 101.432 17.2533 101.112 17.72H99.5323L101.132 9.58H108.032V11.2H102.432L101.572 15.72C101.866 15.4133 102.232 15.1733 102.672 15C103.126 14.8133 103.626 14.72 104.172 14.72C105.052 14.72 105.839 14.9133 106.532 15.3C107.239 15.6867 107.792 16.22 108.192 16.9C108.606 17.58 108.812 18.3667 108.812 19.26C108.812 20.1933 108.586 21.0133 108.132 21.72C107.692 22.44 107.092 22.9933 106.332 23.38C105.572 23.78 104.726 23.98 103.792 23.98Z" fill="black"/>
<circle cx="100.5" cy="191.5" r="100.5" fill="#F1EADC"/>
<circle cx="101" cy="192" r="66" fill="#6E9C9F"/>
<line x1="0.5" y1="28.5" x2="0.499996" y2="177.5" stroke="black" stroke-linecap="round"/>
<line x1="201.5" y1="28.5" x2="201.5" y2="177.5" stroke="black" stroke-linecap="round"/>
<line x1="167.5" y1="62.5" x2="167.5" y2="191.5" stroke="black" stroke-linecap="round"/>
<path d="M35.5 62L35.5 192" stroke="black" stroke-linecap="round"/>
<path d="M165 78L160 75.1132V80.8868L165 78ZM42 78L47 80.8868V75.1132L42 78ZM160.5 77.5L46.5 77.5V78.5L160.5 78.5V77.5Z" fill="black"/>
<path d="M195.5 33L190.5 30.1132V35.8868L195.5 33ZM7 33L12 35.8868V30.1132L7 33ZM191 32.5L11.5 32.5V33.5L191 33.5V32.5Z" fill="black"/>
<path d="M109.08 183.56C108.76 183.187 108.333 182.827 107.8 182.48C107.267 182.133 106.667 181.827 106 181.56C105.333 181.267 104.6 181.04 103.8 180.88C103.027 180.693 102.213 180.6 101.36 180.6C99.1733 180.6 97.56 181.013 96.52 181.84C95.48 182.667 94.96 183.8 94.96 185.24C94.96 186.253 95.2267 187.053 95.76 187.64C96.2933 188.227 97.1067 188.707 98.2 189.08C99.32 189.453 100.733 189.84 102.44 190.24C104.413 190.667 106.12 191.187 107.56 191.8C109 192.413 110.107 193.24 110.88 194.28C111.653 195.293 112.04 196.653 112.04 198.36C112.04 199.72 111.773 200.907 111.24 201.92C110.733 202.907 110.013 203.733 109.08 204.4C108.147 205.04 107.053 205.52 105.8 205.84C104.547 206.133 103.187 206.28 101.72 206.28C100.28 206.28 98.8667 206.133 97.48 205.84C96.12 205.52 94.8267 205.067 93.6 204.48C92.3733 203.893 91.2267 203.16 90.16 202.28L91.88 199.24C92.3067 199.693 92.8533 200.147 93.52 200.6C94.2133 201.027 94.9867 201.427 95.84 201.8C96.72 202.173 97.6667 202.48 98.68 202.72C99.6933 202.933 100.733 203.04 101.8 203.04C103.827 203.04 105.4 202.68 106.52 201.96C107.64 201.213 108.2 200.133 108.2 198.72C108.2 197.653 107.88 196.8 107.24 196.16C106.627 195.52 105.707 194.987 104.48 194.56C103.253 194.133 101.76 193.707 100 193.28C98.08 192.8 96.4667 192.28 95.16 191.72C93.8533 191.133 92.8667 190.373 92.2 189.44C91.56 188.507 91.24 187.293 91.24 185.8C91.24 183.987 91.68 182.453 92.56 181.2C93.44 179.947 94.6533 179 96.2 178.36C97.7467 177.72 99.4933 177.4 101.44 177.4C102.72 177.4 103.907 177.533 105 177.8C106.12 178.067 107.16 178.44 108.12 178.92C109.08 179.4 109.96 179.973 110.76 180.64L109.08 183.56Z" fill="white"/>
<path d="M161 304L158.113 309L163.887 309L161 304ZM161 332.5L163.887 327.5L158.113 327.5L161 332.5ZM160.5 308.5L160.5 328L161.5 328L161.5 308.5L160.5 308.5Z" fill="black"/>
<path d="M175.14 311H177.14V325H175.14V311ZM167.1 325H165.1V311H167.1V325ZM175.32 318.76H166.9V317.02H175.32V318.76ZM180.77 320.34V318.68H186.15V320.34H180.77ZM190.655 325V311.8L191.515 312.74H187.495V311H192.635V325H190.655ZM198.518 325L204.458 311.84L204.978 312.74H196.658L197.658 311.76V315.24H195.738V311H206.298V312.36L200.638 325H198.518Z" fill="black"/>
<rect y="302" width="155" height="31" rx="15.5" fill="#F1EADC"/>
<path d="M123 303H167" stroke="black" stroke-linecap="round"/>
<path d="M123 334H167" stroke="black" stroke-linecap="round"/>
</svg>
