<svg width="217" height="335" viewBox="0 0 217 335" fill="none" xmlns="http://www.w3.org/2000/svg">
<path d="M97.24 67.98C96.2267 67.98 95.3133 67.74 94.5 67.26C93.6867 66.78 93.0733 66.14 92.66 65.34L93.76 64.38C94.1333 64.9933 94.6267 65.4867 95.24 65.86C95.8667 66.2333 96.54 66.42 97.26 66.42C97.8733 66.42 98.42 66.2867 98.9 66.02C99.38 65.7533 99.76 65.3867 100.04 64.92C100.32 64.44 100.46 63.8933 100.46 63.28C100.46 62.68 100.32 62.1533 100.04 61.7C99.7733 61.2467 99.4067 60.8933 98.94 60.64C98.4867 60.3867 97.9733 60.26 97.4 60.26C96.8267 60.26 96.2867 60.3867 95.78 60.64C95.2867 60.8933 94.88 61.2533 94.56 61.72H92.98L94.58 53.58H101.48V55.2H95.88L95.02 59.72C95.3133 59.4133 95.68 59.1733 96.12 59C96.5733 58.8133 97.0733 58.72 97.62 58.72C98.5 58.72 99.2867 58.9133 99.98 59.3C100.687 59.6867 101.24 60.22 101.64 60.9C102.053 61.58 102.26 62.3667 102.26 63.26C102.26 64.1933 102.033 65.0133 101.58 65.72C101.14 66.44 100.54 66.9933 99.78 67.38C99.02 67.78 98.1733 67.98 97.24 67.98ZM104.217 65C104.217 64.4667 104.257 63.9667 104.337 63.5C104.43 63.0333 104.59 62.5867 104.817 62.16C105.057 61.7333 105.39 61.3267 105.817 60.94C106.244 60.54 106.797 60.1533 107.477 59.78C107.877 59.5533 108.277 59.34 108.677 59.14C109.09 58.94 109.47 58.7267 109.817 58.5C110.177 58.2733 110.464 58.0267 110.677 57.76C110.89 57.48 110.997 57.16 110.997 56.8C110.997 56.4933 110.904 56.2 110.717 55.92C110.544 55.6267 110.277 55.3933 109.917 55.22C109.57 55.0333 109.137 54.94 108.617 54.94C108.217 54.94 107.85 54.9933 107.517 55.1C107.197 55.2067 106.904 55.3467 106.637 55.52C106.384 55.68 106.157 55.8533 105.957 56.04C105.77 56.2133 105.61 56.3733 105.477 56.52L104.377 55.28C104.484 55.16 104.664 55 104.917 54.8C105.17 54.5867 105.49 54.3733 105.877 54.16C106.264 53.9467 106.71 53.7667 107.217 53.62C107.737 53.46 108.304 53.38 108.917 53.38C109.744 53.38 110.45 53.5267 111.037 53.82C111.637 54.1 112.097 54.4867 112.417 54.98C112.737 55.46 112.897 56 112.897 56.6C112.897 57.12 112.784 57.5733 112.557 57.96C112.344 58.3467 112.064 58.6867 111.717 58.98C111.384 59.2733 111.03 59.5267 110.657 59.74C110.297 59.94 109.97 60.1133 109.677 60.26C109.077 60.5533 108.564 60.82 108.137 61.06C107.71 61.3 107.357 61.54 107.077 61.78C106.81 62.0067 106.59 62.2467 106.417 62.5C106.257 62.7533 106.137 63.0533 106.057 63.4H113.117V65H104.217Z" fill="black"/>
<path d="M100.84 10.96H93.54V9.34H103.62L96.48 23.54H94.48L100.84 10.96ZM109.07 23.98C108.056 23.98 107.143 23.74 106.33 23.26C105.516 22.78 104.903 22.14 104.49 21.34L105.59 20.38C105.963 20.9933 106.456 21.4867 107.07 21.86C107.696 22.2333 108.37 22.42 109.09 22.42C109.703 22.42 110.25 22.2867 110.73 22.02C111.21 21.7533 111.59 21.3867 111.87 20.92C112.15 20.44 112.29 19.8933 112.29 19.28C112.29 18.68 112.15 18.1533 111.87 17.7C111.603 17.2467 111.236 16.8933 110.77 16.64C110.316 16.3867 109.803 16.26 109.23 16.26C108.656 16.26 108.116 16.3867 107.61 16.64C107.116 16.8933 106.71 17.2533 106.39 17.72H104.81L106.41 9.58H113.31V11.2H107.71L106.85 15.72C107.143 15.4133 107.51 15.1733 107.95 15C108.403 14.8133 108.903 14.72 109.45 14.72C110.33 14.72 111.116 14.9133 111.81 15.3C112.516 15.6867 113.07 16.22 113.47 16.9C113.883 17.58 114.09 18.3667 114.09 19.26C114.09 20.1933 113.863 21.0133 113.41 21.72C112.97 22.44 112.37 22.9933 111.61 23.38C110.85 23.78 110.003 23.98 109.07 23.98Z" fill="black"/>
<circle cx="100.5" cy="191.5" r="100.5" fill="#F1EADC"/>
<circle cx="101" cy="192" r="66" fill="#6E9C9F"/>
<line x1="0.5" y1="28.5" x2="0.499996" y2="177.5" stroke="black" stroke-linecap="round"/>
<line x1="201.5" y1="28.5" x2="201.5" y2="177.5" stroke="black" stroke-linecap="round"/>
<path d="M167.5 62L167.5 192" stroke="black" stroke-linecap="round"/>
<path d="M35.5 62L35.5 192" stroke="black" stroke-linecap="round"/>
<path d="M165 78L160 75.1132V80.8868L165 78ZM42 78L47 80.8868V75.1132L42 78ZM160.5 77.5L46.5 77.5V78.5L160.5 78.5V77.5Z" fill="black"/>
<path d="M195.5 33L190.5 30.1132V35.8868L195.5 33ZM7 33L12 35.8868V30.1132L7 33ZM191 32.5L11.5 32.5V33.5L191 33.5V32.5Z" fill="black"/>
<path d="M80.2 177.6L88.76 189.36L97.32 177.6H101.36L90.76 192L101.04 206H97L88.76 194.64L80.52 206H76.44L86.72 192L76.12 177.6H80.2ZM105.669 206V177.6H109.269V202.8H125.109V206H105.669Z" fill="white"/>
<path d="M162 304L159.113 309L164.887 309L162 304ZM162 332.5L164.887 327.5L159.113 327.5L162 332.5ZM161.5 308.5L161.5 328L162.5 328L162.5 308.5L161.5 308.5Z" fill="black"/>
<path d="M176.14 311H178.14V325H176.14V311ZM168.1 325H166.1V311H168.1V325ZM176.32 318.76H167.9V317.02H176.32V318.76ZM181.77 320.34V318.68H187.15V320.34H181.77ZM191.655 325V311.8L192.515 312.74H188.495V311H193.635V325H191.655ZM202.558 325.16C201.424 325.16 200.444 324.993 199.618 324.66C198.791 324.327 198.151 323.853 197.698 323.24C197.244 322.613 197.018 321.88 197.018 321.04C197.018 320.213 197.231 319.513 197.658 318.94C198.098 318.353 198.731 317.913 199.558 317.62C200.384 317.313 201.384 317.16 202.558 317.16C203.731 317.16 204.731 317.313 205.558 317.62C206.398 317.913 207.038 318.353 207.478 318.94C207.918 319.527 208.138 320.227 208.138 321.04C208.138 321.88 207.911 322.613 207.458 323.24C207.004 323.853 206.358 324.327 205.518 324.66C204.678 324.993 203.691 325.16 202.558 325.16ZM202.558 323.54C203.678 323.54 204.551 323.313 205.178 322.86C205.818 322.393 206.138 321.767 206.138 320.98C206.138 320.207 205.818 319.6 205.178 319.16C204.551 318.707 203.678 318.48 202.558 318.48C201.451 318.48 200.584 318.707 199.958 319.16C199.331 319.6 199.018 320.207 199.018 320.98C199.018 321.767 199.331 322.393 199.958 322.86C200.584 323.313 201.451 323.54 202.558 323.54ZM202.558 318.24C201.491 318.24 200.584 318.1 199.838 317.82C199.091 317.527 198.518 317.113 198.118 316.58C197.718 316.033 197.518 315.387 197.518 314.64C197.518 313.853 197.724 313.18 198.138 312.62C198.564 312.047 199.158 311.607 199.918 311.3C200.678 310.993 201.558 310.84 202.558 310.84C203.571 310.84 204.458 310.993 205.218 311.3C205.978 311.607 206.571 312.047 206.998 312.62C207.424 313.18 207.638 313.853 207.638 314.64C207.638 315.387 207.438 316.033 207.038 316.58C206.638 317.113 206.058 317.527 205.298 317.82C204.538 318.1 203.624 318.24 202.558 318.24ZM202.558 316.96C203.531 316.96 204.291 316.76 204.838 316.36C205.398 315.96 205.678 315.413 205.678 314.72C205.678 314.013 205.391 313.46 204.818 313.06C204.244 312.66 203.491 312.46 202.558 312.46C201.624 312.46 200.878 312.66 200.318 313.06C199.771 313.46 199.498 314.013 199.498 314.72C199.498 315.413 199.764 315.96 200.298 316.36C200.844 316.76 201.598 316.96 202.558 316.96Z" fill="black"/>
<rect y="302" width="155" height="31" rx="15.5" fill="#F1EADC"/>
<path d="M123 303H167" stroke="black" stroke-linecap="round"/>
<path d="M123 334H167" stroke="black" stroke-linecap="round"/>
</svg>
