<svg width="322" height="182" viewBox="0 0 322 182" fill="none" xmlns="http://www.w3.org/2000/svg">
<path d="M74.2617 5.91C76.2167 4.60667 81.2606 2 85.7962 2C90.3318 2 192.213 2.26067 242.587 2.391C245.129 2.5865 251.033 3.5249 254.317 5.7145" stroke="black"/>
<path d="M97.3301 80.7865L109.647 91.93C113.361 95.84 123.058 104.247 132.129 106.593C143.468 109.525 151.484 112.458 193.125 107.57C198.013 106.136 209.704 101.392 217.367 93.885C225.031 86.3778 230.466 81.6337 232.225 80.2M97.3301 80.7865C83.4106 68.7437 71.4589 65.6027 67.223 65.5375C58.1517 63.8171 48.846 57.3917 45.3271 54.394M97.3301 80.7865C101.245 71.9791 102.498 63.4143 101.964 55.3715M232.225 80.2C243.486 69.8633 254.512 65.9877 258.618 65.342C274.101 62.214 281.231 56.4794 282.86 54.003M232.225 80.2C229.313 74.3752 226.695 64.9336 227.207 54.003M282.86 54.003C266.907 17.249 257.184 6.75717 254.317 6.1055C234.506 21.212 227.911 39.0086 227.207 54.003M282.86 54.003C287.552 60.3894 294.355 78.8706 284.033 101.705C282.273 112.197 274.336 133.689 256.663 135.722C238.99 137.755 128.349 137.482 75.2386 137.091C68.2006 136.439 52.9125 130.952 48.0641 114.217C42.0036 93.2985 33.5971 73.7485 45.3271 54.394M45.3271 54.394C57.0571 35.0395 64.0953 12.166 74.2611 5.91C84.571 13.9556 100.451 32.565 101.964 55.3715M101.964 55.3715C124.77 50.5492 181.747 43.5242 227.207 54.003" stroke="black"/>
<path d="M45.3275 54.7848L50.8015 58.6948L57.8395 62.4093L62.9225 64.5598L68.201 65.7328C68.201 65.7328 69.9516 65.8581 74.2615 67.2968C76.7254 68.1193 80.322 69.4473 84.0365 71.4023C87.751 73.3573 88.5825 74.5895 90.488 75.8988C96.2823 79.8799 98.5035 82.3503 98.5035 82.3503L109.256 91.7343L114.73 96.8173L120.791 101.509L127.047 105.028L133.498 106.983C146.278 110.958 158.035 111.081 184.328 108.938C186.479 108.547 193.969 109.091 203.683 103.66C213.396 98.2284 227.444 85.5138 226.752 85.4783L238.482 75.1168C243.462 71.9803 248.452 68.8608 252.362 67.2968C256.272 65.7328 263.701 64.3643 265.265 63.9733C266.122 63.7591 270.607 62.3977 274.845 60.2588C278.343 58.4927 281.418 56.3297 282.86 54.1983C287.748 63.1913 290.289 70.2293 288.725 85.4783C288.013 88.2646 287.552 90.9523 286.77 93.4938C286.184 96.4263 284.663 99.0743 283.838 101.705C282.86 106.397 281.703 110.099 280.319 113.435C274.843 126.635 268.245 132.124 258.227 134.94L249.43 135.526L240.632 135.917L226.752 136.308L213.067 136.504L166.733 136.699L74.6525 136.398L70.156 135.421L65.073 133.466L61.3585 131.315L57.8395 128.774L54.3205 125.059L51.5835 121.149L49.2375 116.262L47.6735 111.179L45.132 102.772L43.177 96.1254L41.0265 87.3279L40.049 80.2899L39.8535 74.2294L40.44 68.1689L41.4175 64.0634L42.395 60.9354L43.7635 57.6119L45.3275 54.7848Z" fill="#F1EADC"/>
<path d="M74 5.99957C86.121 15.5791 99.0908 33.0786 101.241 53.6061C101.528 58.7866 101.447 61.726 100.85 66.9001L100.264 70.0281L99.2863 73.5471L97.5 79.9996L84.8193 71.2011L84.2328 71.0056L82.4733 70.0281L80.5183 69.0506L78.3678 68.0731L73.8713 66.3136L68.9838 65.1406L68.3973 64.9451H67.4198H66.8333L66.0513 64.7496L61.1094 63.1031L53 58.9996L49 56.4996L46 53.9996C49.7145 47.7436 52.5618 40.6346 55.1033 35.4246C66.8333 11.3781 69.4045 9.24388 74 5.99957Z" fill="#F1EADC"/>
<path d="M74.6523 5.88893C77.9001 4.05526 80.9083 2.78177 84.2318 2.39213C85.6003 2.19527 94.68 2.2061 107.692 2.19679C145.417 2.62845 215.608 2.5649 242.782 2.564C249.011 3.08685 252.815 4.87682 254.179 5.8706C236.331 20.9633 227.924 34.6483 226.947 53.8073C198.795 45.9873 143.859 46.1828 102.218 55.1758C99.8719 34.8438 89.3149 17.4443 74.6523 5.88893Z" fill="#F1EADC"/>
<path d="M230.467 38.3628C235.94 23.5048 241.745 16.8265 254.318 6.30077C262.19 12.0588 268.454 22.757 282.665 54.0028C277.972 59.8678 267.22 63.1913 254.122 66.3193C245.324 69.4473 239.46 73.7483 232.422 79.8088C226.947 69.6428 225.578 50.8748 230.467 38.3628Z" fill="#F1EADC"/>
<path d="M102.217 55.3742C141.158 48.8006 168.557 47.0487 199.185 49.8975C203.502 50.299 207.93 50.8604 211.893 51.4615C216.5 52.1602 221.076 53.1237 226.946 54.0024C226.946 67.1322 228.706 72.8152 232.029 80.2619C225.187 85.6734 219.713 90.9519 214.239 96.2304C210.915 98.9674 204.789 102.529 200.749 104.246C197.426 106.005 196.644 106.592 192.343 107.374C181.004 108.938 167.541 110.207 156.371 109.853C148.764 109.759 141.029 108.793 132.911 106.521C129.067 105.446 127.241 104.759 123.527 102.683C119.615 100.496 116.151 97.5999 113.165 94.8629C111.033 92.9079 109.087 91.099 107.105 89.1934C105.786 87.9248 104.395 86.7199 102.999 85.4789C101.222 83.898 99.5505 82.1016 97.5254 80.6539C101.637 70.4626 102.608 64.9765 102.217 55.3742Z" fill="#6E9C9F"/>
<path d="M100.654 71.598L105.654 74.4848V68.7113L100.654 71.598ZM227.338 71.598L222.338 68.7113V74.4848L227.338 71.598ZM105.154 72.098L222.838 72.098V71.098L105.154 71.098V72.098Z" fill="black"/>
<path d="M155.393 48.529L152.474 53.5105L158.247 53.5473L155.393 48.529ZM155.002 109.916L157.92 104.935L152.147 104.898L155.002 109.916ZM154.864 53.0257L154.53 105.413L155.53 105.419L155.864 53.0321L154.864 53.0257Z" fill="black"/>
<path d="M167.48 67.16C166.493 67.16 165.533 67.0067 164.6 66.7C163.68 66.3933 162.927 65.98 162.34 65.46L163.26 63.88C163.727 64.32 164.333 64.68 165.08 64.96C165.827 65.24 166.62 65.38 167.46 65.38C168.527 65.38 169.347 65.1533 169.92 64.7C170.493 64.2467 170.78 63.64 170.78 62.88C170.78 62.36 170.653 61.9067 170.4 61.52C170.147 61.1333 169.707 60.84 169.08 60.64C168.467 60.4267 167.62 60.32 166.54 60.32H163.36L164.1 53H172V54.74H164.84L165.88 53.76L165.3 59.54L164.26 58.58H166.96C168.36 58.58 169.487 58.76 170.34 59.12C171.193 59.48 171.813 59.98 172.2 60.62C172.587 61.2467 172.78 61.9733 172.78 62.8C172.78 63.6 172.587 64.3333 172.2 65C171.813 65.6533 171.227 66.18 170.44 66.58C169.667 66.9667 168.68 67.16 167.48 67.16ZM180.564 67.16C179.471 67.16 178.491 66.88 177.624 66.32C176.771 65.76 176.091 64.9467 175.584 63.88C175.091 62.8133 174.844 61.52 174.844 60C174.844 58.48 175.091 57.1867 175.584 56.12C176.091 55.0533 176.771 54.24 177.624 53.68C178.491 53.12 179.471 52.84 180.564 52.84C181.644 52.84 182.618 53.12 183.484 53.68C184.351 54.24 185.031 55.0533 185.524 56.12C186.018 57.1867 186.264 58.48 186.264 60C186.264 61.52 186.018 62.8133 185.524 63.88C185.031 64.9467 184.351 65.76 183.484 66.32C182.618 66.88 181.644 67.16 180.564 67.16ZM180.564 65.38C181.298 65.38 181.938 65.18 182.484 64.78C183.044 64.38 183.478 63.78 183.784 62.98C184.104 62.18 184.264 61.1867 184.264 60C184.264 58.8133 184.104 57.82 183.784 57.02C183.478 56.22 183.044 55.62 182.484 55.22C181.938 54.82 181.298 54.62 180.564 54.62C179.831 54.62 179.184 54.82 178.624 55.22C178.064 55.62 177.624 56.22 177.304 57.02C176.998 57.82 176.844 58.8133 176.844 60C176.844 61.1867 176.998 62.18 177.304 62.98C177.624 63.78 178.064 64.38 178.624 64.78C179.184 65.18 179.831 65.38 180.564 65.38ZM199.875 67.12C198.795 67.12 197.829 66.8867 196.975 66.42C196.135 65.9533 195.475 65.3133 194.995 64.5C194.515 63.6867 194.275 62.7533 194.275 61.7C194.275 60.6467 194.515 59.7133 194.995 58.9C195.475 58.0867 196.135 57.4533 196.975 57C197.829 56.5333 198.795 56.3 199.875 56.3C200.835 56.3 201.689 56.4933 202.435 56.88C203.195 57.2533 203.782 57.8133 204.195 58.56L202.735 59.5C202.389 58.98 201.962 58.6 201.455 58.36C200.962 58.1067 200.429 57.98 199.855 57.98C199.162 57.98 198.542 58.1333 197.995 58.44C197.449 58.7467 197.015 59.18 196.695 59.74C196.375 60.2867 196.215 60.94 196.215 61.7C196.215 62.46 196.375 63.12 196.695 63.68C197.015 64.24 197.449 64.6733 197.995 64.98C198.542 65.2867 199.162 65.44 199.855 65.44C200.429 65.44 200.962 65.32 201.455 65.08C201.962 64.8267 202.389 64.44 202.735 63.92L204.195 64.84C203.782 65.5733 203.195 66.14 202.435 66.54C201.689 66.9267 200.835 67.12 199.875 67.12ZM207.081 67V56.4H209.061L213.621 64.24H212.821L217.501 56.4H219.301V67H217.561V58.56L217.881 58.74L213.601 65.8H212.761L208.461 58.6L208.841 58.52V67H207.081Z" fill="black"/>
<path d="M145.38 175L151.32 161.84L151.84 162.74H143.52L144.52 161.76V165.24H142.6V161H153.16V162.36L147.5 175H145.38ZM160.643 175.16C159.549 175.16 158.569 174.88 157.702 174.32C156.849 173.76 156.169 172.947 155.662 171.88C155.169 170.813 154.922 169.52 154.922 168C154.922 166.48 155.169 165.187 155.662 164.12C156.169 163.053 156.849 162.24 157.702 161.68C158.569 161.12 159.549 160.84 160.643 160.84C161.723 160.84 162.696 161.12 163.562 161.68C164.429 162.24 165.109 163.053 165.602 164.12C166.096 165.187 166.342 166.48 166.342 168C166.342 169.52 166.096 170.813 165.602 171.88C165.109 172.947 164.429 173.76 163.562 174.32C162.696 174.88 161.723 175.16 160.643 175.16ZM160.643 173.38C161.376 173.38 162.016 173.18 162.562 172.78C163.123 172.38 163.556 171.78 163.863 170.98C164.183 170.18 164.343 169.187 164.343 168C164.343 166.813 164.183 165.82 163.863 165.02C163.556 164.22 163.123 163.62 162.562 163.22C162.016 162.82 161.376 162.62 160.643 162.62C159.909 162.62 159.262 162.82 158.702 163.22C158.142 163.62 157.702 164.22 157.382 165.02C157.076 165.82 156.922 166.813 156.922 168C156.922 169.187 157.076 170.18 157.382 170.98C157.702 171.78 158.142 172.38 158.702 172.78C159.262 173.18 159.909 173.38 160.643 173.38ZM179.953 175.12C178.873 175.12 177.907 174.887 177.053 174.42C176.213 173.953 175.553 173.313 175.073 172.5C174.593 171.687 174.353 170.753 174.353 169.7C174.353 168.647 174.593 167.713 175.073 166.9C175.553 166.087 176.213 165.453 177.053 165C177.907 164.533 178.873 164.3 179.953 164.3C180.913 164.3 181.767 164.493 182.513 164.88C183.273 165.253 183.86 165.813 184.273 166.56L182.813 167.5C182.467 166.98 182.04 166.6 181.533 166.36C181.04 166.107 180.507 165.98 179.933 165.98C179.24 165.98 178.62 166.133 178.073 166.44C177.527 166.747 177.093 167.18 176.773 167.74C176.453 168.287 176.293 168.94 176.293 169.7C176.293 170.46 176.453 171.12 176.773 171.68C177.093 172.24 177.527 172.673 178.073 172.98C178.62 173.287 179.24 173.44 179.933 173.44C180.507 173.44 181.04 173.32 181.533 173.08C182.04 172.827 182.467 172.44 182.813 171.92L184.273 172.84C183.86 173.573 183.273 174.14 182.513 174.54C181.767 174.927 180.913 175.12 179.953 175.12ZM187.159 175V164.4H189.139L193.699 172.24H192.899L197.579 164.4H199.379V175H197.639V166.56L197.959 166.74L193.679 173.8H192.839L188.539 166.6L188.919 166.52V175H187.159Z" fill="black"/>
<path d="M300.84 47.48C300.84 46.4933 300.993 45.5333 301.3 44.6C301.607 43.68 302.02 42.9267 302.54 42.34L304.12 43.26C303.68 43.7267 303.32 44.3333 303.04 45.08C302.76 45.8267 302.62 46.62 302.62 47.46C302.62 48.5267 302.847 49.3467 303.3 49.92C303.753 50.4933 304.36 50.78 305.12 50.78C305.64 50.78 306.093 50.6533 306.48 50.4C306.867 50.1467 307.16 49.7067 307.36 49.08C307.573 48.4667 307.68 47.62 307.68 46.54V43.36L315 44.1V52H313.26V44.84L314.24 45.88L308.46 45.3L309.42 44.26V46.96C309.42 48.36 309.24 49.4867 308.88 50.34C308.52 51.1933 308.02 51.8133 307.38 52.2C306.753 52.5867 306.027 52.78 305.2 52.78C304.4 52.78 303.667 52.5867 303 52.2C302.347 51.8133 301.82 51.2267 301.42 50.44C301.033 49.6667 300.84 48.68 300.84 47.48ZM300.84 59.2667C300.84 58.2801 300.993 57.3201 301.3 56.3867C301.607 55.4667 302.02 54.7134 302.54 54.1267L304.12 55.0467C303.68 55.5134 303.32 56.1201 303.04 56.8667C302.76 57.6134 302.62 58.4067 302.62 59.2467C302.62 60.3134 302.847 61.1334 303.3 61.7067C303.753 62.2801 304.36 62.5667 305.12 62.5667C305.64 62.5667 306.093 62.4401 306.48 62.1867C306.867 61.9334 307.16 61.4934 307.36 60.8667C307.573 60.2534 307.68 59.4067 307.68 58.3267V55.1467L315 55.8867V63.7867H313.26V56.6267L314.24 57.6667L308.46 57.0867L309.42 56.0467V58.7467C309.42 60.1467 309.24 61.2734 308.88 62.1267C308.52 62.9801 308.02 63.6001 307.38 63.9867C306.753 64.3734 306.027 64.5667 305.2 64.5667C304.4 64.5667 303.667 64.3734 303 63.9867C302.347 63.6001 301.82 63.0134 301.42 62.2267C301.033 61.4534 300.84 60.4667 300.84 59.2667ZM300.88 77.9222C300.88 76.8422 301.113 75.8755 301.58 75.0222C302.047 74.1822 302.687 73.5222 303.5 73.0422C304.313 72.5622 305.247 72.3222 306.3 72.3222C307.353 72.3222 308.287 72.5622 309.1 73.0422C309.913 73.5222 310.547 74.1822 311 75.0222C311.467 75.8755 311.7 76.8422 311.7 77.9222C311.7 78.8822 311.507 79.7355 311.12 80.4822C310.747 81.2422 310.187 81.8289 309.44 82.2422L308.5 80.7822C309.02 80.4355 309.4 80.0089 309.64 79.5022C309.893 79.0089 310.02 78.4755 310.02 77.9022C310.02 77.2089 309.867 76.5889 309.56 76.0422C309.253 75.4955 308.82 75.0622 308.26 74.7422C307.713 74.4222 307.06 74.2622 306.3 74.2622C305.54 74.2622 304.88 74.4222 304.32 74.7422C303.76 75.0622 303.327 75.4955 303.02 76.0422C302.713 76.5889 302.56 77.2089 302.56 77.9022C302.56 78.4755 302.68 79.0089 302.92 79.5022C303.173 80.0089 303.56 80.4355 304.08 80.7822L303.16 82.2422C302.427 81.8289 301.86 81.2422 301.46 80.4822C301.073 79.7355 300.88 78.8822 300.88 77.9222ZM301 85.128H311.6V87.108L303.76 91.668V90.868L311.6 95.548V97.348H301V95.608H309.44L309.26 95.928L302.2 91.648V90.808L309.4 86.508L309.48 86.888H301V85.128Z" fill="black"/>
<path d="M161.84 83.24C161.84 82.2533 161.993 81.2933 162.3 80.36C162.607 79.44 163.02 78.6867 163.54 78.1L165.12 79.02C164.68 79.4867 164.32 80.0933 164.04 80.84C163.76 81.5867 163.62 82.3867 163.62 83.24C163.62 84.28 163.84 85.0867 164.28 85.66C164.733 86.2467 165.34 86.54 166.1 86.54C166.833 86.54 167.42 86.26 167.86 85.7C168.313 85.1533 168.54 84.28 168.54 83.08V81.96H169.94L175.06 86.12L174.26 86.4V78.74H176V87.98H174.64L169.54 83.84L170.16 82.8V83.46C170.16 85.1533 169.78 86.42 169.02 87.26C168.26 88.1133 167.293 88.54 166.12 88.54C165.333 88.54 164.613 88.3467 163.96 87.96C163.307 87.5733 162.787 86.9867 162.4 86.2C162.027 85.4267 161.84 84.44 161.84 83.24ZM162 90.4877H163.36L168.86 96.1877C169.34 96.6943 169.76 97.0677 170.12 97.3077C170.493 97.561 170.833 97.7277 171.14 97.8077C171.46 97.901 171.767 97.9477 172.06 97.9477C172.78 97.9477 173.347 97.6943 173.76 97.1877C174.173 96.681 174.38 95.941 174.38 94.9677C174.38 94.221 174.253 93.5477 174 92.9477C173.76 92.3477 173.38 91.8277 172.86 91.3877L174.04 90.0277C174.72 90.561 175.24 91.2743 175.6 92.1677C175.973 93.0743 176.16 94.0677 176.16 95.1477C176.16 96.121 176 96.9677 175.68 97.6877C175.373 98.4077 174.927 98.961 174.34 99.3477C173.753 99.7477 173.06 99.9477 172.26 99.9477C171.807 99.9477 171.36 99.8877 170.92 99.7677C170.48 99.6477 170.013 99.421 169.52 99.0877C169.027 98.7543 168.473 98.2743 167.86 97.6477L162.96 92.5677L163.74 92.0877V100.548H162V90.4877ZM161.88 113.883C161.88 112.803 162.113 111.836 162.58 110.983C163.047 110.143 163.687 109.483 164.5 109.003C165.313 108.523 166.247 108.283 167.3 108.283C168.353 108.283 169.287 108.523 170.1 109.003C170.913 109.483 171.547 110.143 172 110.983C172.467 111.836 172.7 112.803 172.7 113.883C172.7 114.843 172.507 115.696 172.12 116.443C171.747 117.203 171.187 117.79 170.44 118.203L169.5 116.743C170.02 116.396 170.4 115.97 170.64 115.463C170.893 114.97 171.02 114.436 171.02 113.863C171.02 113.17 170.867 112.55 170.56 112.003C170.253 111.456 169.82 111.023 169.26 110.703C168.713 110.383 168.06 110.223 167.3 110.223C166.54 110.223 165.88 110.383 165.32 110.703C164.76 111.023 164.327 111.456 164.02 112.003C163.713 112.55 163.56 113.17 163.56 113.863C163.56 114.436 163.68 114.97 163.92 115.463C164.173 115.97 164.56 116.396 165.08 116.743L164.16 118.203C163.427 117.79 162.86 117.203 162.46 116.443C162.073 115.696 161.88 114.843 161.88 113.883ZM162 121.089H172.6V123.069L164.76 127.629V126.829L172.6 131.509V133.309H162V131.569H170.44L170.26 131.889L163.2 127.609V126.769L170.4 122.469L170.48 122.849H162V121.089Z" fill="black"/>
<path d="M39 153.5L44 156.387L44 150.613L39 153.5ZM289 153.5L284 150.613L284 156.387L289 153.5ZM43.5 154L284.5 154L284.5 153L43.5 153L43.5 154Z" fill="black"/>
<path d="M294 0L291.113 5L296.887 5L294 0ZM294 135L296.887 130L291.113 130L294 135ZM293.5 4.5L293.5 130.5L294.5 130.5L294.5 4.5L293.5 4.5Z" fill="black"/>
<path d="M3 110L0.227601 115.064L5.99961 114.933L3 110ZM4 154L6.7724 148.936L1.00039 149.067L4 154ZM2.60238 114.51L3.39788 149.513L4.39762 149.49L3.60212 114.487L2.60238 114.51Z" fill="black"/>
<path d="M16.14 125H18.14V139H16.14V125ZM8.1 139H6.1L6.1 125H8.1L8.1 139ZM16.32 132.76H7.9V131.02H16.32V132.76ZM21.7705 134.34V132.68H27.1505V134.34H21.7705ZM31.6552 139L31.6552 125.8L32.5152 126.74H28.4952V125H33.6352V139H31.6552ZM41.3775 139.16C40.3908 139.16 39.4308 139.007 38.4975 138.7C37.5775 138.393 36.8242 137.98 36.2375 137.46L37.1575 135.88C37.6242 136.32 38.2308 136.68 38.9775 136.96C39.7242 137.24 40.5242 137.38 41.3775 137.38C42.4175 137.38 43.2242 137.16 43.7975 136.72C44.3842 136.267 44.6775 135.66 44.6775 134.9C44.6775 134.167 44.3975 133.58 43.8375 133.14C43.2908 132.687 42.4175 132.46 41.2175 132.46H40.0975V131.06L44.2575 125.94L44.5375 126.74H36.8775V125H46.1175V126.36L41.9775 131.46L40.9375 130.84H41.5975C43.2908 130.84 44.5575 131.22 45.3975 131.98C46.2508 132.74 46.6775 133.707 46.6775 134.88C46.6775 135.667 46.4842 136.387 46.0975 137.04C45.7108 137.693 45.1242 138.213 44.3375 138.6C43.5642 138.973 42.5775 139.16 41.3775 139.16Z" fill="black"/>
<path d="M98.445 130V100.19L85.575 123.125H82.55L69.625 100.19V130H64.675V90.95H69.9L84.035 116.305L98.225 90.95H103.395V130H98.445Z" fill="#6E9C9F"/>
</svg>
