<svg width="322" height="182" viewBox="0 0 322 182" fill="none" xmlns="http://www.w3.org/2000/svg">
<path d="M74.2617 5.91C76.2167 4.60667 81.2606 2 85.7962 2C90.3318 2 192.213 2.26067 242.587 2.391C245.129 2.5865 251.033 3.5249 254.317 5.7145" stroke="black"/>
<path d="M97.3301 80.7865L109.647 91.93C113.361 95.84 123.058 104.247 132.129 106.593C143.468 109.525 151.484 112.458 193.125 107.57C198.013 106.136 209.704 101.392 217.367 93.885C225.031 86.3778 230.466 81.6337 232.225 80.2M97.3301 80.7865C83.4106 68.7437 71.4589 65.6027 67.223 65.5375C58.1517 63.8171 48.846 57.3917 45.3271 54.394M97.3301 80.7865C101.245 71.9791 102.498 63.4143 101.964 55.3715M232.225 80.2C243.486 69.8633 254.512 65.9877 258.618 65.342C274.101 62.214 281.231 56.4794 282.86 54.003M232.225 80.2C229.313 74.3752 226.695 64.9336 227.207 54.003M282.86 54.003C266.907 17.249 257.184 6.75717 254.317 6.1055C234.506 21.212 227.911 39.0086 227.207 54.003M282.86 54.003C287.552 60.3894 294.355 78.8706 284.033 101.705C282.273 112.197 274.336 133.689 256.663 135.722C238.99 137.755 128.349 137.482 75.2386 137.091C68.2006 136.439 52.9125 130.952 48.0641 114.217C42.0036 93.2985 33.5971 73.7485 45.3271 54.394M45.3271 54.394C57.0571 35.0395 64.0953 12.166 74.2611 5.91C84.571 13.9556 100.451 32.565 101.964 55.3715M101.964 55.3715C124.77 50.5492 181.747 43.5242 227.207 54.003" stroke="black"/>
<path d="M45.3275 54.7848L50.8015 58.6948L57.8395 62.4093L62.9225 64.5598L68.201 65.7328C68.201 65.7328 69.9516 65.8581 74.2615 67.2968C76.7254 68.1193 80.322 69.4473 84.0365 71.4023C87.751 73.3573 88.5825 74.5895 90.488 75.8988C96.2823 79.8799 98.5035 82.3503 98.5035 82.3503L109.256 91.7343L114.73 96.8173L120.791 101.509L127.047 105.028L133.498 106.983C146.278 110.958 158.035 111.081 184.328 108.938C186.479 108.547 193.969 109.091 203.683 103.66C213.396 98.2284 227.444 85.5138 226.752 85.4783L238.482 75.1168C243.462 71.9803 248.452 68.8608 252.362 67.2968C256.272 65.7328 263.701 64.3643 265.265 63.9733C266.122 63.7591 270.607 62.3977 274.845 60.2588C278.343 58.4927 281.418 56.3297 282.86 54.1983C287.748 63.1913 290.289 70.2293 288.725 85.4783C288.013 88.2646 287.552 90.9523 286.77 93.4938C286.184 96.4263 284.663 99.0743 283.838 101.705C282.86 106.397 281.703 110.099 280.319 113.435C274.843 126.635 268.245 132.124 258.227 134.94L249.43 135.526L240.632 135.917L226.752 136.308L213.067 136.504L166.733 136.699L74.6525 136.398L70.156 135.421L65.073 133.466L61.3585 131.315L57.8395 128.774L54.3205 125.059L51.5835 121.149L49.2375 116.262L47.6735 111.179L45.132 102.772L43.177 96.1254L41.0265 87.3279L40.049 80.2899L39.8535 74.2294L40.44 68.1689L41.4175 64.0634L42.395 60.9354L43.7635 57.6119L45.3275 54.7848Z" fill="#F1EADC"/>
<path d="M74 5.99957C86.121 15.5791 99.0908 33.0786 101.241 53.6061C101.528 58.7866 101.447 61.726 100.85 66.9001L100.264 70.0281L99.2863 73.5471L97.5 79.9996L84.8193 71.2011L84.2328 71.0056L82.4733 70.0281L80.5183 69.0506L78.3678 68.0731L73.8713 66.3136L68.9838 65.1406L68.3973 64.9451H67.4198H66.8333L66.0513 64.7496L61.1094 63.1031L53 58.9996L49 56.4996L46 53.9996C49.7145 47.7436 52.5618 40.6346 55.1033 35.4246C66.8333 11.3781 69.4045 9.24388 74 5.99957Z" fill="#F1EADC"/>
<path d="M74.6523 5.88893C77.9001 4.05526 80.9083 2.78177 84.2318 2.39213C85.6003 2.19527 94.68 2.2061 107.692 2.19679C145.417 2.62845 215.608 2.5649 242.782 2.564C249.011 3.08685 252.815 4.87682 254.179 5.8706C236.331 20.9633 227.924 34.6483 226.947 53.8073C198.795 45.9873 143.859 46.1828 102.218 55.1758C99.8719 34.8438 89.3149 17.4443 74.6523 5.88893Z" fill="#F1EADC"/>
<path d="M230.467 38.3628C235.94 23.5048 241.745 16.8265 254.318 6.30077C262.19 12.0588 268.454 22.757 282.665 54.0028C277.972 59.8678 267.22 63.1913 254.122 66.3193C245.324 69.4473 239.46 73.7483 232.422 79.8088C226.947 69.6428 225.578 50.8748 230.467 38.3628Z" fill="#F1EADC"/>
<path d="M102.217 55.3742C141.158 48.8006 168.557 47.0487 199.185 49.8975C203.502 50.299 207.93 50.8604 211.893 51.4615C216.5 52.1602 221.076 53.1237 226.946 54.0024C226.946 67.1322 228.706 72.8152 232.029 80.2619C225.187 85.6734 219.713 90.9519 214.239 96.2304C210.915 98.9674 204.789 102.529 200.749 104.246C197.426 106.005 196.644 106.592 192.343 107.374C181.004 108.938 167.541 110.207 156.371 109.853C148.764 109.759 141.029 108.793 132.911 106.521C129.067 105.446 127.241 104.759 123.527 102.683C119.615 100.496 116.151 97.5999 113.165 94.8629C111.033 92.9079 109.087 91.099 107.105 89.1934C105.786 87.9248 104.395 86.7199 102.999 85.4789C101.222 83.898 99.5505 82.1016 97.5254 80.6539C101.637 70.4626 102.608 64.9765 102.217 55.3742Z" fill="#6E9C9F"/>
<path d="M100.654 71.598L105.654 74.4848V68.7113L100.654 71.598ZM227.338 71.598L222.338 68.7113V74.4848L227.338 71.598ZM105.154 72.098L222.838 72.098V71.098L105.154 71.098V72.098Z" fill="black"/>
<path d="M155.393 48.529L152.474 53.5105L158.247 53.5473L155.393 48.529ZM155.002 109.916L157.92 104.935L152.147 104.898L155.002 109.916ZM154.864 53.0257L154.53 105.413L155.53 105.419L155.864 53.0321L154.864 53.0257Z" fill="black"/>
<path d="M167.38 65L173.32 51.84L173.84 52.74H165.52L166.52 51.76V55.24H164.6V51H175.16V52.36L169.5 65H167.38ZM182.643 65.16C181.549 65.16 180.569 64.88 179.702 64.32C178.849 63.76 178.169 62.9467 177.662 61.88C177.169 60.8133 176.922 59.52 176.922 58C176.922 56.48 177.169 55.1867 177.662 54.12C178.169 53.0533 178.849 52.24 179.702 51.68C180.569 51.12 181.549 50.84 182.643 50.84C183.723 50.84 184.696 51.12 185.562 51.68C186.429 52.24 187.109 53.0533 187.602 54.12C188.096 55.1867 188.342 56.48 188.342 58C188.342 59.52 188.096 60.8133 187.602 61.88C187.109 62.9467 186.429 63.76 185.562 64.32C184.696 64.88 183.723 65.16 182.643 65.16ZM182.643 63.38C183.376 63.38 184.016 63.18 184.562 62.78C185.123 62.38 185.556 61.78 185.863 60.98C186.183 60.18 186.343 59.1867 186.343 58C186.343 56.8133 186.183 55.82 185.863 55.02C185.556 54.22 185.123 53.62 184.562 53.22C184.016 52.82 183.376 52.62 182.643 52.62C181.909 52.62 181.262 52.82 180.702 53.22C180.142 53.62 179.702 54.22 179.382 55.02C179.076 55.82 178.922 56.8133 178.922 58C178.922 59.1867 179.076 60.18 179.382 60.98C179.702 61.78 180.142 62.38 180.702 62.78C181.262 63.18 181.909 63.38 182.643 63.38ZM201.953 65.12C200.873 65.12 199.907 64.8867 199.053 64.42C198.213 63.9533 197.553 63.3133 197.073 62.5C196.593 61.6867 196.353 60.7533 196.353 59.7C196.353 58.6467 196.593 57.7133 197.073 56.9C197.553 56.0867 198.213 55.4533 199.053 55C199.907 54.5333 200.873 54.3 201.953 54.3C202.913 54.3 203.767 54.4933 204.513 54.88C205.273 55.2533 205.86 55.8133 206.273 56.56L204.813 57.5C204.467 56.98 204.04 56.6 203.533 56.36C203.04 56.1067 202.507 55.98 201.933 55.98C201.24 55.98 200.62 56.1333 200.073 56.44C199.527 56.7467 199.093 57.18 198.773 57.74C198.453 58.2867 198.293 58.94 198.293 59.7C198.293 60.46 198.453 61.12 198.773 61.68C199.093 62.24 199.527 62.6733 200.073 62.98C200.62 63.2867 201.24 63.44 201.933 63.44C202.507 63.44 203.04 63.32 203.533 63.08C204.04 62.8267 204.467 62.44 204.813 61.92L206.273 62.84C205.86 63.5733 205.273 64.14 204.513 64.54C203.767 64.9267 202.913 65.12 201.953 65.12ZM209.159 65V54.4H211.139L215.699 62.24H214.899L219.579 54.4H221.379V65H219.639V56.56L219.959 56.74L215.679 63.8H214.839L210.539 56.6L210.919 56.52V65H209.159Z" fill="black"/>
<path d="M147.5 160.84C148.767 160.84 149.833 161.113 150.7 161.66C151.58 162.207 152.247 163 152.7 164.04C153.153 165.067 153.38 166.327 153.38 167.82C153.38 169.407 153.1 170.747 152.54 171.84C151.98 172.933 151.207 173.76 150.22 174.32C149.233 174.88 148.08 175.16 146.76 175.16C146.107 175.16 145.473 175.093 144.86 174.96C144.26 174.827 143.733 174.62 143.28 174.34L144.04 172.78C144.413 173.02 144.827 173.193 145.28 173.3C145.747 173.393 146.233 173.44 146.74 173.44C148.153 173.44 149.28 173 150.12 172.12C150.96 171.227 151.38 169.907 151.38 168.16C151.38 167.88 151.367 167.547 151.34 167.16C151.313 166.773 151.253 166.393 151.16 166.02L151.82 166.7C151.633 167.313 151.32 167.833 150.88 168.26C150.453 168.673 149.933 168.987 149.32 169.2C148.72 169.4 148.06 169.5 147.34 169.5C146.42 169.5 145.6 169.327 144.88 168.98C144.16 168.633 143.593 168.147 143.18 167.52C142.767 166.88 142.56 166.127 142.56 165.26C142.56 164.353 142.773 163.573 143.2 162.92C143.64 162.253 144.233 161.74 144.98 161.38C145.74 161.02 146.58 160.84 147.5 160.84ZM147.58 162.46C146.98 162.46 146.447 162.573 145.98 162.8C145.513 163.027 145.147 163.34 144.88 163.74C144.627 164.14 144.5 164.62 144.5 165.18C144.5 166.007 144.787 166.667 145.36 167.16C145.933 167.64 146.707 167.88 147.68 167.88C148.32 167.88 148.88 167.76 149.36 167.52C149.853 167.28 150.233 166.953 150.5 166.54C150.78 166.127 150.92 165.667 150.92 165.16C150.92 164.667 150.793 164.22 150.54 163.82C150.287 163.42 149.913 163.093 149.42 162.84C148.927 162.587 148.313 162.46 147.58 162.46ZM161.424 175.16C160.33 175.16 159.35 174.88 158.484 174.32C157.63 173.76 156.95 172.947 156.444 171.88C155.95 170.813 155.704 169.52 155.704 168C155.704 166.48 155.95 165.187 156.444 164.12C156.95 163.053 157.63 162.24 158.484 161.68C159.35 161.12 160.33 160.84 161.424 160.84C162.504 160.84 163.477 161.12 164.344 161.68C165.21 162.24 165.89 163.053 166.384 164.12C166.877 165.187 167.124 166.48 167.124 168C167.124 169.52 166.877 170.813 166.384 171.88C165.89 172.947 165.21 173.76 164.344 174.32C163.477 174.88 162.504 175.16 161.424 175.16ZM161.424 173.38C162.157 173.38 162.797 173.18 163.344 172.78C163.904 172.38 164.337 171.78 164.644 170.98C164.964 170.18 165.124 169.187 165.124 168C165.124 166.813 164.964 165.82 164.644 165.02C164.337 164.22 163.904 163.62 163.344 163.22C162.797 162.82 162.157 162.62 161.424 162.62C160.69 162.62 160.044 162.82 159.484 163.22C158.924 163.62 158.484 164.22 158.164 165.02C157.857 165.82 157.704 166.813 157.704 168C157.704 169.187 157.857 170.18 158.164 170.98C158.484 171.78 158.924 172.38 159.484 172.78C160.044 173.18 160.69 173.38 161.424 173.38ZM180.735 175.12C179.655 175.12 178.688 174.887 177.835 174.42C176.995 173.953 176.335 173.313 175.855 172.5C175.375 171.687 175.135 170.753 175.135 169.7C175.135 168.647 175.375 167.713 175.855 166.9C176.335 166.087 176.995 165.453 177.835 165C178.688 164.533 179.655 164.3 180.735 164.3C181.695 164.3 182.548 164.493 183.295 164.88C184.055 165.253 184.641 165.813 185.055 166.56L183.595 167.5C183.248 166.98 182.821 166.6 182.315 166.36C181.821 166.107 181.288 165.98 180.715 165.98C180.021 165.98 179.401 166.133 178.855 166.44C178.308 166.747 177.875 167.18 177.555 167.74C177.235 168.287 177.075 168.94 177.075 169.7C177.075 170.46 177.235 171.12 177.555 171.68C177.875 172.24 178.308 172.673 178.855 172.98C179.401 173.287 180.021 173.44 180.715 173.44C181.288 173.44 181.821 173.32 182.315 173.08C182.821 172.827 183.248 172.44 183.595 171.92L185.055 172.84C184.641 173.573 184.055 174.14 183.295 174.54C182.548 174.927 181.695 175.12 180.735 175.12ZM187.94 175V164.4H189.92L194.48 172.24H193.68L198.36 164.4H200.16V175H198.42V166.56L198.74 166.74L194.46 173.8H193.62L189.32 166.6L189.7 166.52V175H187.94Z" fill="black"/>
<path d="M300.84 48.84C300.84 47.6 301.113 46.54 301.66 45.66C302.207 44.78 302.993 44.1067 304.02 43.64C305.06 43.1867 306.327 42.96 307.82 42.96C309.407 42.96 310.747 43.24 311.84 43.8C312.933 44.36 313.76 45.14 314.32 46.14C314.88 47.14 315.16 48.2867 315.16 49.58C315.16 50.2467 315.093 50.88 314.96 51.48C314.827 52.0933 314.62 52.62 314.34 53.06L312.78 52.3C313.033 51.94 313.207 51.5267 313.3 51.06C313.393 50.6067 313.44 50.1267 313.44 49.62C313.44 48.1933 312.993 47.06 312.1 46.22C311.22 45.38 309.907 44.96 308.16 44.96C307.88 44.96 307.547 44.9733 307.16 45C306.773 45.0267 306.393 45.0933 306.02 45.2L306.7 44.52C307.313 44.72 307.827 45.0333 308.24 45.46C308.667 45.9 308.98 46.42 309.18 47.02C309.393 47.6333 309.5 48.2933 309.5 49C309.5 49.9333 309.327 50.76 308.98 51.48C308.633 52.2 308.14 52.7667 307.5 53.18C306.873 53.5933 306.127 53.8 305.26 53.8C304.367 53.8 303.587 53.58 302.92 53.14C302.253 52.7 301.74 52.1067 301.38 51.36C301.02 50.6133 300.84 49.7733 300.84 48.84ZM302.46 48.76C302.46 49.3733 302.573 49.9067 302.8 50.36C303.027 50.8267 303.34 51.1933 303.74 51.46C304.153 51.7267 304.633 51.86 305.18 51.86C306.007 51.86 306.66 51.5733 307.14 51C307.633 50.4267 307.88 49.6467 307.88 48.66C307.88 48.02 307.76 47.46 307.52 46.98C307.28 46.5 306.953 46.12 306.54 45.84C306.14 45.5733 305.68 45.44 305.16 45.44C304.68 45.44 304.233 45.5667 303.82 45.82C303.42 46.0733 303.093 46.4467 302.84 46.94C302.587 47.4333 302.46 48.04 302.46 48.76ZM300.84 60.2237C300.84 59.2371 300.993 58.2771 301.3 57.3437C301.607 56.4237 302.02 55.6704 302.54 55.0837L304.12 56.0037C303.68 56.4704 303.32 57.0771 303.04 57.8237C302.76 58.5704 302.62 59.3637 302.62 60.2037C302.62 61.2704 302.847 62.0904 303.3 62.6638C303.753 63.2371 304.36 63.5237 305.12 63.5237C305.64 63.5237 306.093 63.3971 306.48 63.1437C306.867 62.8904 307.16 62.4504 307.36 61.8237C307.573 61.2104 307.68 60.3638 307.68 59.2837V56.1037L315 56.8437V64.7437H313.26V57.5837L314.24 58.6237L308.46 58.0437L309.42 57.0037V59.7037C309.42 61.1037 309.24 62.2304 308.88 63.0838C308.52 63.9371 308.02 64.5571 307.38 64.9438C306.753 65.3304 306.027 65.5238 305.2 65.5238C304.4 65.5238 303.667 65.3304 303 64.9438C302.347 64.5571 301.82 63.9704 301.42 63.1838C301.033 62.4104 300.84 61.4238 300.84 60.2237ZM300.88 78.8792C300.88 77.7992 301.113 76.8326 301.58 75.9792C302.047 75.1392 302.687 74.4792 303.5 73.9992C304.313 73.5192 305.247 73.2792 306.3 73.2792C307.353 73.2792 308.287 73.5192 309.1 73.9992C309.913 74.4792 310.547 75.1392 311 75.9792C311.467 76.8326 311.7 77.7992 311.7 78.8792C311.7 79.8392 311.507 80.6926 311.12 81.4392C310.747 82.1992 310.187 82.7859 309.44 83.1992L308.5 81.7392C309.02 81.3926 309.4 80.9659 309.64 80.4592C309.893 79.9659 310.02 79.4326 310.02 78.8592C310.02 78.1659 309.867 77.5459 309.56 76.9992C309.253 76.4526 308.82 76.0192 308.26 75.6992C307.713 75.3792 307.06 75.2192 306.3 75.2192C305.54 75.2192 304.88 75.3792 304.32 75.6992C303.76 76.0192 303.327 76.4526 303.02 76.9992C302.713 77.5459 302.56 78.1659 302.56 78.8592C302.56 79.4326 302.68 79.9659 302.92 80.4592C303.173 80.9659 303.56 81.3926 304.08 81.7392L303.16 83.1992C302.427 82.7859 301.86 82.1992 301.46 81.4392C301.073 80.6926 300.88 79.8392 300.88 78.8792ZM301 86.085H311.6V88.065L303.76 92.625V91.825L311.6 96.505V98.305H301V96.565H309.44L309.26 96.885L302.2 92.605V91.765L309.4 87.465L309.48 87.845H301V86.085Z" fill="black"/>
<path d="M161.84 83.48C161.84 82.4933 161.993 81.5333 162.3 80.6C162.607 79.68 163.02 78.9267 163.54 78.34L165.12 79.26C164.68 79.7267 164.32 80.3333 164.04 81.08C163.76 81.8267 163.62 82.62 163.62 83.46C163.62 84.5267 163.847 85.3467 164.3 85.92C164.753 86.4933 165.36 86.78 166.12 86.78C166.64 86.78 167.093 86.6533 167.48 86.4C167.867 86.1467 168.16 85.7067 168.36 85.08C168.573 84.4667 168.68 83.62 168.68 82.54V79.36L176 80.1V88H174.26V80.84L175.24 81.88L169.46 81.3L170.42 80.26V82.96C170.42 84.36 170.24 85.4867 169.88 86.34C169.52 87.1933 169.02 87.8133 168.38 88.2C167.753 88.5867 167.027 88.78 166.2 88.78C165.4 88.78 164.667 88.5867 164 88.2C163.347 87.8133 162.82 87.2267 162.42 86.44C162.033 85.6667 161.84 84.68 161.84 83.48ZM162 90.5267H163.36L168.86 96.2267C169.34 96.7334 169.76 97.1067 170.12 97.3467C170.493 97.6001 170.833 97.7667 171.14 97.8467C171.46 97.9401 171.767 97.9867 172.06 97.9867C172.78 97.9867 173.347 97.7334 173.76 97.2267C174.173 96.7201 174.38 95.9801 174.38 95.0067C174.38 94.2601 174.253 93.5867 174 92.9867C173.76 92.3867 173.38 91.8667 172.86 91.4267L174.04 90.0667C174.72 90.6001 175.24 91.3134 175.6 92.2067C175.973 93.1134 176.16 94.1067 176.16 95.1867C176.16 96.1601 176 97.0067 175.68 97.7267C175.373 98.4467 174.927 99.0001 174.34 99.3867C173.753 99.7867 173.06 99.9867 172.26 99.9867C171.807 99.9867 171.36 99.9267 170.92 99.8067C170.48 99.6867 170.013 99.4601 169.52 99.1267C169.027 98.7934 168.473 98.3134 167.86 97.6867L162.96 92.6067L163.74 92.1267V100.587H162V90.5267ZM161.88 113.922C161.88 112.842 162.113 111.876 162.58 111.022C163.047 110.182 163.687 109.522 164.5 109.042C165.313 108.562 166.247 108.322 167.3 108.322C168.353 108.322 169.287 108.562 170.1 109.042C170.913 109.522 171.547 110.182 172 111.022C172.467 111.876 172.7 112.842 172.7 113.922C172.7 114.882 172.507 115.736 172.12 116.482C171.747 117.242 171.187 117.829 170.44 118.242L169.5 116.782C170.02 116.436 170.4 116.009 170.64 115.502C170.893 115.009 171.02 114.476 171.02 113.902C171.02 113.209 170.867 112.589 170.56 112.042C170.253 111.496 169.82 111.062 169.26 110.742C168.713 110.422 168.06 110.262 167.3 110.262C166.54 110.262 165.88 110.422 165.32 110.742C164.76 111.062 164.327 111.496 164.02 112.042C163.713 112.589 163.56 113.209 163.56 113.902C163.56 114.476 163.68 115.009 163.92 115.502C164.173 116.009 164.56 116.436 165.08 116.782L164.16 118.242C163.427 117.829 162.86 117.242 162.46 116.482C162.073 115.736 161.88 114.882 161.88 113.922ZM162 121.128H172.6V123.108L164.76 127.668V126.868L172.6 131.548V133.348H162V131.608H170.44L170.26 131.928L163.2 127.648V126.808L170.4 122.508L170.48 122.888H162V121.128Z" fill="black"/>
<path d="M39 153.5L44 156.387L44 150.613L39 153.5ZM289 153.5L284 150.613L284 156.387L289 153.5ZM43.5 154L284.5 154L284.5 153L43.5 153L43.5 154Z" fill="black"/>
<path d="M294 0L291.113 5L296.887 5L294 0ZM294 135L296.887 130L291.113 130L294 135ZM293.5 4.5L293.5 130.5L294.5 130.5L294.5 4.5L293.5 4.5Z" fill="black"/>
<path d="M3 110L0.227601 115.064L5.99961 114.933L3 110ZM4 154L6.7724 148.936L1.00039 149.067L4 154ZM2.60238 114.51L3.39788 149.513L4.39762 149.49L3.60212 114.487L2.60238 114.51Z" fill="black"/>
<path d="M16.14 125H18.14V139H16.14V125ZM8.1 139H6.1L6.1 125H8.1L8.1 139ZM16.32 132.76H7.9V131.02H16.32V132.76ZM21.7705 134.34V132.68H27.1505V134.34H21.7705ZM31.6552 139L31.6552 125.8L32.5152 126.74H28.4952V125H33.6352V139H31.6552ZM36.8975 135.56V134.16L44.0575 125H46.2175L39.1175 134.16L38.0975 133.84H49.2775V135.56H36.8975ZM44.6775 139V135.56L44.7375 133.84V130.8H46.6175V139H44.6775Z" fill="black"/>
<path d="M64.775 89.95L76.545 106.12L88.315 89.95H93.87L79.295 109.75L93.43 129H87.875L76.545 113.38L65.215 129H59.605L73.74 109.75L59.165 89.95H64.775ZM99.7945 129V89.95H104.745V124.6H126.525V129H99.7945Z" fill="#6E9C9F"/>
</svg>
